<svg xmlns="http://www.w3.org/2000/svg" width="10" height="15" viewBox="0 0 10 15">
  <path fill="#FD9369" fill-rule="evenodd" d="M1.42736826,12.1794738 L6.82222222,8.13333333 C6.89586019,8.07810486 6.91078403,7.97363797 6.85555556,7.9 C6.84607985,7.88736572 6.8348565,7.87614237 6.82222222,7.86666667 L1.42736826,3.8205262 C1.15305519,3.61479139 0.968547352,3.31128411 0.912176363,2.97305818 L0.627657353,1.26594412 C0.600418837,1.10251302 0.710824738,0.947944761 0.874255834,0.920706245 C0.957676368,0.906802822 1.04309033,0.928755521 1.10946882,0.981159592 L9.83430253,7.86918621 C9.90654899,7.92622289 9.91887896,8.03102758 9.86184227,8.10327405 C9.85377018,8.1134987 9.84452717,8.1227417 9.83430253,8.13081379 L1.10946882,15.0188404 C0.979425182,15.1215064 0.790776728,15.0993125 0.6881107,14.9692689 C0.63570663,14.9028904 0.613753931,14.8174764 0.627657353,14.7340559 L0.912176363,13.0269418 C0.968547352,12.6887159 1.15305519,12.3852086 1.42736826,12.1794738 Z"/>
</svg>
