<svg xmlns="http://www.w3.org/2000/svg" viewBox="0 0 35 30" width="35" height="30"><g fill-rule="evenodd"><path class="path1" d="M24.198.355c-.526-.264-.957.003-.957.595v23.548l9.605 4.831c1.057.532 1.914.16 1.914-.83V5.822a.252.252 0 0 0-.138-.225L24.198.355"/><path class="path2" d="M11.723 18.704L22.681.791a1.19 1.19 0 0 1 1.517-.436l10.436 5.25a.13.13 0 0 1 .052.183l-11.445 18.71-11.518-5.794"/><path class="path3" d="M1.8.676C.921.235.624.561 1.138 1.402l10.584 17.302 11.518 5.794-11.493-18.79a.166.166 0 0 0-.068-.061L1.8.677"/><path class="path4" d="M11.723 28.498c0 .987-.718 1.433-1.595.992l-8.967-4.51c-.526-.265-.957-.966-.957-1.558V1.309C.204.52.78.163 1.48.516l10.18 5.12c.039.02.063.059.063.101v22.761"/></g></svg>