<svg xmlns="http://www.w3.org/2000/svg" viewBox="0 0 36 31" width="36" height="31"><path fill-rule="evenodd" d="M23.355 20.078c-1.345 0-2.476-1.082-2.476-2.415s1.13-2.45 2.476-2.45c1.345 0 2.437 1.117 2.437 2.45a2.426 2.426 0 01-2.437 2.415m.571 4.686c-1.253 1.24-3.186 1.844-5.908 1.844l-.02-.001h-.018c-2.723 0-4.654-.602-5.907-1.843a.967.967 0 010-1.378.99.99 0 011.391 0c.864.856 2.341 1.273 4.516 1.273l.019.001h.019c2.175 0 3.653-.418 4.518-1.274a.99.99 0 011.39 0 .969.969 0 010 1.378m-13.718-7.1c0-1.333 1.129-2.451 2.473-2.451 1.345 0 2.437 1.118 2.437 2.45a2.426 2.426 0 01-2.437 2.415c-1.344 0-2.473-1.082-2.473-2.415M29.997 2.282c.911 0 1.653.735 1.653 1.636 0 .903-.742 1.638-1.653 1.638a1.647 1.647 0 01-1.653-1.638c0-.901.742-1.636 1.653-1.636M36 15.012c0-2.365-1.94-4.288-4.327-4.288a4.327 4.327 0 00-2.726.962c-2.638-1.643-5.986-2.633-9.574-2.843l1.872-5.864 5.144 1.2c.135 1.856 1.701 3.325 3.608 3.325 1.995 0 3.618-1.608 3.618-3.586 0-1.976-1.623-3.585-3.618-3.585a3.627 3.627 0 00-3.212 1.937L20.807.875a.983.983 0 00-1.162.654L17.32 8.81c-3.867.093-7.502 1.087-10.334 2.826a4.33 4.33 0 00-2.66-.911C1.94 10.724 0 12.647 0 15.01a4.27 4.27 0 001.873 3.527c-.047.34-.072.682-.072 1.03 0 2.954 1.734 5.703 4.882 7.739 3.017 1.952 7.01 3.026 11.244 3.026 4.233 0 8.227-1.074 11.244-3.026 3.148-2.036 4.882-4.785 4.882-7.74 0-.315-.022-.629-.061-.94A4.277 4.277 0 0036 15.011"/></svg>