<?xml version="1.0" encoding="UTF-8"?>
<svg width="309px" height="202px" viewBox="0 0 309 202" version="1.1" xmlns="http://www.w3.org/2000/svg" xmlns:xlink="http://www.w3.org/1999/xlink">
    <!-- Generator: Sketch 64 (93537) - https://sketch.com -->
    <title>Group 4</title>
    <desc>Created with Sketch.</desc>
    <defs>
        <rect id="path-1" x="0" y="0" width="251.856" height="144.144" rx="8.712"></rect>
        <filter x="-20.1%" y="-25.3%" width="140.1%" height="170.1%" filterUnits="objectBoundingBox" id="filter-3">
            <feOffset dx="0" dy="14" in="SourceAlpha" result="shadowOffsetOuter1"></feOffset>
            <feGaussianBlur stdDeviation="14.5" in="shadowOffsetOuter1" result="shadowBlurOuter1"></feGaussianBlur>
            <feColorMatrix values="0 0 0 0 0   0 0 0 0 0   0 0 0 0 0  0 0 0 0.15939139 0" type="matrix" in="shadowBlurOuter1"></feColorMatrix>
        </filter>
        <linearGradient x1="100.613647%" y1="44.023168%" x2="1.11914667%" y2="46.6669969%" id="linearGradient-4">
            <stop stop-color="#B0A5C2" offset="0%"></stop>
            <stop stop-color="#EFEAF6" offset="1.90383866%"></stop>
            <stop stop-color="#EFEAF6" offset="54.7581512%"></stop>
            <stop stop-color="#BAB0CA" offset="58.7916504%"></stop>
            <stop stop-color="#B7ADC7" offset="98.7629126%"></stop>
            <stop stop-color="#A09AA9" offset="99.9049831%"></stop>
        </linearGradient>
        <linearGradient x1="24.0262926%" y1="48.8070772%" x2="28.1749597%" y2="36.4528393%" id="linearGradient-5">
            <stop stop-color="#D5CCE2" offset="0.0897381757%"></stop>
            <stop stop-color="#E4DDEE" offset="100%"></stop>
        </linearGradient>
        <linearGradient x1="10.6887327%" y1="82.8702262%" x2="101.80703%" y2="20.2661662%" id="linearGradient-6">
            <stop stop-color="#E2DBEC" offset="0%"></stop>
            <stop stop-color="#F0ECF5" offset="100%"></stop>
        </linearGradient>
        <linearGradient x1="10.7777986%" y1="56.1666773%" x2="88.8053%" y2="37.7214506%" id="linearGradient-7">
            <stop stop-color="#DBD1E8" offset="0%"></stop>
            <stop stop-color="#E3DBEE" offset="99.9049831%"></stop>
        </linearGradient>
        <linearGradient x1="0.000198887388%" y1="50.005888%" x2="100.005089%" y2="50.005888%" id="linearGradient-8">
            <stop stop-color="#A8E7EE" offset="0.0343116554%"></stop>
            <stop stop-color="#C0F8FE" offset="100%"></stop>
        </linearGradient>
        <linearGradient x1="53.1649956%" y1="46.93461%" x2="44.4673991%" y2="48.5191131%" id="linearGradient-9">
            <stop stop-color="#E6DAF7" stop-opacity="0.358282343" offset="0%"></stop>
            <stop stop-color="#CFBCE8" stop-opacity="0" offset="100%"></stop>
        </linearGradient>
        <path d="M54.432,103.075283 C69.9280652,93.767762 77.6760978,89.1140013 77.6760978,89.1140013 C77.6760978,89.1140013 83.3680652,92.5627586 94.752,99.4602733 L71.5924836,113.306001 L54.432,103.075283 Z" id="path-10"></path>
        <linearGradient x1="88.1443036%" y1="41.458774%" x2="9.31865643%" y2="52.6341671%" id="linearGradient-11">
            <stop stop-color="#C2B1DA" offset="0%"></stop>
            <stop stop-color="#A293B5" offset="100%"></stop>
        </linearGradient>
        <linearGradient x1="88.1443036%" y1="41.2749152%" x2="10.2465555%" y2="52.5564869%" id="linearGradient-12">
            <stop stop-color="#A897C0" offset="0%"></stop>
            <stop stop-color="#8F80A4" offset="100%"></stop>
        </linearGradient>
        <path d="M9.10774763,97.6979304 C8.69977098,97.4854396 8.54129834,96.9824514 8.75378907,96.5744748 C8.82619931,96.435449 8.93637211,96.3196789 9.07164189,96.2404735 L68.9003213,61.2085966 C69.6732442,60.756022 70.6370595,60.7860403 71.3803205,61.2858369 C71.801504,61.5690564 71.9133458,62.1400878 71.6301263,62.5612712 C71.5528243,62.6762291 71.4505334,62.7722235 71.3309027,62.8420762 L11.7454329,97.6341934 C10.9355209,98.1071032 9.93955575,98.1311697 9.10774763,97.6979304 Z" id="path-13"></path>
        <linearGradient x1="9.80450381%" y1="24.1231213%" x2="53.4495637%" y2="54.6878367%" id="linearGradient-14">
            <stop stop-color="#8CE8F2" offset="0%"></stop>
            <stop stop-color="#8CE8F2" stop-opacity="0" offset="100%"></stop>
        </linearGradient>
    </defs>
    <g id="Symbols" stroke="none" stroke-width="1" fill="none" fill-rule="evenodd">
        <g id="Components/Page-Links/Developers" transform="translate(-50.000000, 15.000000)">
            <g id="Group-4">
                <g transform="translate(79.000000, 0.000000)">
                    <g id="Group">
                        <mask id="mask-2" fill="white">
                            <use xlink:href="#path-1"></use>
                        </mask>
                        <g id="Rectangle">
                            <use fill="black" fill-opacity="1" filter="url(#filter-3)" xlink:href="#path-1"></use>
                            <use fill="#0F051E" fill-rule="evenodd" xlink:href="#path-1"></use>
                        </g>
                        <rect id="Rectangle" fill="#564077" mask="url(#mask-2)" x="0" y="0" width="251.856" height="12.672"></rect>
                        <circle id="Oval" fill="#D0BBEF" mask="url(#mask-2)" cx="13.464" cy="6.336" r="3.168"></circle>
                        <circle id="Oval-Copy" fill="#D0BBEF" mask="url(#mask-2)" cx="26.136" cy="6.336" r="3.168"></circle>
                        <circle id="Oval-Copy-2" fill="#D0BBEF" mask="url(#mask-2)" cx="38.808" cy="6.336" r="3.168"></circle>
                        <rect id="Rectangle" fill="#735B98" mask="url(#mask-2)" x="10.296" y="27.72" width="64.152" height="3.168" rx="1.584"></rect>
                        <rect id="Rectangle-Copy-9" fill="#735B98" mask="url(#mask-2)" x="86.328" y="27.72" width="30.888" height="3.168" rx="1.584"></rect>
                        <rect id="Rectangle-Copy-10" fill="#735B98" mask="url(#mask-2)" x="123.552" y="27.72" width="115.632" height="3.168" rx="1.584"></rect>
                        <rect id="Rectangle-Copy-11" fill="#735B98" mask="url(#mask-2)" x="193.248" y="37.224" width="45.936" height="3.168" rx="1.584"></rect>
                        <rect id="Rectangle-Copy-12" fill="#735B98" mask="url(#mask-2)" x="10.296" y="56.232" width="36.432" height="3.168" rx="1.584"></rect>
                        <rect id="Rectangle-Copy-13" fill="#735B98" mask="url(#mask-2)" x="62.568" y="56.232" width="33.264" height="3.168" rx="1.584"></rect>
                        <rect id="Rectangle-Copy-14" fill="#735B98" mask="url(#mask-2)" x="114.84" y="56.232" width="36.432" height="3.168" rx="1.584"></rect>
                        <rect id="Rectangle-Copy-18" fill="#735B98" mask="url(#mask-2)" x="167.112" y="56.232" width="29.304" height="3.168" rx="1.584"></rect>
                        <rect id="Rectangle-Copy-15" fill="#735B98" mask="url(#mask-2)" x="10.296" y="65.736" width="32.472" height="3.168" rx="1.584"></rect>
                        <rect id="Rectangle-Copy-16" fill="#735B98" mask="url(#mask-2)" x="62.568" y="65.736" width="36.432" height="3.168" rx="1.584"></rect>
                        <rect id="Rectangle-Copy-17" fill="#735B98" mask="url(#mask-2)" x="114.84" y="65.736" width="20.592" height="3.168" rx="1.584"></rect>
                        <rect id="Rectangle-Copy-19" fill="#735B98" mask="url(#mask-2)" x="167.112" y="65.736" width="36.432" height="3.168" rx="1.584"></rect>
                        <rect id="Rectangle-Copy" fill="#735B98" mask="url(#mask-2)" x="10.296" y="37.224" width="72.864" height="3.168" rx="1.584"></rect>
                        <rect id="Rectangle-Copy-2" fill="#735B98" mask="url(#mask-2)" x="10.296" y="46.728" width="60.192" height="3.168" rx="1.584"></rect>
                        <rect id="Rectangle-Copy-5" fill="#735B98" mask="url(#mask-2)" x="10.296" y="91.08" width="81.576" height="3.168" rx="1.584"></rect>
                        <rect id="Rectangle" fill="#FD9369" mask="url(#mask-2)" x="98.208" y="88.704" width="7.128" height="7.92" rx="1.584"></rect>
                    </g>
                    <g id="Gen-2/Publisher-Copy" transform="translate(160.800000, 54.000000)">
                        <g id="Group-6">
                            <g id="Group-5">
                                <path d="M3.94054057,101.48452 L47.1197938,126.421773 C50.8807094,128.593809 55.5174096,128.582855 59.2680204,126.393073 L116.774695,92.8179812 C118.005995,92.0990906 118.766067,90.7833532 118.773695,89.3575744 L118.784147,87.4040343 L118.784147,87.4040343 L59.412448,124.176451 C55.5934942,126.541756 50.7782847,126.595905 46.9071057,124.317079 L1.91734544,97.8332013 L1.91734544,97.8332013 L1.92728993,98.1286237 C1.97411878,99.5197751 2.73517875,100.788389 3.94054057,101.48452 Z" id="Path-13" fill="url(#linearGradient-4)"></path>
                                <path d="M70.80192,6.92673717 L70.80192,56.5672368 C70.80192,58.0095224 70.0315293,59.341965 68.7815778,60.0615546 L3.77728614,97.484136 C2.57112462,98.1785159 1.03043134,97.763635 0.336051383,96.5574735 C0.115881548,96.175031 -2.93768525e-15,95.7414775 0,95.3001874 L0,44.9041199 C7.55075047e-15,42.0026701 1.55870989,39.3248989 4.08167348,37.8920466 L64.7787567,3.42070054 C66.7150873,2.32101143 69.1762675,2.99924335 70.2759566,4.93557391 C70.6206869,5.54257436 70.80192,6.22867664 70.80192,6.92673717 Z" id="Path-Copy" fill="url(#linearGradient-5)" fill-rule="nonzero"></path>
                                <path d="M70.80192,6.16686451 L70.80192,56.1631521 C70.80192,57.603611 70.0334632,58.9346556 68.7860071,59.6549162 L3.18531266,97.5316766 C2.46214463,97.9492219 1.53741376,97.7014658 1.11986845,96.9782977 C0.987150601,96.7484369 0.91728,96.4876893 0.91728,96.2222651 L0.91728,45.4522831 C0.91728,42.5542922 2.47230767,39.8791577 4.99054501,38.4449919 L66.2813944,3.5391303 C67.7326519,2.71262202 69.5791459,3.21908136 70.4056542,4.67033889 C70.6653563,5.12634721 70.80192,5.64208953 70.80192,6.16686451 Z" id="Path" fill="url(#linearGradient-6)" fill-rule="nonzero"></path>
                                <path d="M59.2636917,124.492515 L116.785192,90.9910736 C118.709433,89.8703648 119.360824,87.4019452 118.240116,85.477704 C117.886424,84.87042 117.380145,84.3661284 116.771475,84.0148273 L72.8178134,58.6464578 C71.5703517,57.9264707 70.0335621,57.9265985 68.7862202,58.6467932 L2.42914295,96.9602766 C1.94703093,97.2386401 1.78186015,97.8551273 2.06022369,98.3372394 C2.14868671,98.490453 2.27591668,98.617685 2.42912886,98.7061505 L47.1275929,124.515269 C50.8843643,126.684448 55.5150807,126.675766 59.2636917,124.492515 Z" id="Path" fill="url(#linearGradient-7)" fill-rule="nonzero"></path>
                                <path d="M68.7520996,8.15442974 L68.7520996,54.0357064 C68.7520996,55.8372292 67.7905242,57.5017614 66.2299076,58.4017393 L4.5355616,93.9796936 C4.05330293,94.257803 3.43690282,94.0923073 3.15879343,93.6100487 C3.07048565,93.4569176 3.024,93.2832564 3.024,93.1064871 L3.024,46.2494257 C3.024,43.7146059 4.38366824,41.3745665 6.5858659,40.1193227 L65.7377756,6.40297174 C66.7050792,5.85161261 67.9361985,6.18880217 68.4875576,7.15610572 C68.6609272,7.46026498 68.7520996,7.80432996 68.7520996,8.15442974 Z" id="Path" fill="url(#linearGradient-8)" fill-rule="nonzero"></path>
                                <g id="Path-14">
                                    <use fill="#B5A5CB" xlink:href="#path-10"></use>
                                    <use fill="url(#linearGradient-9)" xlink:href="#path-10"></use>
                                </g>
                                <path d="M33.1921084,107.786507 L36.3162209,109.602117 C36.5494923,109.737598 36.5482283,109.95708 36.3134631,110.092561 L33.0874236,111.955055 C32.8527733,112.090651 32.4732189,112.09111 32.2399476,111.955514 L29.115835,110.139905 C28.8825637,110.004423 28.8845172,109.784597 29.1192824,109.649116 L32.3453219,107.786507 C32.5800871,107.650911 32.958837,107.650911 33.1921084,107.786507 Z M34.4419488,102.185891 L37.5660613,104.001386 C37.7993327,104.136982 37.7980686,104.356349 37.5633034,104.49183 L28.8758413,109.507624 C28.6410761,109.643221 28.2615218,109.64345 28.0283653,109.508084 L24.9042528,107.692474 C24.6709814,107.556878 24.6729349,107.337052 24.9077001,107.201455 L33.5951622,102.185891 C33.8299275,102.050295 34.2086774,102.050295 34.4419488,102.185891 Z M37.5126617,105.291974 L40.6368892,107.107584 C40.8700456,107.24318 40.8688965,107.462547 40.6333269,107.598488 L37.4080918,109.460522 C37.1733266,109.596118 36.7937722,109.596578 36.5605009,109.460982 L33.4363883,107.645487 C33.2032319,107.510006 33.2051854,107.290064 33.4399506,107.154583 L36.6651857,105.292434 C36.9006404,105.156493 37.2795053,105.156493 37.5126617,105.291974 Z M28.0293191,101.009055 L31.1534316,102.824664 C31.386703,102.960145 31.3854389,103.179627 31.1506737,103.315109 L24.6642361,107.059976 C24.4294709,107.195572 24.0499165,107.196032 23.8166452,107.060435 L20.6925326,105.244941 C20.4593762,105.109459 20.4613297,104.889633 20.6960949,104.754037 L27.1825325,101.009055 C27.4172978,100.873458 27.7960477,100.873458 28.0293191,101.009055 Z M41.9147795,102.750569 L45.0388921,104.566064 C45.2721634,104.70166 45.2708994,104.921027 45.0353298,105.056968 L41.8100947,106.919002 C41.5753295,107.054598 41.1958901,107.055058 40.9626187,106.919461 L37.8385062,105.104082 C37.6052348,104.968485 37.6071883,104.748659 37.8419535,104.613063 L41.0671886,102.750914 C41.3027582,102.614973 41.6815082,102.614973 41.9147795,102.750569 Z M22.7590411,99.1736112 L25.8823492,100.988761 C26.1156206,101.124357 26.1151609,101.344184 25.8803957,101.479665 L20.4534467,104.612971 C20.2186815,104.748567 19.8383228,104.748567 19.6050514,104.612971 L16.4817433,102.797821 C16.2484719,102.662225 16.2497359,102.442053 16.4845011,102.306572 L21.9114502,99.1732664 C22.1462154,99.0376703 22.5257697,99.038015 22.7590411,99.1736112 Z M47.2948675,99.6443597 L50.4188651,101.459854 C50.6521364,101.595451 50.6508724,101.814932 50.4161072,101.950414 L46.130694,104.424584 C45.8959288,104.560065 45.5164893,104.560525 45.283218,104.425044 L42.1591054,102.609549 C41.9258341,102.473953 41.9277876,102.254126 42.1625528,102.11853 L46.447966,99.6443597 C46.6827312,99.5087635 47.0615961,99.5087635 47.2948675,99.6443597 Z M38.7626515,99.6913817 L41.8866491,101.506876 C42.1199204,101.642473 42.1186564,101.86184 41.8838912,101.997321 L38.6579666,103.859814 C38.4232014,103.995411 38.0443365,103.995411 37.8110652,103.859814 L34.6870676,102.044435 C34.4537962,101.908839 34.4550602,101.689472 34.6898254,101.553875 L37.91575,99.6913817 C38.1505152,99.5557855 38.5293801,99.5557855 38.7626515,99.6913817 Z M32.4314369,98.4675229 L35.5554346,100.283133 C35.7887059,100.418614 35.7874419,100.638096 35.5526767,100.773577 L32.3267521,102.636071 C32.0919869,102.771667 31.713122,102.771667 31.4798506,102.636071 L28.355853,100.820691 C28.1225817,100.685095 28.1238457,100.465613 28.3586109,100.330017 L31.5845355,98.4675229 C31.8193007,98.3319268 32.1981656,98.3319268 32.4314369,98.4675229 Z M16.3464114,97.9968893 L19.4697195,99.8120393 C19.7036804,99.9478653 19.7025313,100.167462 19.467766,100.302943 L16.2417266,102.165437 C16.0069613,102.301033 15.627407,102.301378 15.3934462,102.165437 L12.270138,100.350287 C12.0368667,100.214806 12.0381307,99.9945195 12.2728959,99.8589234 L15.4988205,97.9964297 C15.7335857,97.8608335 16.11314,97.8612932 16.3464114,97.9968893 Z M43.0832392,97.196872 L46.2072369,99.0123667 C46.4405082,99.1479628 46.4392442,99.3673298 46.204479,99.5028111 L42.9785544,101.365305 C42.7437892,101.500901 42.3650392,101.500901 42.131653,101.365305 L39.0076553,99.549925 C38.774384,99.4143288 38.775648,99.1949618 39.0104132,99.0593657 L42.2363378,97.196872 C42.471103,97.0612758 42.8499679,97.0612758 43.0832392,97.196872 Z M69.0607286,87.0777557 L72.1848411,88.8933653 C72.4181125,89.0289615 72.4160441,89.2487881 72.1812789,89.3842694 L51.592266,101.271456 C51.3573859,101.406937 50.9786359,101.406937 50.7453646,101.271456 L47.621252,99.4558465 C47.3879806,99.3202504 47.3892447,99.1008834 47.6241248,98.9652872 L68.2131377,87.0782154 C68.4479029,86.9426192 68.8274572,86.9421596 69.0607286,87.0777557 Z M27.0796518,96.67909 L30.2030749,98.49424 C30.4362314,98.6298361 30.4357717,98.8496628 30.200317,98.9856037 L26.974967,100.847638 C26.7402018,100.983234 26.359958,100.983234 26.1266866,100.847638 L23.0033785,99.0324878 C22.7701071,98.8970065 22.7713711,98.6768351 23.0061363,98.541239 L26.2313715,96.67909 C26.4668261,96.5431491 26.8463805,96.5436088 27.0796518,96.67909 Z M36.7519672,95.9730132 L39.8760798,97.7886228 C40.1093511,97.9241041 40.1080871,98.143586 39.8733219,98.2790672 L36.6472824,100.141561 C36.4126321,100.277157 36.0337672,100.277157 35.8004959,100.141561 L32.6763833,98.3261812 C32.4432269,98.190585 32.444376,97.9711031 32.6791412,97.8356218 L35.9051807,95.9730132 C36.1399459,95.837532 36.5186959,95.837532 36.7519672,95.9730132 Z M20.6669647,95.5023681 L23.7903878,97.3175181 C24.0243486,97.453459 24.0230846,97.6729409 23.7876299,97.8087669 L20.5623948,99.6709158 C20.3276296,99.806512 19.9480752,99.8068567 19.7141144,99.6709158 L16.5906913,97.8557659 C16.35742,97.7202846 16.358684,97.4999983 16.5934492,97.3644022 L19.8186843,95.5023681 C20.0542539,95.3663123 20.4338082,95.366772 20.6669647,95.5023681 Z M47.4853111,94.6553403 L50.6093087,96.470835 C50.8425801,96.6064311 50.8413161,96.8257981 50.6065509,96.9612794 L47.3806263,98.8237731 C47.1458611,98.9593693 46.7669962,98.9593693 46.5337248,98.8237731 L43.4097272,97.0083933 C43.1764558,96.8727972 43.1777199,96.6534301 43.4124851,96.517834 L46.6384097,94.6553403 C46.8731749,94.5197441 47.2520398,94.5197441 47.4853111,94.6553403 Z M31.4002396,94.1846952 L34.5236627,95.9997303 C34.7568191,96.1353264 34.75567,96.3556127 34.5209048,96.491094 L31.2956697,98.353128 C31.0607896,98.4887242 30.6805458,98.4887242 30.4472744,98.353128 L27.3239662,96.5379781 C27.0906949,96.4026117 27.0919589,96.1823254 27.3267241,96.0467293 L30.5519592,94.1845803 C30.7867244,94.0490991 31.1669683,94.0490991 31.4002396,94.1846952 Z M41.1540966,93.4315964 L44.2780942,95.2470911 C44.5113656,95.3825724 44.5101015,95.6020543 44.2753363,95.7375355 L41.0494117,97.6000292 C40.8146465,97.7356254 40.4357817,97.7356254 40.2025103,97.6000292 L37.0785127,95.7846495 C36.8452413,95.6490533 36.8465053,95.4296863 37.0812706,95.2940901 L40.3071951,93.4314815 C40.5419604,93.2960003 40.9208252,93.2960003 41.1540966,93.4315964 Z M25.0690251,92.9608364 L28.1924482,94.7759864 C28.426409,94.9119273 28.425145,95.1314092 28.1896903,95.2672352 L24.9644552,97.1293842 C24.7296899,97.2649803 24.3500207,97.2653251 24.1160599,97.1293842 L20.9927517,95.3142342 C20.7594803,95.178753 20.7607444,94.9584667 20.9955096,94.8229854 L24.2207447,92.9608364 C24.4561994,92.8247806 24.8358686,92.8252403 25.0690251,92.9608364 Z M51.8058989,92.1608306 L54.9298965,93.9763253 C55.1631679,94.1119214 55.1620188,94.3314034 54.9272535,94.4667697 L51.7012141,96.3293783 C51.4664488,96.4648596 51.087584,96.4648596 50.8543126,96.3293783 L47.730315,94.5138836 C47.4970436,94.3782875 47.4983077,94.1589205 47.7330729,94.0233243 L50.9589975,92.1608306 C51.1937627,92.0252344 51.5726275,92.0252344 51.8058989,92.1608306 Z M35.8023,91.6431635 L38.9257231,93.4581986 C39.1588795,93.5937947 39.1577304,93.814081 38.9228503,93.9495623 L35.6976152,95.8115963 C35.46285,95.9471925 35.0826061,95.9471925 34.8493348,95.8115963 L31.7260266,93.9965613 C31.4927553,93.86108 31.4940193,93.6407937 31.7287845,93.5051976 L34.9540196,91.6431635 C35.1887848,91.5075674 35.5690286,91.5075674 35.8023,91.6431635 Z M45.4746269,90.9370753 L48.5987394,92.7525699 C48.8320108,92.8881661 48.8307468,93.1075331 48.5959816,93.2430144 L45.3699421,95.1055081 C45.1352918,95.2411042 44.7564269,95.2411042 44.5231555,95.1055081 L41.399043,93.2901283 C41.1658865,93.1545321 41.1670357,92.9351651 41.4018009,92.7995689 L44.6278404,90.9370753 C44.8626056,90.8014791 45.2413555,90.8014791 45.4746269,90.9370753 Z M29.3896129,90.4663268 L32.5130359,92.2814767 C32.7469968,92.4174176 32.7450433,92.6373592 32.510278,92.7728404 L29.2850429,94.6348745 C29.0502777,94.7704706 28.6707234,94.7709303 28.4367626,94.6348745 L25.3133395,92.8197245 C25.0800681,92.6842433 25.0813322,92.463957 25.3160974,92.3284757 L28.5413325,90.4663268 C28.7760977,90.3307306 29.1564564,90.3307306 29.3896129,90.4663268 Z M56.1264867,89.6663209 L59.2505992,91.4818156 C59.4837557,91.6174117 59.4824916,91.8368937 59.2477264,91.97226 L56.0218018,93.8348686 C55.7870366,93.9703499 55.4074823,93.9708095 55.1742109,93.8352133 L52.0500984,92.0197187 C51.8169419,91.8842374 51.8188954,91.6644108 52.0536607,91.5288146 L55.2795852,89.6663209 C55.5143504,89.5307247 55.8932153,89.5307247 56.1264867,89.6663209 Z M40.1228878,89.1486538 L43.2463109,90.9636889 C43.4794673,91.099285 43.4783182,91.3195713 43.243553,91.4550526 L40.0183179,93.3170866 C39.7827483,93.4531424 39.4031939,93.4526828 39.1699226,93.3170866 L36.0466144,91.5020516 C35.813343,91.3665703 35.8138027,91.1467437 36.0493723,91.0106879 L39.2746074,89.1486538 C39.5093726,89.0130577 39.8896164,89.0130577 40.1228878,89.1486538 Z M49.7952147,88.4425656 L52.9193272,90.2580602 C53.1525986,90.3936564 53.1513346,90.6130234 52.9165693,90.7485047 L49.6905298,92.6109984 C49.4558795,92.7465945 49.0770147,92.7465945 48.8437433,92.6109984 L45.7196308,90.7956186 C45.4864743,90.6600224 45.4876234,90.4406554 45.7225036,90.3050593 L48.9484282,88.4425656 C49.1831934,88.3069694 49.5619433,88.3069694 49.7952147,88.4425656 Z M33.7916732,87.9247951 L36.9150963,89.739945 C37.1490572,89.8758859 37.1471036,90.0958275 36.9123384,90.2313087 L33.6871033,92.0933428 C33.4523381,92.2289389 33.0726689,92.2293986 32.838708,92.0933428 L29.7153999,90.2781928 C29.4821285,90.1427116 29.4833925,89.9225402 29.7181578,89.786944 L32.9433929,87.9247951 C33.1781581,87.7891989 33.5585168,87.7891989 33.7916732,87.9247951 Z M60.5284896,87.1247892 L63.6526021,88.9402839 C63.8858735,89.0758801 63.8846095,89.295362 63.6498443,89.4308432 L60.4238048,91.2933369 C60.1890396,91.4289331 59.8094852,91.4292778 59.5763288,91.2936817 L56.4522162,89.478187 C56.2189449,89.3427057 56.2208984,89.1228791 56.4556636,88.9872829 L59.6817031,87.1247892 C59.9164683,86.9891931 60.2952182,86.9891931 60.5284896,87.1247892 Z M44.5248907,86.6071221 L47.6483138,88.4221572 C47.8815851,88.5577533 47.8803211,88.7780396 47.6455559,88.9135209 L44.4203208,90.7755549 C44.1847512,90.9116108 43.8053118,90.9111511 43.5720404,90.7755549 L40.4486173,88.9605199 C40.215346,88.8250387 40.2159205,88.605212 40.4513752,88.4691562 L43.6766103,86.6071221 C43.9113755,86.471526 44.2917343,86.471526 44.5248907,86.6071221 Z M54.1158599,85.9480559 L57.2399725,87.7635505 C57.4732438,87.8991467 57.4719798,88.1185137 57.2370997,88.253995 L54.0111751,90.1164887 C53.7764099,90.2520848 53.3968555,90.2525445 53.1636991,90.1169483 L50.0395865,88.3014536 C49.8063152,88.1659724 49.8082687,87.9461457 50.0430339,87.8105496 L53.2690734,85.9480559 C53.5038386,85.8124597 53.8825886,85.8124597 54.1158599,85.9480559 Z M38.112261,85.4302854 L41.2356841,87.2454353 C41.4696449,87.3813762 41.4676914,87.6013178 41.2329262,87.736799 L38.0076911,89.5988331 C37.7721215,89.7348889 37.3932566,89.7348889 37.1592958,89.5988331 L34.0359877,87.7836831 C33.8027163,87.6482019 33.8032909,87.4283752 34.0387455,87.2924343 L37.2639806,85.4302854 C37.4987459,85.2946892 37.8791046,85.2946892 38.112261,85.4302854 Z M64.8491578,84.630268 L67.9732704,86.4458776 C68.2064268,86.5813589 68.2044733,86.8011855 67.9697081,86.9366668 L64.744473,88.7988157 C64.5097078,88.9344119 64.1301534,88.9347566 63.8968821,88.7992754 L60.7727695,86.9837807 C60.5394982,86.8481845 60.5415666,86.6283579 60.7763318,86.4927617 L64.0015669,84.6307277 C64.2363321,84.4951315 64.6158865,84.4946719 64.8491578,84.630268 Z M74.5221627,83.9246394 L77.6462752,85.7401341 C77.8795466,85.8757302 77.8782826,86.0950973 77.6435174,86.2305785 L73.3581041,88.7048637 C73.1233389,88.8403449 72.7438995,88.8408046 72.5105132,88.7053233 L69.3865156,86.8897137 C69.1531293,86.7542325 69.1551977,86.5344058 69.389963,86.3988097 L73.6753762,83.9246394 C73.9101414,83.7890432 74.2888913,83.7890432 74.5221627,83.9246394 Z M48.8455359,84.1126124 L51.968959,85.9276475 C52.2021155,86.0632436 52.2009663,86.28353 51.9662011,86.4190112 L48.7401616,88.2815049 C48.5053964,88.4171011 48.1258421,88.4166414 47.8925707,88.2810452 L44.7692626,86.4660102 C44.5359912,86.330529 44.5364509,86.1107023 44.771331,85.9751061 L47.9972556,84.1126124 C48.2320208,83.9770163 48.6122646,83.9770163 48.8455359,84.1126124 Z M58.5178628,83.4065242 L61.6419754,85.2220189 C61.8752468,85.357615 61.8739827,85.576982 61.6392175,85.7124633 L58.4132929,87.574957 C58.1785277,87.7105531 57.7988585,87.7110128 57.565702,87.5754166 L54.4415895,85.7599219 C54.2083181,85.6244407 54.2103865,85.404614 54.4451517,85.2690179 L57.6710763,83.4065242 C57.9058415,83.270928 58.2847064,83.270928 58.5178628,83.4065242 Z M42.4329178,82.9358331 L45.5563408,84.7508682 C45.7903017,84.886924 45.7883482,85.1067506 45.553468,85.2423468 L42.3275434,87.1048405 C42.0927782,87.2403217 41.7139134,87.2403217 41.4799525,87.1043808 L38.3566444,85.2892309 C38.123373,85.1537496 38.1238327,84.9338081 38.3585979,84.7983268 L41.5846374,82.9358331 C41.8194026,82.800237 42.1996464,82.800237 42.4329178,82.9358331 Z M69.2511608,82.0887363 L72.3752733,83.9043459 C72.6085447,84.0399421 72.6064762,84.2597688 72.371711,84.3951351 L69.1464759,86.2572841 C68.9117107,86.3928802 68.5321564,86.3933399 68.2989999,86.2577437 L65.1747725,84.442249 C64.941616,84.3066529 64.9435695,84.0868262 65.1783347,83.95123 L68.4035698,82.089196 C68.6383351,81.9535998 69.0178894,81.9532551 69.2511608,82.0887363 Z M53.1653308,81.6184475 L56.2887539,83.4335974 C56.5220253,83.5691936 56.5215656,83.7890203 56.2868004,83.9245015 L53.0607609,85.7869952 C52.8259957,85.9225914 52.4464414,85.9221317 52.21317,85.7865356 L49.0898618,83.9715005 C48.8565905,83.8360193 48.857165,83.6161926 49.0919303,83.4805964 L52.3178548,81.6181028 C52.5526201,81.4825066 52.9321744,81.4829662 53.1653308,81.6184475 Z M78.8428194,81.4301297 L81.966932,83.2456244 C82.2000884,83.3812206 82.1988244,83.6007025 81.9640592,83.7360688 L78.8196072,85.5516784 C78.584842,85.6872746 78.2059771,85.6872746 77.9728207,85.5516784 L74.8485932,83.7360688 C74.6154368,83.6005876 74.6167008,83.3812206 74.851466,83.2456244 L77.995918,81.4301297 C78.2306832,81.2945335 78.6095481,81.2945335 78.8428194,81.4301297 Z M62.9199807,80.865004 L66.0440932,82.6804987 C66.2772497,82.8160948 66.2759857,83.0354618 66.0412204,83.171058 L62.8152959,85.0335517 C62.5805306,85.1690329 62.2009763,85.1694926 61.9677049,85.0338964 L58.8435924,83.2184017 C58.610321,83.0829205 58.6123895,82.8630938 58.8471547,82.7274977 L62.0730793,80.865004 C62.3078445,80.7294078 62.6867093,80.7294078 62.9199807,80.865004 Z M46.8349207,80.3943014 L49.9583438,82.2093365 C50.1923046,82.3453923 50.1903511,82.5652189 49.9555859,82.7008151 L46.7295464,84.5633088 C46.4947812,84.6987901 46.1159163,84.6987901 45.8819555,84.5628492 L42.7586473,82.7476992 C42.5253759,82.612218 42.5259505,82.3923913 42.7607157,82.2567951 L45.9866403,80.3943014 C46.2214055,80.2587053 46.6017642,80.2587053 46.8349207,80.3943014 Z M73.5716911,79.5943416 L76.6959185,81.4097213 C76.929075,81.5453175 76.9271215,81.7651441 76.6923563,81.9007403 L73.4671212,83.7627744 C73.2323559,83.8983705 72.8528016,83.8988302 72.6195302,83.763234 L69.4954177,81.9477393 C69.2621463,81.8121432 69.2642148,81.5923165 69.49898,81.4568353 L72.7242151,79.5946863 C72.9589803,79.4590901 73.3385346,79.4587454 73.5716911,79.5943416 Z M57.5675061,79.0769158 L60.6908143,80.8920658 C60.9240857,81.0276619 60.9235111,81.2474886 60.6887459,81.3830847 L57.4628213,83.2454635 C57.2280561,83.3810597 56.8485017,83.3806 56.6152304,83.2451188 L53.4919222,81.4299688 C53.2586509,81.2944876 53.2592254,81.0746609 53.4939906,80.9390648 L56.7199152,79.0765711 C56.9546804,78.9409749 57.3342348,78.9414346 57.5675061,79.0769158 Z M83.2448224,78.8886095 L86.3689349,80.7041042 C86.6022063,80.8397004 86.6009422,81.0590674 86.366177,81.1946635 L83.1402524,83.0571572 C82.9053723,83.1927534 82.5266224,83.1927534 82.293351,83.0571572 L79.1692385,81.2416625 C78.9359671,81.1060664 78.9372311,80.8866994 79.1721113,80.7511032 L82.3980358,78.8886095 C82.632801,78.7530133 83.011551,78.7530133 83.2448224,78.8886095 Z M67.240534,78.3705402 L70.3646465,80.1860349 C70.5979179,80.3216311 70.5958495,80.5414578 70.3610843,80.676939 L67.1359641,82.538973 C66.9011989,82.6745692 66.5215296,82.6750289 66.2883732,82.5394327 L63.1642606,80.723938 C62.9309893,80.5883418 62.9330577,80.3685152 63.1678229,80.2330339 L66.3929431,78.370885 C66.6277083,78.2354037 67.0073775,78.2349441 67.240534,78.3705402 Z M51.154819,77.9002514 L54.2781272,79.7152864 C54.512088,79.8512273 54.5109389,80.0707093 54.2761736,80.2063054 L51.0501342,82.0687991 C50.8153689,82.2042804 50.436619,82.2042804 50.2026582,82.0683395 L47.0792351,80.2531895 C46.8459637,80.1177083 46.8465383,79.8978816 47.0813035,79.7622854 L50.3072281,77.8997917 C50.5419933,77.7641956 50.9215476,77.7646552 51.154819,77.9002514 Z M77.9738089,77.0528099 L81.0979215,78.8683046 C81.3311928,79.0037858 81.3291244,79.2236125 81.0943592,79.3592086 L77.8691241,81.2212427 C77.6343589,81.3568388 77.2548045,81.3572985 77.0216481,81.2217023 L73.8974206,79.4062076 C73.6642642,79.2706115 73.6662177,79.0507848 73.9009829,78.9153036 L77.126218,77.0531546 C77.3609832,76.9175584 77.7405376,76.9172137 77.9738089,77.0528099 Z M61.8880365,76.582521 L65.0114595,78.3975561 C65.2447309,78.5331522 65.2441563,78.7529789 65.0093911,78.888575 L61.7834665,80.7510687 C61.5487013,80.88655 61.169147,80.8862052 60.9358756,80.7506091 L57.8124526,78.9354591 C57.5792961,78.7999779 57.5797558,78.5801512 57.814521,78.4445551 L61.0405605,76.5820614 C61.2753257,76.4464652 61.65488,76.4469249 61.8880365,76.582521 Z M87.6468253,76.3470778 L90.7710527,78.1625725 C91.0042092,78.2981687 91.0029452,78.5175357 90.7681799,78.6531318 L87.5422554,80.5156255 C87.3074902,80.6512217 86.9286253,80.6512217 86.6954688,80.5156255 L83.5712414,78.7001308 C83.3380849,78.5645347 83.339349,78.3451677 83.5741142,78.2095715 L86.8000388,76.3470778 C87.034804,76.2114817 87.4136688,76.2114817 87.6468253,76.3470778 Z M71.5611792,75.8759731 L74.6852918,77.6914678 C74.9185631,77.8270639 74.9164947,78.0468906 74.6817295,78.1824868 L71.4564944,80.0445208 C71.2217292,80.180117 70.8421748,80.1805766 70.6089035,80.0449805 L67.4847909,78.2294858 C67.2516345,78.0938896 67.253588,77.874063 67.4883532,77.7384668 L70.7135883,75.8764327 C70.9483535,75.7408366 71.3279079,75.7403769 71.5611792,75.8759731 Z M55.5568794,75.3587197 L58.6803025,77.1737548 C58.9142633,77.3098106 58.9129993,77.5291776 58.678234,77.6647737 L55.4521945,79.5272674 C55.2174293,79.6627487 54.8386794,79.6627487 54.6047185,79.5268078 L51.4812955,77.7116578 C51.2480241,77.5761766 51.2485987,77.3563499 51.4833639,77.2207538 L54.7092885,75.3582601 C54.9440537,75.2227788 55.323608,75.2231236 55.5568794,75.3587197 Z M87.8372575,71.3580469 L90.96137,73.1735416 C91.1946414,73.3091378 91.1933773,73.5285048 90.9586121,73.664101 L82.2712649,78.6797799 C82.0364997,78.8153761 81.6568304,78.8157208 81.423674,78.6802396 L78.2995615,76.86463 C78.0662901,76.7291487 78.0682436,76.5093221 78.3030088,76.3737259 L86.9904709,71.3580469 C87.2252361,71.2224508 87.604101,71.2224508 87.8372575,71.3580469 Z M66.2901543,74.0409893 L69.4134625,75.8560244 C69.6467338,75.9916205 69.6461593,76.2114472 69.411394,76.3470433 L66.1854695,78.209537 C65.9507043,78.3450183 65.5711499,78.3446736 65.3378786,78.2090774 L62.2145704,76.3939274 C61.981299,76.2584462 61.9818736,76.0386195 62.2166388,75.9030234 L65.4425634,74.0405297 C65.6773286,73.9049335 66.0568829,73.9053932 66.2901543,74.0409893 Z M91.9674705,73.8525681 L95.0915831,75.6680628 C95.3248544,75.803659 95.3235904,76.0231409 95.0888252,76.1586221 L91.8629006,78.0211158 C91.6280205,78.156712 91.2492705,78.156712 91.0159992,78.0211158 L87.8918866,76.2056212 C87.6586153,76.070025 87.6598793,75.850658 87.8947594,75.7150618 L91.120684,73.8525681 C91.3554492,73.7170869 91.7341992,73.7170869 91.9674705,73.8525681 Z M75.8817096,73.3814634 L79.005937,75.1969581 C79.2390935,75.3325542 79.23714,75.5523809 79.0023747,75.6879771 L75.7771396,77.5500111 C75.5423744,77.6856073 75.1628201,77.6860669 74.9295487,77.5504708 L71.8054362,75.7349761 C71.5721648,75.5993799 71.5742332,75.3795533 71.8089985,75.2439571 L75.0342336,73.381923 C75.2689988,73.2463269 75.6485531,73.2458672 75.8817096,73.3814634 Z M59.8774097,72.86421 L63.0008328,74.6792451 C63.2347936,74.8153009 63.2335296,75.0346679 62.9987644,75.170264 L59.7728398,77.0327577 C59.5380746,77.168239 59.1592097,77.168239 58.9252489,77.0322981 L55.8019407,75.2171481 C55.5686693,75.0816669 55.5692439,74.8618402 55.8040091,74.7262441 L59.0299337,72.8637504 C59.2646989,72.7282691 59.6442533,72.7286139 59.8774097,72.86421 Z M70.6106846,71.5464796 L73.7341077,73.3615147 C73.9672641,73.4971108 73.9668045,73.7169375 73.7320393,73.8525337 L70.5061147,75.7150273 C70.2713495,75.8505086 69.8917952,75.8501639 69.6585238,75.7145677 L66.5351007,73.8994177 C66.3019443,73.7639365 66.3024039,73.5441098 66.5371691,73.4085137 L69.7630937,71.54602 C69.9979738,71.4104238 70.3775282,71.4108835 70.6106846,71.5464796 Z M83.5442141,68.9575238 L86.6683266,70.7730185 C86.901598,70.9086146 86.900334,71.1279816 86.6655687,71.2635778 L80.1791311,75.0085599 C79.9443659,75.1440411 79.5648115,75.1445008 79.3315402,75.0089046 L76.2074276,73.1934099 C75.9742712,73.0579287 75.9762247,72.8379871 76.2109899,72.7025058 L82.6974276,68.9575238 C82.9321928,68.8219276 83.3110576,68.8219276 83.5442141,68.9575238 Z M64.1980549,70.3696429 L67.321478,72.1847928 C67.5554388,72.3207337 67.5541748,72.5402156 67.3194096,72.6756969 L64.093485,74.5383055 C63.8587198,74.6737867 63.4798549,74.6737867 63.2458941,74.5378458 L60.122471,72.7226959 C59.8893146,72.5872146 59.8897742,72.367388 60.1245394,72.2317918 L63.350464,70.3692981 C63.5853442,70.233702 63.9648985,70.2341616 64.1980549,70.3696429 Z M75.0128025,69.004948 L78.1361106,70.819983 C78.369382,70.9555792 78.3688074,71.1754058 78.1340422,71.311002 L74.9081176,73.1734957 C74.6733524,73.3089769 74.2937981,73.3086322 74.0605267,73.173036 L70.9372186,71.358001 C70.7039472,71.2224048 70.7045218,71.0025782 70.939287,70.866982 L74.1652116,69.0044883 C74.3999768,68.8690071 74.7795311,68.8693518 75.0128025,69.004948 Z M68.6000579,67.8281112 L71.7234809,69.6432611 C71.9574418,69.779202 71.9561777,69.9986839 71.7214125,70.1341652 L68.4954879,71.9967738 C68.2607227,72.132255 67.8818579,72.132255 67.647897,71.9963142 L64.524474,70.1811642 C64.2913175,70.045683 64.2917772,69.8258563 64.5266573,69.6902601 L67.7525819,67.8277664 C67.9873471,67.6921703 68.3669014,67.6926299 68.6000579,67.8281112 Z M79.3333443,66.5103808 L82.4567674,68.3255308 C82.6899238,68.4611269 82.6894642,68.6809536 82.4546989,68.8164348 L79.2287744,70.6790434 C78.9940091,70.8145247 78.6143399,70.8141799 78.3811834,70.6785838 L75.2577604,68.8634338 C75.0246039,68.7279526 75.0250636,68.5081259 75.2598288,68.3725298 L78.4857534,66.5100361 C78.7206335,66.3744399 79.1001878,66.3748996 79.3333443,66.5103808 Z M75.2031312,64.0159286 L78.3265543,65.8309636 C78.5605151,65.9669045 78.5592511,66.1863864 78.3244859,66.3219826 L72.8975368,69.4551732 C72.6627716,69.5907693 72.2840217,69.5907693 72.0500608,69.4547135 L68.9266378,67.6396785 C68.6933664,67.5040823 68.6938261,67.2842557 68.9285913,67.1487744 L74.3556552,64.0154689 C74.5904204,63.8798728 74.9699748,63.8803324 75.2031312,64.0159286 Z" id="Combined-Shape" fill="url(#linearGradient-11)"></path>
                                <g id="Path-15" opacity="0.499186198">
                                    <use fill="#D8D8D8" xlink:href="#path-13"></use>
                                    <use fill="url(#linearGradient-12)" xlink:href="#path-13"></use>
                                </g>
                                <path d="M67.7620339,6.3836994 L121.191345,37.3409497 C123.599794,38.7364185 124.420976,41.8201026 123.025507,44.2285509 C122.553084,45.0439096 121.861534,45.7104928 121.029364,46.1526304 L66.7593228,74.9866502 L66.7593228,74.9866502 L66.7593228,131.160099 C24.8767151,106.630764 3.78350941,94.2082394 3.47970565,93.8925261 C3.42169325,93.8322396 3.36368086,93.771953 3.30566846,93.7116665 C3.12495102,93.5238646 3.024,93.2733647 3.024,93.0127341 L3.024,46.2484216 C3.024,43.7141386 4.38309734,41.3745087 6.58456153,40.1190622 L65.7526493,6.37680646 C66.3759445,6.02135494 67.141192,6.02398003 67.7620339,6.3836994 Z" id="Path" fill="url(#linearGradient-14)" fill-rule="nonzero" opacity="0.427106585"></path>
                            </g>
                        </g>
                    </g>
                </g>
            </g>
        </g>
    </g>
</svg>