<svg width="57" height="56" viewBox="0 0 57 56" fill="none" xmlns="http://www.w3.org/2000/svg">
<circle cx="28.75" cy="28" r="24" stroke="url(#paint0_linear)" stroke-width="4"/>
<path fill-rule="evenodd" clip-rule="evenodd" d="M20.1642 18.5858C19.3832 17.8047 18.1168 17.8047 17.3358 18.5858C16.5547 19.3668 16.5547 20.6332 17.3358 21.4142L23.9216 28L17.3358 34.5858C16.5547 35.3668 16.5547 36.6332 17.3358 37.4142C18.1168 38.1953 19.3832 38.1953 20.1642 37.4142L28.1642 29.4142C28.9453 28.6332 28.9453 27.3668 28.1642 26.5858L20.1642 18.5858ZM30.25 33C29.4216 33 28.75 33.6716 28.75 34.5C28.75 35.3284 29.4216 36 30.25 36H40.25C41.0784 36 41.75 35.3284 41.75 34.5C41.75 33.6716 41.0784 33 40.25 33H30.25Z" fill="url(#paint1_linear)"/>
<defs>
<linearGradient id="paint0_linear" x1="49.8628" y1="54.2588" x2="-9.66235" y2="25.211" gradientUnits="userSpaceOnUse">
<stop stop-color="#7234C8"/>
<stop offset="0.442708" stop-color="#F53568"/>
<stop offset="1" stop-color="#FA6E37"/>
</linearGradient>
<linearGradient id="paint1_linear" x1="40.2462" y1="38.9412" x2="12.2702" y2="21.8761" gradientUnits="userSpaceOnUse">
<stop stop-color="#7234C8"/>
<stop offset="0.442708" stop-color="#F53568"/>
<stop offset="1" stop-color="#FA6E37"/>
</linearGradient>
</defs>
</svg>
