<?xml version="1.0" encoding="UTF-8"?>
<svg width="278px" height="279px" viewBox="0 0 278 279" version="1.1" xmlns="http://www.w3.org/2000/svg" xmlns:xlink="http://www.w3.org/1999/xlink">
    <!-- Generator: Sketch 64 (93537) - https://sketch.com -->
    <title>Gen 2/Staking Pool</title>
    <desc>Created with Sketch.</desc>
    <defs>
        <filter x="-15.4%" y="-25.7%" width="130.8%" height="151.4%" filterUnits="objectBoundingBox" id="filter-1">
            <feGaussianBlur stdDeviation="11.4" in="SourceGraphic"></feGaussianBlur>
        </filter>
        <linearGradient x1="-69.4787519%" y1="38.6760781%" x2="92.3851543%" y2="54.0183451%" id="linearGradient-2">
            <stop stop-color="#290F4D" offset="0%"></stop>
            <stop stop-color="#351661" offset="62%"></stop>
            <stop stop-color="#4E238E" offset="100%"></stop>
        </linearGradient>
        <linearGradient x1="6.20052945%" y1="50%" x2="95.2806209%" y2="49.1271768%" id="linearGradient-3">
            <stop stop-color="#35116A" offset="0%"></stop>
            <stop stop-color="#411C77" offset="100%"></stop>
        </linearGradient>
        <ellipse id="path-4" cx="111.72" cy="150.29" rx="111.15" ry="66.5"></ellipse>
        <filter x="-11.9%" y="-20.0%" width="123.8%" height="140.0%" filterUnits="objectBoundingBox" id="filter-5">
            <feGaussianBlur stdDeviation="4.56" in="SourceGraphic"></feGaussianBlur>
        </filter>
        <linearGradient x1="0%" y1="38.3913298%" x2="100%" y2="38.3913298%" id="linearGradient-6">
            <stop stop-color="#A19079" offset="0%"></stop>
            <stop stop-color="#CAB89F" offset="13.2918074%"></stop>
            <stop stop-color="#BEAD96" offset="25.6149704%"></stop>
            <stop stop-color="#CEBCA4" offset="37.0935389%"></stop>
            <stop stop-color="#D5C5AF" offset="61.4370408%"></stop>
            <stop stop-color="#EBDDC8" offset="71.0359008%"></stop>
            <stop stop-color="#D7C8B2" offset="75.840412%"></stop>
            <stop stop-color="#E6DBC9" offset="100%"></stop>
        </linearGradient>
        <radialGradient cx="50%" cy="0%" fx="50%" fy="0%" r="100%" gradientTransform="translate(0.500000,0.000000),scale(0.336449,1.000000),rotate(90.000000),scale(1.000000,1.700818),translate(-0.500000,-0.000000)" id="radialGradient-7">
            <stop stop-color="#6C6456" offset="0%"></stop>
            <stop stop-color="#807563" offset="81.0647754%"></stop>
            <stop stop-color="#B3A084" offset="100%"></stop>
        </radialGradient>
        <linearGradient x1="0%" y1="38.3913298%" x2="100%" y2="38.3913298%" id="linearGradient-8">
            <stop stop-color="#A19079" offset="0%"></stop>
            <stop stop-color="#CAB89F" offset="13.2918074%"></stop>
            <stop stop-color="#BEAD96" offset="25.6149704%"></stop>
            <stop stop-color="#CEBCA4" offset="37.0935389%"></stop>
            <stop stop-color="#D5C5AF" offset="61.4370408%"></stop>
            <stop stop-color="#EBDDC8" offset="71.0359008%"></stop>
            <stop stop-color="#D7C8B2" offset="75.840412%"></stop>
            <stop stop-color="#E6DBC9" offset="100%"></stop>
        </linearGradient>
        <radialGradient cx="50%" cy="0%" fx="50%" fy="0%" r="100%" gradientTransform="translate(0.500000,0.000000),scale(0.310568,1.000000),rotate(90.000000),scale(1.000000,1.700818),translate(-0.500000,-0.000000)" id="radialGradient-9">
            <stop stop-color="#6C6456" offset="0%"></stop>
            <stop stop-color="#807563" offset="81.0647754%"></stop>
            <stop stop-color="#B3A084" offset="100%"></stop>
        </radialGradient>
        <linearGradient x1="-69.4787519%" y1="38.6821248%" x2="92.3851543%" y2="54.0161994%" id="linearGradient-10">
            <stop stop-color="#290F4D" offset="0%"></stop>
            <stop stop-color="#351661" offset="62%"></stop>
            <stop stop-color="#4E238E" offset="100%"></stop>
        </linearGradient>
        <linearGradient x1="-1.11022302e-14%" y1="50%" x2="100%" y2="50%" id="linearGradient-11">
            <stop stop-color="#290F4D" offset="0%"></stop>
            <stop stop-color="#652EB3" offset="100%"></stop>
        </linearGradient>
        <linearGradient x1="749.606299%" y1="-34.1950847%" x2="-190.354331%" y2="78.9228164%" id="linearGradient-12">
            <stop stop-color="#7234C8" offset="0%"></stop>
            <stop stop-color="#9056E4" offset="100%"></stop>
        </linearGradient>
        <linearGradient x1="749.606299%" y1="-77.8199547%" x2="-190.354331%" y2="93.9088945%" id="linearGradient-13">
            <stop stop-color="#7234C8" offset="0%"></stop>
            <stop stop-color="#9056E4" offset="100%"></stop>
        </linearGradient>
        <linearGradient x1="749.606299%" y1="4.49184559%" x2="-190.354331%" y2="65.6330266%" id="linearGradient-14">
            <stop stop-color="#7234C8" offset="0%"></stop>
            <stop stop-color="#9056E4" offset="100%"></stop>
        </linearGradient>
        <linearGradient x1="749.606299%" y1="-9.60520263%" x2="-190.354331%" y2="70.4756648%" id="linearGradient-15">
            <stop stop-color="#7234C8" offset="0%"></stop>
            <stop stop-color="#9056E4" offset="100%"></stop>
        </linearGradient>
        <linearGradient x1="749.606299%" y1="9.90803295%" x2="-190.354331%" y2="63.7724501%" id="linearGradient-16">
            <stop stop-color="#7234C8" offset="0%"></stop>
            <stop stop-color="#9056E4" offset="100%"></stop>
        </linearGradient>
        <linearGradient x1="749.606299%" y1="-67.4278479%" x2="-190.354331%" y2="90.338983%" id="linearGradient-17">
            <stop stop-color="#7234C8" offset="0%"></stop>
            <stop stop-color="#9056E4" offset="100%"></stop>
        </linearGradient>
        <linearGradient x1="743.715482%" y1="-1742.85714%" x2="-188.330502%" y2="665.884861%" id="linearGradient-18">
            <stop stop-color="#7234C8" offset="0%"></stop>
            <stop stop-color="#9056E4" offset="100%"></stop>
        </linearGradient>
        <linearGradient x1="340.762642%" y1="-1742.85714%" x2="-49.893412%" y2="665.884861%" id="linearGradient-19">
            <stop stop-color="#7234C8" offset="0%"></stop>
            <stop stop-color="#9056E4" offset="100%"></stop>
        </linearGradient>
        <linearGradient x1="749.606299%" y1="-776.692106%" x2="-190.354331%" y2="333.98646%" id="linearGradient-20">
            <stop stop-color="#7234C8" offset="0%"></stop>
            <stop stop-color="#9056E4" offset="100%"></stop>
        </linearGradient>
        <linearGradient x1="749.606299%" y1="-1080.95747%" x2="-190.354331%" y2="438.508135%" id="linearGradient-21">
            <stop stop-color="#7234C8" offset="0%"></stop>
            <stop stop-color="#9056E4" offset="100%"></stop>
        </linearGradient>
        <linearGradient x1="749.606299%" y1="-1378.80261%" x2="-190.354331%" y2="540.824326%" id="linearGradient-22">
            <stop stop-color="#7234C8" offset="0%"></stop>
            <stop stop-color="#9056E4" offset="100%"></stop>
        </linearGradient>
        <linearGradient x1="749.606299%" y1="-272.510739%" x2="-190.354331%" y2="160.789352%" id="linearGradient-23">
            <stop stop-color="#7234C8" offset="0%"></stop>
            <stop stop-color="#9056E4" offset="100%"></stop>
        </linearGradient>
        <linearGradient x1="749.606299%" y1="-321.831198%" x2="-190.354331%" y2="177.731987%" id="linearGradient-24">
            <stop stop-color="#7234C8" offset="0%"></stop>
            <stop stop-color="#9056E4" offset="100%"></stop>
        </linearGradient>
        <linearGradient x1="749.606299%" y1="-361.363492%" x2="-190.354331%" y2="191.312178%" id="linearGradient-25">
            <stop stop-color="#7234C8" offset="0%"></stop>
            <stop stop-color="#9056E4" offset="100%"></stop>
        </linearGradient>
        <linearGradient x1="749.606299%" y1="-347.722666%" x2="-190.354331%" y2="186.626261%" id="linearGradient-26">
            <stop stop-color="#7234C8" offset="0%"></stop>
            <stop stop-color="#9056E4" offset="100%"></stop>
        </linearGradient>
        <linearGradient x1="749.606299%" y1="-229.639161%" x2="-190.354331%" y2="146.062046%" id="linearGradient-27">
            <stop stop-color="#7234C8" offset="0%"></stop>
            <stop stop-color="#9056E4" offset="100%"></stop>
        </linearGradient>
        <linearGradient x1="749.606299%" y1="-211.079738%" x2="-190.354331%" y2="139.686487%" id="linearGradient-28">
            <stop stop-color="#7234C8" offset="0%"></stop>
            <stop stop-color="#9056E4" offset="100%"></stop>
        </linearGradient>
        <linearGradient x1="53.3349681%" y1="17.5531323%" x2="65.6878603%" y2="57.4436667%" id="linearGradient-29">
            <stop stop-color="#FD9369" offset="0%"></stop>
            <stop stop-color="#FFC5A2" stop-opacity="0" offset="100%"></stop>
        </linearGradient>
        <linearGradient x1="53.2719161%" y1="8.38024157%" x2="65.3912603%" y2="59.5480283%" id="linearGradient-30">
            <stop stop-color="#FD9369" offset="0%"></stop>
            <stop stop-color="#FFC5A2" stop-opacity="0" offset="100%"></stop>
        </linearGradient>
        <linearGradient x1="52.7405426%" y1="8.38024157%" x2="62.8916521%" y2="59.5480283%" id="linearGradient-31">
            <stop stop-color="#FD9369" offset="0%"></stop>
            <stop stop-color="#FFC5A2" stop-opacity="0" offset="100%"></stop>
        </linearGradient>
        <linearGradient x1="53.3349681%" y1="10.9157822%" x2="65.6878603%" y2="58.9663475%" id="linearGradient-32">
            <stop stop-color="#FD9369" offset="0%"></stop>
            <stop stop-color="#FFC5A2" stop-opacity="0" offset="100%"></stop>
        </linearGradient>
        <linearGradient x1="52.7940447%" y1="8.38024157%" x2="63.1433288%" y2="59.5480283%" id="linearGradient-33">
            <stop stop-color="#FD9369" offset="0%"></stop>
            <stop stop-color="#FFC5A2" stop-opacity="0" offset="100%"></stop>
        </linearGradient>
        <linearGradient x1="56.0601911%" y1="20.4855638%" x2="65.6878603%" y2="56.6428375%" id="linearGradient-34">
            <stop stop-color="#FD9369" offset="0%"></stop>
            <stop stop-color="#FFC5A2" stop-opacity="0" offset="100%"></stop>
        </linearGradient>
        <linearGradient x1="114.344808%" y1="-1742.85714%" x2="27.8939195%" y2="665.884861%" id="linearGradient-35">
            <stop stop-color="#7234C8" offset="0%"></stop>
            <stop stop-color="#9056E4" offset="100%"></stop>
        </linearGradient>
        <linearGradient x1="-69.4787519%" y1="47.1705312%" x2="92.3851543%" y2="51.0040498%" id="linearGradient-36">
            <stop stop-color="#290F4D" offset="0%"></stop>
            <stop stop-color="#351661" offset="62%"></stop>
            <stop stop-color="#4E238E" offset="100%"></stop>
        </linearGradient>
        <linearGradient x1="-5.91061037%" y1="50.0441366%" x2="101.817362%" y2="50.0441366%" id="linearGradient-37">
            <stop stop-color="#FD9369" offset="0%"></stop>
            <stop stop-color="#FFB99E" offset="100%"></stop>
        </linearGradient>
        <path d="M111.72,116.66 C145.403847,116.66 172.71,100.327348 172.71,80.18 C172.71,98.42 144.784281,115.026855 111.72,115.026855 C78.6557189,115.026855 50.73,98.42 50.73,80.18 C50.73,100.327348 78.0361531,116.66 111.72,116.66 Z" id="path-38"></path>
        <linearGradient x1="0%" y1="38.3913298%" x2="100%" y2="38.3913298%" id="linearGradient-39">
            <stop stop-color="#A19079" offset="0%"></stop>
            <stop stop-color="#CAB89F" offset="13.2918074%"></stop>
            <stop stop-color="#BEAD96" offset="25.6149704%"></stop>
            <stop stop-color="#CEBCA4" offset="37.0935389%"></stop>
            <stop stop-color="#D5C5AF" offset="61.4370408%"></stop>
            <stop stop-color="#EBDDC8" offset="71.0359008%"></stop>
            <stop stop-color="#D7C8B2" offset="75.840412%"></stop>
            <stop stop-color="#E6DBC9" offset="100%"></stop>
        </linearGradient>
        <linearGradient x1="0%" y1="38.3913298%" x2="100%" y2="38.3913298%" id="linearGradient-40">
            <stop stop-color="#A19079" offset="0%"></stop>
            <stop stop-color="#CAB89F" offset="13.2918074%"></stop>
            <stop stop-color="#BEAD96" offset="25.6149704%"></stop>
            <stop stop-color="#CEBCA4" offset="37.0935389%"></stop>
            <stop stop-color="#D5C5AF" offset="61.4370408%"></stop>
            <stop stop-color="#EBDDC8" offset="71.0359008%"></stop>
            <stop stop-color="#D7C8B2" offset="75.840412%"></stop>
            <stop stop-color="#E6DBC9" offset="100%"></stop>
        </linearGradient>
        <linearGradient x1="0%" y1="38.3913298%" x2="100%" y2="38.3913298%" id="linearGradient-41">
            <stop stop-color="#A19079" offset="0%"></stop>
            <stop stop-color="#CAB89F" offset="13.2918074%"></stop>
            <stop stop-color="#BEAD96" offset="25.6149704%"></stop>
            <stop stop-color="#CEBCA4" offset="37.0935389%"></stop>
            <stop stop-color="#D5C5AF" offset="61.4370408%"></stop>
            <stop stop-color="#EBDDC8" offset="71.0359008%"></stop>
            <stop stop-color="#D7C8B2" offset="75.840412%"></stop>
            <stop stop-color="#E6DBC9" offset="100%"></stop>
        </linearGradient>
    </defs>
    <g id="Symbols" stroke="none" stroke-width="1" fill="none" fill-rule="evenodd">
        <g id="Components/Page-Links/Stakers" transform="translate(-70.000000, -71.000000)">
            <g transform="translate(0.000000, 10.000000)" id="Gen-2/Staking-Pool">
                <g transform="translate(37.000000, 0.000000)">
                    <g id="Group-6" transform="translate(59.850000, 61.800000)">
                        <ellipse id="Oval-Copy-12" fill="#180F27" opacity="0.274390811" filter="url(#filter-1)" cx="112.1" cy="183.35" rx="111.15" ry="66.5"></ellipse>
                        <g id="Oval-Copy-8">
                            <use fill="url(#linearGradient-2)" xlink:href="#path-4"></use>
                            <use fill="url(#linearGradient-3)" xlink:href="#path-4"></use>
                        </g>
                        <ellipse id="Oval-Copy-7" stroke="#BF94FF" stroke-width="2.85" cx="111.72" cy="147.44" rx="72.39" ry="42.75"></ellipse>
                        <ellipse id="Oval-Copy-5" fill="#1A0D2D" opacity="0.695103237" filter="url(#filter-5)" cx="111.72" cy="146.3" rx="57.57" ry="34.2"></ellipse>
                        <g id="Coin-Stack" transform="translate(92.150000, 0.000000)">
                            <g id="Group-7">
                                <g id="Group-5" transform="translate(0.000000, 10.944000)">
                                    <path d="M18.297,86.6966209 C27.6574943,86.6966209 36.594,82.6549755 36.594,76.6141896 C36.594,74.5193179 36.594,1.26659027 36.594,0 C35.9177445,7.43607504 25.0804381,10.944 18.297,10.944 C11.5135619,10.944 0.541246808,7.43607504 0,0 C0,2.48197105 0,74.5793039 0,76.6141896 C0,82.6549755 8.93650574,86.6966209 18.297,86.6966209 Z" id="Oval-Copy-9" fill="url(#linearGradient-6)"></path>
                                    <path d="M36.594,6.84 L36.594,8.208 C36.594,14.2522043 28.4021541,19.152 18.297,19.152 C8.19184593,19.152 0,14.2522043 0,8.208 L0,8.208 L0,6.84 C0,12.8842043 8.19184593,17.784 18.297,17.784 C28.2742407,17.784 36.3863049,13.0074647 36.590075,7.06896902 L36.594,6.84 L36.594,6.84 Z" id="Combined-Shape" fill="url(#radialGradient-7)"></path>
                                    <path d="M36.594,34.2 L36.594,35.568 C36.594,41.6122043 28.4021541,46.512 18.297,46.512 C8.19184593,46.512 0,41.6122043 0,35.568 L0,35.568 L0,34.2 C0,40.2442043 8.19184593,45.144 18.297,45.144 C28.2742407,45.144 36.3863049,40.3674647 36.590075,34.428969 L36.594,34.2 L36.594,34.2 Z" id="Combined-Shape-Copy-4" fill="url(#radialGradient-7)"></path>
                                    <path d="M36.594,13.68 L36.594,15.048 C36.594,21.0922043 28.4021541,25.992 18.297,25.992 C8.19184593,25.992 0,21.0922043 0,15.048 L0,15.048 L0,13.68 C0,19.7242043 8.19184593,24.624 18.297,24.624 C28.2742407,24.624 36.3863049,19.8474647 36.590075,13.908969 L36.594,13.68 L36.594,13.68 Z" id="Combined-Shape-Copy" fill="url(#radialGradient-7)"></path>
                                    <path d="M36.594,41.04 L36.594,42.408 C36.594,48.4522043 28.4021541,53.352 18.297,53.352 C8.19184593,53.352 0,48.4522043 0,42.408 L0,42.408 L0,41.04 C0,47.0842043 8.19184593,51.984 18.297,51.984 C28.2742407,51.984 36.3863049,47.2074647 36.590075,41.268969 L36.594,41.04 L36.594,41.04 Z" id="Combined-Shape-Copy-5" fill="url(#radialGradient-7)"></path>
                                    <path d="M36.594,20.52 L36.594,21.888 C36.594,27.9322043 28.4021541,32.832 18.297,32.832 C8.19184593,32.832 0,27.9322043 0,21.888 L0,21.888 L0,20.52 C0,26.5642043 8.19184593,31.464 18.297,31.464 C28.2742407,31.464 36.3863049,26.6874647 36.590075,20.748969 L36.594,20.52 L36.594,20.52 Z" id="Combined-Shape-Copy-2" fill="url(#radialGradient-7)"></path>
                                    <path d="M36.594,47.88 L36.594,49.248 C36.594,55.2922043 28.4021541,60.192 18.297,60.192 C8.19184593,60.192 0,55.2922043 0,49.248 L0,49.248 L0,47.88 C0,53.9242043 8.19184593,58.824 18.297,58.824 C28.2742407,58.824 36.3863049,54.0474647 36.590075,48.108969 L36.594,47.88 L36.594,47.88 Z" id="Combined-Shape-Copy-6" fill="url(#radialGradient-7)"></path>
                                    <path d="M36.594,61.56 L36.594,62.928 C36.594,68.9722043 28.4021541,73.872 18.297,73.872 C8.19184593,73.872 0,68.9722043 0,62.928 L0,62.928 L0,61.56 C0,67.6042043 8.19184593,72.504 18.297,72.504 C28.2742407,72.504 36.3863049,67.7274647 36.590075,61.788969 L36.594,61.56 L36.594,61.56 Z" id="Combined-Shape-Copy-8" fill="url(#radialGradient-7)"></path>
                                    <path d="M36.594,27.36 L36.594,28.728 C36.594,34.7722043 28.4021541,39.672 18.297,39.672 C8.19184593,39.672 0,34.7722043 0,28.728 L0,28.728 L0,27.36 C0,33.4042043 8.19184593,38.304 18.297,38.304 C28.2742407,38.304 36.3863049,33.5274647 36.590075,27.588969 L36.594,27.36 L36.594,27.36 Z" id="Combined-Shape-Copy-3" fill="url(#radialGradient-7)"></path>
                                    <path d="M36.594,54.72 L36.594,56.088 C36.594,62.1322043 28.4021541,67.032 18.297,67.032 C8.19184593,67.032 0,62.1322043 0,56.088 L0,56.088 L0,54.72 C0,60.7642043 8.19184593,65.664 18.297,65.664 C28.2742407,65.664 36.3863049,60.8874647 36.590075,54.948969 L36.594,54.72 L36.594,54.72 Z" id="Combined-Shape-Copy-7" fill="url(#radialGradient-7)"></path>
                                    <path d="M36.594,68.4 L36.594,69.768 C36.594,75.8122043 28.4021541,80.712 18.297,80.712 C8.19184593,80.712 0,75.8122043 0,69.768 L0,69.768 L0,68.4 C0,74.4442043 8.19184593,79.344 18.297,79.344 C28.2742407,79.344 36.3863049,74.5674647 36.590075,68.628969 L36.594,68.4 L36.594,68.4 Z" id="Combined-Shape-Copy-9" fill="url(#radialGradient-7)"></path>
                                </g>
                                <ellipse id="Oval-Copy-11" fill="#EEE4D5" cx="18.297" cy="10.944" rx="18.297" ry="10.944"></ellipse>
                            </g>
                        </g>
                        <g id="Coin-Stack" transform="translate(56.050000, 12.350000)">
                            <g id="Group-7">
                                <g id="Group-5" transform="translate(0.000000, 10.944000)">
                                    <path d="M18.297,86.6966209 C27.6574943,86.6966209 36.594,82.6549755 36.594,76.6141896 C36.594,74.5193179 36.594,1.26659027 36.594,0 C35.9177445,7.43607504 25.0804381,10.944 18.297,10.944 C11.5135619,10.944 0.541246808,7.43607504 0,0 C0,2.48197105 0,74.5793039 0,76.6141896 C0,82.6549755 8.93650574,86.6966209 18.297,86.6966209 Z" id="Oval-Copy-9" fill="url(#linearGradient-6)"></path>
                                    <path d="M36.594,6.84 L36.594,8.208 C36.594,14.2522043 28.4021541,19.152 18.297,19.152 C8.19184593,19.152 0,14.2522043 0,8.208 L0,8.208 L0,6.84 C0,12.8842043 8.19184593,17.784 18.297,17.784 C28.2742407,17.784 36.3863049,13.0074647 36.590075,7.06896902 L36.594,6.84 L36.594,6.84 Z" id="Combined-Shape" fill="url(#radialGradient-7)"></path>
                                    <path d="M36.594,34.2 L36.594,35.568 C36.594,41.6122043 28.4021541,46.512 18.297,46.512 C8.19184593,46.512 0,41.6122043 0,35.568 L0,35.568 L0,34.2 C0,40.2442043 8.19184593,45.144 18.297,45.144 C28.2742407,45.144 36.3863049,40.3674647 36.590075,34.428969 L36.594,34.2 L36.594,34.2 Z" id="Combined-Shape-Copy-4" fill="url(#radialGradient-7)"></path>
                                    <path d="M36.594,13.68 L36.594,15.048 C36.594,21.0922043 28.4021541,25.992 18.297,25.992 C8.19184593,25.992 0,21.0922043 0,15.048 L0,15.048 L0,13.68 C0,19.7242043 8.19184593,24.624 18.297,24.624 C28.2742407,24.624 36.3863049,19.8474647 36.590075,13.908969 L36.594,13.68 L36.594,13.68 Z" id="Combined-Shape-Copy" fill="url(#radialGradient-7)"></path>
                                    <path d="M36.594,41.04 L36.594,42.408 C36.594,48.4522043 28.4021541,53.352 18.297,53.352 C8.19184593,53.352 0,48.4522043 0,42.408 L0,42.408 L0,41.04 C0,47.0842043 8.19184593,51.984 18.297,51.984 C28.2742407,51.984 36.3863049,47.2074647 36.590075,41.268969 L36.594,41.04 L36.594,41.04 Z" id="Combined-Shape-Copy-5" fill="url(#radialGradient-7)"></path>
                                    <path d="M36.594,20.52 L36.594,21.888 C36.594,27.9322043 28.4021541,32.832 18.297,32.832 C8.19184593,32.832 0,27.9322043 0,21.888 L0,21.888 L0,20.52 C0,26.5642043 8.19184593,31.464 18.297,31.464 C28.2742407,31.464 36.3863049,26.6874647 36.590075,20.748969 L36.594,20.52 L36.594,20.52 Z" id="Combined-Shape-Copy-2" fill="url(#radialGradient-7)"></path>
                                    <path d="M36.594,47.88 L36.594,49.248 C36.594,55.2922043 28.4021541,60.192 18.297,60.192 C8.19184593,60.192 0,55.2922043 0,49.248 L0,49.248 L0,47.88 C0,53.9242043 8.19184593,58.824 18.297,58.824 C28.2742407,58.824 36.3863049,54.0474647 36.590075,48.108969 L36.594,47.88 L36.594,47.88 Z" id="Combined-Shape-Copy-6" fill="url(#radialGradient-7)"></path>
                                    <path d="M36.594,61.56 L36.594,62.928 C36.594,68.9722043 28.4021541,73.872 18.297,73.872 C8.19184593,73.872 0,68.9722043 0,62.928 L0,62.928 L0,61.56 C0,67.6042043 8.19184593,72.504 18.297,72.504 C28.2742407,72.504 36.3863049,67.7274647 36.590075,61.788969 L36.594,61.56 L36.594,61.56 Z" id="Combined-Shape-Copy-8" fill="url(#radialGradient-7)"></path>
                                    <path d="M36.594,27.36 L36.594,28.728 C36.594,34.7722043 28.4021541,39.672 18.297,39.672 C8.19184593,39.672 0,34.7722043 0,28.728 L0,28.728 L0,27.36 C0,33.4042043 8.19184593,38.304 18.297,38.304 C28.2742407,38.304 36.3863049,33.5274647 36.590075,27.588969 L36.594,27.36 L36.594,27.36 Z" id="Combined-Shape-Copy-3" fill="url(#radialGradient-7)"></path>
                                    <path d="M36.594,54.72 L36.594,56.088 C36.594,62.1322043 28.4021541,67.032 18.297,67.032 C8.19184593,67.032 0,62.1322043 0,56.088 L0,56.088 L0,54.72 C0,60.7642043 8.19184593,65.664 18.297,65.664 C28.2742407,65.664 36.3863049,60.8874647 36.590075,54.948969 L36.594,54.72 L36.594,54.72 Z" id="Combined-Shape-Copy-7" fill="url(#radialGradient-7)"></path>
                                    <path d="M36.594,68.4 L36.594,69.768 C36.594,75.8122043 28.4021541,80.712 18.297,80.712 C8.19184593,80.712 0,75.8122043 0,69.768 L0,69.768 L0,68.4 C0,74.4442043 8.19184593,79.344 18.297,79.344 C28.2742407,79.344 36.3863049,74.5674647 36.590075,68.628969 L36.594,68.4 L36.594,68.4 Z" id="Combined-Shape-Copy-9" fill="url(#radialGradient-7)"></path>
                                </g>
                                <ellipse id="Oval-Copy-11" fill="#EEE4D5" cx="18.297" cy="10.944" rx="18.297" ry="10.944"></ellipse>
                            </g>
                        </g>
                        <g id="Coin-Stack" transform="translate(27.550000, 36.100000)">
                            <g id="Group-7">
                                <g id="Group-5" transform="translate(0.000000, 10.944000)">
                                    <path d="M18.297,86.6966209 C27.6574943,86.6966209 36.594,82.6549755 36.594,76.6141896 C36.594,74.5193179 36.594,1.26659027 36.594,0 C35.9177445,7.43607504 25.0804381,10.944 18.297,10.944 C11.5135619,10.944 0.541246808,7.43607504 0,0 C0,2.48197105 0,74.5793039 0,76.6141896 C0,82.6549755 8.93650574,86.6966209 18.297,86.6966209 Z" id="Oval-Copy-9" fill="url(#linearGradient-6)"></path>
                                    <path d="M36.594,6.84 L36.594,8.208 C36.594,14.2522043 28.4021541,19.152 18.297,19.152 C8.19184593,19.152 0,14.2522043 0,8.208 L0,8.208 L0,6.84 C0,12.8842043 8.19184593,17.784 18.297,17.784 C28.2742407,17.784 36.3863049,13.0074647 36.590075,7.06896902 L36.594,6.84 L36.594,6.84 Z" id="Combined-Shape" fill="url(#radialGradient-7)"></path>
                                    <path d="M36.594,34.2 L36.594,35.568 C36.594,41.6122043 28.4021541,46.512 18.297,46.512 C8.19184593,46.512 0,41.6122043 0,35.568 L0,35.568 L0,34.2 C0,40.2442043 8.19184593,45.144 18.297,45.144 C28.2742407,45.144 36.3863049,40.3674647 36.590075,34.428969 L36.594,34.2 L36.594,34.2 Z" id="Combined-Shape-Copy-4" fill="url(#radialGradient-7)"></path>
                                    <path d="M36.594,13.68 L36.594,15.048 C36.594,21.0922043 28.4021541,25.992 18.297,25.992 C8.19184593,25.992 0,21.0922043 0,15.048 L0,15.048 L0,13.68 C0,19.7242043 8.19184593,24.624 18.297,24.624 C28.2742407,24.624 36.3863049,19.8474647 36.590075,13.908969 L36.594,13.68 L36.594,13.68 Z" id="Combined-Shape-Copy" fill="url(#radialGradient-7)"></path>
                                    <path d="M36.594,41.04 L36.594,42.408 C36.594,48.4522043 28.4021541,53.352 18.297,53.352 C8.19184593,53.352 0,48.4522043 0,42.408 L0,42.408 L0,41.04 C0,47.0842043 8.19184593,51.984 18.297,51.984 C28.2742407,51.984 36.3863049,47.2074647 36.590075,41.268969 L36.594,41.04 L36.594,41.04 Z" id="Combined-Shape-Copy-5" fill="url(#radialGradient-7)"></path>
                                    <path d="M36.594,20.52 L36.594,21.888 C36.594,27.9322043 28.4021541,32.832 18.297,32.832 C8.19184593,32.832 0,27.9322043 0,21.888 L0,21.888 L0,20.52 C0,26.5642043 8.19184593,31.464 18.297,31.464 C28.2742407,31.464 36.3863049,26.6874647 36.590075,20.748969 L36.594,20.52 L36.594,20.52 Z" id="Combined-Shape-Copy-2" fill="url(#radialGradient-7)"></path>
                                    <path d="M36.594,47.88 L36.594,49.248 C36.594,55.2922043 28.4021541,60.192 18.297,60.192 C8.19184593,60.192 0,55.2922043 0,49.248 L0,49.248 L0,47.88 C0,53.9242043 8.19184593,58.824 18.297,58.824 C28.2742407,58.824 36.3863049,54.0474647 36.590075,48.108969 L36.594,47.88 L36.594,47.88 Z" id="Combined-Shape-Copy-6" fill="url(#radialGradient-7)"></path>
                                    <path d="M36.594,61.56 L36.594,62.928 C36.594,68.9722043 28.4021541,73.872 18.297,73.872 C8.19184593,73.872 0,68.9722043 0,62.928 L0,62.928 L0,61.56 C0,67.6042043 8.19184593,72.504 18.297,72.504 C28.2742407,72.504 36.3863049,67.7274647 36.590075,61.788969 L36.594,61.56 L36.594,61.56 Z" id="Combined-Shape-Copy-8" fill="url(#radialGradient-7)"></path>
                                    <path d="M36.594,27.36 L36.594,28.728 C36.594,34.7722043 28.4021541,39.672 18.297,39.672 C8.19184593,39.672 0,34.7722043 0,28.728 L0,28.728 L0,27.36 C0,33.4042043 8.19184593,38.304 18.297,38.304 C28.2742407,38.304 36.3863049,33.5274647 36.590075,27.588969 L36.594,27.36 L36.594,27.36 Z" id="Combined-Shape-Copy-3" fill="url(#radialGradient-7)"></path>
                                    <path d="M36.594,54.72 L36.594,56.088 C36.594,62.1322043 28.4021541,67.032 18.297,67.032 C8.19184593,67.032 0,62.1322043 0,56.088 L0,56.088 L0,54.72 C0,60.7642043 8.19184593,65.664 18.297,65.664 C28.2742407,65.664 36.3863049,60.8874647 36.590075,54.948969 L36.594,54.72 L36.594,54.72 Z" id="Combined-Shape-Copy-7" fill="url(#radialGradient-7)"></path>
                                    <path d="M36.594,68.4 L36.594,69.768 C36.594,75.8122043 28.4021541,80.712 18.297,80.712 C8.19184593,80.712 0,75.8122043 0,69.768 L0,69.768 L0,68.4 C0,74.4442043 8.19184593,79.344 18.297,79.344 C28.2742407,79.344 36.3863049,74.5674647 36.590075,68.628969 L36.594,68.4 L36.594,68.4 Z" id="Combined-Shape-Copy-9" fill="url(#radialGradient-7)"></path>
                                </g>
                                <ellipse id="Oval-Copy-11" fill="#EEE4D5" cx="18.297" cy="10.944" rx="18.297" ry="10.944"></ellipse>
                            </g>
                        </g>
                        <g id="Coin-Stack" transform="translate(128.250000, 12.350000)">
                            <g id="Group-7">
                                <g id="Group-5" transform="translate(0.000000, 10.944000)">
                                    <path d="M18.297,86.6966209 C27.6574943,86.6966209 36.594,82.6549755 36.594,76.6141896 C36.594,74.5193179 36.594,1.26659027 36.594,0 C35.9177445,7.43607504 25.0804381,10.944 18.297,10.944 C11.5135619,10.944 0.541246808,7.43607504 0,0 C0,2.48197105 0,74.5793039 0,76.6141896 C0,82.6549755 8.93650574,86.6966209 18.297,86.6966209 Z" id="Oval-Copy-9" fill="url(#linearGradient-6)"></path>
                                    <path d="M36.594,6.84 L36.594,8.208 C36.594,14.2522043 28.4021541,19.152 18.297,19.152 C8.19184593,19.152 0,14.2522043 0,8.208 L0,8.208 L0,6.84 C0,12.8842043 8.19184593,17.784 18.297,17.784 C28.2742407,17.784 36.3863049,13.0074647 36.590075,7.06896902 L36.594,6.84 L36.594,6.84 Z" id="Combined-Shape" fill="url(#radialGradient-7)"></path>
                                    <path d="M36.594,34.2 L36.594,35.568 C36.594,41.6122043 28.4021541,46.512 18.297,46.512 C8.19184593,46.512 0,41.6122043 0,35.568 L0,35.568 L0,34.2 C0,40.2442043 8.19184593,45.144 18.297,45.144 C28.2742407,45.144 36.3863049,40.3674647 36.590075,34.428969 L36.594,34.2 L36.594,34.2 Z" id="Combined-Shape-Copy-4" fill="url(#radialGradient-7)"></path>
                                    <path d="M36.594,13.68 L36.594,15.048 C36.594,21.0922043 28.4021541,25.992 18.297,25.992 C8.19184593,25.992 0,21.0922043 0,15.048 L0,15.048 L0,13.68 C0,19.7242043 8.19184593,24.624 18.297,24.624 C28.2742407,24.624 36.3863049,19.8474647 36.590075,13.908969 L36.594,13.68 L36.594,13.68 Z" id="Combined-Shape-Copy" fill="url(#radialGradient-7)"></path>
                                    <path d="M36.594,41.04 L36.594,42.408 C36.594,48.4522043 28.4021541,53.352 18.297,53.352 C8.19184593,53.352 0,48.4522043 0,42.408 L0,42.408 L0,41.04 C0,47.0842043 8.19184593,51.984 18.297,51.984 C28.2742407,51.984 36.3863049,47.2074647 36.590075,41.268969 L36.594,41.04 L36.594,41.04 Z" id="Combined-Shape-Copy-5" fill="url(#radialGradient-7)"></path>
                                    <path d="M36.594,20.52 L36.594,21.888 C36.594,27.9322043 28.4021541,32.832 18.297,32.832 C8.19184593,32.832 0,27.9322043 0,21.888 L0,21.888 L0,20.52 C0,26.5642043 8.19184593,31.464 18.297,31.464 C28.2742407,31.464 36.3863049,26.6874647 36.590075,20.748969 L36.594,20.52 L36.594,20.52 Z" id="Combined-Shape-Copy-2" fill="url(#radialGradient-7)"></path>
                                    <path d="M36.594,47.88 L36.594,49.248 C36.594,55.2922043 28.4021541,60.192 18.297,60.192 C8.19184593,60.192 0,55.2922043 0,49.248 L0,49.248 L0,47.88 C0,53.9242043 8.19184593,58.824 18.297,58.824 C28.2742407,58.824 36.3863049,54.0474647 36.590075,48.108969 L36.594,47.88 L36.594,47.88 Z" id="Combined-Shape-Copy-6" fill="url(#radialGradient-7)"></path>
                                    <path d="M36.594,61.56 L36.594,62.928 C36.594,68.9722043 28.4021541,73.872 18.297,73.872 C8.19184593,73.872 0,68.9722043 0,62.928 L0,62.928 L0,61.56 C0,67.6042043 8.19184593,72.504 18.297,72.504 C28.2742407,72.504 36.3863049,67.7274647 36.590075,61.788969 L36.594,61.56 L36.594,61.56 Z" id="Combined-Shape-Copy-8" fill="url(#radialGradient-7)"></path>
                                    <path d="M36.594,27.36 L36.594,28.728 C36.594,34.7722043 28.4021541,39.672 18.297,39.672 C8.19184593,39.672 0,34.7722043 0,28.728 L0,28.728 L0,27.36 C0,33.4042043 8.19184593,38.304 18.297,38.304 C28.2742407,38.304 36.3863049,33.5274647 36.590075,27.588969 L36.594,27.36 L36.594,27.36 Z" id="Combined-Shape-Copy-3" fill="url(#radialGradient-7)"></path>
                                    <path d="M36.594,54.72 L36.594,56.088 C36.594,62.1322043 28.4021541,67.032 18.297,67.032 C8.19184593,67.032 0,62.1322043 0,56.088 L0,56.088 L0,54.72 C0,60.7642043 8.19184593,65.664 18.297,65.664 C28.2742407,65.664 36.3863049,60.8874647 36.590075,54.948969 L36.594,54.72 L36.594,54.72 Z" id="Combined-Shape-Copy-7" fill="url(#radialGradient-7)"></path>
                                    <path d="M36.594,68.4 L36.594,69.768 C36.594,75.8122043 28.4021541,80.712 18.297,80.712 C8.19184593,80.712 0,75.8122043 0,69.768 L0,69.768 L0,68.4 C0,74.4442043 8.19184593,79.344 18.297,79.344 C28.2742407,79.344 36.3863049,74.5674647 36.590075,68.628969 L36.594,68.4 L36.594,68.4 Z" id="Combined-Shape-Copy-9" fill="url(#radialGradient-7)"></path>
                                </g>
                                <ellipse id="Oval-Copy-11" fill="#EEE4D5" cx="18.297" cy="10.944" rx="18.297" ry="10.944"></ellipse>
                            </g>
                        </g>
                        <g id="Coin-Stack" transform="translate(153.900000, 39.900000)">
                            <g id="Group-7">
                                <g id="Group-5" transform="translate(0.000000, 10.102154)">
                                    <path d="M18.297,80.0276501 C27.6574943,80.0276501 36.594,76.2969004 36.594,70.7207904 C36.594,68.7870627 36.594,1.16916025 36.594,0 C35.9177445,6.86406926 25.0804381,10.1021538 18.297,10.1021538 C11.5135619,10.1021538 0.541246808,6.86406926 0,0 C0,2.2910502 0,68.8424343 0,70.7207904 C0,76.2969004 8.93650574,80.0276501 18.297,80.0276501 Z" id="Oval-Copy-9" fill="url(#linearGradient-8)"></path>
                                    <path d="M36.594,6.31384615 L36.594,7.57661538 C36.594,13.1558809 28.4021541,17.6787692 18.297,17.6787692 C8.19184593,17.6787692 0,13.1558809 0,7.57661538 L0,7.57661538 L0,6.31384615 C0,11.8931117 8.19184593,16.416 18.297,16.416 C28.2726008,16.416 36.3836382,12.0083398 36.5899739,6.52790509 L36.594,6.31384615 L36.594,6.31384615 Z" id="Combined-Shape" fill="url(#radialGradient-9)"></path>
                                    <path d="M36.594,31.5692308 L36.594,32.832 C36.594,38.4112655 28.4021541,42.9341538 18.297,42.9341538 C8.19184593,42.9341538 0,38.4112655 0,32.832 L0,32.832 L0,31.5692308 C0,37.1484963 8.19184593,41.6713846 18.297,41.6713846 C28.2726008,41.6713846 36.3836382,37.2637244 36.5899739,31.7832897 L36.594,31.5692308 L36.594,31.5692308 Z" id="Combined-Shape-Copy-4" fill="url(#radialGradient-9)"></path>
                                    <path d="M36.594,12.6276923 L36.594,13.8904615 C36.594,19.469727 28.4021541,23.9926154 18.297,23.9926154 C8.19184593,23.9926154 0,19.469727 0,13.8904615 L0,13.8904615 L0,12.6276923 C0,18.2069578 8.19184593,22.7298462 18.297,22.7298462 C28.2726008,22.7298462 36.3836382,18.3221859 36.5899739,12.8417512 L36.594,12.6276923 L36.594,12.6276923 Z" id="Combined-Shape-Copy" fill="url(#radialGradient-9)"></path>
                                    <path d="M36.594,37.8830769 L36.594,39.1458462 C36.594,44.7251117 28.4021541,49.248 18.297,49.248 C8.19184593,49.248 0,44.7251117 0,39.1458462 L0,39.1458462 L0,37.8830769 C0,43.4623424 8.19184593,47.9852308 18.297,47.9852308 C28.2726008,47.9852308 36.3836382,43.5775705 36.5899739,38.0971359 L36.594,37.8830769 L36.594,37.8830769 Z" id="Combined-Shape-Copy-5" fill="url(#radialGradient-9)"></path>
                                    <path d="M36.594,18.9415385 L36.594,20.2043077 C36.594,25.7835732 28.4021541,30.3064615 18.297,30.3064615 C8.19184593,30.3064615 0,25.7835732 0,20.2043077 L0,20.2043077 L0,18.9415385 C0,24.520804 8.19184593,29.0436923 18.297,29.0436923 C28.2726008,29.0436923 36.3836382,24.6360321 36.5899739,19.1555974 L36.594,18.9415385 L36.594,18.9415385 Z" id="Combined-Shape-Copy-2" fill="url(#radialGradient-9)"></path>
                                    <path d="M36.594,44.1969231 L36.594,45.4596923 C36.594,51.0389578 28.4021541,55.5618462 18.297,55.5618462 C8.19184593,55.5618462 0,51.0389578 0,45.4596923 L0,45.4596923 L0,44.1969231 C0,49.7761886 8.19184593,54.2990769 18.297,54.2990769 C28.2726008,54.2990769 36.3836382,49.8914167 36.5899739,44.410982 L36.594,44.1969231 L36.594,44.1969231 Z" id="Combined-Shape-Copy-6" fill="url(#radialGradient-9)"></path>
                                    <path d="M36.594,56.8246154 L36.594,58.0873846 C36.594,63.6666501 28.4021541,68.1895385 18.297,68.1895385 C8.19184593,68.1895385 0,63.6666501 0,58.0873846 L0,58.0873846 L0,56.8246154 C0,62.4038809 8.19184593,66.9267692 18.297,66.9267692 C28.2726008,66.9267692 36.3836382,62.519109 36.5899739,57.0386743 L36.594,56.8246154 L36.594,56.8246154 Z" id="Combined-Shape-Copy-8" fill="url(#radialGradient-9)"></path>
                                    <path d="M36.594,25.2553846 L36.594,26.5181538 C36.594,32.0974194 28.4021541,36.6203077 18.297,36.6203077 C8.19184593,36.6203077 0,32.0974194 0,26.5181538 L0,26.5181538 L0,25.2553846 C0,30.8346501 8.19184593,35.3575385 18.297,35.3575385 C28.2726008,35.3575385 36.3836382,30.9498782 36.5899739,25.4694435 L36.594,25.2553846 L36.594,25.2553846 Z" id="Combined-Shape-Copy-3" fill="url(#radialGradient-9)"></path>
                                    <path d="M36.594,50.5107692 L36.594,51.7735385 C36.594,57.352804 28.4021541,61.8756923 18.297,61.8756923 C8.19184593,61.8756923 0,57.352804 0,51.7735385 L0,51.7735385 L0,50.5107692 C0,56.0900347 8.19184593,60.6129231 18.297,60.6129231 C28.2726008,60.6129231 36.3836382,56.2052628 36.5899739,50.7248282 L36.594,50.5107692 L36.594,50.5107692 Z" id="Combined-Shape-Copy-7" fill="url(#radialGradient-9)"></path>
                                    <path d="M36.594,63.1384615 L36.594,64.4012308 C36.594,69.9804963 28.4021541,74.5033846 18.297,74.5033846 C8.19184593,74.5033846 0,69.9804963 0,64.4012308 L0,64.4012308 L0,63.1384615 C0,68.717727 8.19184593,73.2406154 18.297,73.2406154 C28.2726008,73.2406154 36.3836382,68.8329551 36.5899739,63.3525205 L36.594,63.1384615 L36.594,63.1384615 Z" id="Combined-Shape-Copy-9" fill="url(#radialGradient-9)"></path>
                                </g>
                                <ellipse id="Oval-Copy-11" fill="#EEE4D5" cx="18.297" cy="10.1021538" rx="18.297" ry="10.1021538"></ellipse>
                            </g>
                        </g>
                        <ellipse id="Oval-Copy-3" fill="url(#linearGradient-10)" cx="111.72" cy="80.18" rx="60.99" ry="36.48"></ellipse>
                        <path d="M111.72,165.68 C145.403847,165.68 172.71,149.356585 172.71,129.220632 C172.71,122.237726 172.71,84.4019676 172.71,80.18 C172.71,104.966917 133.529214,116.669046 111.72,116.669046 C89.9107858,116.669046 50.73,104.966917 50.73,80.18 C50.73,88.4532368 50.73,122.43768 50.73,129.220632 C50.73,149.356585 78.0361531,165.68 111.72,165.68 Z" id="Oval-Copy-6" fill="url(#linearGradient-11)"></path>
                        <g id="Group-10" transform="translate(73.150000, 118.750000)">
                            <g id="Group-9" transform="translate(36.100000, 0.000000)">
                                <path d="M18.3695151,32.8891065 L18.3695151,34.7364585 C14.368597,35.222139 10.1982358,35.4928502 5.89761221,35.5919846 L5.89694544,33.9880684 C9.48316719,33.8706818 13.3646345,33.5813837 17.3666114,33.0319386 L18.3695151,32.8891065 Z" id="Path" fill="url(#linearGradient-12)"></path>
                                <path d="M20.299183,28.7846665 L20.3001924,30.6833203 C16.8306563,31.1727391 13.225038,31.4904328 9.51007018,31.6659229 L9.50934836,30.014316 C12.9512502,29.7951695 16.5925087,29.4078315 20.299183,28.7846665 Z" id="Path" fill="url(#linearGradient-13)"></path>
                                <path d="M22.1965724,24.6457005 L22.1972181,26.5962107 C17.5678458,27.3456882 12.6799384,27.7703331 7.59987637,27.9434506 L7.59987637,26.3200662 C11.8595271,26.1191636 16.4791393,25.6686813 21.1865881,24.8311466 L22.1965724,24.6457005 Z" id="Path" fill="#FEA684"></path>
                                <path d="M21.2212944,21.024965 L21.2217499,22.948779 C15.1877124,23.859832 8.72894018,24.2360515 1.98906405,24.2360515 L1.06686895,24.2329951 L1.06686895,24.2329951 L1.06812911,22.6482162 L1.96511267,22.6522604 L1.96511267,22.6522604 C7.62827068,22.6522604 14.3314368,22.2534603 21.2212944,21.024965 Z" id="Path" fill="url(#linearGradient-14)"></path>
                                <path d="M16.45756,17.9525847 L16.4584981,19.7509472 C12.0952213,20.2017206 7.54267984,20.4113595 2.84988335,20.4339861 L2.84944897,18.8490194 C6.70398586,18.820767 11.0032878,18.6045073 15.4927212,18.0716591 L16.45756,17.9525847 Z" id="Path" fill="url(#linearGradient-15)"></path>
                                <path d="M18.3695151,13.8891065 L18.3695151,15.7364585 C13.1671736,16.3679865 7.67826528,16.6360515 1.98906405,16.6360515 C1.32379384,16.6360515 0.660761302,16.631303 0.000150827477,16.6217525 L0.001292219,15.0330684 C0.669605742,15.0460173 1.3246721,15.0522604 1.96511267,15.0522604 C6.58660531,15.0522604 11.9007002,14.7866761 17.4436505,14.0213315 L18.3695151,13.8891065 Z" id="Path" fill="url(#linearGradient-16)"></path>
                                <path d="M15.5506609,10.4647659 L15.5507585,12.2410074 C12.6515318,12.5169044 9.67120637,12.6892258 6.62390646,12.7735693 L6.62281782,11.1620886 C9.13907852,11.0643166 11.7919438,10.8808623 14.5229745,10.5822157 L15.5506609,10.4647659 Z" id="Path" fill="#FEA684"></path>
                                <path d="M19.3891139,6.40168547 L19.3902244,8.31651145 C15.6059398,8.88475967 11.6646687,9.24779899 7.6004034,9.4191511 L7.59979495,7.78335934 C11.006107,7.58370246 14.6426956,7.19725265 18.3703328,6.57675149 L19.3891139,6.40168547 Z" id="Path" fill="url(#linearGradient-17)"></path>
                                <path d="M40.0302253,26.6 L40.0302253,28.8932023 C38.1444609,29.7984734 36.1706068,30.5966238 34.1169731,31.2968305 L34.1165893,29.056086 C35.8384003,28.4399025 37.5380193,27.753117 39.2015385,26.9887065 L40.0302253,26.6 Z" id="Path" fill="#FEA684"></path>
                                <path d="M40.0302253,22.8 L40.0302253,25.0932023 C38.7428038,25.7112358 37.4143248,26.2793417 36.0474326,26.8004403 L36.0466629,24.5314917 C37.1245069,24.1073524 38.1913711,23.6538814 39.2437305,23.1692985 L40.0302253,22.8 Z" id="Path" fill="url(#linearGradient-18)"></path>
                                <path d="M40.0302253,19 L40.0302253,21.2932023 C39.3464121,21.6214705 38.6510158,21.935653 37.9444326,22.2361876 L37.9439283,19.9490464 C38.4115615,19.7470699 38.8766701,19.5392205 39.3389544,19.3253471 L40.0302253,19 Z" id="Path" fill="url(#linearGradient-19)"></path>
                                <path d="M40.0302253,15.2 L40.0302253,17.4932023 C39.0337695,17.9715562 38.0127175,18.4200002 36.9682955,18.8398883 L36.9688423,16.5602725 C37.7433319,16.2413991 38.5115556,15.9069286 39.2721814,15.5561884 L40.0302253,15.2 Z" id="Path" fill="#FEA684"></path>
                                <path d="M40.0302253,11.4 L40.0302253,13.6932023 C37.5661714,14.8760843 34.9517166,15.8760726 32.2054001,16.7136402 L32.2050678,14.5087739 C34.5742929,13.7376552 36.911738,12.8398949 39.182067,11.7976496 L40.0302253,11.4 Z" id="Path" fill="url(#linearGradient-20)"></path>
                                <path d="M40.0302253,7.6 L40.0302253,9.89320234 C38.1444609,10.7984734 36.1706068,11.5966238 34.1169731,12.2968305 L34.1165893,10.056086 C35.8384003,9.43990249 37.5380193,8.75311697 39.2015385,7.9887065 L40.0302253,7.6 Z" id="Path" fill="url(#linearGradient-21)"></path>
                                <path d="M40.0302253,3.8 L40.0302253,6.09320234 C37.2961846,7.40569291 34.3769783,8.49301462 31.2979319,9.38313457 L31.2983716,7.19727381 C33.944184,6.37444603 36.5561909,5.39749633 39.0856449,4.24180911 L40.0302253,3.8 Z" id="Path" fill="#FEA684"></path>
                                <path d="M40.0302253,-6.48014975e-13 L40.0302253,2.29320234 C38.4588868,3.04753162 36.8263852,3.73877671 35.1375282,4.36885008 L35.1363391,2.10425999 C36.4634742,1.59344876 37.7756274,1.04329324 39.0663256,0.451596171 L40.0302253,-6.48014975e-13 Z" id="Path" fill="url(#linearGradient-22)"></path>
                                <path d="M31.1943992,30.0295238 L31.1949623,32.2128114 C27.9315571,33.1504904 24.4893283,33.867506 20.8983236,34.3970406 L20.8973786,32.4821357 C23.9734292,31.9447557 27.0894294,31.2430523 30.1692403,30.338578 L31.1943992,30.0295238 Z" id="Path" fill="url(#linearGradient-23)"></path>
                                <path d="M33.1255534,25.6021989 L33.1249721,27.8254979 C29.8740558,28.8717786 26.4313109,29.6821541 22.8285122,30.291714 L22.8281466,28.3237971 C26.2657956,27.647647 29.7332303,26.7581041 33.1255534,25.6021989 Z" id="Path" fill="url(#linearGradient-24)"></path>
                                <path d="M34.7756178,21.2163662 L35.0228317,21.3386668 L35.0236768,23.3794155 C31.7861183,24.5428064 28.342472,25.4535738 24.7264569,26.1489541 L24.7261056,24.1289964 C27.761423,23.4625713 30.8048951,22.6229365 33.7847773,21.5738638 L34.7756178,21.2163662 Z" id="Path" fill="url(#linearGradient-25)"></path>
                                <path d="M34.0465374,17.6811121 L34.04696,19.9206537 C30.8026588,21.0223451 27.3598357,21.8802862 23.7511679,22.5305634 L23.7508003,20.5372915 C26.852698,19.8932095 29.9711682,19.0719897 33.0294461,18.0348687 L34.0465374,17.6811121 Z" id="Path" fill="url(#linearGradient-26)"></path>
                                <path d="M29.2836548,15.3928397 L29.2833985,17.5318932 C26.0087706,18.3709892 22.5669709,19.0030724 18.9865374,19.4596579 L18.9862305,17.5961036 C22.0070444,17.1307814 25.0823419,16.5127186 28.1385959,15.7047868 L29.2836548,15.3928397 Z" id="Path" fill="url(#linearGradient-27)"></path>
                                <path d="M31.1943992,11.0295238 L31.1949623,13.2128114 C27.9315571,14.1504904 24.4893283,14.867506 20.8983236,15.3970406 L20.8973786,13.4821357 C23.9734292,12.9447557 27.0894294,12.2430523 30.1692403,11.338578 L31.1943992,11.0295238 Z" id="Path" fill="#FEA684"></path>
                                <path d="M28.3768335,8.0414119 L28.3774166,10.1577577 C25.0977272,10.9529581 21.656004,11.5471627 18.0801324,11.9711657 L18.0794472,10.1314802 C21.4684643,9.64148682 24.9359383,8.96247719 28.3768335,8.0414119 Z" id="Path" fill="url(#linearGradient-28)"></path>
                                <path d="M32.2160097,3.15834773 L32.2162587,5.38036777 C28.959132,6.42464842 25.5164483,7.2610384 21.9191466,7.90184473 L21.9189296,5.91856807 C24.9662703,5.29411632 28.0443992,4.50711161 31.0798568,3.53261946 L32.2160097,3.15834773 Z" id="Path" fill="#FEA684"></path>
                                <polygon id="Path-9" fill="url(#linearGradient-29)" opacity="0.32875279" points="27.97685 15.7305836 39.5139618 13.2541838 32.2162587 3.15834773 21.9191466 5.91856807 21.9191466 7.90184473 27.97685 18.6937077"></polygon>
                                <path d="M37.4077034,17.3222359 L47.6267093,13.8891065 L40.0302253,3.8 C38.1324546,4.69152249 36.6640462,5.3394027 35.625,5.74364064 C34.5859538,6.14787858 33.1435978,6.63242297 31.2979319,7.19727381 L31.35,9.493497 L37.4077034,20.28536 L37.4077034,17.3222359 Z" id="Path-9-Copy-4" fill="url(#linearGradient-30)" opacity="0.32875279"></path>
                                <path d="M43.2759116,25.3021538 L48.7600279,23.6826602 L40.0302253,15.2 C40.0486282,15.2708999 39.5383066,15.5084688 38.4992604,15.9127068 C37.4602142,16.3169447 36.9325366,16.5272642 36.9162274,16.5436651 L36.9682955,18.8398883 L43.2759116,28.2652779 L43.2759116,25.3021538 Z" id="Path-9-Copy-6" fill="url(#linearGradient-31)" opacity="0.32875279"></path>
                                <path d="M26.0461704,24.2360515 L37.5832822,21.7596517 L31.1949623,11.0295238 C29.0495541,11.6572851 27.3332902,12.1476631 26.0461704,12.500658 C24.7590507,12.853653 23.0427868,13.113201 20.8973786,13.2793023 L20.8973786,15.262579 L26.0461704,27.1991755 L26.0461704,24.2360515 Z" id="Path-9-Copy-3" fill="url(#linearGradient-32)" opacity="0.32875279"></path>
                                <path d="M40.3097715,39.1722359 L50.5287775,35.7391065 L42.9322935,25.65 C41.0345227,26.5415225 39.5661143,27.1894027 38.5270681,27.5936406 C37.488022,27.9978786 36.0456659,28.482423 34.2,29.0472738 L34.2520681,31.343497 L40.3097715,42.13536 L40.3097715,39.1722359 Z" id="Path-9-Copy-5" fill="url(#linearGradient-30)" opacity="0.32875279"></path>
                                <polygon id="Path-9-Copy" fill="url(#linearGradient-33)" opacity="0.32875279" points="18.0794472 21.9447388 18.0794472 19.1932854 15.5506609 10.4647659 6.62281782 11.1620886 6.62281782 13.1453653 9.15776471 22.9813562"></polygon>
                                <path d="M24.1349427,36.8929918 L24.1349427,34.1415385 L22.1965724,24.6457005 C18.9609433,25.2333621 16.5281812,25.6221969 14.8982862,25.8122049 C13.2683911,26.0022129 10.8356291,26.1805855 7.6,26.3473227 L7.59979495,27.9469565 L9.47466384,38.4377258 L24.1349427,36.8929918 Z" id="Path-9-Copy-2" fill="url(#linearGradient-34)" opacity="0.32875279"></path>
                            </g>
                            <path d="M-4.05009359e-14,26.6 C2.4694994,27.7283348 5.03282064,28.7020752 7.63939031,29.538192 L7.63954672,31.4611673 C5.25281556,30.698759 2.96959345,29.8262127 0.805795248,28.838897 L-4.05009359e-14,28.4632647 L-4.05009359e-14,26.6 Z M-4.05009359e-14,22.8 C2.75660251,24.0595146 5.63011036,25.1263991 8.55018104,26.024258 L8.54995816,27.9451349 C5.83254989,27.1177152 3.24389833,26.1513191 0.806742961,25.0393294 L-4.05009359e-14,24.6632647 L-4.05009359e-14,22.8 Z M-4.05009359e-14,19 C3.06790791,20.4017526 6.28061654,21.5649107 9.54123801,22.522013 L9.54123801,24.4391778 C6.43754188,23.542575 3.49455981,22.4697373 0.745046046,21.2111333 L-4.05009359e-14,20.8632647 L-4.05009359e-14,19 Z M-4.05009359e-14,15.2 C2.75660251,16.4595146 5.63011036,17.5263991 8.55018104,18.424258 L8.54995816,20.3451349 C5.83254989,19.5177152 3.24389833,18.5513191 0.806742961,17.4393294 L-4.05009359e-14,17.0632647 L-4.05009359e-14,15.2 Z M-4.05009359e-14,11.4 C1.85682385,12.2483982 3.76669062,13.0093953 5.70810185,13.6902054 L5.70774908,15.6118473 C4.00705637,15.0109447 2.36387431,14.3506396 0.784399678,13.6291289 L-4.05009359e-14,13.2632647 L-4.05009359e-14,11.4 Z M-4.05009359e-14,7.6 C2.75660251,8.85951457 5.63011036,9.92639907 8.55018104,10.824258 L8.54995816,12.7451349 C5.83254989,11.9177152 3.24389833,10.9513191 0.806742961,9.8393294 L-4.05009359e-14,9.46326473 L-4.05009359e-14,7.6 Z M-4.05009359e-14,3.8 C2.4694994,4.92833478 5.03282064,5.9020752 7.63939031,6.73819196 L7.63954672,8.6611673 C5.25281556,7.89875904 2.96959345,7.02621268 0.805795248,6.03889698 L-4.05009359e-14,5.66326473 L-4.05009359e-14,3.8 Z M-4.05009359e-14,-1.89004368e-13 C2.15573591,0.984973635 4.38296708,1.86707007 6.64805147,2.65241524 L6.64768836,4.58876664 C4.61446356,3.8762842 2.65987601,3.09068937 0.794134291,2.23451193 L-4.05009359e-14,1.86326473 L-4.05009359e-14,-1.89004368e-13 Z" id="Shape" fill="url(#linearGradient-35)"></path>
                        </g>
                        <g id="Oval-Copy-3">
                            <use fill="url(#linearGradient-36)" xlink:href="#path-38"></use>
                            <use fill="url(#linearGradient-37)" xlink:href="#path-38"></use>
                        </g>
                        <g id="Coin-Stack-Copy-3" transform="translate(45.600000, 129.200000)">
                            <g id="Group-7">
                                <g id="Group-5" transform="translate(0.000000, 10.102154)">
                                    <path d="M18.297,42.0276501 C27.6574943,42.0276501 36.594,38.2969004 36.594,32.7207904 C36.594,30.7870627 36.594,1.16916025 36.594,0 C35.9177445,6.86406926 25.0804381,10.1021538 18.297,10.1021538 C11.5135619,10.1021538 0.541246808,6.86406926 0,0 C0,2.2910502 0,30.8424343 0,32.7207904 C0,38.2969004 8.93650574,42.0276501 18.297,42.0276501 Z" id="Oval-Copy-9" fill="url(#linearGradient-39)"></path>
                                    <path d="M36.594,12.9638462 L36.594,14.2266154 C36.594,19.8058809 28.4021541,24.3287692 18.297,24.3287692 C8.19184593,24.3287692 0,19.8058809 0,14.2266154 L0,14.2266154 L0,12.9638462 C0,18.5431117 8.19184593,23.066 18.297,23.066 C28.2726008,23.066 36.3836382,18.6583398 36.5899739,13.1779051 L36.594,12.9638462 L36.594,12.9638462 Z" id="Combined-Shape" fill="url(#radialGradient-9)"></path>
                                    <path d="M36.594,6.31384615 L36.594,7.57661538 C36.594,13.1558809 28.4021541,17.6787692 18.297,17.6787692 C8.19184593,17.6787692 -1.3500312e-14,13.1558809 -1.3500312e-14,7.57661538 L-1.3500312e-14,7.57661538 L-1.3500312e-14,6.31384615 C-1.3500312e-14,11.8931117 8.19184593,16.416 18.297,16.416 C28.2726008,16.416 36.3836382,12.0083398 36.5899739,6.52790509 L36.594,6.31384615 L36.594,6.31384615 Z" id="Combined-Shape" fill="url(#radialGradient-9)"></path>
                                    <path d="M36.594,19.2776923 L36.594,20.5404615 C36.594,26.119727 28.4021541,30.6426154 18.297,30.6426154 C8.19184593,30.6426154 0,26.119727 0,20.5404615 L0,20.5404615 L0,19.2776923 C0,24.8569578 8.19184593,29.3798462 18.297,29.3798462 C28.2726008,29.3798462 36.3836382,24.9721859 36.5899739,19.4917512 L36.594,19.2776923 L36.594,19.2776923 Z" id="Combined-Shape-Copy" fill="url(#radialGradient-9)"></path>
                                    <path d="M36.594,25.5915385 L36.594,26.8543077 C36.594,32.4335732 28.4021541,36.9564615 18.297,36.9564615 C8.19184593,36.9564615 0,32.4335732 0,26.8543077 L0,26.8543077 L0,25.5915385 C0,31.170804 8.19184593,35.6936923 18.297,35.6936923 C28.2726008,35.6936923 36.3836382,31.2860321 36.5899739,25.8055974 L36.594,25.5915385 L36.594,25.5915385 Z" id="Combined-Shape-Copy-2" fill="url(#radialGradient-9)"></path>
                                </g>
                                <ellipse id="Oval-Copy-11" fill="#EEE4D5" cx="18.297" cy="10.1021538" rx="18.297" ry="10.1021538"></ellipse>
                            </g>
                        </g>
                        <g id="Coin-Stack-Copy" transform="translate(147.250000, 133.000000)">
                            <g id="Group-7">
                                <g id="Group-5" transform="translate(0.000000, 10.102154)">
                                    <path d="M18.297,35.3776501 C27.6574943,35.3776501 36.594,31.6469004 36.594,26.0707904 C36.594,24.1370627 36.594,1.16916025 36.594,0 C35.9177445,6.86406926 25.0804381,10.1021538 18.297,10.1021538 C11.5135619,10.1021538 0.541246808,6.86406926 0,0 C0,2.2910502 0,24.1924343 0,26.0707904 C0,31.6469004 8.93650574,35.3776501 18.297,35.3776501 Z" id="Oval-Copy-9" fill="url(#linearGradient-40)"></path>
                                    <path d="M36.594,6.31384615 L36.594,7.57661538 C36.594,13.1558809 28.4021541,17.6787692 18.297,17.6787692 C8.19184593,17.6787692 0,13.1558809 0,7.57661538 L0,7.57661538 L0,6.31384615 C0,11.8931117 8.19184593,16.416 18.297,16.416 C28.2726008,16.416 36.3836382,12.0083398 36.5899739,6.52790509 L36.594,6.31384615 L36.594,6.31384615 Z" id="Combined-Shape" fill="url(#radialGradient-9)"></path>
                                    <path d="M36.594,12.6276923 L36.594,13.8904615 C36.594,19.469727 28.4021541,23.9926154 18.297,23.9926154 C8.19184593,23.9926154 0,19.469727 0,13.8904615 L0,13.8904615 L0,12.6276923 C0,18.2069578 8.19184593,22.7298462 18.297,22.7298462 C28.2726008,22.7298462 36.3836382,18.3221859 36.5899739,12.8417512 L36.594,12.6276923 L36.594,12.6276923 Z" id="Combined-Shape-Copy" fill="url(#radialGradient-9)"></path>
                                    <path d="M36.594,18.9415385 L36.594,20.2043077 C36.594,25.7835732 28.4021541,30.3064615 18.297,30.3064615 C8.19184593,30.3064615 0,25.7835732 0,20.2043077 L0,20.2043077 L0,18.9415385 C0,24.520804 8.19184593,29.0436923 18.297,29.0436923 C28.2726008,29.0436923 36.3836382,24.6360321 36.5899739,19.1555974 L36.594,18.9415385 L36.594,18.9415385 Z" id="Combined-Shape-Copy-2" fill="url(#radialGradient-9)"></path>
                                </g>
                                <ellipse id="Oval-Copy-11" fill="#EEE4D5" cx="18.297" cy="10.1021538" rx="18.297" ry="10.1021538"></ellipse>
                            </g>
                        </g>
                        <g id="Coin-Stack-Copy-2" transform="translate(117.800000, 158.650000)">
                            <g id="Group-7">
                                <g id="Group-5" transform="translate(0.000000, 10.102154)">
                                    <path d="M18.297,23.0276501 C27.6574943,23.0276501 36.594,19.2969004 36.594,13.7207904 C36.594,11.7870627 36.594,1.16916025 36.594,0 C35.9177445,6.86406926 25.0804381,10.1021538 18.297,10.1021538 C11.5135619,10.1021538 0.541246808,6.86406926 0,0 C0,2.2910502 0,11.8424343 0,13.7207904 C0,19.2969004 8.93650574,23.0276501 18.297,23.0276501 Z" id="Oval-Copy-9" fill="url(#linearGradient-41)"></path>
                                    <path d="M36.594,6.59153846 L36.594,7.85430769 C36.594,13.4335732 28.4021541,17.9564615 18.297,17.9564615 C8.19184593,17.9564615 0,13.4335732 0,7.85430769 L0,7.85430769 L0,6.59153846 C0,12.170804 8.19184593,16.6936923 18.297,16.6936923 C28.2726008,16.6936923 36.3836382,12.2860321 36.5899739,6.8055974 L36.594,6.59153846 L36.594,6.59153846 Z" id="Combined-Shape-Copy-2" fill="url(#radialGradient-9)"></path>
                                </g>
                                <ellipse id="Oval-Copy-11" fill="#EEE4D5" cx="18.297" cy="10.1021538" rx="18.297" ry="10.1021538"></ellipse>
                            </g>
                        </g>
                    </g>
                </g>
            </g>
        </g>
    </g>
</svg>