<svg width="57" height="56" viewBox="0 0 57 56" fill="none" xmlns="http://www.w3.org/2000/svg">
<circle cx="28.25" cy="28" r="24" stroke="url(#paint0_linear)" stroke-width="4"/>
<path fill-rule="evenodd" clip-rule="evenodd" d="M29.2499 16.874C30.9752 16.4299 32.2499 14.8638 32.2499 13C32.2499 10.7909 30.4591 9 28.2499 9C26.0408 9 24.2499 10.7909 24.2499 13C24.2499 14.8638 25.5247 16.4299 27.2499 16.874V22.083C25.7994 22.3263 24.5253 23.0902 23.6263 24.1759L19.1144 21.571C19.5925 19.8549 18.8736 17.9678 17.2595 17.0359C15.3463 15.9313 12.8999 16.5868 11.7954 18.5C10.6908 20.4132 11.3463 22.8595 13.2595 23.9641C14.8736 24.896 16.8673 24.5751 18.1144 23.303L22.625 25.9072C22.3825 26.5588 22.2499 27.2639 22.2499 28C22.2499 28.7361 22.3825 29.4413 22.6251 30.0929L18.1146 32.697C16.8675 31.4249 14.8738 31.104 13.2597 32.0359C11.3465 33.1405 10.691 35.5868 11.7956 37.5C12.9001 39.4132 15.3465 40.0687 17.2597 38.9641C18.8738 38.0322 19.5927 36.1451 19.1146 34.429L23.6264 31.8242C24.5253 32.9099 25.7994 33.6737 27.2499 33.917V39.126C25.5247 39.5701 24.2499 41.1362 24.2499 43C24.2499 45.2091 26.0408 47 28.2499 47C30.4591 47 32.2499 45.2091 32.2499 43C32.2499 41.1362 30.9752 39.5701 29.2499 39.126V33.917C30.7005 33.6737 31.9745 32.9099 32.8735 31.8242L37.3853 34.429C36.9072 36.1452 37.6261 38.0322 39.2402 38.9641C41.1534 40.0687 43.5998 39.4132 44.7043 37.5C45.8089 35.5868 45.1534 33.1405 43.2402 32.0359C41.6261 31.104 39.6324 31.4249 38.3853 32.697L33.8748 30.0929C34.1174 29.4413 34.2499 28.7361 34.2499 28C34.2499 27.2639 34.1174 26.5588 33.8749 25.9072L38.3855 23.303C39.6326 24.5751 41.6263 24.896 43.2404 23.9641C45.1536 22.8595 45.8091 20.4132 44.7045 18.5C43.6 16.5868 41.1536 15.9313 39.2404 17.0359C37.6263 17.9678 36.9074 19.8548 37.3855 21.571L32.8736 24.1759C31.9746 23.0902 30.7005 22.3263 29.2499 22.083V16.874ZM31.2499 28C31.2499 29.6569 29.9068 31 28.2499 31C26.5931 31 25.2499 29.6569 25.2499 28C25.2499 26.3431 26.5931 25 28.2499 25C29.9068 25 31.2499 26.3431 31.2499 28Z" fill="url(#paint1_linear)"/>
<defs>
<linearGradient id="paint0_linear" x1="49.3628" y1="54.2588" x2="-10.1624" y2="25.211" gradientUnits="userSpaceOnUse">
<stop stop-color="#7234C8"/>
<stop offset="0.442708" stop-color="#F53568"/>
<stop offset="1" stop-color="#FA6E37"/>
</linearGradient>
<linearGradient id="paint1_linear" x1="43.1971" y1="48.7882" x2="-0.633014" y2="29.6609" gradientUnits="userSpaceOnUse">
<stop stop-color="#7234C8"/>
<stop offset="0.442708" stop-color="#F53568"/>
<stop offset="1" stop-color="#FA6E37"/>
</linearGradient>
</defs>
</svg>
