<svg width="57" height="56" viewBox="0 0 57 56" fill="none" xmlns="http://www.w3.org/2000/svg">
<circle cx="28.75" cy="28" r="24" stroke="url(#paint0_linear)" stroke-width="4"/>
<path fill-rule="evenodd" clip-rule="evenodd" d="M18.75 14.5C16.2647 14.5 14.25 16.5147 14.25 19V23C14.25 25.4853 16.2647 27.5 18.75 27.5H38.75C41.2353 27.5 43.25 25.4853 43.25 23V19C43.25 16.5147 41.2353 14.5 38.75 14.5H18.75ZM17.25 19C17.25 18.1716 17.9216 17.5 18.75 17.5H38.75C39.5784 17.5 40.25 18.1716 40.25 19V23C40.25 23.8284 39.5784 24.5 38.75 24.5H18.75C17.9216 24.5 17.25 23.8284 17.25 23V19ZM18.75 28.5C16.2647 28.5 14.25 30.5147 14.25 33V37C14.25 39.4853 16.2647 41.5 18.75 41.5H38.75C41.2353 41.5 43.25 39.4853 43.25 37V33C43.25 30.5147 41.2353 28.5 38.75 28.5H18.75ZM17.25 33C17.25 32.1716 17.9216 31.5 18.75 31.5H38.75C39.5784 31.5 40.25 32.1716 40.25 33V37C40.25 37.8284 39.5784 38.5 38.75 38.5H18.75C17.9216 38.5 17.25 37.8284 17.25 37V33ZM21.75 21C21.75 21.5523 21.3023 22 20.75 22C20.1977 22 19.75 21.5523 19.75 21C19.75 20.4477 20.1977 20 20.75 20C21.3023 20 21.75 20.4477 21.75 21ZM24.75 22C25.3023 22 25.75 21.5523 25.75 21C25.75 20.4477 25.3023 20 24.75 20C24.1977 20 23.75 20.4477 23.75 21C23.75 21.5523 24.1977 22 24.75 22ZM21.75 35C21.75 35.5523 21.3023 36 20.75 36C20.1977 36 19.75 35.5523 19.75 35C19.75 34.4477 20.1977 34 20.75 34C21.3023 34 21.75 34.4477 21.75 35ZM24.75 36C25.3023 36 25.75 35.5523 25.75 35C25.75 34.4477 25.3023 34 24.75 34C24.1977 34 23.75 34.4477 23.75 35C23.75 35.5523 24.1977 36 24.75 36Z" fill="url(#paint1_linear)"/>
<defs>
<linearGradient id="paint0_linear" x1="49.8628" y1="54.2588" x2="-9.66235" y2="25.211" gradientUnits="userSpaceOnUse">
<stop stop-color="#7234C8"/>
<stop offset="0.442708" stop-color="#F53568"/>
<stop offset="1" stop-color="#FA6E37"/>
</linearGradient>
<linearGradient id="paint1_linear" x1="41.5056" y1="42.7706" x2="6.57472" y2="24.4619" gradientUnits="userSpaceOnUse">
<stop stop-color="#7234C8"/>
<stop offset="0.442708" stop-color="#F53568"/>
<stop offset="1" stop-color="#FA6E37"/>
</linearGradient>
</defs>
</svg>
