<svg width="569" height="364" fill="none" xmlns="http://www.w3.org/2000/svg"><g opacity=".5"><rect x="-1" y="1" width="46" height="46" rx="3" transform="matrix(-1 0 0 1 566.5 4)" fill="url(#paint0_linear)" stroke="url(#paint1_linear)" stroke-width="2"/><rect x="-1" y="1" width="46" height="46" rx="3" transform="matrix(-1 0 0 1 514.5 4)" fill="url(#paint2_linear)" stroke="url(#paint3_linear)" stroke-width="2"/><g filter="url(#filter0_d)"><rect width="48" height="48" rx="4" transform="matrix(-1 0 0 1 464.5 4)" fill="#fff"/></g><rect x="-1" y="1" width="46" height="46" rx="3" transform="matrix(-1 0 0 1 410.5 4)" fill="url(#paint4_linear)" stroke="url(#paint5_linear)" stroke-width="2"/><g filter="url(#filter1_d)"><rect width="48" height="48" rx="4" transform="matrix(-1 0 0 1 464.5 56)" fill="#fff"/></g><g filter="url(#filter2_d)"><rect width="48" height="48" rx="4" transform="matrix(-1 0 0 1 412.5 56)" fill="#fff"/></g><rect x="-1" y="1" width="46" height="46" rx="3" transform="matrix(-1 0 0 1 358.5 56)" fill="url(#paint6_linear)" stroke="url(#paint7_linear)" stroke-width="2"/><rect x="-1" y="1" width="46" height="46" rx="3" transform="matrix(-1 0 0 1 358.5 108)" fill="url(#paint8_linear)" stroke="url(#paint9_linear)" stroke-width="2"/><rect x="-1" y="1" width="46" height="46" rx="3" transform="matrix(-1 0 0 1 150.5 108)" fill="url(#paint10_linear)" stroke="url(#paint11_linear)" stroke-width="2"/><rect x="-1" y="1" width="46" height="46" rx="3" transform="matrix(-1 0 0 1 566.5 160)" fill="url(#paint12_linear)" stroke="url(#paint13_linear)" stroke-width="2"/><rect x="-1" y="1" width="46" height="46" rx="3" transform="matrix(-1 0 0 1 358.5 160)" fill="url(#paint14_linear)" stroke="url(#paint15_linear)" stroke-width="2"/><rect x="-1" y="1" width="46" height="46" rx="3" transform="matrix(-1 0 0 1 306.5 160)" fill="url(#paint16_linear)" stroke="url(#paint17_linear)" stroke-width="2"/><rect x="-1" y="1" width="46" height="46" rx="3" transform="matrix(-1 0 0 1 150.5 160)" fill="url(#paint18_linear)" stroke="url(#paint19_linear)" stroke-width="2"/><rect x="-1" y="1" width="46" height="46" rx="3" transform="matrix(-1 0 0 1 566.5 212)" fill="url(#paint20_linear)" stroke="url(#paint21_linear)" stroke-width="2"/><rect x="-1" y="1" width="46" height="46" rx="3" transform="matrix(-1 0 0 1 514.5 212)" fill="url(#paint22_linear)" stroke="url(#paint23_linear)" stroke-width="2"/><rect x="-1" y="1" width="46" height="46" rx="3" transform="matrix(-1 0 0 1 202.5 212)" fill="url(#paint24_linear)" stroke="url(#paint25_linear)" stroke-width="2"/><rect x="-1" y="1" width="46" height="46" rx="3" transform="matrix(-1 0 0 1 150.5 212)" fill="url(#paint26_linear)" stroke="url(#paint27_linear)" stroke-width="2"/><rect x="-1" y="1" width="46" height="46" rx="3" transform="matrix(-1 0 0 1 254.5 264)" fill="url(#paint28_linear)" stroke="url(#paint29_linear)" stroke-width="2"/><rect x="-1" y="1" width="46" height="46" rx="3" transform="matrix(-1 0 0 1 202.5 264)" fill="url(#paint30_linear)" stroke="url(#paint31_linear)" stroke-width="2"/><rect x="-1" y="1" width="46" height="46" rx="3" transform="matrix(-1 0 0 1 150.5 264)" fill="url(#paint32_linear)" stroke="url(#paint33_linear)" stroke-width="2"/><rect x="-1" y="1" width="46" height="46" rx="3" transform="matrix(-1 0 0 1 98.5 264)" fill="url(#paint34_linear)" stroke="url(#paint35_linear)" stroke-width="2"/><rect x="-1" y="1" width="46" height="46" rx="3" transform="matrix(-1 0 0 1 358.5 316)" fill="url(#paint36_linear)" stroke="url(#paint37_linear)" stroke-width="2"/><rect x="-1" y="1" width="46" height="46" rx="3" transform="matrix(-1 0 0 1 306.5 316)" fill="url(#paint38_linear)" stroke="url(#paint39_linear)" stroke-width="2"/><rect x="-1" y="1" width="46" height="46" rx="3" transform="matrix(-1 0 0 1 254.5 316)" fill="url(#paint40_linear)" stroke="url(#paint41_linear)" stroke-width="2"/><rect x="-1" y="1" width="46" height="46" rx="3" transform="matrix(-1 0 0 1 202.5 316)" fill="url(#paint42_linear)" stroke="url(#paint43_linear)" stroke-width="2"/></g><defs><linearGradient id="paint0_linear" x1="19.344" y1="0" x2="40.858" y2="45.535" gradientUnits="userSpaceOnUse"><stop stop-color="#fff" stop-opacity=".8"/><stop offset="1" stop-color="#fff" stop-opacity=".22"/></linearGradient><linearGradient id="paint1_linear" x1="24" y1="0" x2="24" y2="62" gradientUnits="userSpaceOnUse"><stop stop-color="#A59ECC" stop-opacity=".66"/><stop offset="1" stop-color="#938AC1" stop-opacity=".37"/></linearGradient><linearGradient id="paint2_linear" x1="19.344" y1="0" x2="40.858" y2="45.535" gradientUnits="userSpaceOnUse"><stop stop-color="#fff" stop-opacity=".8"/><stop offset="1" stop-color="#fff" stop-opacity=".22"/></linearGradient><linearGradient id="paint3_linear" x1="24" y1="0" x2="24" y2="62" gradientUnits="userSpaceOnUse"><stop stop-color="#A59ECC" stop-opacity=".66"/><stop offset="1" stop-color="#938AC1" stop-opacity=".37"/></linearGradient><linearGradient id="paint4_linear" x1="19.344" y1="0" x2="40.858" y2="45.535" gradientUnits="userSpaceOnUse"><stop stop-color="#fff" stop-opacity=".8"/><stop offset="1" stop-color="#fff" stop-opacity=".22"/></linearGradient><linearGradient id="paint5_linear" x1="24" y1="0" x2="24" y2="62" gradientUnits="userSpaceOnUse"><stop stop-color="#A59ECC" stop-opacity=".66"/><stop offset="1" stop-color="#938AC1" stop-opacity=".37"/></linearGradient><linearGradient id="paint6_linear" x1="19.344" y1="0" x2="40.858" y2="45.535" gradientUnits="userSpaceOnUse"><stop stop-color="#fff" stop-opacity=".8"/><stop offset="1" stop-color="#fff" stop-opacity=".22"/></linearGradient><linearGradient id="paint7_linear" x1="24" y1="0" x2="24" y2="62" gradientUnits="userSpaceOnUse"><stop stop-color="#A59ECC" stop-opacity=".66"/><stop offset="1" stop-color="#938AC1" stop-opacity=".37"/></linearGradient><linearGradient id="paint8_linear" x1="19.344" y1="0" x2="40.858" y2="45.535" gradientUnits="userSpaceOnUse"><stop stop-color="#fff" stop-opacity=".8"/><stop offset="1" stop-color="#fff" stop-opacity=".22"/></linearGradient><linearGradient id="paint9_linear" x1="24" y1="0" x2="24" y2="62" gradientUnits="userSpaceOnUse"><stop stop-color="#A59ECC" stop-opacity=".66"/><stop offset="1" stop-color="#938AC1" stop-opacity=".37"/></linearGradient><linearGradient id="paint10_linear" x1="19.344" y1="0" x2="40.858" y2="45.535" gradientUnits="userSpaceOnUse"><stop stop-color="#fff" stop-opacity=".8"/><stop offset="1" stop-color="#fff" stop-opacity=".22"/></linearGradient><linearGradient id="paint11_linear" x1="24" y1="0" x2="24" y2="62" gradientUnits="userSpaceOnUse"><stop stop-color="#A59ECC" stop-opacity=".66"/><stop offset="1" stop-color="#938AC1" stop-opacity=".37"/></linearGradient><linearGradient id="paint12_linear" x1="19.344" y1="0" x2="40.858" y2="45.535" gradientUnits="userSpaceOnUse"><stop stop-color="#fff" stop-opacity=".8"/><stop offset="1" stop-color="#fff" stop-opacity=".22"/></linearGradient><linearGradient id="paint13_linear" x1="24" y1="0" x2="24" y2="62" gradientUnits="userSpaceOnUse"><stop stop-color="#A59ECC" stop-opacity=".66"/><stop offset="1" stop-color="#938AC1" stop-opacity=".37"/></linearGradient><linearGradient id="paint14_linear" x1="19.344" y1="0" x2="40.858" y2="45.535" gradientUnits="userSpaceOnUse"><stop stop-color="#fff" stop-opacity=".8"/><stop offset="1" stop-color="#fff" stop-opacity=".22"/></linearGradient><linearGradient id="paint15_linear" x1="24" y1="0" x2="24" y2="62" gradientUnits="userSpaceOnUse"><stop stop-color="#A59ECC" stop-opacity=".66"/><stop offset="1" stop-color="#938AC1" stop-opacity=".37"/></linearGradient><linearGradient id="paint16_linear" x1="19.344" y1="0" x2="40.858" y2="45.535" gradientUnits="userSpaceOnUse"><stop stop-color="#fff" stop-opacity=".8"/><stop offset="1" stop-color="#fff" stop-opacity=".22"/></linearGradient><linearGradient id="paint17_linear" x1="24" y1="0" x2="24" y2="62" gradientUnits="userSpaceOnUse"><stop stop-color="#A59ECC" stop-opacity=".66"/><stop offset="1" stop-color="#938AC1" stop-opacity=".37"/></linearGradient><linearGradient id="paint18_linear" x1="19.344" y1="0" x2="40.858" y2="45.535" gradientUnits="userSpaceOnUse"><stop stop-color="#fff" stop-opacity=".8"/><stop offset="1" stop-color="#fff" stop-opacity=".22"/></linearGradient><linearGradient id="paint19_linear" x1="24" y1="0" x2="24" y2="62" gradientUnits="userSpaceOnUse"><stop stop-color="#A59ECC" stop-opacity=".66"/><stop offset="1" stop-color="#938AC1" stop-opacity=".37"/></linearGradient><linearGradient id="paint20_linear" x1="19.344" y1="0" x2="40.858" y2="45.535" gradientUnits="userSpaceOnUse"><stop stop-color="#fff" stop-opacity=".8"/><stop offset="1" stop-color="#fff" stop-opacity=".22"/></linearGradient><linearGradient id="paint21_linear" x1="24" y1="0" x2="24" y2="62" gradientUnits="userSpaceOnUse"><stop stop-color="#A59ECC" stop-opacity=".66"/><stop offset="1" stop-color="#938AC1" stop-opacity=".37"/></linearGradient><linearGradient id="paint22_linear" x1="19.344" y1="0" x2="40.858" y2="45.535" gradientUnits="userSpaceOnUse"><stop stop-color="#fff" stop-opacity=".8"/><stop offset="1" stop-color="#fff" stop-opacity=".22"/></linearGradient><linearGradient id="paint23_linear" x1="24" y1="0" x2="24" y2="62" gradientUnits="userSpaceOnUse"><stop stop-color="#A59ECC" stop-opacity=".66"/><stop offset="1" stop-color="#938AC1" stop-opacity=".37"/></linearGradient><linearGradient id="paint24_linear" x1="19.344" y1="0" x2="40.858" y2="45.535" gradientUnits="userSpaceOnUse"><stop stop-color="#fff" stop-opacity=".8"/><stop offset="1" stop-color="#fff" stop-opacity=".22"/></linearGradient><linearGradient id="paint25_linear" x1="24" y1="0" x2="24" y2="62" gradientUnits="userSpaceOnUse"><stop stop-color="#A59ECC" stop-opacity=".66"/><stop offset="1" stop-color="#938AC1" stop-opacity=".37"/></linearGradient><linearGradient id="paint26_linear" x1="19.344" y1="0" x2="40.858" y2="45.535" gradientUnits="userSpaceOnUse"><stop stop-color="#fff" stop-opacity=".8"/><stop offset="1" stop-color="#fff" stop-opacity=".22"/></linearGradient><linearGradient id="paint27_linear" x1="24" y1="0" x2="24" y2="62" gradientUnits="userSpaceOnUse"><stop stop-color="#A59ECC" stop-opacity=".66"/><stop offset="1" stop-color="#938AC1" stop-opacity=".37"/></linearGradient><linearGradient id="paint28_linear" x1="19.344" y1="0" x2="40.858" y2="45.535" gradientUnits="userSpaceOnUse"><stop stop-color="#fff" stop-opacity=".8"/><stop offset="1" stop-color="#fff" stop-opacity=".22"/></linearGradient><linearGradient id="paint29_linear" x1="24" y1="0" x2="24" y2="62" gradientUnits="userSpaceOnUse"><stop stop-color="#A59ECC" stop-opacity=".66"/><stop offset="1" stop-color="#938AC1" stop-opacity=".37"/></linearGradient><linearGradient id="paint30_linear" x1="19.344" y1="0" x2="40.858" y2="45.535" gradientUnits="userSpaceOnUse"><stop stop-color="#fff" stop-opacity=".8"/><stop offset="1" stop-color="#fff" stop-opacity=".22"/></linearGradient><linearGradient id="paint31_linear" x1="24" y1="0" x2="24" y2="62" gradientUnits="userSpaceOnUse"><stop stop-color="#A59ECC" stop-opacity=".66"/><stop offset="1" stop-color="#938AC1" stop-opacity=".37"/></linearGradient><linearGradient id="paint32_linear" x1="19.344" y1="0" x2="40.858" y2="45.535" gradientUnits="userSpaceOnUse"><stop stop-color="#fff" stop-opacity=".8"/><stop offset="1" stop-color="#fff" stop-opacity=".22"/></linearGradient><linearGradient id="paint33_linear" x1="24" y1="0" x2="24" y2="62" gradientUnits="userSpaceOnUse"><stop stop-color="#A59ECC" stop-opacity=".66"/><stop offset="1" stop-color="#938AC1" stop-opacity=".37"/></linearGradient><linearGradient id="paint34_linear" x1="19.344" y1="0" x2="40.858" y2="45.535" gradientUnits="userSpaceOnUse"><stop stop-color="#fff" stop-opacity=".8"/><stop offset="1" stop-color="#fff" stop-opacity=".22"/></linearGradient><linearGradient id="paint35_linear" x1="24" y1="0" x2="24" y2="62" gradientUnits="userSpaceOnUse"><stop stop-color="#A59ECC" stop-opacity=".66"/><stop offset="1" stop-color="#938AC1" stop-opacity=".37"/></linearGradient><linearGradient id="paint36_linear" x1="19.344" y1="0" x2="40.858" y2="45.535" gradientUnits="userSpaceOnUse"><stop stop-color="#fff" stop-opacity=".8"/><stop offset="1" stop-color="#fff" stop-opacity=".22"/></linearGradient><linearGradient id="paint37_linear" x1="24" y1="0" x2="24" y2="62" gradientUnits="userSpaceOnUse"><stop stop-color="#A59ECC" stop-opacity=".66"/><stop offset="1" stop-color="#938AC1" stop-opacity=".37"/></linearGradient><linearGradient id="paint38_linear" x1="19.344" y1="0" x2="40.858" y2="45.535" gradientUnits="userSpaceOnUse"><stop stop-color="#fff" stop-opacity=".8"/><stop offset="1" stop-color="#fff" stop-opacity=".22"/></linearGradient><linearGradient id="paint39_linear" x1="24" y1="0" x2="24" y2="62" gradientUnits="userSpaceOnUse"><stop stop-color="#A59ECC" stop-opacity=".66"/><stop offset="1" stop-color="#938AC1" stop-opacity=".37"/></linearGradient><linearGradient id="paint40_linear" x1="19.344" y1="0" x2="40.858" y2="45.535" gradientUnits="userSpaceOnUse"><stop stop-color="#fff" stop-opacity=".8"/><stop offset="1" stop-color="#fff" stop-opacity=".22"/></linearGradient><linearGradient id="paint41_linear" x1="24" y1="0" x2="24" y2="62" gradientUnits="userSpaceOnUse"><stop stop-color="#A59ECC" stop-opacity=".66"/><stop offset="1" stop-color="#938AC1" stop-opacity=".37"/></linearGradient><linearGradient id="paint42_linear" x1="19.344" y1="0" x2="40.858" y2="45.535" gradientUnits="userSpaceOnUse"><stop stop-color="#fff" stop-opacity=".8"/><stop offset="1" stop-color="#fff" stop-opacity=".22"/></linearGradient><linearGradient id="paint43_linear" x1="24" y1="0" x2="24" y2="62" gradientUnits="userSpaceOnUse"><stop stop-color="#A59ECC" stop-opacity=".66"/><stop offset="1" stop-color="#938AC1" stop-opacity=".37"/></linearGradient><filter id="filter0_d" x="410.5" y="0" width="60" height="60" filterUnits="userSpaceOnUse" color-interpolation-filters="sRGB"><feFlood flood-opacity="0" result="BackgroundImageFix"/><feColorMatrix in="SourceAlpha" values="0 0 0 0 0 0 0 0 0 0 0 0 0 0 0 0 0 0 127 0"/><feOffset dy="2"/><feGaussianBlur stdDeviation="3"/><feColorMatrix values="0 0 0 0 0.160784 0 0 0 0 0.0588235 0 0 0 0 0.301961 0 0 0 0.2 0"/><feBlend in2="BackgroundImageFix" result="effect1_dropShadow"/><feBlend in="SourceGraphic" in2="effect1_dropShadow" result="shape"/></filter><filter id="filter1_d" x="410.5" y="52" width="60" height="60" filterUnits="userSpaceOnUse" color-interpolation-filters="sRGB"><feFlood flood-opacity="0" result="BackgroundImageFix"/><feColorMatrix in="SourceAlpha" values="0 0 0 0 0 0 0 0 0 0 0 0 0 0 0 0 0 0 127 0"/><feOffset dy="2"/><feGaussianBlur stdDeviation="3"/><feColorMatrix values="0 0 0 0 0.160784 0 0 0 0 0.0588235 0 0 0 0 0.301961 0 0 0 0.2 0"/><feBlend in2="BackgroundImageFix" result="effect1_dropShadow"/><feBlend in="SourceGraphic" in2="effect1_dropShadow" result="shape"/></filter><filter id="filter2_d" x="358.5" y="52" width="60" height="60" filterUnits="userSpaceOnUse" color-interpolation-filters="sRGB"><feFlood flood-opacity="0" result="BackgroundImageFix"/><feColorMatrix in="SourceAlpha" values="0 0 0 0 0 0 0 0 0 0 0 0 0 0 0 0 0 0 127 0"/><feOffset dy="2"/><feGaussianBlur stdDeviation="3"/><feColorMatrix values="0 0 0 0 0.160784 0 0 0 0 0.0588235 0 0 0 0 0.301961 0 0 0 0.2 0"/><feBlend in2="BackgroundImageFix" result="effect1_dropShadow"/><feBlend in="SourceGraphic" in2="effect1_dropShadow" result="shape"/></filter></defs></svg>
