<svg width="22" height="20" xmlns="http://www.w3.org/2000/svg"><path d="M1.508 16.112c.67 0 .972.457.972.457v-.388h.683v3.056h-.486c-.11 0-.197-.104-.197-.197v-.197s-.3.452-.972.452c-.815 0-1.47-.657-1.47-1.586 0-1.017.745-1.597 1.47-1.597zm8.82-1.459v4.584H9.84c-.108 0-.196-.104-.196-.197v-.197s-.3.452-.973.452c-.814 0-1.47-.657-1.47-1.586 0-1.017.746-1.597 1.47-1.597.67 0 .973.457.973.457v-1.916h.683zm10.787 0v4.584h-.486c-.109 0-.197-.104-.197-.197v-.197s-.3.452-.972.452c-.815 0-1.47-.657-1.47-1.586 0-1.017.745-1.597 1.47-1.597.67 0 .972.457.972.457v-1.916h.683zm-6.486 1.458c.931 0 1.614.724 1.614 1.598 0 .713-.53 1.586-1.616 1.586-.88 0-1.591-.656-1.591-1.592 0-1.026.834-1.592 1.593-1.592zm-9.11 0c.759 0 1.162.604 1.162 1.17v1.956h-.474a.21.21 0 01-.208-.209v-1.597c0-.313-.192-.694-.637-.694-.479 0-.764.453-.764.88v1.62h-.486a.191.191 0 01-.197-.197v-2.859h.683v.378c.155-.232.457-.448.921-.448zm7.066.035c.125 0 .243.023.243.023v.706s-.147-.057-.324-.057c-.48 0-.741.452-.741.879v1.54h-.486a.191.191 0 01-.197-.197v-2.859h.683v.51a.842.842 0 01.822-.545zm4.873.035v3.056h-.486a.191.191 0 01-.197-.197v-2.859h.683zm-15.829.555c-.51 0-.897.41-.897.966 0 .615.45.979.898.979.537 0 .909-.474.909-.972 0-.448-.313-.973-.91-.973zm7.165 0c-.51 0-.897.41-.897.966 0 .615.45.979.898.979.537 0 .909-.474.909-.972 0-.448-.313-.973-.91-.973zm10.788 0c-.51 0-.897.41-.897.966 0 .615.45.979.898.979.537 0 .908-.474.908-.972 0-.448-.313-.973-.91-.973zm-4.95.012c-.485 0-.913.38-.913.967 0 .576.45.953.914.953.499 0 .915-.42.915-.963 0-.534-.392-.957-.917-.957zm2.479-2.13a.452.452 0 110 .904.452.452 0 010-.903zm-.253-13.545a.35.35 0 01.482-.128.355.355 0 01.128.483l-1.747 3.027c3.015 1.633 5.056 4.683 5.393 8.253H.05c.337-3.57 2.378-6.62 5.391-8.253L3.694 1.428a.353.353 0 01.128-.483.353.353 0 01.484.128l1.77 3.066c1.35-.617 2.871-.96 4.506-.96 1.635 0 3.155.343 4.506.96zM5.746 7.984a.883.883 0 100 1.767.883.883 0 000-1.767zm9.67 0a.883.883 0 100 1.767.883.883 0 000-1.767z" fill="#1C0937" fill-rule="evenodd"/></svg>
