<svg xmlns="http://www.w3.org/2000/svg" width="47" height="56"><path fill-rule="evenodd" d="M46.015 43.641a30.478 30.478 0 01-3 5.413c-1.577 2.257-2.869 3.82-3.864 4.687-1.543 1.425-3.197 2.154-4.967 2.195-1.27 0-2.804-.363-4.588-1.099-1.79-.733-3.435-1.096-4.939-1.096-1.577 0-3.269.363-5.079 1.096-1.812.736-3.272 1.12-4.388 1.158-1.698.073-3.39-.677-5.08-2.254-1.077-.943-2.426-2.561-4.04-4.853-1.734-2.447-3.159-5.285-4.275-8.52C.599 36.873 0 33.488 0 30.212c0-3.752.808-6.99 2.426-9.702 1.272-2.178 2.965-3.897 5.082-5.159a13.634 13.634 0 016.871-1.946c1.348 0 3.117.419 5.314 1.242 2.191.825 3.598 1.244 4.215 1.244.461 0 2.024-.49 4.674-1.466 2.506-.905 4.62-1.28 6.353-1.132 4.694.38 8.221 2.238 10.567 5.584-4.199 2.553-6.276 6.129-6.234 10.716.038 3.574 1.33 6.547 3.868 8.908A12.706 12.706 0 0047 41.045c-.31.902-.637 1.766-.985 2.596zM35.248 1.121c0 2.8-1.02 5.415-3.051 7.835-2.453 2.878-5.419 4.54-8.635 4.278a8.75 8.75 0 01-.065-1.061c0-2.689 1.166-5.566 3.237-7.919 1.034-1.191 2.35-2.181 3.944-2.972C32.269.504 33.774.074 35.19 0c.041.374.058.749.058 1.12z"/></svg>
