<svg width="22" height="17" viewBox="0 0 22 17" xmlns="http://www.w3.org/2000/svg">
  <path fill="#290F4D" d="M17.174 3.378l.316.187c.051.04 1.347.806 1.571 2.389.307-.052.623-.083.929-.083 1.184 0 1.735.424 1.796.476l.214.155-.092.269a2.756 2.756 0 01-.653.972c-.428.434-1.204.941-2.459.941h-.204c-.5 1.303-1.184 2.772-2.337 4.085a9.636 9.636 0 01-2.387 1.986 10.98 10.98 0 01-3.51 1.293 14.64 14.64 0 01-2.684.248c-1.99 0-3.755-.382-4.836-1.055-.96-.6-1.704-1.582-2.204-2.906A10.594 10.594 0 010 8.56c0-.383.306-.693.684-.693h14.489c.184-.01 1.061-.083 1.602-.393-.45-.724-.582-1.572-.367-2.472.112-.465.306-.92.56-1.324l.205-.3zM3.97 5.333l.058.01c.07.024.116.091.116.166v1.758l-.01.058a.173.173 0 01-.164.118H2.032c-.092 0-.163-.072-.174-.176V5.51l.01-.058a.173.173 0 01.164-.118H3.97zm2.674 0l.057.01c.07.024.116.091.116.166v1.758l-.009.058a.173.173 0 01-.164.118H4.705c-.092 0-.163-.072-.173-.176V5.51c0-.103.081-.176.173-.176h1.939zm2.724 0l.057.01c.07.024.117.091.117.166v1.758l-.01.058a.173.173 0 01-.164.118H7.43c-.102 0-.173-.072-.173-.176V5.51l.01-.058a.173.173 0 01.163-.118h1.94zm2.684 0l.057.01c.07.024.116.091.116.166v1.758a.173.173 0 01-.173.176h-1.939a.173.173 0 01-.173-.176V5.51l.009-.058a.173.173 0 01.164-.118h1.939zm2.704 0l.057.01c.07.024.116.091.116.166v1.758a.173.173 0 01-.173.176h-1.94c-.09 0-.162-.072-.173-.176V5.51l.01-.058a.173.173 0 01.164-.118h1.939zM6.644 2.82l.057.01c.07.023.116.091.116.166v1.758a.18.18 0 01-.173.176H4.705c-.092 0-.163-.083-.173-.176V2.996c0-.104.081-.176.173-.176h1.939zm2.724 0l.057.01c.07.023.117.091.117.166v1.758a.18.18 0 01-.174.176H7.43a.173.173 0 01-.173-.176V2.996l.01-.058a.173.173 0 01.163-.118h1.94zm2.684 0a.18.18 0 01.173.176v1.758a.18.18 0 01-.173.176h-1.939a.18.18 0 01-.173-.176V2.996l.009-.058a.173.173 0 01.164-.118zm0-2.524a.18.18 0 01.173.176V2.23a.173.173 0 01-.173.176h-1.939a.18.18 0 01-.173-.176V.472l.009-.058a.173.173 0 01.164-.118z" fill-rule="evenodd"/>
</svg>
