<svg width="20" height="21" viewBox="0 0 20 21" fill="none" xmlns="http://www.w3.org/2000/svg">
<g clip-path="url(#clip0)">
<rect y="0.0012207" width="20" height="20" rx="4" fill="white"/>
<path d="M18.1908 0.0012207H1.80916C0.81 0.0012207 0 0.811221 0 1.81038V18.192C0 19.1912 0.81 20.0012 1.80916 20.0012H18.1908C19.19 20.0012 20 19.1912 20 18.192V1.81038C20 0.811221 19.19 0.0012207 18.1908 0.0012207ZM6.18885 17.2705C6.18885 17.5613 5.95314 17.797 5.66236 17.797H3.4212C3.13042 17.797 2.89471 17.5613 2.89471 17.2705V7.87572C2.89471 7.58494 3.13042 7.34923 3.4212 7.34923H5.66236C5.95314 7.34923 6.18885 7.58494 6.18885 7.87572V17.2705ZM4.54178 6.46363C3.36592 6.46363 2.41267 5.51038 2.41267 4.33452C2.41267 3.15866 3.36592 2.20541 4.54178 2.20541C5.71764 2.20541 6.67089 3.15866 6.67089 4.33452C6.67089 5.51038 5.7177 6.46363 4.54178 6.46363ZM17.901 17.3129C17.901 17.5803 17.6843 17.797 17.417 17.797H15.012C14.7447 17.797 14.528 17.5803 14.528 17.3129V12.9062C14.528 12.2489 14.7208 10.0256 12.81 10.0256C11.3279 10.0256 11.0272 11.5473 10.9669 12.2303V17.3129C10.9669 17.5803 10.7502 17.797 10.4828 17.797H8.15681C7.88948 17.797 7.67272 17.5803 7.67272 17.3129V7.83331C7.67272 7.56599 7.88948 7.34923 8.15681 7.34923H10.4828C10.7501 7.34923 10.9669 7.56599 10.9669 7.83331V8.65295C11.5164 7.82818 12.3332 7.19159 14.0722 7.19159C17.9231 7.19159 17.901 10.7893 17.901 12.766V17.3129Z" fill="#0077B7"/>
</g>
<defs>
<clipPath id="clip0">
<rect y="0.0012207" width="20" height="20" rx="4" fill="white"/>
</clipPath>
</defs>
</svg>
