<svg xmlns="http://www.w3.org/2000/svg" width="53" height="64" viewBox="0 0 53 64"><g fill="none" fill-rule="evenodd"><path fill="#5F4681" d="M51.014 50.48l-.001-.003c-.453-.51-.669-1.458-.9-2.467-.232-1.009-.49-2.096-1.319-2.801l-.005-.005a3.277 3.277 0 00-1.017-.612c1.152-3.414.7-6.813-.462-9.884-1.425-3.77-3.914-7.054-5.816-9.3-2.128-2.685-4.21-5.233-4.168-8.997.063-5.744.632-16.397-9.477-16.411-.411 0-.84.016-1.287.052-11.296.91-8.3 12.844-8.467 16.84-.207 2.923-.8 5.226-2.81 8.083-2.36 2.808-5.686 7.352-7.26 12.084-.743 2.232-1.097 4.508-.77 6.662-.103.092-.2.188-.293.287-.693.74-1.206 1.637-1.776 2.24-.534.533-1.293.735-2.128 1.034-.836.3-1.753.742-2.31 1.81 0 .002-.001.005-.003.006-.262.488-.347 1.016-.347 1.55 0 .495.073.997.147 1.48.154 1.003.31 1.953.103 2.596-.66 1.807-.746 3.056-.28 3.964.467.908 1.425 1.309 2.509 1.535 2.168.452 5.103.34 7.416 1.567l.2-.375-.198.376c2.477 1.295 4.987 1.754 6.99 1.297 1.453-.331 2.632-1.197 3.238-2.527 1.566-.008 3.285-.672 6.04-.823 1.868-.15 4.202.664 6.886.514.07.291.172.572.31.838l.005.008c1.04 2.08 2.974 3.033 5.035 2.87 2.063-.163 4.257-1.38 6.03-3.49l-.324-.272.327.27c1.69-2.05 4.496-2.9 6.357-4.022.93-.56 1.684-1.263 1.743-2.284.058-1.02-.54-2.162-1.918-3.69z"/><path fill="#D3B7FB" d="M38.257 43.566c.101 1.643.915 3.32 2.353 3.683 1.574.415 3.842-.936 4.8-2.037.192-.008.378-.017.56-.022.84-.02 1.544.028 2.265.658l.002.002.002.002c.554.469.817 1.355 1.045 2.347.229.993.41 2.074 1.095 2.844l.001.001v.002c1.317 1.46 1.74 2.445 1.703 3.076-.036.63-.491 1.097-1.334 1.604-1.682 1.015-4.665 1.899-6.57 4.206-1.654 1.968-3.671 3.05-5.447 3.19-1.776.14-3.308-.597-4.212-2.41l-.004-.009c-.561-1.067-.328-2.749.145-4.524.472-1.775 1.15-3.598 1.242-5.078v-.005c.095-1.897.202-3.555.52-4.834.32-1.28.821-2.145 1.71-2.632a3.94 3.94 0 01.124-.064zm-28.884.124c.133 0 .274.012.423.035 1.007.152 1.885.856 2.731 2.004l2.442 4.45v.003l.002.001c.65 1.357 2.023 2.85 3.185 4.372 1.163 1.522 2.063 3.05 1.946 4.22v.01c-.153 1.994-1.278 3.08-3.005 3.475-1.727.394-4.068.001-6.406-1.221l-.002-.001c-2.587-1.37-5.664-1.234-7.638-1.646-.987-.206-1.632-.516-1.927-1.092-.295-.577-.302-1.582.326-3.295l.003-.008.002-.007c.311-.959.08-2.007-.07-2.992-.15-.984-.224-1.88.112-2.503l.003-.006c.43-.83 1.061-1.127 1.845-1.407.784-.281 1.712-.502 2.446-1.238l.004-.003.004-.004c.678-.715 1.187-1.613 1.783-2.249.503-.537 1.007-.893 1.765-.898h.026zm23.038-24.324c.964 3.798 3.204 9.284 4.645 11.961.766 1.42 2.29 4.438 2.947 8.075.417-.013.877.048 1.368.174 1.72-4.462-1.459-9.266-2.913-10.604-.588-.57-.616-.825-.324-.813 1.577 1.395 3.648 4.2 4.401 7.368.344 1.444.417 2.963.049 4.461.18.075.363.156.549.244 2.762 1.345 3.783 2.514 3.292 4.11a7.888 7.888 0 00-.476 0h-.044c.401-1.265-.485-2.198-2.847-3.266-2.449-1.077-4.4-.97-4.73 1.215-.02.114-.038.231-.05.349a3.714 3.714 0 00-.552.245c-1.15.63-1.778 1.771-2.127 3.172-.317 1.272-.429 2.785-.518 4.478l-.026.514v.001c-.06.956-.453 2.25-.852 3.619-4.011 2.862-9.579 4.101-14.306.875a21.005 21.005 0 00-1.066-1.504c-.242-.316-.49-.63-.736-.94.484 0 .897-.08 1.23-.23.415-.19.706-.49.85-.879.289-.775 0-1.868-.924-3.117-.871-1.18-2.313-2.502-4.405-3.832l-.376-.235c-1.687-1.05-2.63-2.336-3.072-3.732-.442-1.397-.38-2.908-.04-4.399.654-2.862 2.333-5.646 3.404-7.393.288-.211.103.394-1.085 2.6-1.063 2.015-3.053 6.666-.33 10.297.074-2.583.69-5.219 1.727-7.684 1.509-3.42 4.665-9.352 4.915-14.08.13.094.574.394.771.506l.002.001c.579.341 1.014.84 1.577 1.292.564.454 1.27.845 2.335.907.102.006.202.01.3.01 1.097 0 1.954-.359 2.667-.767.775-.443 1.394-.934 1.981-1.125h.002c1.24-.388 2.226-1.075 2.787-1.874zm-7.474-5.394c.885-.004 1.949.286 3.237 1.114.739.48 1.324.55 2.552 1.051l.273.114.002.001c.683.28 1.084.646 1.28 1.03.196.384.2.8.037 1.24-.308.824-1.253 1.69-2.586 2.17l-.254.086-.001.001c-.717.233-1.34.747-2.077 1.167-.735.42-1.567.76-2.698.694a3.51 3.51 0 01-1.197-.265 3.672 3.672 0 01-.863-.536c-.447-.359-.844-.796-1.366-1.16l-.272-.174-.003-.001c-1.07-.607-1.656-1.306-1.838-1.913-.184-.606-.011-1.124.519-1.521a122.1 122.1 0 011.288-.954c.235-.173.352-.254.436-.326l.04-.035v-.002c.45-.425 1.165-1.199 2.243-1.57.37-.128.785-.21 1.248-.211zm5.117 3.985c-.544.4-1.211.926-1.735 1.22-.925.519-2.44 1.28-3.738 1.28-1.3 0-2.338-.6-3.117-1.217-.39-.309-.711-.62-.968-.86-.19-.177-.235-.574-.536-.611-.18-.015-.232.47.205.815.252.236.587.56.998.886.824.653 1.969 1.323 3.418 1.323 1.45 0 2.813-.738 3.98-1.346.611-.319 1.364-.876 1.846-1.296.48-.42.735-.788.391-.828-.343-.04-.328.328-.744.634zm-8.688-8.485c.381 0 .721.127 1.074.408.381.306.67.696.912 1.245.242.55.371 1.1.407 1.749v.005a5.17 5.17 0 01-.007.777 4.773 4.773 0 00-.22.07c-.41.141-.736.298-1.051.506a2.86 2.86 0 00.011-.686c-.002-.013-.002-.024-.002-.038a2.977 2.977 0 00-.218-.88c-.123-.288-.261-.491-.442-.648-.164-.142-.32-.207-.491-.206-.017 0-.035 0-.053.002-.193.017-.352.11-.504.295-.15.183-.25.412-.321.715-.072.302-.09.599-.06.94l.002.037c.033.33.1.605.217.883.121.286.262.49.443.646.03.026.06.05.09.07-.188.146-.314.25-.47.363l-.354.26c-.299-.28-.532-.632-.737-1.097a4.914 4.914 0 01-.41-1.748v-.005a4.908 4.908 0 01.207-1.784c.179-.578.417-.995.764-1.339.346-.343.695-.516 1.116-.538.033-.002.065-.002.097-.002zm7.852-.622c.573 0 1.063.168 1.566.533.511.371.88.835 1.176 1.484.291.633.432 1.251.446 1.984 0 .02 0 .036.005.056a4.817 4.817 0 01-.41 2.047c-.162.373-.35.686-.574.958a18.856 18.856 0 00-.998-.412c-.225-.085-.401-.143-.582-.206.131-.158.39-.346.486-.58.146-.355.218-.701.231-1.114 0-.016.006-.03.006-.05a3.083 3.083 0 00-.16-1.079c-.12-.363-.275-.624-.497-.841-.223-.217-.445-.316-.712-.325h-.038c-.25 0-.468.087-.693.275-.237.197-.412.45-.558.802a3.091 3.091 0 00-.231 1.116c-.003.017-.003.03-.003.047-.005.229.01.437.045.64-.513-.256-1.17-.442-1.623-.55a5.491 5.491 0 01-.046-.61v-.058c-.008-.75.115-1.394.404-2.047.289-.655.646-1.125 1.149-1.507.503-.382.998-.557 1.583-.563h.028zm-3.47 6.222c-.047.026-.098.086-.082.137.048.154.298.129.442.203.127.065.229.208.37.212.137.004.348-.047.366-.182.023-.177-.237-.29-.404-.356-.215-.084-.491-.126-.693-.014zm-2.33.014c-.167.065-.427.179-.404.356.018.135.23.186.365.182.142-.004.244-.147.37-.212.145-.074.395-.049.443-.203.016-.051-.035-.111-.081-.137-.202-.112-.478-.07-.693.014z"/></g></svg>