<svg width="56" height="57" viewBox="0 0 56 57" fill="none" xmlns="http://www.w3.org/2000/svg">
<path fill-rule="evenodd" clip-rule="evenodd" d="M28 6.00195C15.8497 6.00195 6 15.8517 6 28.002C6 40.1522 15.8497 50.002 28 50.002C40.1503 50.002 50 40.1522 50 28.002C50 15.8517 40.1503 6.00195 28 6.00195ZM2 28.002C2 13.6425 13.6406 2.00195 28 2.00195C42.3594 2.00195 54 13.6425 54 28.002C54 42.3614 42.3594 54.002 28 54.002C13.6406 54.002 2 42.3614 2 28.002Z" fill="url(#paint0_linear)"/>
<mask id="path-2-outside-1" maskUnits="userSpaceOnUse" x="7" y="15.002" width="42" height="29" fill="black">
<rect fill="white" x="7" y="15.002" width="42" height="29"/>
<path fill-rule="evenodd" clip-rule="evenodd" d="M47.3869 17.352C47.7373 17.1945 47.8958 16.7782 47.7408 16.4221C47.5862 16.066 47.1766 15.9049 46.8266 16.0623L39.4042 19.3985C39.0678 19.5497 38.9061 19.9417 39.0357 20.2917L39.1539 20.6111L37.4154 21.0631L37.4168 20.9934C37.424 20.6343 37.1645 20.327 36.8142 20.2801L28.0117 19.0999C27.8499 19.0783 27.6859 19.1153 27.5483 19.2044L21.5865 23.0696C21.4411 23.1638 21.3354 23.3099 21.2902 23.4791C21.1157 24.1316 20.8294 25.1342 20.5389 26.0174C20.3933 26.4601 20.2502 26.862 20.1224 27.1712C20.0583 27.3263 20.0024 27.4477 19.9561 27.5348C19.928 27.5878 19.9104 27.6145 19.9043 27.6238C19.9034 27.6252 19.9028 27.6261 19.9024 27.6268C19.7407 27.7931 19.654 28.0158 19.6617 28.2507C19.6687 28.4657 19.7521 28.6368 19.8242 28.7482C19.9664 28.9682 20.1819 29.1378 20.3841 29.2609C20.8064 29.518 21.4114 29.7179 22.0825 29.7319C22.7649 29.7461 23.5334 29.5676 24.2464 29.0419C24.8799 28.5747 25.4317 27.8616 25.8462 26.8515L27.9229 26.4739C28.2999 26.4053 28.5508 26.039 28.4834 25.6557C28.416 25.2724 28.0558 25.0173 27.6789 25.0859L25.2181 25.5334C24.9732 25.5779 24.7705 25.7525 24.687 25.9908C24.3334 27.0004 23.8716 27.5765 23.4324 27.9004C22.9944 28.2233 22.5312 28.3309 22.1108 28.3222C21.7537 28.3148 21.4395 28.2232 21.2207 28.1182C21.2815 27.9961 21.3418 27.86 21.4008 27.7173C21.5479 27.3612 21.7036 26.9216 21.8539 26.4646C22.1181 25.6616 22.3765 24.7713 22.5569 24.1127L28.0808 20.5314L36.0178 21.5955L36.0104 21.9615C36.006 22.1817 36.1031 22.3914 36.2728 22.5283C36.4426 22.6651 36.6655 22.7135 36.8754 22.6589L39.6454 21.9386L42.4975 29.6416L41.7192 29.8876C41.4816 29.9627 41.3018 30.1614 41.248 30.4085L40.9114 31.955L31.0661 26.2259C30.7337 26.0325 30.3102 26.1496 30.12 26.4876C29.9298 26.8255 30.045 27.2563 30.3774 27.4497L40.9527 33.6036C41.1591 33.8256 41.2637 33.9599 41.3178 34.1369C41.3728 34.3169 41.4023 34.6499 41.1717 35.3084C41.1232 35.4469 40.9452 35.6291 40.311 35.6312C39.767 35.6331 39.1408 35.4876 38.7012 35.3377L35.8792 33.3388C35.5651 33.1163 35.1329 33.1949 34.9141 33.5144C34.6952 33.8339 34.7725 34.2733 35.0867 34.4958L37.7194 36.3607C37.7336 36.7827 37.6555 37.06 37.5571 37.2419C37.4401 37.458 37.257 37.6092 37.0029 37.711C36.482 37.9196 35.7527 37.8795 35.1803 37.7376L32.8508 36.2497C32.5265 36.0426 32.0986 36.142 31.8949 36.4717C31.6912 36.8014 31.789 37.2366 32.1132 37.4437L34.1282 38.7307C33.9982 39.2645 33.8183 39.6213 33.6298 39.8564C33.403 40.1392 33.136 40.2822 32.8275 40.3384C32.1486 40.4618 31.234 40.1687 30.2839 39.6607C30.0942 39.5592 29.869 39.5527 29.6739 39.643C29.4789 39.7333 29.3359 39.9103 29.2865 40.1224C29.1451 40.7303 28.9495 41.045 28.7883 41.2031C28.642 41.3467 28.4867 41.3992 28.306 41.3988C28.0233 41.3981 27.6859 41.2636 27.3726 41.066C27.6429 40.5382 27.8076 39.921 27.6429 39.2979C27.3952 38.3611 26.5194 37.7866 25.2497 37.5009C25.2216 37.4946 25.1937 37.4892 25.1659 37.4849C25.1639 37.2267 25.1245 36.9772 25.0614 36.7455C24.878 36.0714 24.4887 35.5065 24.1796 35.1784C23.6554 34.623 23.0026 34.397 22.4385 34.3283C22.2687 34.3076 22.1027 34.3006 21.9445 34.3037C21.8355 33.8405 21.5693 33.4313 21.2788 33.1236C20.5504 32.3521 19.6678 31.9644 18.8939 32.056C18.8349 31.8696 18.7585 31.6967 18.6676 31.5341C18.45 31.1449 18.1581 30.8358 17.9196 30.5833L17.8979 30.5603C17.3089 29.9365 16.5423 29.8426 15.9303 29.9194C15.5292 29.9698 15.1515 30.0962 14.8442 30.2373L13.0501 29.0113L15.4711 21.8673L19.716 22.6054C20.0934 22.671 20.4517 22.4131 20.5162 22.0293C20.5808 21.6455 20.3271 21.2812 19.9497 21.2156L15.9289 20.5164L16.0326 20.2103C16.1489 19.8671 15.9899 19.4902 15.6652 19.3394L8.98156 16.2349C8.63327 16.0731 8.22195 16.2291 8.06285 16.5832C7.90376 16.9374 8.05713 17.3556 8.40542 17.5174L14.5166 20.356L10.7574 31.449L8.96916 30.661C8.61782 30.5062 8.20958 30.6703 8.05734 31.0275C7.90509 31.3848 8.06649 31.7999 8.41782 31.9547L10.8932 33.0455C11.0705 33.1236 11.2717 33.123 11.4485 33.0438C11.6252 32.9646 11.7615 32.814 11.8244 32.6283L12.5827 30.3907L13.7853 31.2125C13.6067 31.5296 13.4751 31.8897 13.4017 32.239C13.2597 32.9144 13.2829 33.8161 13.8966 34.4661C14.3752 34.973 14.96 35.2791 15.3985 35.4568C15.4625 35.4827 15.5242 35.5063 15.5832 35.5276C15.5754 35.6664 15.5718 35.8207 15.5763 35.9838C15.5917 36.5491 15.7073 37.4022 16.2772 38.0059C16.8481 38.6106 17.6835 38.7624 18.2387 38.8009C18.3983 38.812 18.5491 38.8145 18.6841 38.8124C18.7026 38.8731 18.7232 38.9368 18.7461 39.0029C18.9028 39.4556 19.1796 40.0623 19.6582 40.5693C20.229 41.174 21.0645 41.3258 21.6196 41.3642C21.7468 41.373 21.8684 41.3764 21.9808 41.3764L21.9869 41.3949C22.16 41.9065 22.5735 42.43 23.3738 42.8297C23.9643 43.1246 24.6919 42.993 25.2496 42.7911C25.6634 42.6412 26.0845 42.4168 26.4595 42.1427C26.9571 42.491 27.6137 42.8071 28.3027 42.8088C28.807 42.81 29.3202 42.6406 29.751 42.218C30.0045 41.9693 30.2114 41.6509 30.3747 41.2665C31.2194 41.6331 32.1777 41.8889 33.0716 41.7264C33.6859 41.6146 34.2554 41.3076 34.7045 40.7474C35.0266 40.3457 35.2694 39.8359 35.436 39.2183C36.0771 39.3044 36.8383 39.2923 37.5109 39.023C38.0065 38.8245 38.4709 38.4781 38.7719 37.9217C38.9349 37.6204 39.0383 37.2795 39.0826 36.9009C39.4725 36.9845 39.9004 37.0427 40.3157 37.0413C41.0545 37.0387 42.1103 36.831 42.4779 35.7815C42.7675 34.9549 42.817 34.2911 42.642 33.7184C42.5275 33.3439 42.3279 33.0562 42.1402 32.8344L42.5149 31.1127L43.0369 30.9477L43.7193 32.4093C43.8673 32.7263 44.2219 32.8843 44.5514 32.7802L47.5123 31.8445C47.8781 31.7289 48.0823 31.3338 47.9685 30.962C47.855 30.5902 47.4666 30.3824 47.1008 30.498L44.7141 31.2523L44.0441 29.8171L40.5643 20.4186L47.3869 17.352ZM26.3038 39.664C26.3623 39.8853 26.2805 40.2633 25.927 40.7708C25.6127 41.0616 25.191 41.3155 24.7844 41.4628C24.3182 41.6316 24.0536 41.5983 23.9851 41.564C23.4609 41.3022 23.3341 41.0424 23.2981 40.9362C23.286 40.9005 23.28 40.8694 23.277 40.8446C23.2886 40.8246 23.3014 40.8024 23.3155 40.7784C23.3879 40.6547 23.4925 40.4822 23.6198 40.2891C23.8813 39.8924 24.2115 39.4506 24.5357 39.155C24.6776 39.0255 24.7943 38.9466 24.8808 38.9066C24.925 38.8862 24.9499 38.8809 24.9594 38.8797C26.046 39.1261 26.2599 39.4979 26.3038 39.664ZM19.2639 36.939C19.1312 37.0865 18.9972 37.2356 18.864 37.3945C18.7214 37.4036 18.5345 37.4081 18.3329 37.3941C17.8598 37.3614 17.4749 37.2385 17.2775 37.0295C17.0806 36.8208 16.9755 36.4259 16.9624 35.9446C16.956 35.7123 16.9721 35.5025 16.9885 35.357L18.8181 33.5711C18.9181 33.4735 19.4463 33.2185 20.2785 34.1001C20.6052 34.4462 20.6408 34.7233 20.5856 34.8807C20.248 35.8447 19.7658 36.3809 19.2639 36.939ZM17.4621 32.2309C17.5436 32.3766 17.6076 32.5462 17.6332 32.7732L16.1397 34.2311C16.0706 34.208 15.9937 34.1801 15.9118 34.1469C15.572 34.0092 15.1866 33.7965 14.8969 33.4897C14.7424 33.326 14.6598 32.9995 14.7577 32.5337C14.852 32.0849 15.0658 31.7506 15.1946 31.6372C15.407 31.5106 15.7527 31.3624 16.1002 31.3188C16.4588 31.2738 16.7183 31.3469 16.8975 31.5368C17.1607 31.8155 17.3376 32.0081 17.4621 32.2309ZM22.468 39.504C22.3544 39.6763 22.257 39.8337 22.1807 39.9615C22.0482 39.9678 21.8864 39.9694 21.7139 39.9575C21.2407 39.9247 20.8559 39.8018 20.6585 39.5928C20.3688 39.2859 20.1755 38.8857 20.0541 38.5348C20.0188 38.4327 19.9908 38.3384 19.969 38.2569C20.0267 38.1913 20.0889 38.1224 20.1544 38.0498L20.1624 38.0409C20.6415 37.5101 21.2979 36.7828 21.7464 35.7291C21.8991 35.7108 22.0821 35.705 22.2736 35.7283C22.6143 35.7698 22.9354 35.8968 23.1793 36.1548C23.3683 36.3557 23.6162 36.7219 23.725 37.1216C23.8235 37.4833 23.8016 37.8275 23.5634 38.1483C23.1277 38.5578 22.739 39.0928 22.468 39.504Z"/>
</mask>
<path fill-rule="evenodd" clip-rule="evenodd" d="M47.3869 17.352C47.7373 17.1945 47.8958 16.7782 47.7408 16.4221C47.5862 16.066 47.1766 15.9049 46.8266 16.0623L39.4042 19.3985C39.0678 19.5497 38.9061 19.9417 39.0357 20.2917L39.1539 20.6111L37.4154 21.0631L37.4168 20.9934C37.424 20.6343 37.1645 20.327 36.8142 20.2801L28.0117 19.0999C27.8499 19.0783 27.6859 19.1153 27.5483 19.2044L21.5865 23.0696C21.4411 23.1638 21.3354 23.3099 21.2902 23.4791C21.1157 24.1316 20.8294 25.1342 20.5389 26.0174C20.3933 26.4601 20.2502 26.862 20.1224 27.1712C20.0583 27.3263 20.0024 27.4477 19.9561 27.5348C19.928 27.5878 19.9104 27.6145 19.9043 27.6238C19.9034 27.6252 19.9028 27.6261 19.9024 27.6268C19.7407 27.7931 19.654 28.0158 19.6617 28.2507C19.6687 28.4657 19.7521 28.6368 19.8242 28.7482C19.9664 28.9682 20.1819 29.1378 20.3841 29.2609C20.8064 29.518 21.4114 29.7179 22.0825 29.7319C22.7649 29.7461 23.5334 29.5676 24.2464 29.0419C24.8799 28.5747 25.4317 27.8616 25.8462 26.8515L27.9229 26.4739C28.2999 26.4053 28.5508 26.039 28.4834 25.6557C28.416 25.2724 28.0558 25.0173 27.6789 25.0859L25.2181 25.5334C24.9732 25.5779 24.7705 25.7525 24.687 25.9908C24.3334 27.0004 23.8716 27.5765 23.4324 27.9004C22.9944 28.2233 22.5312 28.3309 22.1108 28.3222C21.7537 28.3148 21.4395 28.2232 21.2207 28.1182C21.2815 27.9961 21.3418 27.86 21.4008 27.7173C21.5479 27.3612 21.7036 26.9216 21.8539 26.4646C22.1181 25.6616 22.3765 24.7713 22.5569 24.1127L28.0808 20.5314L36.0178 21.5955L36.0104 21.9615C36.006 22.1817 36.1031 22.3914 36.2728 22.5283C36.4426 22.6651 36.6655 22.7135 36.8754 22.6589L39.6454 21.9386L42.4975 29.6416L41.7192 29.8876C41.4816 29.9627 41.3018 30.1614 41.248 30.4085L40.9114 31.955L31.0661 26.2259C30.7337 26.0325 30.3102 26.1496 30.12 26.4876C29.9298 26.8255 30.045 27.2563 30.3774 27.4497L40.9527 33.6036C41.1591 33.8256 41.2637 33.9599 41.3178 34.1369C41.3728 34.3169 41.4023 34.6499 41.1717 35.3084C41.1232 35.4469 40.9452 35.6291 40.311 35.6312C39.767 35.6331 39.1408 35.4876 38.7012 35.3377L35.8792 33.3388C35.5651 33.1163 35.1329 33.1949 34.9141 33.5144C34.6952 33.8339 34.7725 34.2733 35.0867 34.4958L37.7194 36.3607C37.7336 36.7827 37.6555 37.06 37.5571 37.2419C37.4401 37.458 37.257 37.6092 37.0029 37.711C36.482 37.9196 35.7527 37.8795 35.1803 37.7376L32.8508 36.2497C32.5265 36.0426 32.0986 36.142 31.8949 36.4717C31.6912 36.8014 31.789 37.2366 32.1132 37.4437L34.1282 38.7307C33.9982 39.2645 33.8183 39.6213 33.6298 39.8564C33.403 40.1392 33.136 40.2822 32.8275 40.3384C32.1486 40.4618 31.234 40.1687 30.2839 39.6607C30.0942 39.5592 29.869 39.5527 29.6739 39.643C29.4789 39.7333 29.3359 39.9103 29.2865 40.1224C29.1451 40.7303 28.9495 41.045 28.7883 41.2031C28.642 41.3467 28.4867 41.3992 28.306 41.3988C28.0233 41.3981 27.6859 41.2636 27.3726 41.066C27.6429 40.5382 27.8076 39.921 27.6429 39.2979C27.3952 38.3611 26.5194 37.7866 25.2497 37.5009C25.2216 37.4946 25.1937 37.4892 25.1659 37.4849C25.1639 37.2267 25.1245 36.9772 25.0614 36.7455C24.878 36.0714 24.4887 35.5065 24.1796 35.1784C23.6554 34.623 23.0026 34.397 22.4385 34.3283C22.2687 34.3076 22.1027 34.3006 21.9445 34.3037C21.8355 33.8405 21.5693 33.4313 21.2788 33.1236C20.5504 32.3521 19.6678 31.9644 18.8939 32.056C18.8349 31.8696 18.7585 31.6967 18.6676 31.5341C18.45 31.1449 18.1581 30.8358 17.9196 30.5833L17.8979 30.5603C17.3089 29.9365 16.5423 29.8426 15.9303 29.9194C15.5292 29.9698 15.1515 30.0962 14.8442 30.2373L13.0501 29.0113L15.4711 21.8673L19.716 22.6054C20.0934 22.671 20.4517 22.4131 20.5162 22.0293C20.5808 21.6455 20.3271 21.2812 19.9497 21.2156L15.9289 20.5164L16.0326 20.2103C16.1489 19.8671 15.9899 19.4902 15.6652 19.3394L8.98156 16.2349C8.63327 16.0731 8.22195 16.2291 8.06285 16.5832C7.90376 16.9374 8.05713 17.3556 8.40542 17.5174L14.5166 20.356L10.7574 31.449L8.96916 30.661C8.61782 30.5062 8.20958 30.6703 8.05734 31.0275C7.90509 31.3848 8.06649 31.7999 8.41782 31.9547L10.8932 33.0455C11.0705 33.1236 11.2717 33.123 11.4485 33.0438C11.6252 32.9646 11.7615 32.814 11.8244 32.6283L12.5827 30.3907L13.7853 31.2125C13.6067 31.5296 13.4751 31.8897 13.4017 32.239C13.2597 32.9144 13.2829 33.8161 13.8966 34.4661C14.3752 34.973 14.96 35.2791 15.3985 35.4568C15.4625 35.4827 15.5242 35.5063 15.5832 35.5276C15.5754 35.6664 15.5718 35.8207 15.5763 35.9838C15.5917 36.5491 15.7073 37.4022 16.2772 38.0059C16.8481 38.6106 17.6835 38.7624 18.2387 38.8009C18.3983 38.812 18.5491 38.8145 18.6841 38.8124C18.7026 38.8731 18.7232 38.9368 18.7461 39.0029C18.9028 39.4556 19.1796 40.0623 19.6582 40.5693C20.229 41.174 21.0645 41.3258 21.6196 41.3642C21.7468 41.373 21.8684 41.3764 21.9808 41.3764L21.9869 41.3949C22.16 41.9065 22.5735 42.43 23.3738 42.8297C23.9643 43.1246 24.6919 42.993 25.2496 42.7911C25.6634 42.6412 26.0845 42.4168 26.4595 42.1427C26.9571 42.491 27.6137 42.8071 28.3027 42.8088C28.807 42.81 29.3202 42.6406 29.751 42.218C30.0045 41.9693 30.2114 41.6509 30.3747 41.2665C31.2194 41.6331 32.1777 41.8889 33.0716 41.7264C33.6859 41.6146 34.2554 41.3076 34.7045 40.7474C35.0266 40.3457 35.2694 39.8359 35.436 39.2183C36.0771 39.3044 36.8383 39.2923 37.5109 39.023C38.0065 38.8245 38.4709 38.4781 38.7719 37.9217C38.9349 37.6204 39.0383 37.2795 39.0826 36.9009C39.4725 36.9845 39.9004 37.0427 40.3157 37.0413C41.0545 37.0387 42.1103 36.831 42.4779 35.7815C42.7675 34.9549 42.817 34.2911 42.642 33.7184C42.5275 33.3439 42.3279 33.0562 42.1402 32.8344L42.5149 31.1127L43.0369 30.9477L43.7193 32.4093C43.8673 32.7263 44.2219 32.8843 44.5514 32.7802L47.5123 31.8445C47.8781 31.7289 48.0823 31.3338 47.9685 30.962C47.855 30.5902 47.4666 30.3824 47.1008 30.498L44.7141 31.2523L44.0441 29.8171L40.5643 20.4186L47.3869 17.352ZM26.3038 39.664C26.3623 39.8853 26.2805 40.2633 25.927 40.7708C25.6127 41.0616 25.191 41.3155 24.7844 41.4628C24.3182 41.6316 24.0536 41.5983 23.9851 41.564C23.4609 41.3022 23.3341 41.0424 23.2981 40.9362C23.286 40.9005 23.28 40.8694 23.277 40.8446C23.2886 40.8246 23.3014 40.8024 23.3155 40.7784C23.3879 40.6547 23.4925 40.4822 23.6198 40.2891C23.8813 39.8924 24.2115 39.4506 24.5357 39.155C24.6776 39.0255 24.7943 38.9466 24.8808 38.9066C24.925 38.8862 24.9499 38.8809 24.9594 38.8797C26.046 39.1261 26.2599 39.4979 26.3038 39.664ZM19.2639 36.939C19.1312 37.0865 18.9972 37.2356 18.864 37.3945C18.7214 37.4036 18.5345 37.4081 18.3329 37.3941C17.8598 37.3614 17.4749 37.2385 17.2775 37.0295C17.0806 36.8208 16.9755 36.4259 16.9624 35.9446C16.956 35.7123 16.9721 35.5025 16.9885 35.357L18.8181 33.5711C18.9181 33.4735 19.4463 33.2185 20.2785 34.1001C20.6052 34.4462 20.6408 34.7233 20.5856 34.8807C20.248 35.8447 19.7658 36.3809 19.2639 36.939ZM17.4621 32.2309C17.5436 32.3766 17.6076 32.5462 17.6332 32.7732L16.1397 34.2311C16.0706 34.208 15.9937 34.1801 15.9118 34.1469C15.572 34.0092 15.1866 33.7965 14.8969 33.4897C14.7424 33.326 14.6598 32.9995 14.7577 32.5337C14.852 32.0849 15.0658 31.7506 15.1946 31.6372C15.407 31.5106 15.7527 31.3624 16.1002 31.3188C16.4588 31.2738 16.7183 31.3469 16.8975 31.5368C17.1607 31.8155 17.3376 32.0081 17.4621 32.2309ZM22.468 39.504C22.3544 39.6763 22.257 39.8337 22.1807 39.9615C22.0482 39.9678 21.8864 39.9694 21.7139 39.9575C21.2407 39.9247 20.8559 39.8018 20.6585 39.5928C20.3688 39.2859 20.1755 38.8857 20.0541 38.5348C20.0188 38.4327 19.9908 38.3384 19.969 38.2569C20.0267 38.1913 20.0889 38.1224 20.1544 38.0498L20.1624 38.0409C20.6415 37.5101 21.2979 36.7828 21.7464 35.7291C21.8991 35.7108 22.0821 35.705 22.2736 35.7283C22.6143 35.7698 22.9354 35.8968 23.1793 36.1548C23.3683 36.3557 23.6162 36.7219 23.725 37.1216C23.8235 37.4833 23.8016 37.8275 23.5634 38.1483C23.1277 38.5578 22.739 39.0928 22.468 39.504Z" fill="url(#paint1_linear)"/>
<path d="M22.1289 41.3466C22.1271 41.3411 22.1253 41.3357 22.1235 41.3302L21.8381 41.4225C21.8403 41.4295 21.8426 41.4363 21.8449 41.4432L22.1289 41.3466ZM17.7887 30.6632C17.7959 30.6708 17.8033 30.6787 17.8108 30.6865L18.0285 30.4801C18.0213 30.4726 18.0142 30.4651 18.007 30.4574L17.7887 30.6632ZM20.2658 38.1502C20.2684 38.1474 20.2712 38.1443 20.2738 38.1414L20.0511 37.9404C20.0484 37.9434 20.0458 37.9463 20.0431 37.9493L20.2658 38.1502ZM47.7408 16.4221L47.4656 16.5416L47.4657 16.5418L47.7408 16.4221ZM47.3869 17.352L47.264 17.0783L47.2639 17.0783L47.3869 17.352ZM40.5643 20.4186L40.4413 20.145L40.1857 20.2599L40.283 20.5228L40.5643 20.4186ZM44.0441 29.8171L43.7628 29.9213L43.767 29.9328L43.7723 29.944L44.0441 29.8171ZM44.7141 31.2523L44.4423 31.3792L44.5536 31.6176L44.8045 31.5383L44.7141 31.2523ZM47.1008 30.498L47.0104 30.2119L47.0104 30.2119L47.1008 30.498ZM47.9685 30.962L47.6815 31.0496L47.6816 31.0498L47.9685 30.962ZM47.5123 31.8445L47.422 31.5584L47.4219 31.5584L47.5123 31.8445ZM44.5514 32.7802L44.6418 33.0663L44.6418 33.0663L44.5514 32.7802ZM43.7193 32.4093L43.4474 32.5362L43.4475 32.5362L43.7193 32.4093ZM43.0369 30.9477L43.3088 30.8208L43.1975 30.5823L42.9465 30.6616L43.0369 30.9477ZM42.5149 31.1127L42.4245 30.8266L42.2588 30.879L42.2218 31.0489L42.5149 31.1127ZM42.1402 32.8344L41.847 32.7706L41.8155 32.9153L41.9112 33.0283L42.1402 32.8344ZM42.642 33.7184L42.3551 33.8061V33.8061L42.642 33.7184ZM42.4779 35.7815L42.7611 35.8807L42.7611 35.8807L42.4779 35.7815ZM40.3157 37.0413L40.3167 37.3413L40.3167 37.3413L40.3157 37.0413ZM39.0826 36.9009L39.1454 36.6076L38.823 36.5385L38.7846 36.866L39.0826 36.9009ZM38.7719 37.9217L39.0358 38.0644L39.0358 38.0644L38.7719 37.9217ZM37.5109 39.023L37.6225 39.3015L37.6225 39.3014L37.5109 39.023ZM35.436 39.2183L35.476 38.9209L35.215 38.8858L35.1464 39.1401L35.436 39.2183ZM34.7045 40.7474L34.9386 40.9351L34.9386 40.9351L34.7045 40.7474ZM33.0716 41.7264L33.1253 42.0215H33.1253L33.0716 41.7264ZM30.3747 41.2665L30.4942 40.9913L30.2168 40.8709L30.0986 41.1492L30.3747 41.2665ZM29.751 42.218L29.5409 42.0038L29.5409 42.0038L29.751 42.218ZM28.3027 42.8088L28.3035 42.5088H28.3035L28.3027 42.8088ZM26.4595 42.1427L26.6315 41.8969L26.4557 41.7738L26.2825 41.9005L26.4595 42.1427ZM25.2496 42.7911L25.3517 43.0731H25.3517L25.2496 42.7911ZM23.3738 42.8297L23.2398 43.0981L23.2398 43.0981L23.3738 42.8297ZM21.9869 41.3949L21.7022 41.4894L21.7028 41.4911L21.9869 41.3949ZM21.9808 41.3764L22.2655 41.2819L22.1973 41.0762L21.9806 41.0764L21.9808 41.3764ZM21.6196 41.3642L21.6404 41.0649L21.6403 41.0649L21.6196 41.3642ZM19.6582 40.5693L19.44 40.7752L19.44 40.7752L19.6582 40.5693ZM18.7461 39.0029L19.0296 38.9048L19.0296 38.9047L18.7461 39.0029ZM18.6841 38.8124L18.971 38.7248L18.9051 38.5088L18.6793 38.5124L18.6841 38.8124ZM18.2387 38.8009L18.2595 38.5016L18.2594 38.5016L18.2387 38.8009ZM16.2772 38.0059L16.4954 37.8L16.4954 37.8L16.2772 38.0059ZM15.5763 35.9838L15.2764 35.992L15.2764 35.9921L15.5763 35.9838ZM15.5832 35.5276L15.8827 35.5443L15.8951 35.3214L15.6853 35.2455L15.5832 35.5276ZM15.3985 35.4568L15.5112 35.1787L15.5111 35.1787L15.3985 35.4568ZM13.8966 34.4661L13.6785 34.6721L13.6785 34.6721L13.8966 34.4661ZM13.4017 32.239L13.1081 32.1773L13.1081 32.1773L13.4017 32.239ZM13.7853 31.2125L14.0467 31.3597L14.1817 31.12L13.9545 30.9648L13.7853 31.2125ZM12.5827 30.3907L12.7519 30.143L12.4254 29.9199L12.2985 30.2944L12.5827 30.3907ZM11.8244 32.6283L12.1085 32.7246L12.1085 32.7246L11.8244 32.6283ZM11.4485 33.0438L11.5711 33.3176L11.5711 33.3176L11.4485 33.0438ZM10.8932 33.0455L10.7723 33.3201L10.7723 33.3201L10.8932 33.0455ZM8.41782 31.9547L8.53879 31.6802L8.53878 31.6802L8.41782 31.9547ZM8.05734 31.0275L7.78135 30.9099H7.78135L8.05734 31.0275ZM8.96916 30.661L9.09013 30.3864L9.09012 30.3864L8.96916 30.661ZM10.7574 31.449L10.6364 31.7235L10.9363 31.8557L11.0415 31.5453L10.7574 31.449ZM14.5166 20.356L14.8007 20.4523L14.8871 20.1973L14.643 20.0839L14.5166 20.356ZM8.40542 17.5174L8.27904 17.7895L8.27904 17.7895L8.40542 17.5174ZM8.06285 16.5832L7.7892 16.4603L7.7892 16.4603L8.06285 16.5832ZM8.98156 16.2349L8.85518 16.507L8.85518 16.507L8.98156 16.2349ZM15.6652 19.3394L15.5388 19.6115L15.5388 19.6115L15.6652 19.3394ZM16.0326 20.2103L15.7485 20.1141L15.7484 20.1141L16.0326 20.2103ZM15.9289 20.5164L15.6448 20.4201L15.5323 20.7519L15.8775 20.8119L15.9289 20.5164ZM19.9497 21.2156L19.8983 21.5111L19.8983 21.5111L19.9497 21.2156ZM19.716 22.6054L19.6646 22.901L19.6646 22.901L19.716 22.6054ZM15.4711 21.8673L15.5225 21.5717L15.2694 21.5277L15.187 21.771L15.4711 21.8673ZM13.0501 29.0113L12.766 28.915L12.6929 29.1306L12.8809 29.259L13.0501 29.0113ZM14.8442 30.2373L14.675 30.485L14.8151 30.5808L14.9694 30.51L14.8442 30.2373ZM15.9303 29.9194L15.9677 30.2171L15.9677 30.2171L15.9303 29.9194ZM17.8979 30.5603L17.6797 30.7663L17.6798 30.7663L17.8979 30.5603ZM17.9196 30.5833L17.7015 30.7893L17.7015 30.7893L17.9196 30.5833ZM18.6676 31.5341L18.9295 31.3878L18.9295 31.3878L18.6676 31.5341ZM18.8939 32.056L18.6078 32.1465L18.6827 32.383L18.9291 32.3539L18.8939 32.056ZM21.2788 33.1236L21.497 32.9177L21.497 32.9177L21.2788 33.1236ZM21.9445 34.3037L21.6525 34.3724L21.708 34.6084L21.9504 34.6036L21.9445 34.3037ZM22.4385 34.3283L22.4022 34.6261L22.4023 34.6261L22.4385 34.3283ZM24.1796 35.1784L24.398 34.9727L24.3978 34.9724L24.1796 35.1784ZM25.0614 36.7455L25.3509 36.6667L25.3509 36.6667L25.0614 36.7455ZM25.1659 37.4849L24.8659 37.4872L24.8679 37.7419L25.1195 37.7813L25.1659 37.4849ZM25.2497 37.5009L25.3155 37.2082L25.3153 37.2081L25.2497 37.5009ZM27.6429 39.2979L27.3528 39.3746L27.3528 39.3746L27.6429 39.2979ZM27.3726 41.066L27.1056 40.9293L26.9806 41.1734L27.2126 41.3197L27.3726 41.066ZM28.306 41.3988L28.3053 41.6988H28.3053L28.306 41.3988ZM28.7883 41.2031L28.5783 40.989L28.5782 40.989L28.7883 41.2031ZM29.2865 40.1224L28.9943 40.0544L28.9943 40.0544L29.2865 40.1224ZM29.6739 39.643L29.5479 39.3708L29.5479 39.3708L29.6739 39.643ZM30.2839 39.6607L30.1424 39.9252L30.2839 39.6607ZM32.8275 40.3384L32.8812 40.6335H32.8812L32.8275 40.3384ZM33.6298 39.8564L33.8638 40.0441L33.8638 40.0441L33.6298 39.8564ZM34.1282 38.7307L34.4197 38.8017L34.4704 38.5933L34.2897 38.4779L34.1282 38.7307ZM32.1132 37.4437L31.9517 37.6965L31.9518 37.6966L32.1132 37.4437ZM31.8949 36.4717L32.1502 36.6294L32.1502 36.6294L31.8949 36.4717ZM32.8508 36.2497L32.6893 36.5025L32.6893 36.5025L32.8508 36.2497ZM35.1803 37.7376L35.0188 37.9904L35.0603 38.0169L35.1081 38.0288L35.1803 37.7376ZM37.0029 37.711L37.1144 37.9895L37.1144 37.9895L37.0029 37.711ZM37.5571 37.2419L37.8209 37.3847L37.8209 37.3847L37.5571 37.2419ZM37.7194 36.3607L38.0193 36.3506L38.0143 36.2019L37.8928 36.1159L37.7194 36.3607ZM35.0867 34.4958L34.9133 34.7406L34.9133 34.7406L35.0867 34.4958ZM34.9141 33.5144L35.1616 33.6839L35.1616 33.6839L34.9141 33.5144ZM35.8792 33.3388L36.0526 33.094L36.0526 33.094L35.8792 33.3388ZM38.7012 35.3377L38.5278 35.5825L38.5633 35.6076L38.6044 35.6217L38.7012 35.3377ZM40.311 35.6312L40.31 35.3312L40.31 35.3312L40.311 35.6312ZM41.1717 35.3084L40.8885 35.2092L40.8885 35.2092L41.1717 35.3084ZM41.3178 34.1369L41.6047 34.0492L41.6047 34.0492L41.3178 34.1369ZM40.9527 33.6036L41.1724 33.3993L41.1421 33.3667L41.1036 33.3443L40.9527 33.6036ZM30.3774 27.4497L30.5282 27.1904L30.5282 27.1904L30.3774 27.4497ZM30.12 26.4876L30.3814 26.6347L30.3814 26.6347L30.12 26.4876ZM31.0661 26.2259L31.217 25.9666L31.217 25.9666L31.0661 26.2259ZM40.9114 31.955L40.7605 32.2143L41.1169 32.4216L41.2045 32.0188L40.9114 31.955ZM41.248 30.4085L40.9549 30.3447V30.3447L41.248 30.4085ZM41.7192 29.8876L41.8095 30.1737L41.8096 30.1737L41.7192 29.8876ZM42.4975 29.6416L42.5879 29.9277L42.8882 29.8328L42.7788 29.5375L42.4975 29.6416ZM39.6454 21.9386L39.9268 21.8345L39.8326 21.58L39.5699 21.6483L39.6454 21.9386ZM36.8754 22.6589L36.7999 22.3685L36.7998 22.3685L36.8754 22.6589ZM36.0104 21.9615L36.3104 21.9675V21.9675L36.0104 21.9615ZM36.0178 21.5955L36.3177 21.6015L36.3231 21.3338L36.0576 21.2982L36.0178 21.5955ZM28.0808 20.5314L28.1207 20.2341L28.0107 20.2194L27.9176 20.2797L28.0808 20.5314ZM22.5569 24.1127L22.3937 23.8609L22.2977 23.9231L22.2675 24.0334L22.5569 24.1127ZM21.8539 26.4646L21.569 26.3709L21.5689 26.3709L21.8539 26.4646ZM21.4008 27.7173L21.1235 27.6027L21.1235 27.6028L21.4008 27.7173ZM21.2207 28.1182L20.9521 27.9844L20.8165 28.2569L21.0909 28.3886L21.2207 28.1182ZM22.1108 28.3222L22.1046 28.6221H22.1046L22.1108 28.3222ZM23.4324 27.9004L23.2543 27.6589L23.2543 27.6589L23.4324 27.9004ZM24.687 25.9908L24.9702 26.09L24.9702 26.0899L24.687 25.9908ZM25.2181 25.5334L25.2718 25.8285H25.2718L25.2181 25.5334ZM27.6789 25.0859L27.7325 25.381L27.7325 25.381L27.6789 25.0859ZM28.4834 25.6557L28.7789 25.6038L28.7789 25.6038L28.4834 25.6557ZM27.9229 26.4739L27.9766 26.769L27.9766 26.769L27.9229 26.4739ZM25.8462 26.8515L25.7925 26.5564L25.631 26.5857L25.5687 26.7376L25.8462 26.8515ZM24.2464 29.0419L24.4244 29.2833L24.4244 29.2833L24.2464 29.0419ZM22.0825 29.7319L22.0762 30.0318H22.0762L22.0825 29.7319ZM20.3841 29.2609L20.5402 29.0047L20.5401 29.0046L20.3841 29.2609ZM19.8242 28.7482L20.0761 28.5853L20.076 28.5853L19.8242 28.7482ZM19.6617 28.2507L19.9615 28.2409V28.2409L19.6617 28.2507ZM19.9024 27.6268L20.1175 27.8358L20.1399 27.8128L20.1569 27.7856L19.9024 27.6268ZM19.9561 27.5348L20.221 27.6755L20.221 27.6755L19.9561 27.5348ZM20.1224 27.1712L19.8451 27.0566L19.8451 27.0566L20.1224 27.1712ZM20.5389 26.0174L20.2539 25.9236V25.9236L20.5389 26.0174ZM21.2902 23.4791L21.0003 23.4016L21.0003 23.4016L21.2902 23.4791ZM21.5865 23.0696L21.7497 23.3213L21.7497 23.3213L21.5865 23.0696ZM27.5483 19.2044L27.7115 19.4562L27.7115 19.4562L27.5483 19.2044ZM28.0117 19.0999L28.0515 18.8026L28.0515 18.8026L28.0117 19.0999ZM36.8142 20.2801L36.7744 20.5774H36.7744L36.8142 20.2801ZM37.4168 20.9934L37.1168 20.9874V20.9875L37.4168 20.9934ZM37.4154 21.0631L37.1155 21.0572L37.1076 21.4531L37.4909 21.3535L37.4154 21.0631ZM39.1539 20.6111L39.2294 20.9014L39.5504 20.818L39.4352 20.5069L39.1539 20.6111ZM39.0357 20.2917L39.317 20.1875L39.317 20.1875L39.0357 20.2917ZM39.4042 19.3985L39.2812 19.1248L39.2812 19.1248L39.4042 19.3985ZM46.8266 16.0623L46.9495 16.3359L46.9496 16.3359L46.8266 16.0623ZM25.927 40.7708L26.1307 40.991L26.1546 40.9689L26.1731 40.9423L25.927 40.7708ZM26.3038 39.664L26.0137 39.7407L26.0137 39.7407L26.3038 39.664ZM24.9594 38.8797L25.0258 38.5871L24.9735 38.5753L24.9204 38.5822L24.9594 38.8797ZM24.8808 38.9066L24.755 38.6343L24.7548 38.6343L24.8808 38.9066ZM24.5357 39.155L24.7378 39.3766L24.7379 39.3766L24.5357 39.155ZM23.6198 40.2891L23.8703 40.4542L23.8703 40.4542L23.6198 40.2891ZM23.3155 40.7784L23.5743 40.9301L23.5743 40.93L23.3155 40.7784ZM23.277 40.8446L23.0171 40.6949L22.9675 40.781L22.9791 40.8797L23.277 40.8446ZM23.2981 40.9362L23.5823 40.84L23.5823 40.84L23.2981 40.9362ZM23.9851 41.564L24.1193 41.2957L24.1192 41.2956L23.9851 41.564ZM24.7844 41.4628L24.8865 41.7448L24.8865 41.7448L24.7844 41.4628ZM22.1807 39.9615L22.1951 40.2611L22.3556 40.2534L22.4381 40.1154L22.1807 39.9615ZM22.468 39.504L22.2175 39.3389L22.2175 39.3389L22.468 39.504ZM23.5634 38.1483L23.7689 38.3669L23.7883 38.3486L23.8043 38.3272L23.5634 38.1483ZM23.725 37.1216L23.4355 37.2003L23.4355 37.2004L23.725 37.1216ZM23.1793 36.1548L23.3978 35.9492L23.3973 35.9488L23.1793 36.1548ZM21.7139 39.9575L21.6931 40.2567L21.6932 40.2568L21.7139 39.9575ZM20.6585 39.5928L20.4403 39.7987L20.4403 39.7988L20.6585 39.5928ZM20.0541 38.5348L20.3376 38.4367L20.3376 38.4367L20.0541 38.5348ZM19.969 38.2569L19.7439 38.0585L19.6376 38.1792L19.6792 38.3345L19.969 38.2569ZM20.1624 38.0409L19.9397 37.8399L19.9397 37.8399L20.1624 38.0409ZM21.7464 35.7291L21.7105 35.4313L21.5383 35.452L21.4704 35.6116L21.7464 35.7291ZM22.2736 35.7283L22.2374 36.0261L22.2374 36.0261L22.2736 35.7283ZM18.864 37.3945L18.8831 37.6939L19.0114 37.6857L19.094 37.5872L18.864 37.3945ZM19.2639 36.939L19.0408 36.7384L19.0408 36.7384L19.2639 36.939ZM20.5856 34.8807L20.3025 34.7815L20.3025 34.7815L20.5856 34.8807ZM20.2785 34.1001L20.4967 33.8942L20.4967 33.8942L20.2785 34.1001ZM18.8181 33.5711L18.6086 33.3564L18.6085 33.3565L18.8181 33.5711ZM16.9885 35.357L16.779 35.1423L16.7024 35.2171L16.6904 35.3234L16.9885 35.357ZM16.9624 35.9446L16.6625 35.9528L16.6625 35.9528L16.9624 35.9446ZM17.2775 37.0295L17.4957 36.8235L17.4957 36.8235L17.2775 37.0295ZM18.3329 37.3941L18.3122 37.6934L18.3122 37.6934L18.3329 37.3941ZM17.6332 32.7732L17.8428 32.9879L17.9477 32.8854L17.9313 32.7396L17.6332 32.7732ZM17.4621 32.2309L17.724 32.0845L17.724 32.0845L17.4621 32.2309ZM16.8975 31.5368L16.6794 31.7427L16.6794 31.7427L16.8975 31.5368ZM16.1002 31.3188L16.1376 31.6165L16.1376 31.6165L16.1002 31.3188ZM15.1946 31.6372L15.0409 31.3796L15.0171 31.3938L14.9963 31.4121L15.1946 31.6372ZM14.7577 32.5337L14.4641 32.472L14.4641 32.472L14.7577 32.5337ZM14.8969 33.4897L15.1151 33.2837L15.1151 33.2837L14.8969 33.4897ZM15.9118 34.1469L16.0245 33.8689L16.0244 33.8689L15.9118 34.1469ZM16.1397 34.2311L16.0446 34.5156L16.2182 34.5736L16.3492 34.4458L16.1397 34.2311ZM19.9043 27.6238L20.1551 27.7884L20.1552 27.7884L19.9043 27.6238ZM20.1544 38.0498L19.9317 37.8488L19.9317 37.8488L20.1544 38.0498ZM47.4657 16.5418C47.5563 16.7501 47.4618 16.9895 47.264 17.0783L47.5099 17.6256C48.0129 17.3996 48.2352 16.8064 48.0159 16.3024L47.4657 16.5418ZM47.2639 17.0783L40.4413 20.145L40.6873 20.6923L47.5099 17.6256L47.2639 17.0783ZM40.283 20.5228L43.7628 29.9213L44.3254 29.7129L40.8457 20.3145L40.283 20.5228ZM43.7723 29.944L44.4423 31.3792L44.9859 31.1254L44.3159 29.6902L43.7723 29.944ZM44.8045 31.5383L47.1912 30.7841L47.0104 30.2119L44.6237 30.9662L44.8045 31.5383ZM47.1912 30.7841C47.3942 30.7199 47.6157 30.8336 47.6815 31.0496L48.2554 30.8744C48.0944 30.3467 47.5389 30.045 47.0104 30.2119L47.1912 30.7841ZM47.6816 31.0498C47.7484 31.2679 47.6271 31.4936 47.422 31.5584L47.6027 32.1305C48.1291 31.9642 48.4163 31.3998 48.2553 30.8742L47.6816 31.0498ZM47.4219 31.5584L44.461 32.4941L44.6418 33.0663L47.6027 32.1305L47.4219 31.5584ZM44.461 32.4941C44.2778 32.552 44.0766 32.4655 43.9911 32.2824L43.4475 32.5362C43.658 32.987 44.166 33.2166 44.6418 33.0663L44.461 32.4941ZM43.9911 32.2824L43.3088 30.8208L42.7651 31.0746L43.4474 32.5362L43.9911 32.2824ZM42.9465 30.6616L42.4245 30.8266L42.6053 31.3987L43.1273 31.2337L42.9465 30.6616ZM42.2218 31.0489L41.847 32.7706L42.4333 32.8982L42.8081 31.1765L42.2218 31.0489ZM41.9112 33.0283C42.0842 33.2326 42.2568 33.4846 42.3551 33.8061L42.9289 33.6307C42.7982 33.2032 42.5717 32.8798 42.3691 32.6406L41.9112 33.0283ZM42.3551 33.8061C42.5049 34.2964 42.472 34.891 42.1948 35.6823L42.7611 35.8807C43.0629 35.0189 43.1291 34.2858 42.9289 33.6307L42.3551 33.8061ZM42.1948 35.6823C41.8957 36.5361 41.0319 36.7388 40.3147 36.7413L40.3167 37.3413C41.0772 37.3386 42.3248 37.1259 42.7611 35.8807L42.1948 35.6823ZM40.3147 36.7413C39.9265 36.7426 39.5208 36.688 39.1454 36.6076L39.0197 37.1943C39.4243 37.2809 39.8743 37.3428 40.3167 37.3413L40.3147 36.7413ZM38.7846 36.866C38.7442 37.2114 38.6509 37.515 38.5081 37.7789L39.0358 38.0644C39.219 37.7258 39.3324 37.3476 39.3806 36.9358L38.7846 36.866ZM38.5081 37.7789C38.2461 38.263 37.8421 38.5671 37.3994 38.7445L37.6225 39.3014C38.1709 39.0818 38.6956 38.6931 39.0358 38.0644L38.5081 37.7789ZM37.3994 38.7444C36.7924 38.9875 36.0886 39.0033 35.476 38.9209L35.3961 39.5156C36.0657 39.6056 36.8843 39.5971 37.6225 39.3015L37.3994 38.7444ZM35.1464 39.1401C34.9878 39.7278 34.7609 40.1975 34.4704 40.5598L34.9386 40.9351C35.2923 40.4939 35.551 39.9441 35.7257 39.2964L35.1464 39.1401ZM34.4705 40.5598C34.0689 41.0606 33.5649 41.3317 33.0179 41.4312L33.1253 42.0215C33.8068 41.8976 34.4418 41.5546 34.9386 40.9351L34.4705 40.5598ZM33.0179 41.4312C32.2105 41.5781 31.3184 41.3491 30.4942 40.9913L30.2553 41.5416C31.1205 41.9172 32.1448 42.1998 33.1253 42.0215L33.0179 41.4312ZM30.0986 41.1492C29.9475 41.5048 29.761 41.7879 29.5409 42.0038L29.9611 42.4321C30.2481 42.1506 30.4753 41.797 30.6509 41.3837L30.0986 41.1492ZM29.5409 42.0038C29.1714 42.3662 28.7364 42.5099 28.3035 42.5088L28.302 43.1088C28.8776 43.1102 29.4689 42.915 29.9611 42.4321L29.5409 42.0038ZM28.3035 42.5088C27.701 42.5073 27.1047 42.2281 26.6315 41.8969L26.2875 42.3884C26.8095 42.7539 27.5263 43.1069 28.302 43.1088L28.3035 42.5088ZM26.2825 41.9005C25.9297 42.1583 25.5338 42.3691 25.1474 42.509L25.3517 43.0731C25.793 42.9133 26.2392 42.6753 26.6365 42.3849L26.2825 41.9005ZM25.1474 42.509C24.6095 42.7038 23.9839 42.799 23.5078 42.5613L23.2398 43.0981C23.9448 43.4501 24.7742 43.2823 25.3517 43.0731L25.1474 42.509ZM23.5079 42.5613C22.7677 42.1917 22.4153 41.7249 22.2711 41.2988L21.7028 41.4911C21.9048 42.0881 22.3792 42.6683 23.2398 43.0981L23.5079 42.5613ZM21.9806 41.0764C21.8743 41.0764 21.7598 41.0732 21.6404 41.0649L21.5988 41.6635C21.7338 41.6729 21.8624 41.6765 21.981 41.6764L21.9806 41.0764ZM21.6403 41.0649C21.1039 41.0278 20.3665 40.8826 19.8763 40.3633L19.44 40.7752C20.0915 41.4653 21.0251 41.6238 21.5989 41.6635L21.6403 41.0649ZM19.8763 40.3633C19.4381 39.8991 19.1789 39.3362 19.0296 38.9048L18.4626 39.101C18.6266 39.575 18.9211 40.2256 19.44 40.7752L19.8763 40.3633ZM19.0296 38.9047C19.008 38.8423 18.9885 38.7821 18.971 38.7248L18.3972 38.8999C18.4167 38.964 18.4385 39.0313 18.4626 39.101L19.0296 38.9047ZM18.6793 38.5124C18.5515 38.5144 18.4094 38.512 18.2595 38.5016L18.2179 39.1002C18.3873 39.1119 18.5467 39.1146 18.6889 39.1123L18.6793 38.5124ZM18.2594 38.5016C17.7229 38.4644 16.9856 38.3192 16.4954 37.8L16.0591 38.2119C16.7106 38.902 17.6442 39.0604 18.218 39.1002L18.2594 38.5016ZM16.4954 37.8C16.0048 37.2803 15.8912 36.5238 15.8762 35.9756L15.2764 35.9921C15.2923 36.5743 15.4098 37.5242 16.0591 38.2119L16.4954 37.8ZM15.8762 35.9757C15.872 35.822 15.8754 35.676 15.8827 35.5443L15.2836 35.5109C15.2755 35.6568 15.2717 35.8195 15.2764 35.992L15.8762 35.9757ZM15.6853 35.2455C15.6297 35.2254 15.5715 35.2032 15.5112 35.1787L15.2858 35.7348C15.3534 35.7622 15.4188 35.7871 15.4811 35.8097L15.6853 35.2455ZM15.5111 35.1787C15.0944 35.0099 14.5527 34.7241 14.1148 34.2602L13.6785 34.6721C14.1976 35.222 14.8256 35.5483 15.2858 35.7348L15.5111 35.1787ZM14.1148 34.2602C13.5991 33.714 13.5622 32.9339 13.6952 32.3007L13.1081 32.1773C12.9573 32.895 12.9667 33.9181 13.6785 34.6721L14.1148 34.2602ZM13.6952 32.3007C13.7627 31.9797 13.884 31.6486 14.0467 31.3597L13.5239 31.0653C13.3294 31.4106 13.1874 31.7997 13.1081 32.1773L13.6952 32.3007ZM13.9545 30.9648L12.7519 30.143L12.4134 30.6384L13.616 31.4602L13.9545 30.9648ZM12.2985 30.2944L11.5403 32.5321L12.1085 32.7246L12.8668 30.487L12.2985 30.2944ZM11.5403 32.532C11.5037 32.6398 11.4253 32.7255 11.3258 32.7701L11.5711 33.3176C11.8251 33.2038 12.0192 32.9882 12.1085 32.7246L11.5403 32.532ZM11.3258 32.77C11.2265 32.8145 11.1137 32.8149 11.0142 32.771L10.7723 33.3201C11.0272 33.4324 11.3169 33.4315 11.5711 33.3176L11.3258 32.77ZM11.0142 32.771L8.53879 31.6802L8.29685 32.2293L10.7723 33.3201L11.0142 32.771ZM8.53878 31.6802C8.34067 31.5929 8.24422 31.3542 8.33332 31.1452L7.78135 30.9099C7.56596 31.4154 7.7923 32.007 8.29686 32.2293L8.53878 31.6802ZM8.33332 31.1452C8.42135 30.9386 8.65278 30.8494 8.8482 30.9355L9.09012 30.3864C8.58285 30.1629 7.99782 30.402 7.78135 30.9099L8.33332 31.1452ZM8.84818 30.9355L10.6364 31.7235L10.8784 31.1745L9.09013 30.3864L8.84818 30.9355ZM11.0415 31.5453L14.8007 20.4523L14.2325 20.2597L10.4733 31.3527L11.0415 31.5453ZM14.643 20.0839L8.5318 17.2453L8.27904 17.7895L14.3902 20.6281L14.643 20.0839ZM8.5318 17.2453C8.33518 17.154 8.24345 16.9133 8.33651 16.7061L7.7892 16.4603C7.56406 16.9615 7.77908 17.5573 8.27904 17.7895L8.5318 17.2453ZM8.33651 16.7061C8.4284 16.5016 8.66136 16.4169 8.85518 16.507L9.10794 15.9628C8.60518 15.7293 8.0155 15.9565 7.7892 16.4603L8.33651 16.7061ZM8.85518 16.507L15.5388 19.6115L15.7915 19.0673L9.10794 15.9628L8.85518 16.507ZM15.5388 19.6115C15.722 19.6965 15.8165 19.9131 15.7485 20.1141L16.3167 20.3066C16.4812 19.8211 16.2578 19.2839 15.7915 19.0673L15.5388 19.6115ZM15.7484 20.1141L15.6448 20.4201L16.213 20.6126L16.3167 20.3066L15.7484 20.1141ZM15.8775 20.8119L19.8983 21.5111L20.0011 20.92L15.9803 20.2208L15.8775 20.8119ZM19.8983 21.5111C20.1088 21.5477 20.2583 21.7541 20.2204 21.9796L20.8121 22.0791C20.9033 21.5369 20.5455 21.0146 20.0011 20.92L19.8983 21.5111ZM20.2204 21.9796C20.1827 22.2038 19.9765 22.3462 19.7674 22.3098L19.6646 22.901C20.2103 22.9958 20.7207 22.6224 20.8121 22.0791L20.2204 21.9796ZM19.7674 22.3098L15.5225 21.5717L15.4197 22.1628L19.6646 22.901L19.7674 22.3098ZM15.187 21.771L12.766 28.915L13.3342 29.1076L15.7552 21.9636L15.187 21.771ZM12.8809 29.259L14.675 30.485L15.0135 29.9896L13.2194 28.7636L12.8809 29.259ZM14.9694 30.51C15.2555 30.3786 15.6034 30.2628 15.9677 30.2171L15.8929 29.6218C15.4549 29.6767 15.0475 29.8139 14.7191 29.9647L14.9694 30.51ZM15.9677 30.2171C16.5242 30.1472 17.1797 30.2366 17.6797 30.7663L18.116 30.3544C17.4382 29.6364 16.5604 29.5379 15.8929 29.6218L15.9677 30.2171ZM17.7015 30.7893C17.9423 31.0443 18.2089 31.3282 18.4057 31.6805L18.9295 31.3878C18.6912 30.9615 18.3739 30.6274 18.1377 30.3773L17.7015 30.7893ZM18.4057 31.6805C18.4872 31.8263 18.5553 31.9805 18.6078 32.1465L19.1799 31.9655C19.1144 31.7586 19.0297 31.5671 18.9295 31.3878L18.4057 31.6805ZM18.9291 32.3539C19.5796 32.277 20.3741 32.6024 21.0607 33.3296L21.497 32.9177C20.7266 32.1018 19.7561 31.6519 18.8586 31.7581L18.9291 32.3539ZM21.0607 33.3296C21.3259 33.6106 21.5588 33.9744 21.6525 34.3724L22.2365 34.235C22.1122 33.7066 21.8126 33.2521 21.497 32.9177L21.0607 33.3296ZM21.9504 34.6036C22.0957 34.6008 22.2476 34.6073 22.4022 34.6261L22.4748 34.0305C22.2899 34.008 22.1098 34.0004 21.9386 34.0038L21.9504 34.6036ZM22.4023 34.6261C22.9171 34.6888 23.4976 34.893 23.9615 35.3843L24.3978 34.9724C23.8131 34.3531 23.0881 34.1052 22.4748 34.0305L22.4023 34.6261ZM23.9613 35.3841C24.2446 35.6849 24.6042 36.2079 24.772 36.8243L25.3509 36.6667C25.1517 35.935 24.7327 35.3281 24.398 34.9727L23.9613 35.3841ZM24.772 36.8242C24.8291 37.0341 24.8641 37.2579 24.8659 37.4872L25.4659 37.4826C25.4637 37.1955 25.4199 36.9202 25.3509 36.6667L24.772 36.8242ZM25.1195 37.7813C25.1407 37.7846 25.1622 37.7887 25.184 37.7936L25.3153 37.2081C25.281 37.2004 25.2466 37.1939 25.2123 37.1885L25.1195 37.7813ZM25.1838 37.7935C26.415 38.0706 27.1485 38.6015 27.3528 39.3746L27.9329 39.2212C27.642 38.1207 26.6237 37.5026 25.3155 37.2082L25.1838 37.7935ZM27.3528 39.3746C27.4914 39.8988 27.3577 40.4368 27.1056 40.9293L27.6397 41.2027C27.928 40.6395 28.1238 39.9432 27.9329 39.2212L27.3528 39.3746ZM27.2126 41.3197C27.5461 41.5301 27.9407 41.6979 28.3053 41.6988L28.3068 41.0988C28.1059 41.0983 27.8258 40.9972 27.5327 40.8123L27.2126 41.3197ZM28.3053 41.6988C28.558 41.6994 28.7912 41.6206 28.9984 41.4173L28.5782 40.989C28.4929 41.0727 28.4154 41.0991 28.3068 41.0988L28.3053 41.6988ZM28.9984 41.4173C29.214 41.2058 29.4295 40.8315 29.5787 40.1903L28.9943 40.0544C28.8606 40.629 28.685 40.8842 28.5783 40.989L28.9984 41.4173ZM29.5787 40.1903C29.6074 40.0669 29.6901 39.9661 29.8 39.9152L29.5479 39.3708C29.2677 39.5005 29.0643 39.7536 28.9943 40.0544L29.5787 40.1903ZM29.7999 39.9153C29.9095 39.8645 30.0357 39.8681 30.1424 39.9252L30.4253 39.3961C30.1527 39.2503 29.8285 39.2409 29.5479 39.3708L29.7999 39.9153ZM30.1424 39.9252C31.1008 40.4377 32.0949 40.7765 32.8812 40.6335L32.7738 40.0432C32.2024 40.1471 31.3672 39.8997 30.4253 39.3961L30.1424 39.9252ZM32.8812 40.6335C33.2572 40.5651 33.5896 40.3861 33.8638 40.0441L33.3957 39.6688C33.2165 39.8924 33.0149 39.9994 32.7738 40.0432L32.8812 40.6335ZM33.8638 40.0441C34.0866 39.7662 34.2822 39.3662 34.4197 38.8017L33.8367 38.6597C33.7142 39.1629 33.55 39.4763 33.3957 39.6688L33.8638 40.0441ZM34.2897 38.4779L32.2747 37.1909L31.9518 37.6966L33.9667 38.9835L34.2897 38.4779ZM32.2747 37.1909C32.0903 37.0731 32.0316 36.8213 32.1502 36.6294L31.6397 36.3141C31.3509 36.7815 31.4877 37.4001 31.9517 37.6965L32.2747 37.1909ZM32.1502 36.6294C32.2669 36.4403 32.508 36.3867 32.6893 36.5025L33.0123 35.9969C32.5451 35.6985 31.9302 35.8437 31.6397 36.3141L32.1502 36.6294ZM32.6893 36.5025L35.0188 37.9904L35.3418 37.4848L33.0123 35.9969L32.6893 36.5025ZM35.1081 38.0288C35.7078 38.1775 36.5096 38.2317 37.1144 37.9895L36.8913 37.4325C36.4545 37.6074 35.7976 37.5816 35.2525 37.4464L35.1081 38.0288ZM37.1144 37.9895C37.4219 37.8663 37.6651 37.6727 37.8209 37.3847L37.2933 37.0991C37.2152 37.2434 37.0921 37.3521 36.8913 37.4325L37.1144 37.9895ZM37.8209 37.3847C37.9497 37.1467 38.0348 36.8143 38.0193 36.3506L37.4196 36.3707C37.4324 36.7511 37.3613 36.9733 37.2932 37.0992L37.8209 37.3847ZM37.8928 36.1159L35.2601 34.251L34.9133 34.7406L37.546 36.6055L37.8928 36.1159ZM35.2601 34.251C35.0809 34.1241 35.0344 33.8695 35.1616 33.6839L34.6666 33.3448C34.356 33.7982 34.4641 34.4224 34.9133 34.7406L35.2601 34.251ZM35.1616 33.6839C35.2867 33.5012 35.5297 33.4589 35.7058 33.5836L36.0526 33.094C35.6004 32.7737 34.9792 32.8885 34.6666 33.3448L35.1616 33.6839ZM35.7058 33.5836L38.5278 35.5825L38.8746 35.0929L36.0526 33.094L35.7058 33.5836ZM38.6044 35.6217C39.0624 35.7778 39.7232 35.9333 40.312 35.9312L40.31 35.3312C39.8107 35.333 39.2193 35.1974 38.798 35.0538L38.6044 35.6217ZM40.312 35.9312C40.9828 35.929 41.3407 35.7334 41.4548 35.4075L40.8885 35.2092C40.8922 35.1988 40.8934 35.2202 40.8298 35.2512C40.756 35.287 40.6031 35.3302 40.31 35.3312L40.312 35.9312ZM41.4548 35.4076C41.6979 34.7135 41.6848 34.3113 41.6047 34.0492L41.0309 34.2246C41.0608 34.3225 41.1067 34.5863 40.8885 35.2092L41.4548 35.4076ZM41.6047 34.0492C41.5287 33.8004 41.3796 33.6222 41.1724 33.3993L40.733 33.8078C40.9387 34.0291 40.9988 34.1195 41.0309 34.2246L41.6047 34.0492ZM41.1036 33.3443L30.5282 27.1904L30.2265 27.709L40.8018 33.8629L41.1036 33.3443ZM30.5282 27.1904C30.3397 27.0806 30.2705 26.8318 30.3814 26.6347L29.8585 26.3405C29.5891 26.8193 29.7503 27.4319 30.2265 27.709L30.5282 27.1904ZM30.3814 26.6347C30.4907 26.4405 30.7296 26.3772 30.9152 26.4852L31.217 25.9666C30.7379 25.6878 30.1296 25.8588 29.8585 26.3405L30.3814 26.6347ZM30.9152 26.4851L40.7605 32.2143L41.0623 31.6957L31.217 25.9666L30.9152 26.4851ZM41.2045 32.0188L41.5411 30.4723L40.9549 30.3447L40.6183 31.8912L41.2045 32.0188ZM41.5411 30.4723C41.5725 30.3284 41.6764 30.2157 41.8095 30.1737L41.6288 29.6015C41.2868 29.7096 41.0311 29.9945 40.9549 30.3447L41.5411 30.4723ZM41.8096 30.1737L42.5879 29.9277L42.4071 29.3556L41.6288 29.6015L41.8096 30.1737ZM42.7788 29.5375L39.9268 21.8345L39.3641 22.0428L42.2161 29.7458L42.7788 29.5375ZM39.5699 21.6483L36.7999 22.3685L36.9508 22.9492L39.7209 22.229L39.5699 21.6483ZM36.7998 22.3685C36.6825 22.3991 36.5574 22.3723 36.4611 22.2947L36.0845 22.7618C36.3277 22.9579 36.6484 23.0279 36.9509 22.9492L36.7998 22.3685ZM36.4611 22.2947C36.3645 22.2168 36.3078 22.096 36.3104 21.9675L35.7105 21.9554C35.7042 22.2674 35.8416 22.5659 36.0845 22.7618L36.4611 22.2947ZM36.3104 21.9675L36.3177 21.6015L35.7178 21.5895L35.7105 21.9554L36.3104 21.9675ZM36.0576 21.2982L28.1207 20.2341L28.041 20.8288L35.9779 21.8929L36.0576 21.2982ZM27.9176 20.2797L22.3937 23.8609L22.72 24.3644L28.244 20.7832L27.9176 20.2797ZM22.2675 24.0334C22.088 24.689 21.831 25.5741 21.569 26.3709L22.1389 26.5584C22.4051 25.749 22.665 24.8536 22.8462 24.1919L22.2675 24.0334ZM21.5689 26.3709C21.4196 26.8249 21.2666 27.2565 21.1235 27.6027L21.678 27.8319C21.8293 27.4659 21.9876 27.0183 22.1389 26.5584L21.5689 26.3709ZM21.1235 27.6028C21.0662 27.7413 21.0088 27.8706 20.9521 27.9844L21.4892 28.2519C21.5541 28.1216 21.6174 27.9787 21.678 27.8319L21.1235 27.6028ZM21.0909 28.3886C21.3458 28.511 21.702 28.6137 22.1046 28.6221L22.1171 28.0223C21.8053 28.0158 21.5331 27.9354 21.3505 27.8477L21.0909 28.3886ZM22.1046 28.6221C22.5829 28.6321 23.1129 28.5087 23.6104 28.1418L23.2543 27.6589C22.8759 27.9379 22.4795 28.0298 22.117 28.0223L22.1046 28.6221ZM23.6104 28.1418C24.1083 27.7747 24.6012 27.1433 24.9702 26.09L24.4039 25.8916C24.0656 26.8575 23.6348 27.3783 23.2543 27.6589L23.6104 28.1418ZM24.9702 26.0899C25.0186 25.9517 25.1349 25.8534 25.2718 25.8285L25.1644 25.2382C24.8115 25.3024 24.5224 25.5533 24.4039 25.8917L24.9702 26.0899ZM25.2718 25.8285L27.7325 25.381L27.6252 24.7907L25.1644 25.2382L25.2718 25.8285ZM27.7325 25.381C27.9414 25.343 28.1485 25.4838 28.1879 25.7077L28.7789 25.6038C28.6834 25.0611 28.1702 24.6916 27.6252 24.7907L27.7325 25.381ZM28.1879 25.7077C28.2275 25.9328 28.0795 26.1405 27.8693 26.1787L27.9766 26.769C28.5202 26.6702 28.874 26.1452 28.7789 25.6038L28.1879 25.7077ZM27.8693 26.1787L25.7925 26.5564L25.8999 27.1467L27.9766 26.769L27.8693 26.1787ZM25.5687 26.7376C25.171 27.7068 24.6497 28.3717 24.0683 28.8004L24.4244 29.2833C25.11 28.7778 25.6924 28.0165 26.1237 26.9654L25.5687 26.7376ZM24.0683 28.8004C23.415 29.2821 22.7134 29.4449 22.0887 29.432L22.0762 30.0318C22.8165 30.0472 23.6517 29.8531 24.4244 29.2833L24.0683 28.8004ZM22.0887 29.432C21.4704 29.4191 20.917 29.2342 20.5402 29.0047L20.2281 29.5171C20.6957 29.8019 21.3525 30.0168 22.0762 30.0318L22.0887 29.432ZM20.5401 29.0046C20.357 28.8931 20.1838 28.7519 20.0761 28.5853L19.5723 28.9112C19.749 29.1845 20.0069 29.3824 20.2281 29.5171L20.5401 29.0046ZM20.076 28.5853C20.0215 28.5011 19.9661 28.3829 19.9615 28.2409L19.3618 28.2604C19.3712 28.5485 19.4826 28.7726 19.5723 28.9112L20.076 28.5853ZM19.9615 28.2409C19.9565 28.0874 20.0127 27.9437 20.1175 27.8358L19.6872 27.4177C19.4687 27.6426 19.3515 27.9443 19.3618 28.2604L19.9615 28.2409ZM20.221 27.6755C20.2736 27.5766 20.3336 27.4455 20.3997 27.2857L19.8451 27.0566C19.783 27.207 19.7311 27.3187 19.6911 27.3941L20.221 27.6755ZM20.3997 27.2857C20.5315 26.9666 20.6773 26.5568 20.8239 26.1111L20.2539 25.9236C20.1093 26.3634 19.9688 26.7573 19.8451 27.0566L20.3997 27.2857ZM20.8239 26.1111C21.1167 25.221 21.4046 24.2127 21.58 23.5566L21.0003 23.4016C20.8269 24.0505 20.5422 25.0474 20.2539 25.9236L20.8239 26.1111ZM21.58 23.5566C21.6063 23.4582 21.6674 23.3747 21.7497 23.3213L21.4233 22.8178C21.2148 22.953 21.0646 23.1615 21.0003 23.4016L21.58 23.5566ZM21.7497 23.3213L27.7115 19.4562L27.3851 18.9527L21.4233 22.8178L21.7497 23.3213ZM27.7115 19.4562C27.7893 19.4057 27.8814 19.3852 27.9718 19.3973L28.0515 18.8026C27.8185 18.7714 27.5824 18.8248 27.3851 18.9527L27.7115 19.4562ZM27.9718 19.3973L36.7744 20.5774L36.8541 19.9827L28.0515 18.8026L27.9718 19.3973ZM36.7744 20.5774C36.9695 20.6036 37.1211 20.7768 37.1168 20.9874L37.7167 20.9995C37.7269 20.4917 37.3595 20.0505 36.8541 19.9827L36.7744 20.5774ZM37.1168 20.9875L37.1155 21.0572L37.7153 21.0691L37.7167 20.9994L37.1168 20.9875ZM37.4909 21.3535L39.2294 20.9014L39.0784 20.3207L37.3399 20.7728L37.4909 21.3535ZM39.4352 20.5069L39.317 20.1875L38.7543 20.3958L38.8726 20.7152L39.4352 20.5069ZM39.317 20.1875C39.2411 19.9826 39.3375 19.7574 39.5272 19.6721L39.2812 19.1248C38.7981 19.342 38.571 19.9007 38.7543 20.3959L39.317 20.1875ZM39.5272 19.6721L46.9495 16.3359L46.7036 15.7887L39.2812 19.1248L39.5272 19.6721ZM46.9496 16.3359C47.1442 16.2484 47.3763 16.3359 47.4656 16.5416L48.016 16.3026C47.796 15.7961 47.2089 15.5614 46.7035 15.7887L46.9496 16.3359ZM26.1731 40.9423C26.5415 40.4135 26.687 39.9396 26.5938 39.5873L26.0137 39.7407C26.0377 39.8311 26.0196 40.1131 25.6808 40.5993L26.1731 40.9423ZM26.5938 39.5873C26.5076 39.2611 26.1561 38.8435 25.0258 38.5871L24.8931 39.1723C25.9358 39.4087 26.0121 39.7346 26.0137 39.7407L26.5938 39.5873ZM24.9204 38.5822C24.8735 38.5884 24.819 38.6047 24.755 38.6343L25.0066 39.179C25.0182 39.1736 25.0232 39.1721 25.0221 39.1725C25.0213 39.1727 25.0131 39.1752 24.9985 39.1771L24.9204 38.5822ZM24.7548 38.6343C24.6305 38.6918 24.4882 38.7923 24.3335 38.9333L24.7379 39.3766C24.867 39.2588 24.9581 39.2014 25.0067 39.1789L24.7548 38.6343ZM24.3336 38.9333C23.9813 39.2545 23.6348 39.7212 23.3693 40.124L23.8703 40.4542C24.1278 40.0635 24.4416 39.6468 24.7378 39.3766L24.3336 38.9333ZM23.3693 40.124C23.2385 40.3224 23.1311 40.4996 23.0566 40.6268L23.5743 40.93C23.6447 40.8098 23.7465 40.6419 23.8703 40.4542L23.3693 40.124ZM23.0566 40.6268C23.042 40.6517 23.0288 40.6745 23.0171 40.6949L23.537 40.9944C23.5484 40.9747 23.5608 40.9532 23.5743 40.9301L23.0566 40.6268ZM22.9791 40.8797C22.9843 40.9238 22.9947 40.9754 23.014 41.0323L23.5823 40.84C23.5774 40.8255 23.5756 40.8151 23.575 40.8095L22.9791 40.8797ZM23.0139 41.0323C23.0786 41.2235 23.266 41.5402 23.8511 41.8324L24.1192 41.2956C23.6557 41.0642 23.5895 40.8614 23.5823 40.84L23.0139 41.0323ZM23.851 41.8324C23.9562 41.885 24.1034 41.8986 24.2548 41.8889C24.4202 41.8784 24.6309 41.8374 24.8865 41.7448L24.6822 41.1807C24.4717 41.2569 24.317 41.2837 24.2165 41.2902C24.1019 41.2975 24.0825 41.2773 24.1193 41.2957L23.851 41.8324ZM24.8865 41.7448C25.3296 41.5844 25.7861 41.3099 26.1307 40.991L25.7232 40.5506C25.4393 40.8133 25.0525 41.0466 24.6822 41.1807L24.8865 41.7448ZM22.4381 40.1154C22.5126 39.9908 22.6077 39.8372 22.7185 39.6691L22.2175 39.3389C22.1012 39.5154 22.0014 39.6766 21.9232 39.8075L22.4381 40.1154ZM22.7184 39.6691C22.9853 39.2643 23.3587 38.7524 23.7689 38.3669L23.3579 37.9297C22.8967 38.3633 22.4928 38.9212 22.2175 39.3389L22.7184 39.6691ZM23.8043 38.3272C24.1107 37.9144 24.1305 37.4691 24.0145 37.0428L23.4355 37.2004C23.5164 37.4975 23.4925 37.7405 23.3225 37.9695L23.8043 38.3272ZM24.0145 37.0428C23.8901 36.5856 23.6126 36.1775 23.3978 35.9492L22.9609 36.3605C23.1241 36.5339 23.3424 36.8581 23.4355 37.2003L24.0145 37.0428ZM22.1662 39.6618C22.0426 39.6678 21.8929 39.6691 21.7345 39.6582L21.6932 40.2568C21.8799 40.2697 22.0537 40.2679 22.1951 40.2611L22.1662 39.6618ZM21.7346 39.6582C21.2801 39.6267 20.9933 39.5105 20.8766 39.3868L20.4403 39.7988C20.7184 40.0932 21.2013 40.2227 21.6931 40.2567L21.7346 39.6582ZM20.8766 39.3869C20.6273 39.1228 20.4517 38.7663 20.3376 38.4367L19.7706 38.633C19.8994 39.005 20.1103 39.4491 20.4403 39.7987L20.8766 39.3869ZM20.3376 38.4367C20.3049 38.3423 20.279 38.2549 20.2588 38.1793L19.6792 38.3345C19.7026 38.422 19.7326 38.5232 19.7706 38.633L20.3376 38.4367ZM20.3851 38.2419C20.8647 37.7106 21.5524 36.9508 22.0225 35.8467L21.4704 35.6116C21.0433 36.6147 20.4183 37.3096 19.9397 37.8399L20.3851 38.2419ZM21.7823 36.027C21.9151 36.011 22.0736 36.0062 22.2374 36.0261L22.3099 35.4305C22.0906 35.4038 21.883 35.4105 21.7105 35.4313L21.7823 36.027ZM22.2374 36.0261C22.5281 36.0615 22.7774 36.1664 22.9613 36.3609L23.3973 35.9488C23.0935 35.6273 22.7005 35.4781 22.3099 35.4305L22.2374 36.0261ZM19.094 37.5872C19.2232 37.4329 19.3538 37.2877 19.4869 37.1396L19.0408 36.7384C18.9086 36.8854 18.7711 37.0383 18.6341 37.2018L19.094 37.5872ZM19.4869 37.1396C19.9919 36.5781 20.5099 36.0043 20.8688 34.9799L20.3025 34.7815C19.986 35.6851 19.5397 36.1837 19.0408 36.7384L19.4869 37.1396ZM20.8687 34.9799C20.9756 34.6749 20.8643 34.2836 20.4967 33.8942L20.0604 34.306C20.3461 34.6087 20.3059 34.7717 20.3025 34.7815L20.8687 34.9799ZM20.4967 33.8942C20.0507 33.4218 19.6521 33.2177 19.3147 33.1712C18.9816 33.1253 18.7299 33.238 18.6086 33.3564L19.0276 33.7858C19.0063 33.8067 19.0687 33.743 19.2328 33.7656C19.3924 33.7876 19.674 33.8968 20.0604 34.306L20.4967 33.8942ZM18.6085 33.3565L16.779 35.1423L17.1981 35.5717L19.0276 33.7858L18.6085 33.3565ZM16.6904 35.3234C16.6729 35.4783 16.6557 35.7027 16.6625 35.9528L17.2623 35.9364C17.2564 35.7219 17.2713 35.5267 17.2866 35.3907L16.6904 35.3234ZM16.6625 35.9528C16.6761 36.4511 16.7831 36.9428 17.0594 37.2354L17.4957 36.8235C17.3781 36.6989 17.275 36.4007 17.2623 35.9364L16.6625 35.9528ZM17.0594 37.2354C17.3374 37.5299 17.8204 37.6593 18.3122 37.6934L18.3537 37.0949C17.8991 37.0634 17.6124 36.9472 17.4957 36.8235L17.0594 37.2354ZM18.3122 37.6934C18.5303 37.7085 18.7308 37.7036 18.8831 37.6939L18.845 37.0951C18.7119 37.1036 18.5388 37.1077 18.3536 37.0949L18.3122 37.6934ZM17.9313 32.7396C17.9009 32.4698 17.8233 32.2621 17.724 32.0845L17.2003 32.3773C17.2639 32.4911 17.3143 32.6226 17.3351 32.8068L17.9313 32.7396ZM17.724 32.0845C17.5781 31.8236 17.3738 31.6043 17.1157 31.3308L16.6794 31.7427C16.9475 32.0267 17.097 32.1927 17.2003 32.3773L17.724 32.0845ZM17.1157 31.3309C16.8492 31.0485 16.4801 30.9687 16.0628 31.0211L16.1376 31.6165C16.4375 31.5788 16.5874 31.6453 16.6794 31.7427L17.1157 31.3309ZM16.0629 31.0211C15.6645 31.0711 15.2794 31.2374 15.0409 31.3796L15.3482 31.8949C15.5346 31.7838 15.8409 31.6537 16.1376 31.6165L16.0629 31.0211ZM14.9963 31.4121C14.8945 31.5018 14.7885 31.6482 14.698 31.8195C14.6045 31.9962 14.5174 32.2183 14.4641 32.472L15.0512 32.5954C15.0923 32.4003 15.1592 32.2308 15.2284 32.0999C15.3005 31.9635 15.3659 31.8861 15.3928 31.8624L14.9963 31.4121ZM14.4641 32.472C14.3565 32.9838 14.428 33.43 14.6788 33.6956L15.1151 33.2837C15.0569 33.2221 14.963 33.0151 15.0512 32.5954L14.4641 32.472ZM14.6788 33.6956C15.009 34.0455 15.4376 34.2785 15.7991 34.425L16.0244 33.8689C15.7064 33.74 15.3641 33.5476 15.1151 33.2837L14.6788 33.6956ZM15.7991 34.4249C15.8874 34.4607 15.9702 34.4907 16.0446 34.5156L16.2348 33.9466C16.171 33.9252 16.1001 33.8995 16.0245 33.8689L15.7991 34.4249ZM16.3492 34.4458L17.8428 32.9879L17.4236 32.5586L15.9301 34.0164L16.3492 34.4458ZM19.6911 27.3941C19.6683 27.4372 19.6557 27.4559 19.6535 27.4593L20.1552 27.7884C20.1651 27.7732 20.1876 27.7384 20.221 27.6755L19.6911 27.3941ZM19.6535 27.4592C19.6532 27.4597 19.6524 27.4608 19.6518 27.4618C19.6512 27.4627 19.6497 27.465 19.6479 27.4679L20.1569 27.7856C20.1561 27.7869 20.1555 27.7879 20.1552 27.7883C20.1548 27.7888 20.1546 27.7892 20.1546 27.7893C20.1545 27.7893 20.1546 27.7892 20.1551 27.7884L19.6535 27.4592ZM18.1377 30.3774L18.116 30.3543L17.6798 30.7663L17.7015 30.7893L18.1377 30.3774ZM21.696 41.4709L21.7022 41.4894L22.2717 41.3004L22.2655 41.2819L21.696 41.4709ZM20.1941 38.4552C20.2504 38.3912 20.3114 38.3236 20.3772 38.2507L19.9317 37.8488C19.8664 37.9211 19.803 37.9914 19.7439 38.0585L20.1941 38.4552ZM20.3772 38.2507L20.3851 38.2419L19.9397 37.8399L19.9317 37.8488L20.3772 38.2507Z" fill="url(#paint2_linear)" mask="url(#path-2-outside-1)"/>
<defs>
<linearGradient id="paint0_linear" x1="50.8722" y1="56.449" x2="-13.6134" y2="24.9805" gradientUnits="userSpaceOnUse">
<stop stop-color="#7234C8"/>
<stop offset="0.442708" stop-color="#F53568"/>
<stop offset="1" stop-color="#FA6E37"/>
</linearGradient>
<linearGradient id="paint1_linear" x1="45.594" y1="44.2725" x2="5.25873" y2="15.112" gradientUnits="userSpaceOnUse">
<stop stop-color="#7234C8"/>
<stop offset="0.442708" stop-color="#F53568"/>
<stop offset="1" stop-color="#FA6E37"/>
</linearGradient>
<linearGradient id="paint2_linear" x1="45.594" y1="44.2725" x2="5.25873" y2="15.112" gradientUnits="userSpaceOnUse">
<stop stop-color="#7234C8"/>
<stop offset="0.442708" stop-color="#F53568"/>
<stop offset="1" stop-color="#FA6E37"/>
</linearGradient>
</defs>
</svg>
