<svg width="57" height="56" fill="none" xmlns="http://www.w3.org/2000/svg"><circle cx="28.25" cy="28" r="24" stroke="url(#paint0_linear)" stroke-width="4"/><path fill-rule="evenodd" clip-rule="evenodd" d="M29.25 16.874a4.002 4.002 0 00-1-7.874 4 4 0 00-1 7.874v5.209a5.994 5.994 0 00-3.624 2.093l-4.512-2.605a4.002 4.002 0 00-7.319-3.071 4 4 0 006.32 4.803l4.51 2.604A5.988 5.988 0 0022.25 28c0 .736.133 1.441.375 2.093l-4.51 2.604a4.002 4.002 0 00-6.32 4.803 4 4 0 007.32-3.071l4.511-2.605a5.993 5.993 0 003.624 2.093v5.209a4.002 4.002 0 001 7.874 4 4 0 001-7.874v-5.209a5.994 5.994 0 003.623-2.093l4.512 2.605a4.002 4.002 0 007.32 3.071 4 4 0 00-6.32-4.803l-4.51-2.604A5.986 5.986 0 0034.25 28c0-.736-.133-1.441-.375-2.093l4.51-2.604a4.002 4.002 0 006.32-4.803 4 4 0 00-7.32 3.071l-4.511 2.605a5.994 5.994 0 00-3.624-2.093v-5.209zm2 11.126a3 3 0 11-6 0 3 3 0 016 0z" fill="url(#paint1_linear)"/><defs><linearGradient id="paint0_linear" x1="49.363" y1="54.259" x2="-10.162" y2="25.211" gradientUnits="userSpaceOnUse"><stop stop-color="#7234C8"/><stop offset=".443" stop-color="#F53568"/><stop offset="1" stop-color="#FA6E37"/></linearGradient><linearGradient id="paint1_linear" x1="43.197" y1="48.788" x2="-.633" y2="29.661" gradientUnits="userSpaceOnUse"><stop stop-color="#7234C8"/><stop offset=".443" stop-color="#F53568"/><stop offset="1" stop-color="#FA6E37"/></linearGradient></defs></svg>
