<svg width="56" height="56" viewBox="0 0 56 56" fill="none" xmlns="http://www.w3.org/2000/svg">
<path fill-rule="evenodd" clip-rule="evenodd" d="M6 28C6 15.8497 15.8497 6 28 6C40.1503 6 50 15.8497 50 28C50 30.8771 49.4477 33.6251 48.4434 36.144C46.8718 34.4913 44.6622 33.5 42.282 33.5H39.7184C38.6997 33.5 37.7122 33.6816 36.7925 34.019C35.3357 31.2684 32.4609 29.5 29.282 29.5H26.7184C23.5395 29.5 20.6648 31.2684 19.2079 34.019C18.2883 33.6816 17.3008 33.5 16.282 33.5H13.7184C11.3382 33.5 9.12839 34.4915 7.55673 36.1444C6.55232 33.6254 6 30.8772 6 28ZM9.02256 39.136C12.8454 45.6368 19.9132 50 28 50C36.087 50 43.1548 45.6366 46.9777 39.1357C45.9935 37.5216 44.2256 36.5 42.282 36.5H39.7184C37.3912 36.5 35.3159 37.9647 34.5362 40.1574L34.4136 40.5025L31.5869 39.4975L31.7096 39.1524C32.2205 37.7156 33.0913 36.481 34.1992 35.5355C33.2761 33.6922 31.3816 32.5 29.282 32.5H26.7184C24.6189 32.5 22.7243 33.6922 21.8013 35.5355C22.9091 36.481 23.78 37.7156 24.2909 39.1524L24.4136 39.4975L21.5869 40.5025L21.4642 40.1574C20.6846 37.9647 18.6093 36.5 16.282 36.5H13.7184C11.7747 36.5 10.0067 37.5218 9.02256 39.136ZM28 2C13.6406 2 2 13.6406 2 28C2 42.3594 13.6406 54 28 54C42.3594 54 54 42.3594 54 28C54 13.6406 42.3594 2 28 2ZM34.0002 21C34.0002 17.134 31.3139 14 28.0002 14C24.6865 14 22.0002 17.134 22.0002 21C22.6669 24.6667 24.6865 28 28.0002 28C31.3139 28 33.3336 24.6667 34.0002 21ZM25.0059 20.7417C25.2928 22.1309 25.793 23.2824 26.3776 24.0357C26.9601 24.7862 27.488 25 28.0002 25C28.5125 25 29.0404 24.7862 29.6229 24.0357C30.2075 23.2824 30.7077 22.1309 30.9946 20.7417C30.8849 18.2536 29.1991 17 28.0002 17C26.8014 17 25.1155 18.2536 25.0059 20.7417ZM21.0002 25C21.0002 21.134 18.3139 18 15.0002 18C11.6865 18 9.00024 21.134 9.00024 25C9.6669 28.6667 11.6865 32 15.0002 32C18.3139 32 20.3336 28.6667 21.0002 25ZM12.0059 24.7417C12.2928 26.1309 12.793 27.2824 13.3776 28.0357C13.9601 28.7862 14.488 29 15.0002 29C15.5125 29 16.0404 28.7862 16.6229 28.0357C17.2075 27.2824 17.7077 26.1309 17.9946 24.7417C17.8849 22.2536 16.1991 21 15.0002 21C13.8014 21 12.1155 22.2536 12.0059 24.7417ZM41.0002 18C44.3139 18 47.0002 21.134 47.0002 25C46.3336 28.6667 44.3139 32 41.0002 32C37.6865 32 35.6669 28.6667 35.0002 25C35.0002 21.134 37.6865 18 41.0002 18ZM39.3776 28.0357C38.793 27.2824 38.2928 26.1309 38.0059 24.7417C38.1155 22.2536 39.8014 21 41.0002 21C42.1991 21 43.8849 22.2536 43.9946 24.7417C43.7077 26.1309 43.2075 27.2824 42.6229 28.0357C42.0404 28.7862 41.5125 29 41.0002 29C40.488 29 39.9601 28.7862 39.3776 28.0357Z" fill="url(#paint0_linear)"/>
<defs>
<linearGradient id="paint0_linear" x1="50.8722" y1="56.4471" x2="-13.6134" y2="24.9785" gradientUnits="userSpaceOnUse">
<stop stop-color="#7234C8"/>
<stop offset="0.442708" stop-color="#F53568"/>
<stop offset="1" stop-color="#FA6E37"/>
</linearGradient>
</defs>
</svg>
