<svg width="32" height="33" viewBox="0 0 32 33" fill="none" xmlns="http://www.w3.org/2000/svg">
<path fill-rule="evenodd" clip-rule="evenodd" d="M16 2.96154C8.52291 2.96154 2.46154 9.02291 2.46154 16.5C2.46154 23.9771 8.52291 30.0385 16 30.0385C23.4771 30.0385 29.5385 23.9771 29.5385 16.5C29.5385 9.02291 23.4771 2.96154 16 2.96154ZM0 16.5C0 7.66344 7.16344 0.5 16 0.5C24.8366 0.5 32 7.66344 32 16.5C32 25.3366 24.8366 32.5 16 32.5C7.16344 32.5 0 25.3366 0 16.5ZM23.3849 16.4999C23.3849 20.5783 20.0787 23.8845 16.0003 23.8845C11.9219 23.8845 8.61571 20.5783 8.61571 16.4999C8.61571 12.4214 11.9219 9.11524 16.0003 9.11524C20.0787 9.11524 23.3849 12.4214 23.3849 16.4999ZM24.6157 16.4999C24.6157 21.258 20.7585 25.1153 16.0004 25.1153C11.2422 25.1153 7.38498 21.258 7.38498 16.4999C7.38498 11.7417 11.2422 7.88451 16.0004 7.88451C20.7585 7.88451 24.6157 11.7417 24.6157 16.4999ZM25.2311 16.4999C25.2311 21.5979 21.0984 25.7307 16.0004 25.7307C10.9024 25.7307 6.7696 21.5979 6.7696 16.4999C6.7696 11.4019 10.9024 7.26912 16.0004 7.26912C21.0984 7.26912 25.2311 11.4019 25.2311 16.4999Z" fill="url(#paint0_linear)"/>
<defs>
<linearGradient id="paint0_linear" x1="30.0752" y1="34.0059" x2="-9.60824" y2="14.6406" gradientUnits="userSpaceOnUse">
<stop stop-color="#7234C8"/>
<stop offset="0.442708" stop-color="#F53568"/>
<stop offset="1" stop-color="#FA6E37"/>
</linearGradient>
</defs>
</svg>
