<svg width="20" height="20" viewBox="0 0 20 20" xmlns="http://www.w3.org/2000/svg">
  <path d="M10 0C4.484 0 0 4.484 0 10s4.484 10 10 10 10-4.484 10-10S15.516 0 10 0zm0 17.937c-.442 0-1.305-1.369-1.79-3.937h3.6c-.505 2.568-1.368 3.937-1.81 3.937zm-2.084-5.98A28.002 28.002 0 017.832 10c0-.695.042-1.347.084-1.958h4.168c.042.61.084 1.263.084 1.958 0 .695-.042 1.347-.084 1.958H7.916zM2.063 10c0-.674.105-1.326.274-1.958h3.516c-.042.653-.085 1.305-.085 1.958s.021 1.305.085 1.958H2.337A7.579 7.579 0 012.063 10zM10 2.063c.442 0 1.305 1.369 1.79 3.916H8.21C8.696 3.432 9.559 2.063 10 2.063zm4.147 5.98h3.516c.169.63.274 1.283.274 1.957 0 .674-.105 1.326-.274 1.958h-3.516A30.44 30.44 0 0014.232 10c0-.653-.043-1.305-.085-1.958zm2.674-2.064h-2.947c-.21-1.263-.548-2.4-.969-3.347 1.663.652 3.01 1.852 3.916 3.347zM7.095 2.632c-.421.947-.758 2.084-.969 3.347H3.18c.905-1.495 2.253-2.695 3.916-3.347zm-3.916 11.39h2.926c.21 1.262.548 2.4.969 3.346-1.642-.652-2.99-1.852-3.895-3.347zm9.726 3.346c.421-.947.758-2.105.969-3.347H16.8c-.884 1.495-2.232 2.695-3.895 3.347z" fill="#1C0937" fill-rule="evenodd"/>
</svg>
