<svg width="57" height="56" fill="none" xmlns="http://www.w3.org/2000/svg"><circle cx="28.75" cy="28" r="24" stroke="url(#paint0_linear)" stroke-width="4"/><path fill-rule="evenodd" clip-rule="evenodd" d="M18.75 14.5a4.5 4.5 0 00-4.5 4.5v4a4.5 4.5 0 004.5 4.5h20a4.5 4.5 0 004.5-4.5v-4a4.5 4.5 0 00-4.5-4.5h-20zm-1.5 4.5a1.5 1.5 0 011.5-1.5h20a1.5 1.5 0 011.5 1.5v4a1.5 1.5 0 01-1.5 1.5h-20a1.5 1.5 0 01-1.5-1.5v-4zm1.5 9.5a4.5 4.5 0 00-4.5 4.5v4a4.5 4.5 0 004.5 4.5h20a4.5 4.5 0 004.5-4.5v-4a4.5 4.5 0 00-4.5-4.5h-20zm-1.5 4.5a1.5 1.5 0 011.5-1.5h20a1.5 1.5 0 011.5 1.5v4a1.5 1.5 0 01-1.5 1.5h-20a1.5 1.5 0 01-1.5-1.5v-4zm4.5-12a1 1 0 11-2 0 1 1 0 012 0zm3 1a1 1 0 100-2 1 1 0 000 2zm-3 13a1 1 0 11-2 0 1 1 0 012 0zm3 1a1 1 0 100-2 1 1 0 000 2z" fill="url(#paint1_linear)"/><defs><linearGradient id="paint0_linear" x1="49.863" y1="54.259" x2="-9.662" y2="25.211" gradientUnits="userSpaceOnUse"><stop stop-color="#7234C8"/><stop offset=".443" stop-color="#F53568"/><stop offset="1" stop-color="#FA6E37"/></linearGradient><linearGradient id="paint1_linear" x1="41.506" y1="42.771" x2="6.575" y2="24.462" gradientUnits="userSpaceOnUse"><stop stop-color="#7234C8"/><stop offset=".443" stop-color="#F53568"/><stop offset="1" stop-color="#FA6E37"/></linearGradient></defs></svg>
