<svg width="40" height="40" viewBox="0 0 40 40" fill="none" xmlns="http://www.w3.org/2000/svg">
<rect width="26" height="26" rx="2" transform="matrix(1 0 0 -1 10 36)" fill="#F2F0F4"/>
<rect width="19" height="19" rx="2" transform="matrix(1 0 0 -1 4 23)" fill="#EEE3FF"/>
<path fill-rule="evenodd" clip-rule="evenodd" d="M23.6665 9.5463C23.6665 8.15741 22.5091 7 21.1202 7C19.7313 7 18.5739 8.15741 18.5739 9.5463C18.5739 10.9352 19.7313 12.0926 21.1202 12.0926C22.5091 12.0926 23.6665 10.9352 23.6665 9.5463ZM19.4999 9.5463C19.4999 8.66667 20.2406 7.92593 21.1202 7.92593C21.9999 7.92593 22.7406 8.66667 22.7406 9.5463C22.7406 10.4259 21.9999 11.1667 21.1202 11.1667C20.2406 11.1667 19.4999 10.4259 19.4999 9.5463ZM30.148 19.963H29.0369C28.8054 18.9444 28.3887 18.0185 27.7869 17.0926C28.5276 15.287 29.1758 14.1759 29.1758 14.1759C29.2684 14.037 29.2684 13.8519 29.1758 13.713C29.0832 13.5741 28.9443 13.4815 28.7591 13.4815C27.2313 13.4815 25.9813 13.8056 25.0554 14.5C23.5276 13.4815 21.6758 12.8796 19.7313 12.6944C19.2684 12.3241 18.7128 12.0926 18.111 12.0926C17.4165 12.0926 16.7684 12.3704 16.3054 12.8333C11.5369 13.713 7.92578 17.3241 7.92578 21.6296C7.92578 24.4074 9.49986 27.0926 12.0924 28.8056V31.537C12.0924 31.8148 12.2776 32 12.5554 32H16.7221C16.9999 32 17.185 31.8148 17.185 31.537V30.6111C18.111 30.7037 19.0369 30.7037 19.9628 30.6111V31.537C19.9628 31.8148 20.148 32 20.4258 32H24.5924C24.8702 32 25.0554 31.8148 25.0554 31.537V28.8056C26.398 27.9259 27.4628 26.8148 28.2036 25.5185H30.148C30.6573 25.5185 31.0739 25.1019 31.0739 24.5926V20.8889C31.0739 20.3796 30.6573 19.963 30.148 19.963ZM18.111 13.0185C18.9906 13.0185 19.7313 13.7593 19.7313 14.6389C19.7313 15.2407 19.4073 15.75 18.9443 16.0278H17.3239C16.861 15.75 16.5369 15.2407 16.5369 14.6389C16.4906 13.7593 17.2313 13.0185 18.111 13.0185ZM15.7962 15.6574C15.8193 15.7269 15.854 15.7847 15.8887 15.8426C15.9235 15.9005 15.9582 15.9583 15.9813 16.0278H15.7962V15.6574ZM30.148 24.5926H27.9258C27.7406 24.5926 27.6017 24.6852 27.5091 24.8241C26.8147 26.1204 25.7499 27.2778 24.361 28.1574C24.2221 28.25 24.1295 28.3889 24.1295 28.5741V31.0741H20.8887V30.0556C20.8887 29.9167 20.8424 29.7778 20.7499 29.6852C20.6573 29.5926 20.5184 29.5463 20.3795 29.5926C19.1758 29.7778 18.0184 29.7778 16.8147 29.5926C16.6758 29.5926 16.5369 29.5926 16.4443 29.6852C16.3517 29.7778 16.2591 29.9167 16.2591 30.0556V31.0741H13.0184V28.5741C13.0184 28.4352 12.9258 28.25 12.7869 28.1574C10.3332 26.6296 8.85171 24.2222 8.85171 21.6296C8.85171 18.0185 11.7221 14.963 15.6573 13.8981L15.6573 13.8982C15.611 14.1296 15.5647 14.3611 15.5647 14.5926V14.6389H15.5184C15.4258 14.6852 15.3332 14.7778 15.3332 14.8704V16.2593C15.3332 16.3981 15.4258 16.4907 15.5647 16.4907H21.5832C21.7221 16.4907 21.8147 16.3981 21.8147 16.2593V14.9167C21.8147 14.8241 21.7684 14.7315 21.6295 14.6852L21.6295 14.6852C21.3054 14.5926 20.9813 14.5 20.611 14.4537C20.611 14.1759 20.5184 13.9444 20.4258 13.713C21.9999 13.9907 23.4813 14.5463 24.7313 15.4259C24.9165 15.5648 25.148 15.5185 25.2869 15.4259C25.935 14.8704 26.8147 14.5463 27.8795 14.4537C27.6017 15.0093 27.185 15.8889 26.7221 17C26.6758 17.1389 26.6758 17.3241 26.7684 17.463C27.4628 18.3889 27.8795 19.4074 28.0647 20.5185C28.111 20.75 28.2962 20.8889 28.5276 20.8889H30.148V24.5926ZM20.2406 16.0278C20.4721 15.7037 20.611 15.3333 20.6573 14.9167C20.8887 14.963 21.1202 15.0093 21.398 15.1019V16.0278H20.2406ZM20.86 25.073C21.022 24.797 21.103 24.503 21.103 24.191C21.103 23.777 21.007 23.453 20.815 23.219C20.623 22.979 20.395 22.808 20.131 22.706C19.873 22.598 19.519 22.487 19.069 22.373V20.672C19.243 20.726 19.381 20.819 19.483 20.951C19.591 21.077 19.654 21.227 19.672 21.401H21.031C20.989 20.873 20.794 20.459 20.446 20.159C20.104 19.859 19.645 19.685 19.069 19.637V18.908H18.493V19.637C17.899 19.685 17.413 19.874 17.035 20.204C16.663 20.534 16.477 20.96 16.477 21.482C16.477 21.896 16.573 22.223 16.765 22.463C16.957 22.703 17.185 22.877 17.449 22.985C17.713 23.093 18.061 23.201 18.493 23.309V25.028C18.085 24.938 17.863 24.677 17.827 24.245H16.477C16.489 24.773 16.678 25.193 17.044 25.505C17.41 25.811 17.893 25.991 18.493 26.045V26.783H19.069V26.054C19.489 26.024 19.852 25.922 20.158 25.748C20.47 25.568 20.704 25.343 20.86 25.073ZM17.971 21.905C17.851 21.779 17.791 21.617 17.791 21.419C17.791 21.197 17.854 21.02 17.98 20.888C18.106 20.756 18.277 20.675 18.493 20.645V22.202C18.265 22.124 18.091 22.025 17.971 21.905ZM19.6 24.767C19.474 24.911 19.297 25.004 19.069 25.046V23.471C19.303 23.549 19.483 23.648 19.609 23.768C19.735 23.888 19.798 24.047 19.798 24.245C19.798 24.449 19.732 24.623 19.6 24.767Z" fill="#351661"/>
</svg>
