<svg width="40" height="40" viewBox="0 0 40 40" fill="none" xmlns="http://www.w3.org/2000/svg">
<rect width="12" height="12" rx="2" transform="matrix(1 0 0 -1 8 20)" fill="#E4E2E8"/>
<rect width="16" height="16" rx="2" transform="matrix(1 0 0 -1 15 30)" fill="#EEE3FF"/>
<path fill-rule="evenodd" clip-rule="evenodd" d="M7.31259 6.50691C7.37702 6.33278 7.6233 6.33278 7.68773 6.5069L8.14347 7.73853C8.16373 7.79327 8.20689 7.83643 8.26163 7.85669L9.49326 8.31243C9.66738 8.37686 9.66738 8.62314 9.49326 8.68757L8.26163 9.14332C8.20689 9.16357 8.16373 9.20674 8.14347 9.26148L7.68773 10.4931C7.6233 10.6672 7.37702 10.6672 7.31259 10.4931L6.85684 9.26148C6.83659 9.20674 6.79342 9.16357 6.73868 9.14332L5.50706 8.68757C5.33293 8.62314 5.33293 8.37687 5.50706 8.31243L6.73868 7.85669C6.79342 7.83643 6.83659 7.79327 6.85684 7.73853L7.31259 6.50691ZM20.0002 31C26.0753 31 31.0002 26.0751 31.0002 20C31.0002 13.9249 26.0753 9 20.0002 9C13.925 9 9.00016 13.9249 9.00016 20C9.00016 26.0751 13.925 31 20.0002 31ZM20.0002 32C26.6276 32 32.0002 26.6274 32.0002 20C32.0002 13.3726 26.6276 8 20.0002 8C13.3727 8 8.00016 13.3726 8.00016 20C8.00016 26.6274 13.3727 32 20.0002 32ZM20 28C24.4183 28 28 24.4182 28 20C28 15.5817 24.4183 12 20 12C15.5817 12 12 15.5817 12 20C12 24.4182 15.5817 28 20 28ZM20 29C24.9706 29 29 24.9705 29 20C29 15.0294 24.9706 11 20 11C15.0294 11 11 15.0294 11 20C11 24.9705 15.0294 29 20 29ZM22.1674 23.8699C22.4713 23.5704 22.6771 23.2197 22.7848 22.8179C22.9276 22.2847 22.9158 21.8343 22.7493 21.4666C22.5848 21.0913 22.3502 20.7924 22.0454 20.5699C21.7504 20.3418 21.3328 20.0767 20.7925 19.7745L21.3795 17.5838C21.585 17.7134 21.7306 17.8808 21.8165 18.086C21.9121 18.2856 21.9414 18.5005 21.9046 18.7308L23.6548 19.1998C23.783 18.5053 23.6747 17.9048 23.33 17.3983C22.9931 16.8939 22.462 16.5114 21.7367 16.2508L21.9883 15.312L21.2465 15.1132L20.9949 16.0521C20.2133 15.9089 19.5222 15.9846 18.9215 16.2792C18.3285 16.5758 17.9419 17.0603 17.7618 17.7325C17.6189 18.2657 17.6297 18.72 17.7942 19.0954C17.9586 19.4707 18.1922 19.7735 18.4949 20.0037C18.7977 20.2339 19.2086 20.4931 19.7277 20.7812L19.1345 22.9951C18.6401 22.7384 18.4442 22.3257 18.547 21.7569L16.8083 21.291C16.6415 21.9752 16.74 22.5813 17.1037 23.1094C17.4695 23.6298 18.0294 24.0283 18.7835 24.3049L18.5289 25.2554L19.2707 25.4542L19.5223 24.5153C20.0735 24.6216 20.5762 24.6155 21.0304 24.497C21.4943 24.3729 21.8733 24.1638 22.1674 23.8699ZM19.5399 18.7929C19.4289 18.5892 19.4075 18.3599 19.4758 18.1049C19.5524 17.8189 19.6947 17.6127 19.9025 17.4862C20.1103 17.3597 20.3585 17.3144 20.647 17.3503L20.1097 19.3555C19.843 19.1764 19.6531 18.9888 19.5399 18.7929ZM20.6503 23.041C20.4383 23.183 20.1782 23.2417 19.8701 23.2171L20.4136 21.1887C20.6881 21.3699 20.8857 21.5595 21.0066 21.7575C21.1275 21.9555 21.1537 22.1821 21.0854 22.4371C21.015 22.6998 20.87 22.9011 20.6503 23.041ZM32.6877 29.5069C32.6233 29.3328 32.377 29.3328 32.3126 29.5069L31.8568 30.7385C31.8366 30.7933 31.7934 30.8364 31.7387 30.8567L30.5071 31.3124C30.3329 31.3769 30.3329 31.6231 30.5071 31.6876L31.7387 32.1433C31.7934 32.1636 31.8366 32.2067 31.8568 32.2615L32.3126 33.4931C32.377 33.6672 32.6233 33.6672 32.6877 33.4931L33.1435 32.2615C33.1637 32.2067 33.2069 32.1636 33.2616 32.1433L34.4933 31.6876C34.6674 31.6231 34.6674 31.3769 34.4933 31.3124L33.2616 30.8567C33.2069 30.8364 33.1637 30.7933 33.1435 30.7385L32.6877 29.5069ZM31 9.99997C31.5523 9.99997 32 9.55225 32 8.99997C32 8.44768 31.5523 7.99997 31 7.99997C30.4477 7.99997 30 8.44768 30 8.99997C30 9.55225 30.4477 9.99997 31 9.99997ZM31 11C32.1046 11 33 10.1045 33 8.99997C33 7.8954 32.1046 6.99997 31 6.99997C29.8954 6.99997 29 7.8954 29 8.99997C29 10.1045 29.8954 11 31 11ZM10 31C10 31.5523 9.55228 32 9 32C8.44772 32 8 31.5523 8 31C8 30.4477 8.44772 30 9 30C9.55228 30 10 30.4477 10 31ZM11 31C11 32.1045 10.1046 33 9 33C7.89543 33 7 32.1045 7 31C7 29.8954 7.89543 29 9 29C10.1046 29 11 29.8954 11 31Z" fill="#351661"/>
</svg>
