<svg width="40" height="40" viewBox="0 0 40 40" fill="none" xmlns="http://www.w3.org/2000/svg">
<rect width="16" height="16" rx="2" transform="matrix(1 0 0 -1 18 22)" fill="#F2F0F4"/>
<rect width="19" height="19" rx="2" transform="matrix(1 0 0 -1 4 34)" fill="#EEE3FF"/>
<path fill-rule="evenodd" clip-rule="evenodd" d="M20.2598 9.75112L20.7948 10.0339V10.5995L20.7948 17.4514L27.7389 13.7807L35.224 17.7373L35.759 18.02V18.5856L35.759 27.4577L28.2389 31.4459L27.7389 31.7111L27.2389 31.4459L20.8901 28.0788C20.6297 28.2616 20.3571 28.4413 20.0731 28.6144C19.4369 29.0024 18.7399 29.3592 17.9933 29.6448C17.9205 30.4053 17.2798 31 16.5002 31C15.9603 31 15.4871 30.7149 15.2229 30.2869C13.7954 30.3999 12.2628 30.1783 10.6776 29.4294C10.4029 29.777 9.9776 30 9.50018 30C8.67175 30 8.00018 29.3285 8.00018 28.5C8.00018 28.2427 8.06496 28.0006 8.1791 27.789C7.20304 26.9154 6.58327 25.962 6.23729 24.9771C5.53421 24.8528 5.00018 24.2388 5.00018 23.5C5.00018 22.8748 5.38268 22.339 5.92644 22.1137C5.97822 21.617 6.07733 21.1351 6.2066 20.6768C6.23974 20.5593 6.27493 20.4431 6.31189 20.3284L4.72705 19.4879V10.5995V10.0339L5.26201 9.75112L12.7609 5.78723L20.2598 9.75112ZM17.7486 28.6682C17.4797 28.2654 17.0209 28 16.5002 28C15.7399 28 15.1118 28.5656 15.0135 29.299C13.7451 29.377 12.395 29.1543 11 28.4746C10.9864 27.6579 10.3201 27 9.50018 27C9.29657 27 9.10243 27.0406 8.92541 27.1141C8.07259 26.3716 7.54421 25.5866 7.23988 24.8053C7.6939 24.5474 8.00018 24.0595 8.00018 23.5C8.00018 22.8241 7.55313 22.2526 6.9386 22.0651C6.98678 21.6861 7.06636 21.3123 7.16905 20.9483C7.18257 20.9003 7.19648 20.8526 7.21076 20.8051L12.2609 23.4834L12.7609 23.7486L13.2609 23.4834L19.7189 20.0585L19.7189 27.4577L19.8896 27.5483C19.7792 27.6201 19.6668 27.6909 19.5525 27.7606C18.9912 28.1029 18.3877 28.415 17.7486 28.6682ZM27.2389 30.314L21.7719 27.4146C22.1417 27.1166 22.4774 26.8211 22.7754 26.5423L25.8887 28.1934V23.369L21.7951 21.2051L21.7951 26.0224L21.838 26.0452C21.528 26.3239 21.1824 26.6142 20.8052 26.9019L20.7189 26.8562L20.7189 19.5281L20.7948 19.4879V19.1543L27.2389 22.5607V30.314ZM12.2609 22.3515L7.55286 19.8546C7.74635 19.3916 7.96417 18.9623 8.18105 18.5802L10.9511 20.0492V15.2777L6.90232 13.1376L6.90232 17.902L7.29726 18.1115C7.0817 18.4931 6.86386 18.921 6.666 19.3843L5.72705 18.8863L5.72705 11.128L12.2609 14.5818V22.3515ZM19.7948 17.9799L19.7189 18.02V18.5856V18.9265L13.2609 22.3515V14.5818L19.7948 11.128L19.7948 17.9799ZM12.7609 6.91834L19.1899 10.3167L12.7609 13.715L6.33193 10.3167L12.7609 6.91834ZM27.7389 14.9118L34.1541 18.3028L27.7389 21.6938L21.3238 18.3028L27.7389 14.9118ZM28.2389 30.314V22.5607L34.759 19.1142L34.759 26.8562L28.2389 30.314Z" fill="#351661"/>
</svg>
