<svg width="40" height="40" viewBox="0 0 40 40" fill="none" xmlns="http://www.w3.org/2000/svg">
<rect x="16" y="16" width="12" height="12" rx="2" fill="#F2F0F4"/>
<rect x="5" y="5" width="16" height="16" rx="2" fill="#EEE3FF"/>
<path d="M20.9057 26.8601H20.9041C19.8723 26.8601 18.8706 26.661 17.9274 26.2679C17.4735 26.0793 17.0366 25.8452 16.6271 25.5735C16.2219 25.3034 15.8408 24.9939 15.4947 24.6532C15.1485 24.312 14.8336 23.9369 14.5596 23.5372C14.2824 23.1337 14.0446 22.7018 13.8526 22.2544C13.4524 21.3227 13.2495 20.3335 13.2495 19.3143C13.249 17.4333 13.9549 15.6322 15.2371 14.2422C15.3405 14.1301 15.487 14.0656 15.639 14.0656C15.7768 14.0656 15.9086 14.117 16.0097 14.2105C16.2312 14.415 16.2454 14.7617 16.0409 14.9831C14.9468 16.1719 14.3437 17.71 14.3431 19.3143C14.3437 21.0356 15.025 22.6547 16.2618 23.874C17.5019 25.094 19.1511 25.7665 20.9047 25.7665C22.6582 25.7665 24.3073 25.0939 25.5475 23.874C26.7844 22.6547 27.4657 21.0356 27.4662 19.3143C27.4657 17.593 26.7844 15.9739 25.5475 14.7551C24.3073 13.5347 22.6582 12.8626 20.9047 12.8621C20.768 12.8621 20.6296 12.8665 20.4924 12.8747C20.4814 12.8752 20.47 12.8758 20.459 12.8758C20.1709 12.8758 19.9308 12.6499 19.9139 12.3623C19.9128 12.3508 19.9128 12.3388 19.9128 12.3268C19.9133 12.0397 20.1386 11.8008 20.4262 11.7833C20.5853 11.7734 20.7461 11.7685 20.9047 11.7685H20.9058C21.937 11.7685 22.9382 11.9675 23.882 12.3607C24.3353 12.5499 24.7728 12.7834 25.1823 13.0557C25.5874 13.3252 25.9685 13.6347 26.3147 13.9759C26.6608 14.3166 26.9758 14.6922 27.2497 15.0919C27.5269 15.4955 27.7648 15.9269 27.9568 16.3742C28.357 17.3065 28.5599 18.2956 28.5599 19.3143C28.5599 20.333 28.357 21.3221 27.9568 22.2544C27.7648 22.7018 27.527 23.1337 27.2497 23.5372C26.9758 23.937 26.6608 24.312 26.3147 24.6532C25.9685 24.9939 25.5874 25.3034 25.1823 25.5729C24.7728 25.8452 24.3353 26.0793 23.882 26.2679C22.9387 26.661 21.937 26.8601 20.9057 26.8601ZM17.8283 13.55C17.6178 13.55 17.4237 13.4275 17.3335 13.2372C17.2711 13.1054 17.2635 12.9567 17.3127 12.8195C17.3619 12.6822 17.4614 12.5718 17.5932 12.5094L17.5938 12.5089C17.6676 12.4739 17.7463 12.4564 17.8272 12.4564C18.0378 12.4564 18.2319 12.5789 18.3221 12.7691C18.4511 13.0415 18.3341 13.3684 18.0618 13.4975H18.0613C17.9875 13.5325 17.9093 13.55 17.8283 13.55Z" fill="#351661"/>
<path d="M12.9214 27.2204C12.7705 27.2204 12.6294 27.1603 12.5255 27.0509C12.0443 26.5452 11.608 25.9934 11.229 25.41C10.8463 24.8211 10.5177 24.1939 10.2525 23.5465C9.70129 22.2003 9.42188 20.7765 9.42188 19.3143C9.42188 18.5466 9.50061 17.7789 9.65536 17.0331C9.80682 16.3058 10.0321 15.5912 10.3257 14.9077C10.6139 14.2368 10.9704 13.5899 11.3854 12.9846C11.7966 12.3853 12.2685 11.8221 12.788 11.3109C13.3074 10.7996 13.8788 10.3348 14.4869 9.93074C15.1009 9.52228 15.7571 9.17179 16.4373 8.88854C17.1301 8.59984 17.8551 8.37838 18.5922 8.22965C19.3479 8.0771 20.1254 8 20.9035 8H20.9046C21.2059 8 21.4514 8.24551 21.4514 8.5468C21.4514 8.84808 21.2059 9.09359 20.9046 9.09359C18.1285 9.09359 15.5187 10.1577 13.5557 12.09C11.5954 14.0213 10.516 16.5869 10.5155 19.3143C10.516 21.9171 11.5112 24.3968 13.3178 26.2969C13.4184 26.4029 13.472 26.5413 13.4682 26.6873C13.4643 26.8333 13.4042 26.9695 13.2981 27.0701C13.1964 27.1668 13.0624 27.2204 12.9214 27.2204Z" fill="#351661"/>
<path d="M20.9056 30.6286V30.6259L20.9045 30.6286H20.8925L20.6722 30.6237C20.3709 30.6171 20.1308 30.3667 20.1374 30.0654C20.1407 29.9216 20.1992 29.7865 20.302 29.6864C20.4076 29.5831 20.5486 29.5262 20.6962 29.5306L20.9106 29.535C23.6845 29.5333 26.2922 28.4693 28.2535 26.5385C30.2138 24.6079 31.2931 22.0423 31.2937 19.3143C31.2937 16.0565 29.7681 13.0683 27.1095 11.1156C26.8663 10.9374 26.8137 10.5945 26.992 10.3518C27.0948 10.2118 27.2594 10.1281 27.4332 10.1281C27.5503 10.1281 27.6619 10.1648 27.7564 10.2342C28.4569 10.7476 29.0988 11.3415 29.6642 11.9987C30.2328 12.6592 30.7245 13.3832 31.1247 14.152C31.5326 14.9339 31.8464 15.7634 32.0586 16.6164C32.2768 17.4946 32.3873 18.4023 32.3873 19.3143C32.3873 20.082 32.3085 20.8497 32.1537 21.596C32.0023 22.3227 31.777 23.0379 31.4834 23.7214C31.1952 24.3924 30.8387 25.0393 30.4237 25.644C30.0124 26.2433 29.5406 26.8065 29.0211 27.3177C28.5017 27.8295 27.9303 28.2938 27.3223 28.6984C26.7082 29.1063 26.0521 29.4573 25.3719 29.7406C24.6791 30.0288 23.954 30.2507 23.2175 30.3989C22.4613 30.5515 21.6837 30.6286 20.9056 30.6286ZM17.9513 30.5647C17.9469 30.5647 17.9431 30.5647 17.9393 30.5641C17.7933 30.5613 17.6571 30.5012 17.556 30.3957C17.4548 30.2901 17.4012 30.1518 17.4045 30.0058C17.4072 29.862 17.4657 29.7275 17.5691 29.6268C17.6746 29.5235 17.8146 29.4661 17.9628 29.471C18.2641 29.4776 18.5041 29.728 18.4975 30.0293C18.4943 30.1736 18.4363 30.3082 18.333 30.4087C18.2302 30.5094 18.0946 30.5647 17.9513 30.5647ZM15.2179 30.5051C15.214 30.5051 15.2097 30.5051 15.2058 30.5051L8.53491 30.3596C8.38891 30.3563 8.25276 30.2967 8.15215 30.1912C8.05099 30.0857 7.99686 29.9468 8.00014 29.8008C8.00342 29.6569 8.06193 29.5224 8.16473 29.4218C8.27026 29.3184 8.41133 29.2627 8.55897 29.2665L15.2293 29.4114C15.3731 29.4147 15.5077 29.4726 15.6083 29.5754C15.7083 29.6777 15.7641 29.8128 15.7647 29.956C15.7647 29.9604 15.7647 29.9653 15.7641 29.9702C15.7614 30.114 15.7029 30.2486 15.6001 30.3492C15.4973 30.4498 15.3617 30.5051 15.2179 30.5051Z" fill="#351661"/>
<path d="M31.5124 30.9064H26.5912C26.2893 30.9064 26.0444 30.6609 26.0444 30.3596C26.0444 30.0583 26.2893 29.8128 26.5912 29.8128H30.6276L30.4767 29.5105C30.4111 29.3798 30.4007 29.2316 30.4466 29.0932C30.4931 28.9544 30.5904 28.8423 30.7212 28.7772C30.7977 28.7384 30.8797 28.7192 30.9651 28.7192C31.1739 28.7192 31.3615 28.8352 31.4544 29.0216L32.0012 30.1152C32.087 30.2858 32.0777 30.4848 31.9777 30.6472C31.8771 30.8096 31.7032 30.9064 31.5124 30.9064Z" fill="#351661"/>
<path d="M30.965 32C30.8802 32 30.7977 31.9808 30.7212 31.9426C30.4515 31.8075 30.3417 31.4784 30.4767 31.2088L31.0229 30.1152C31.1165 29.9287 31.304 29.8128 31.5129 29.8128C31.5982 29.8128 31.6802 29.832 31.7567 29.8708C32.0263 30.0053 32.1362 30.3345 32.0012 30.604L31.4544 31.6976C31.3615 31.8841 31.1739 32 30.965 32Z" fill="#351661"/>
<path d="M26.5915 12.3153C26.533 12.3153 26.475 12.306 26.4187 12.2874C26.2798 12.241 26.1677 12.1436 26.1027 12.0129C26.0371 11.8823 26.0267 11.7341 26.0726 11.5957L26.6194 9.95535C26.6943 9.73171 26.9026 9.58134 27.1383 9.58134H28.7787C29.08 9.58134 29.3255 9.82686 29.3255 10.1281C29.3255 10.43 29.08 10.6749 28.7787 10.6749H27.532L27.1104 11.9413C27.0355 12.1655 26.8272 12.3153 26.5915 12.3153Z" fill="#351661"/>
<path d="M19.0285 21.4397H17.0261C16.8309 21.4397 16.6499 21.3347 16.5521 21.1663L15.5514 19.4319C15.4536 19.2629 15.4536 19.0535 15.5514 18.8851L16.5521 17.1512C16.6494 16.9822 16.8309 16.8772 17.0261 16.8772H19.0285C19.2232 16.8772 19.4047 16.9822 19.502 17.1512L20.5033 18.8851C20.6006 19.0535 20.6006 19.2635 20.5033 19.4319L19.502 21.1663C19.4047 21.3347 19.2232 21.4397 19.0285 21.4397ZM17.3416 20.3461H18.7125L19.3981 19.1585L18.7125 17.9708H17.3416L16.656 19.1585L17.3416 20.3461Z" fill="#351661"/>
<path d="M23.4026 23.9856H21.4003C21.2051 23.9856 21.0241 23.8811 20.9268 23.7127L19.925 21.9783C19.8277 21.8093 19.8277 21.5999 19.925 21.4315L20.9268 19.6971C21.0236 19.5286 21.2051 19.4237 21.4003 19.4237H23.4026C23.5973 19.4237 23.7788 19.5286 23.8761 19.6971L24.8774 21.4315C24.9747 21.5999 24.9747 21.8093 24.8774 21.9783L23.8761 23.7127C23.7788 23.8811 23.5973 23.9856 23.4026 23.9856ZM21.7158 22.892H23.0866L23.7723 21.7049L23.0866 20.5173H21.7158L21.0301 21.7049L21.7158 22.892Z" fill="#351661"/>
<path d="M23.4026 19.0644H21.4003C21.2051 19.0644 21.0235 18.96 20.9268 18.791L19.925 17.0572C19.8277 16.8882 19.8277 16.6788 19.925 16.5104L20.9268 14.7759C21.0236 14.6075 21.2051 14.5025 21.4003 14.5025H23.4026C23.5973 14.5025 23.7788 14.6075 23.8761 14.7759L24.8774 16.5104C24.9747 16.6788 24.9747 16.8882 24.8774 17.0572L23.8761 18.791C23.7788 18.96 23.5973 19.0644 23.4026 19.0644ZM21.7158 17.9708H23.0866L23.7723 16.7838L23.0866 15.5961H21.7158L21.0301 16.7838L21.7158 17.9708Z" fill="#351661"/>
<path d="M18.936 23.2513C18.7921 23.2513 18.6511 23.1928 18.5494 23.0911C18.4477 22.9893 18.3892 22.8483 18.3892 22.7045C18.3892 22.5607 18.4477 22.4196 18.5494 22.3179C18.6511 22.2162 18.7921 22.1577 18.936 22.1577C19.0798 22.1577 19.2208 22.2162 19.3225 22.3179C19.4242 22.4196 19.4828 22.5607 19.4828 22.7045C19.4828 22.8483 19.4242 22.9893 19.3225 23.0911C19.2208 23.1928 19.0798 23.2513 18.936 23.2513Z" fill="#351661"/>
<path d="M18.936 16.1429C18.7921 16.1429 18.6511 16.0844 18.5494 15.9827C18.4477 15.8809 18.3892 15.7399 18.3892 15.5961C18.3892 15.4523 18.4477 15.3112 18.5494 15.2095C18.6511 15.1078 18.7921 15.0493 18.936 15.0493C19.0798 15.0493 19.2208 15.1078 19.3225 15.2095C19.4242 15.3112 19.4828 15.4523 19.4828 15.5961C19.4828 15.7399 19.4242 15.8809 19.3225 15.9827C19.2208 16.0844 19.0798 16.1429 18.936 16.1429Z" fill="#351661"/>
<path d="M24.9511 19.9705C24.8073 19.9705 24.6662 19.912 24.5645 19.8103C24.4628 19.7086 24.4043 19.5675 24.4043 19.4237C24.4043 19.2799 24.4627 19.1388 24.5645 19.0371C24.6662 18.9354 24.8073 18.8769 24.9511 18.8769C25.0949 18.8769 25.236 18.9354 25.3376 19.0371C25.4393 19.1388 25.4979 19.2799 25.4979 19.4237C25.4979 19.5675 25.4394 19.7086 25.3376 19.8103C25.236 19.912 25.0949 19.9705 24.9511 19.9705Z" fill="#351661"/>
</svg>
