<svg width="40" height="40" viewBox="0 0 40 40" fill="none" xmlns="http://www.w3.org/2000/svg">
<rect width="12" height="12" rx="2" transform="matrix(1 0 0 -1 24 17)" fill="#F2F0F4"/>
<rect width="16" height="16" rx="2" transform="matrix(1 0 0 -1 5 36)" fill="#EEE3FF"/>
<g clip-path="url(#clip0)">
<path d="M30.6167 28.7H24.0104L25.9621 25.4472C25.997 25.389 26.0158 25.3227 26.0166 25.2548C26.0175 25.187 26.0003 25.1202 25.9669 25.0611C25.9335 25.0021 25.885 24.953 25.8264 24.9188C25.7678 24.8847 25.7012 24.8667 25.6333 24.8667H23.7167V22.7255L28.9711 17.4711C29.043 17.3992 29.0833 17.3017 29.0833 17.2V15.6667H28.3167V17.0412L23.0623 22.2956C22.9904 22.3675 22.95 22.465 22.95 22.5667V24.8667H22.1833V22.5667C22.1833 22.465 22.143 22.3675 22.0711 22.2956L16.8167 17.0412V15.6667H16.05V17.2C16.05 17.3017 16.0904 17.3992 16.1623 17.4711L21.4167 22.7255V24.8667H21.0333C20.9658 24.8667 20.8994 24.8845 20.8409 24.9185C20.7825 24.9524 20.734 25.0011 20.7005 25.0598L19.2775 27.55H19.2184L16.7815 26.1575L16.5737 24.91C16.5191 24.5815 16.3938 24.2688 16.2064 23.9935C16.019 23.7183 15.7739 23.4871 15.4883 23.3159L14.8548 22.9358C14.8848 22.8151 14.9 22.6911 14.9 22.5667V20.7661C14.9 20.5369 14.8378 20.3121 14.7201 20.1155C14.6023 19.9189 14.4334 19.7579 14.2314 19.6498C14.0293 19.5417 13.8017 19.4904 13.5728 19.5015C13.3439 19.5126 13.1223 19.5855 12.9317 19.7127L12.004 20.3311C11.9515 20.3661 11.9085 20.4135 11.8787 20.4691C11.8489 20.5248 11.8333 20.5869 11.8333 20.65V22.5667C11.8333 22.7013 11.8511 22.8353 11.8862 22.9652L10.9408 23.5954C10.4839 23.8997 10.1512 24.3578 10.0032 24.8865C9.44963 24.9591 8.94131 25.2304 8.57282 25.6499C8.20433 26.0693 8.00076 26.6084 8 27.1667V30.6167C8 30.7183 8.04039 30.8158 8.11228 30.8877C8.18417 30.9596 8.28167 31 8.38333 31H30.6167C30.7183 31 30.8158 30.9596 30.8877 30.8877C30.9596 30.8158 31 30.7183 31 30.6167V29.0833C31 28.9817 30.9596 28.8842 30.8877 28.8123C30.8158 28.7404 30.7183 28.7 30.6167 28.7ZM9.91667 30.2333H8.76667V27.1667C8.7671 26.8268 8.88022 26.4967 9.08832 26.228C9.29641 25.9594 9.58773 25.7673 9.91667 25.6819V30.2333ZM19.8833 28.0352L21.2558 25.6333H24.9563L23.1163 28.7H19.8833V28.0352ZM17.6732 27.55H16.4605L15.3172 27.3867L16.4213 26.8346L17.6732 27.55ZM19.1167 28.3167V28.7H16.8167V28.3167H19.1167ZM12.6 20.8552L13.357 20.3505C13.4322 20.3004 13.5196 20.2716 13.6099 20.2673C13.7002 20.2629 13.7899 20.2831 13.8696 20.3258C13.9493 20.3684 14.0159 20.4319 14.0624 20.5095C14.1088 20.587 14.1333 20.6757 14.1333 20.7661V21.0333H12.6V20.8552ZM12.6 21.8H14.1333V22.5667C14.1333 22.77 14.0526 22.965 13.9088 23.1088C13.765 23.2526 13.57 23.3333 13.3667 23.3333C13.1633 23.3333 12.9683 23.2526 12.8246 23.1088C12.6808 22.965 12.6 22.77 12.6 22.5667V21.8ZM10.6833 25.5091C10.6831 25.2566 10.7453 25.008 10.8644 24.7854C10.9835 24.5628 11.1559 24.3731 11.3661 24.2333L12.2664 23.6331C12.4109 23.7827 12.5845 23.9012 12.7763 23.9815C12.9682 24.0618 13.1745 24.1021 13.3825 24.0999C13.5904 24.0978 13.7958 24.0533 13.986 23.9691C14.1762 23.8849 14.3472 23.7628 14.4887 23.6102L15.0938 23.9733C15.2843 24.0874 15.4476 24.2416 15.5726 24.4251C15.6975 24.6086 15.781 24.8171 15.8174 25.0361L16.0087 26.1838L15.2833 26.5464V26.0167H14.5167V27.2723L13.9848 27.1963L12.9287 25.4361L12.2713 25.8306L12.7844 26.6857L11.4065 27.5124L10.6833 26.6446V25.5091ZM11.8333 30.2333H10.6833V27.8421L11.8333 29.2221V30.2333ZM11.9032 28.1084L13.1788 27.3431L13.4213 27.7472C13.4506 27.7961 13.4905 27.8378 13.5379 27.8693C13.5854 27.9009 13.6393 27.9214 13.6958 27.9295L16.05 28.2658V28.7H12.3962L11.9032 28.1084ZM30.2333 30.2333H12.6V29.4667H30.2333V30.2333Z" fill="#351661"/>
<path d="M18.3502 14.1333H17.5835V17.2H18.3502V14.1333Z" fill="#351661"/>
<path d="M16.8165 11.0667H16.0498V14.9H16.8165V11.0667Z" fill="#351661"/>
<path d="M22.9498 11.45H22.1831V17.3667H22.9498V11.45Z" fill="#351661"/>
<path d="M24.4835 12.2167H23.7168V13.3667H24.4835V12.2167Z" fill="#351661"/>
<path d="M19.8834 16.05H19.1167V18.7333H19.8834V16.05Z" fill="#351661"/>
<path d="M21.4166 16.05H20.6499V17.2H21.4166V16.05Z" fill="#351661"/>
<path d="M29.0836 11.0667H28.3169V14.5167H29.0836V11.0667Z" fill="#351661"/>
<path d="M29.0831 8.38333C29.0831 8.28167 29.0428 8.18417 28.9709 8.11228C28.899 8.04039 28.8015 8 28.6998 8H16.4331C16.3315 8 16.234 8.04039 16.1621 8.11228C16.0902 8.18417 16.0498 8.28167 16.0498 8.38333V10.3H16.8165V8.76667H17.5831V13.3667H18.3498V8.76667H19.1165V15.0667H19.8831V8.76667H20.6498V14.5333H21.4165V8.76667H22.1831V10.6833H22.9498V8.76667H23.7165V11.45H24.4831V8.76667H25.2498V13.5333H26.0165V8.76667H26.7831V11.5333H27.5498V8.76667H28.3165V10.3H29.0831V8.38333Z" fill="#351661"/>
<path d="M26.0167 14.5167H25.25V18.35H26.0167V14.5167Z" fill="#351661"/>
<path d="M27.5499 12.5167H26.7832V17.2H27.5499V12.5167Z" fill="#351661"/>
<path d="M21.4166 17.9667H20.6499V20.2667H21.4166V17.9667Z" fill="#351661"/>
<path d="M22.9498 18.7333H22.1831V21.4167H22.9498V18.7333Z" fill="#351661"/>
<path d="M24.4835 14.7333H23.7168V19.8833H24.4835V14.7333Z" fill="#351661"/>
<path d="M251 148H113.13L153.86 80.1157C154.589 78.9017 154.982 77.5162 155 76.1006C155.017 74.6851 154.659 73.2901 153.962 72.0582C153.264 70.8262 152.252 69.8015 151.029 69.0885C149.806 68.3756 148.416 68 147 68H107V23.314L216.657 -86.3433C218.157 -87.8436 219 -89.8784 219 -92V-124H203V-95.314L93.3428 14.3433C91.8427 15.8436 91 17.8784 91 20V68H75V20C75 17.8784 74.1573 15.8436 72.6572 14.3433L-37 -95.314V-124H-53V-92C-53 -89.8784 -52.1573 -87.8436 -50.6572 -86.3433L59 23.314V68H51C49.5896 68 48.2043 68.3728 46.9845 69.0807C45.7646 69.7885 44.7535 70.8063 44.0537 72.0308L14.3569 124H13.124L-37.7334 94.9385L-42.0713 68.9048C-43.2095 62.049 -45.8249 55.5227 -49.7362 49.7782C-53.6474 44.0337 -58.7611 39.2084 -64.7227 35.6367L-77.9436 27.7042C-77.3171 25.1841 -77.0002 22.5969 -77 20V-17.5776C-76.9998 -22.3601 -78.2977 -27.0529 -80.7552 -31.1556C-83.2127 -35.2583 -86.7377 -38.617 -90.9542 -40.8737C-95.1708 -43.1303 -99.9207 -44.2001 -104.698 -43.9691C-109.474 -43.7381 -114.099 -42.215 -118.078 -39.562L-137.438 -26.6562C-138.533 -25.9258 -139.432 -24.936 -140.053 -23.7748C-140.675 -22.6137 -141 -21.317 -141 -20V20C-141 22.8087 -140.629 25.6052 -139.897 28.3169L-159.626 41.4692C-169.162 47.8199 -176.105 57.3798 -179.194 68.4131C-190.747 69.9297 -201.355 75.5915 -209.045 84.3452C-216.736 93.0988 -220.984 104.348 -221 116V188C-221 190.122 -220.157 192.157 -218.657 193.657C-217.157 195.157 -215.122 196 -213 196H251C253.122 196 255.157 195.157 256.657 193.657C258.157 192.157 259 190.122 259 188V156C259 153.878 258.157 151.843 256.657 150.343C255.157 148.843 253.122 148 251 148ZM-181 180H-205V116C-204.991 108.908 -202.63 102.019 -198.287 96.4113C-193.944 90.804 -187.865 86.7953 -181 85.0127V180ZM27 134.125L55.6426 84H132.87L94.4707 148H27V134.125ZM-19.124 124H-44.4321L-68.2935 120.591L-45.2515 109.07L-19.124 124ZM11 140V148H-37V140H11ZM-125 -15.7183L-109.202 -26.25C-107.633 -27.2963 -105.808 -27.8969 -103.924 -27.9879C-102.04 -28.0789 -100.167 -27.6567 -98.5036 -26.7666C-96.8405 -25.8764 -95.4502 -24.5515 -94.481 -22.9332C-93.5117 -21.315 -92.9999 -19.464 -93 -17.5776V-12H-125V-15.7183ZM-125 4H-93V20C-93 24.2435 -94.6857 28.3131 -97.6863 31.3137C-100.687 34.3143 -104.757 36 -109 36C-113.243 36 -117.313 34.3143 -120.314 31.3137C-123.314 28.3131 -125 24.2435 -125 20V4ZM-165 81.4072C-165.006 76.1382 -163.707 70.9496 -161.221 66.3039C-158.735 61.6583 -155.138 57.7 -150.751 54.7817L-131.961 42.2554C-128.945 45.3774 -125.324 47.8515 -121.32 49.5267C-117.315 51.2019 -113.011 52.0429 -108.67 51.9983C-104.33 51.9537 -100.044 51.0245 -96.0744 49.2674C-92.1051 47.5103 -88.5357 44.9622 -85.5845 41.7789L-72.9551 49.3564C-68.9805 51.7374 -65.5714 54.9542 -62.9639 58.7839C-60.3564 62.6136 -58.613 66.9646 -57.8545 71.5352L-53.8628 95.4871L-69 103.056V92H-85V118.204L-96.0996 116.619L-118.14 79.8843L-131.86 88.1157L-121.153 105.962L-149.907 123.215L-165 105.104V81.4072ZM-141 180H-165V130.096L-141 158.896V180ZM-139.541 135.654L-112.921 119.682L-107.86 128.116C-107.248 129.136 -106.417 130.006 -105.426 130.664C-104.435 131.322 -103.309 131.751 -102.132 131.919L-53 138.938V148H-129.253L-139.541 135.654ZM243 180H-125V164H243V180Z" fill="black"/>
</g>
<defs>
<clipPath id="clip0">
<rect width="32" height="32" fill="white" transform="translate(4 4)"/>
</clipPath>
</defs>
</svg>
