<svg xmlns="http://www.w3.org/2000/svg" width="206.848" height="35.431" viewBox="0 0 206.848 35.431">
    <g id="VIVID-LABS-LOGO-white" transform="translate(-100 -101.2)">
        <g id="Group_1" data-name="Group 1" transform="translate(298.037 101.2)">
            <path id="Path_1" data-name="Path 1" d="M1248.9,277.383c0-.121.052-.172.172-.172h7.259v-4.138c0-.121.052-.172.172-.172h.931c.121,0,.172.052.172.172v5.483c0,.121-.052.172-.172.172h-8.362c-.121,0-.172-.052-.172-.172Z" transform="translate(-1248.848 -243.296)" fill="#fff" opacity="0.65"/>
            <path id="Path_2" data-name="Path 2" d="M1249.927,215.549l7.242-2.069c.138-.017.19.017.19.138v1.224c0,.1-.052.138-.19.172l-2.448.707v3.4l2.448.724c.138.034.19.052.19.155v1.224c0,.138-.052.172-.19.138l-7.242-2.121c-1.189-.362-1.327-.569-1.327-1.81C1248.6,216.083,1248.738,215.894,1249.927,215.549Zm.379,2.293,3.19.914v-2.69l-3.19.9c-.414.121-.465.138-.465.466C1249.842,217.7,1249.893,217.721,1250.307,217.842Z" transform="translate(-1248.6 -194.118)" fill="#fff" opacity="0.65"/>
            <path id="Path_3" data-name="Path 3" d="M1251,156.224c1.155,0,1.793.328,1.948,1.19h.034c.155-1.1.948-1.414,2.052-1.414,1.88,0,2.362,1.052,2.362,3.1,0,.81-.035,2.569-.1,3.517-.017.138-.035.172-.155.172h-8.293c-.121,0-.155-.034-.155-.172-.069-.948-.086-2.379-.086-3.207C1248.6,157.241,1249.152,156.224,1251,156.224Zm-1.138,5.035h2.586v-1.345c0-1.569-.086-2.155-1.259-2.155-1.086,0-1.31.569-1.31,1.81v1.69Zm3.69,0h2.586v-2.121c0-1.1-.224-1.6-1.224-1.6-1.121,0-1.345.586-1.345,1.586v2.138Z" transform="translate(-1248.6 -146.552)" fill="#fff" opacity="0.65"/>
            <path id="Path_4" data-name="Path 4" d="M1248.79,101.838c.017-.138.086-.19.19-.19h.707c.121,0,.19.052.19.172v2.759c0,.9.276,1.345.879,1.345h.19c.483,0,.759-.172,1.017-.793l.914-2.431a1.969,1.969,0,0,1,2.121-1.5h.345c1.707,0,2.069,1.414,2.069,3.276a19.7,19.7,0,0,1-.207,2.931.182.182,0,0,1-.207.172h-.69a.165.165,0,0,1-.19-.19v-3.328c0-.879-.259-1.328-.845-1.328h-.19c-.517,0-.828.207-1.086.879l-.965,2.586c-.345.966-1.017,1.259-2.121,1.259h-.259c-1.707,0-2.052-1.328-2.052-3.224A13.776,13.776,0,0,1,1248.79,101.838Z" transform="translate(-1248.6 -101.2)" fill="#fff" opacity="0.65"/>
        </g>
        <g id="Group_2" data-name="Group 2" transform="translate(100 101.39)">
            <path id="Path_5" data-name="Path 5" d="M437.159,137.687l-22.1-20.983V102.6H402.9v14.845A10.474,10.474,0,0,0,406.141,125l13.362,12.69h17.655Z" transform="translate(-350.675 -102.548)" fill="#fff"/>
            <path id="Path_6" data-name="Path 6" d="M537.021,102.6H547.97c.035.466.1.862.1,1.259,0,6.448.034,12.9,0,19.328-.052,7.328-4.655,12.862-11.862,14.1a13.447,13.447,0,0,1-12.311-4.121c-6.776-6.759-13.535-13.552-20.328-20.293-.845-.845-1.793-1.569-2.672-2.345,2.828-2.759,5.379-5.259,8.035-7.862.207.19.569.517.914.862,7.173,7.155,14.311,14.328,21.5,21.466a5.029,5.029,0,0,0,2.138,1.379c2,.448,3.517-.983,3.534-3.155.017-6.31,0-12.621,0-18.914Z" transform="translate(-431.778 -102.548)" fill="#fff"/>
            <path id="Path_7" data-name="Path 7" d="M100,109.99l7.741-7.69c.328.31.724.655,1.1,1.034l21.586,21.587c1.241,1.241,2.483,1.569,3.707,1a3.079,3.079,0,0,0,1.759-3.155q-.026-9.388-.017-18.776v-1.638h11.035v20.724a13.761,13.761,0,0,1-8.552,13.035c-5.672,2.224-10.914,1.328-15.276-2.966-7.586-7.448-15.052-15.017-22.569-22.535C100.31,110.386,100.155,110.162,100,109.99Z" transform="translate(-100 -102.3)" fill="#fff"/>
            <path id="Path_8" data-name="Path 8" d="M840.859,137.687l-22.1-20.983V102.6H806.6v14.845A10.474,10.474,0,0,0,809.841,125l13.362,12.69h17.655Z" transform="translate(-684.771 -102.548)" fill="#fff"/>
            <path id="Path_9" data-name="Path 9" d="M990.349,108.021a15.585,15.585,0,0,0-11.966-5.6L950.9,102.4v14.845a10.474,10.474,0,0,0,3.241,7.552l12.414,11.793a3.233,3.233,0,0,0,2.224.879h9.448a15.679,15.679,0,0,0,12.483-6.328l.31-.414A18.3,18.3,0,0,0,990.349,108.021Zm-7.259,16.621a6.166,6.166,0,0,1-4.966,2.5H971.4l-10.259-10.966V112.8h17.173a6.1,6.1,0,0,1,5.328,3.052A8.081,8.081,0,0,1,983.09,124.642Z" transform="translate(-804.191 -102.383)" fill="#fff"/>
        </g>
    </g>
</svg>
