<svg viewBox="0 0 102 24" xmlns="http://www.w3.org/2000/svg"><g fill="none" fill-rule="evenodd"><path fill="#3AD0AB" d="M39.5 0A4.5 4.5 0 0144 4.5v15a4.5 4.5 0 01-4.5 4.5h-35A4.5 4.5 0 010 19.5v-15A4.5 4.5 0 014.5 0h35zM22.647 4.35h-1.458a.467.467 0 00-.342.144.467.467 0 00-.144.342V6.06a5.836 5.836 0 00-1.458.459c-.444.21-.825.474-1.143.792a3.63 3.63 0 00-.747 1.071c-.18.396-.27.828-.27 1.296 0 .54.072 1.005.216 1.395.144.39.363.729.657 1.017a3.71 3.71 0 001.116.729c.45.198.975.369 1.575.513.66.168 1.242.306 1.746.414.504.108.927.222 1.269.342.342.12.597.264.765.432a.877.877 0 01.252.648c0 .276-.078.507-.234.693-.156.186-.36.342-.612.468a3.046 3.046 0 01-.882.27 6.572 6.572 0 01-1.044.081c-.456 0-.837-.039-1.143-.117a2.95 2.95 0 01-.765-.297 1.671 1.671 0 01-.486-.414 3.462 3.462 0 01-.306-.468.815.815 0 00-.27-.324c-.108-.072-.264-.108-.468-.108h-1.26a.515.515 0 00-.351.135.398.398 0 00-.135.351c.024.456.144.873.36 1.251.216.378.5.711.855.999.354.288.768.531 1.242.729.474.198.98.339 1.52.423v1.224c0 .132.049.246.145.342.096.096.21.144.342.144h1.458a.467.467 0 00.342-.144.467.467 0 00.144-.342V18.84a6.213 6.213 0 001.674-.45 4.327 4.327 0 001.25-.81c.343-.324.604-.69.784-1.098.18-.408.27-.846.27-1.314 0-.492-.07-.93-.207-1.314a2.546 2.546 0 00-.684-1.017c-.318-.294-.726-.546-1.224-.756-.498-.21-1.107-.393-1.827-.549-.66-.144-1.221-.27-1.683-.378a6.97 6.97 0 01-1.134-.351c-.294-.126-.507-.276-.64-.45-.131-.174-.197-.399-.197-.675 0-.228.06-.432.18-.612s.285-.333.495-.459a2.56 2.56 0 01.738-.288 3.9 3.9 0 01.89-.099c.72 0 1.264.111 1.63.333.366.222.639.483.819.783.084.132.177.237.279.315.102.078.255.117.459.117h1.26a.515.515 0 00.35-.135.398.398 0 00.136-.351 2.714 2.714 0 00-.27-.927 3.4 3.4 0 00-.684-.945 4.59 4.59 0 00-1.116-.801 5.396 5.396 0 00-1.548-.513v-1.26a.467.467 0 00-.144-.342.467.467 0 00-.342-.144z"/><path fill="#290F4D" fill-rule="nonzero" d="M57.684 16.12c.88 0 1.558-.248 2.034-.744.476-.496.73-1.156.762-1.98a5.7 5.7 0 000-1.032c-.032-.824-.29-1.484-.774-1.98-.484-.496-1.158-.744-2.022-.744-.864 0-1.538.248-2.022.744-.484.496-.742 1.156-.774 1.98l-.012.516.012.516c.032.824.286 1.484.762 1.98.476.496 1.154.744 2.034.744zm0-.9c-.512 0-.918-.162-1.218-.486-.3-.324-.462-.79-.486-1.398l-.012-.456.012-.456c.024-.608.186-1.074.486-1.398.3-.324.706-.486 1.218-.486s.918.162 1.218.486c.3.324.462.79.486 1.398.008.08.012.232.012.456s-.004.376-.012.456c-.024.608-.186 1.074-.486 1.398-.3.324-.706.486-1.218.486zm5.208.78c.08 0 .148-.026.204-.078a.258.258 0 00.084-.198v-3.54c0-.44.126-.788.378-1.044s.598-.384 1.038-.384h.684a.264.264 0 00.204-.078.28.28 0 00.072-.198v-.444c0-.088-.024-.156-.072-.204-.048-.048-.116-.072-.204-.072h-.468c-.784 0-1.34.272-1.668.816v-.528a.284.284 0 00-.078-.21.284.284 0 00-.21-.078h-.504a.258.258 0 00-.198.084.289.289 0 00-.078.204v5.676a.268.268 0 00.276.276h.54z" opacity=".869"/><g transform="translate(78)"><circle cx="12" cy="12" r="12" fill="#FA8D62"/><path fill="#1C0937" fill-rule="nonzero" d="M7.17 16c.11 0 .2-.028.267-.083a.369.369 0 00.131-.209l1.974-6.22a.361.361 0 00.01-.088.203.203 0 00-.059-.14.19.19 0 00-.146-.064H8.074a.357.357 0 00-.36.262l-1.331 4.394L5.06 9.458a.396.396 0 00-.122-.18.344.344 0 00-.238-.082H3.428a.206.206 0 00-.151.063.195.195 0 00-.063.141l.02.088 1.963 6.22a.423.423 0 00.14.21.412.412 0 00.268.082H7.17zm5.224 0c.072 0 .13-.024.175-.073a.241.241 0 00.068-.17V9.439a.237.237 0 00-.068-.175.237.237 0 00-.175-.068h-1.39a.241.241 0 00-.243.243v6.318c0 .065.025.122.073.17a.233.233 0 00.17.073h1.39zm4.739 0c1.95 0 2.958-.888 3.023-2.663.006-.182.01-.428.01-.739v-.18c-.002-.228-.005-.418-.01-.568-.026-.856-.305-1.512-.836-1.969-.531-.457-1.277-.685-2.236-.685h-2.556a.229.229 0 00-.175.073.254.254 0 00-.068.18v6.308c0 .065.024.122.073.17a.233.233 0 00.17.073h2.605zm-.049-1.458h-.972v-3.888h.924c.408 0 .717.099.928.296.21.198.322.504.335.919.013.181.02.421.02.72 0 .297-.007.54-.02.728-.013.428-.116.739-.31.933-.195.195-.496.292-.905.292z"/></g></g></svg>
