<svg width="45" height="44" xmlns="http://www.w3.org/2000/svg">
    <g fill="none" fill-rule="evenodd">
        <path d="M22.61 43.7c12.118 0 21.94-9.677 21.94-21.613C44.55 10.15 34.729.474 22.61.474 10.495.474.67 10.15.67 22.087c0 11.936 9.824 21.612 21.94 21.612zm0-1.88c-11.063 0-20.031-8.835-20.031-19.733 0-10.899 8.968-19.734 20.032-19.734 11.063 0 20.032 8.835 20.032 19.734 0 10.898-8.969 19.733-20.032 19.733z" fill="#FF8A3C" fill-rule="nonzero"/>
        <path d="M38.8 13.927a18.275 18.275 0 011.88 8.103c0 10.01-7.993 18.125-17.854 18.125-1.066 0-2.121-.095-3.157-.283l.33-1.878c.927.168 1.872.253 2.827.253 8.823 0 15.975-7.26 15.975-16.217 0-2.552-.58-5.018-1.68-7.249zM22.61 4.233v1.879c-6.646 0-12.544 3.975-15.016 9.934l-1.766-.712C8.59 8.675 15.183 4.233 22.61 4.233z" fill="#FF5D50" fill-rule="nonzero"/>
        <path d="M28.22 9.116c5.232 2.198 8.7 7.27 8.7 12.97 0 6.857-5.005 12.686-11.78 13.876l-.336-1.85c5.87-1.031 10.208-6.083 10.208-12.025 0-4.941-3.006-9.337-7.54-11.242zM22.61 7.99v1.88c-6.848 0-12.4 5.469-12.4 12.216 0 4.198 2.165 8.03 5.679 10.267l-1.036 1.579c-4.051-2.58-6.55-7.004-6.55-11.846 0-7.785 6.405-14.096 14.308-14.096z" fill="#F53568" fill-rule="nonzero"/>
        <path d="M22.61 11.75c-5.794 0-10.492 4.628-10.492 10.337 0 5.708 4.698 10.336 10.493 10.336s10.493-4.628 10.493-10.336h-1.908c0 4.67-3.844 8.457-8.585 8.457-4.742 0-8.585-3.787-8.585-8.457 0-4.671 3.843-8.458 8.585-8.458V11.75z" fill="#7130CC" fill-rule="nonzero"/>
        <path d="M28.493 22.796s-1.307 1.327-3.63 2.803c-2.324 1.477-3.892 2.026-3.892 2.026-.695.296-1.34-.09-1.434-.85 0 0-.265-1.515-.265-4.692 0-3.177.267-4.722.267-4.722.086-.758.724-1.115 1.41-.796 0 0 1.452.592 3.914 2.157 2.462 1.564 3.604 2.648 3.604 2.648.45.382.459 1.024.026 1.426z" fill="#0C0417"/>
    </g>
</svg>
