<?xml version="1.0" encoding="UTF-8"?>
<svg width="72px" height="72px" viewBox="0 0 72 72" version="1.1" xmlns="http://www.w3.org/2000/svg" xmlns:xlink="http://www.w3.org/1999/xlink">
    <!-- Generator: Sketch 64 (93537) - https://sketch.com -->
    <title>Logos/Company Logo/Light/Symbol Logo</title>
    <desc>Created with Sketch.</desc>
    <g id="Landing" stroke="none" stroke-width="1" fill="none" fill-rule="evenodd">
        <g id="Screens/Landing-Page---1440px" transform="translate(-684.000000, -206.000000)">
            <g id="Above-Fold-Section" transform="translate(0.000000, -72.000000)">
                <g id="Logos/Company-Logo/Light/Symbol-Logo" transform="translate(684.000000, 278.000000)">
                    <g id="Symmetrical-Logo">
                        <path d="M36,72 C55.882251,72 72,55.882251 72,36 C72,16.117749 55.882251,0 36,0 C16.117749,0 0,16.117749 0,36 C0,55.882251 16.117749,72 36,72 Z M36,68.8695652 C17.8466404,68.8695652 3.13043478,54.1533596 3.13043478,36 C3.13043478,17.8466404 17.8466404,3.13043478 36,3.13043478 C54.1533596,3.13043478 68.8695652,17.8466404 68.8695652,36 C68.8695652,54.1533596 54.1533596,68.8695652 36,68.8695652 Z" id="Outer-Ring" fill="#FF8A3C" fill-rule="nonzero"></path>
                        <path d="M62.7795594,22.7347826 C64.8286301,26.8279371 65.9103595,31.3536037 65.9103595,36.0306316 C65.9103595,52.4550999 52.5956973,65.7697621 36.1712291,65.7697621 C34.3946638,65.7697621 32.6371933,65.6138088 30.9130435,65.3060943 L30.9130435,65.3060943 L31.4630512,62.2243556 C33.0058618,62.4997059 34.5792848,62.6393273 36.1712291,62.6393273 C50.8668059,62.6393273 62.7799248,50.7262085 62.7799248,36.0306316 C62.7799248,31.8428679 61.8127961,27.7966604 59.9802958,24.1361196 L59.9802958,24.1361196 Z M36,6.26086957 L36,9.39130435 C25.0941376,9.39130435 15.4165975,16.0129368 11.3592709,25.9375785 L11.3592709,25.9375785 L8.46162484,24.7529819 C12.9960486,13.661311 23.8118208,6.26086957 36,6.26086957 L36,6.26086957 Z" id="Ring" fill="#FF5D50"></path>
                        <path d="M45.2037476,14.3948019 C53.788826,18.0563899 59.4782609,26.5046309 59.4782609,36 C59.4782609,47.4207659 51.267524,57.1291356 40.1489031,59.1125603 L40.1489031,59.1125603 L39.5991508,56.030776 C49.230825,54.3126042 56.3478261,45.897467 56.3478261,36 C56.3478261,27.7699382 51.4169115,20.4480239 43.9756351,17.2742743 L43.9756351,17.2742743 Z M36,12.5217391 L36,15.6521739 C24.762206,15.6521739 15.6521739,24.762206 15.6521739,36 C15.6521739,42.9925196 19.205277,49.3761659 24.9707226,53.1025162 L24.9707226,53.1025162 L23.2714704,55.7316157 C16.6228517,51.4344486 12.5217391,44.0662269 12.5217391,36 C12.5217391,23.0333146 23.0333146,12.5217391 36,12.5217391 L36,12.5217391 Z" id="Ring-2" fill="#F53568"></path>
                        <path d="M36,53.2173913 C45.5089026,53.2173913 53.2173913,45.5089026 53.2173913,36 C53.2173913,26.4910974 45.5089026,18.7826087 36,18.7826087 C26.4910974,18.7826087 18.7826087,26.4910974 18.7826087,36 L21.9130435,36 C21.9130435,28.2199887 28.2199887,21.9130435 36,21.9130435 C43.7800113,21.9130435 50.0869565,28.2199887 50.0869565,36 C50.0869565,43.7800113 43.7800113,50.0869565 36,50.0869565 L36,53.2173913 Z" id="Ring-3" fill="#7130CC" transform="translate(36.000000, 36.000000) rotate(180.000000) translate(-36.000000, -36.000000) "></path>
                        <path d="M45.65129,37.1820897 C45.65129,37.1820897 43.5080135,39.3914173 39.6951808,41.8508004 C35.8823481,44.3101836 33.3094026,45.2252913 33.3094026,45.2252913 C32.1688765,45.718464 31.1108025,45.0736418 30.9569843,43.8100794 C30.9569843,43.8100794 30.5217391,41.2850421 30.5217391,35.9935917 C30.5217391,30.7021413 30.9590287,28.128514 30.9590287,28.128514 C31.1016633,26.865239 32.1477748,26.2721954 33.2731268,26.8034032 C33.2731268,26.8034032 35.6555722,27.7892917 39.6951808,30.394951 C43.7347894,33.0006103 45.6092601,34.8065796 45.6092601,34.8065796 C46.3481006,35.4424653 46.3616185,36.5125401 45.65129,37.1820897 Z" id="Play" fill="#FFFFFF"></path>
                    </g>
                </g>
            </g>
        </g>
    </g>
</svg>