<svg width="186" height="64" viewBox="0 0 186 64" fill="none" xmlns="http://www.w3.org/2000/svg">
<path d="M31.9999 58.6667C46.7275 58.6667 58.6665 46.7276 58.6665 32C58.6665 17.2724 46.7275 5.33337 31.9999 5.33337C17.2723 5.33337 5.33319 17.2724 5.33319 32C5.33319 46.7276 17.2723 58.6667 31.9999 58.6667ZM31.9999 56.3479C18.5529 56.3479 7.65203 45.447 7.65203 32C7.65203 18.5531 18.5529 7.65221 31.9999 7.65221C45.4468 7.65221 56.3477 18.5531 56.3477 32C56.3477 45.447 45.4468 56.3479 31.9999 56.3479Z" fill="#FF8A3C"/>
<path d="M51.8368 22.1738C53.3547 25.2058 54.1559 28.5582 54.1559 32.0226C54.1559 44.1889 44.2932 54.0516 32.1269 54.0516C30.811 54.0516 29.5091 53.9361 28.232 53.7082L28.6394 51.4254C29.7822 51.6293 30.9477 51.7328 32.1269 51.7328C43.0126 51.7328 51.8371 42.9082 51.8371 32.0226C51.8371 28.9206 51.1207 25.9234 49.7633 23.2119L51.8368 22.1738ZM32.0001 9.97095V12.2898C23.9217 12.2898 16.7531 17.1947 13.7477 24.5463L11.6013 23.6688C14.9602 15.4528 22.9718 9.97095 32.0001 9.97095Z" fill="#FF5D50"/>
<path d="M38.8177 15.9961C45.177 18.7084 49.3914 24.9663 49.3914 31.9999C49.3914 40.4598 43.3094 47.6512 35.0734 49.1204L34.6662 46.8376C41.8007 45.5648 47.0726 39.3314 47.0726 31.9999C47.0726 25.9036 43.4201 20.48 37.908 18.129L38.8177 15.9961ZM32.0001 14.6086V16.9275C23.6758 16.9275 16.9277 23.6757 16.9277 31.9999C16.9277 37.1796 19.5596 41.9082 23.8303 44.6685L22.5716 46.616C17.6467 43.4329 14.6088 37.9749 14.6088 31.9999C14.6088 22.395 22.3952 14.6086 32.0001 14.6086Z" fill="#F53568"/>
<path d="M32.0002 19.2464C24.9565 19.2464 19.2465 24.9564 19.2465 32C19.2465 39.0437 24.9565 44.7537 32.0002 44.7537C39.0438 44.7537 44.7538 39.0437 44.7538 32H42.4349C42.4349 37.763 37.7631 42.4348 32.0002 42.4348C26.2372 42.4348 21.5654 37.763 21.5654 32C21.5654 26.2371 26.2372 21.5653 32.0002 21.5653V19.2464Z" fill="#7130CC"/>
<path fill-rule="evenodd" clip-rule="evenodd" d="M39.1492 32.8756C39.1492 32.8756 37.5616 34.5121 34.7373 36.3339C31.913 38.1557 30.0071 38.8335 30.0071 38.8335C29.1622 39.1988 28.3785 38.7212 28.2645 37.7852C28.2645 37.7852 27.9421 35.9148 27.9421 31.9952C27.9421 28.0756 28.2661 26.1692 28.2661 26.1692C28.3717 25.2335 29.1466 24.7942 29.9802 25.1877C29.9802 25.1877 31.745 25.918 34.7373 27.8481C37.7296 29.7782 39.1181 31.116 39.1181 31.116C39.6654 31.587 39.6754 32.3796 39.1492 32.8756Z" fill="#0C0417"/>
<path fill-rule="evenodd" clip-rule="evenodd" d="M78.0408 34.9945L83.4743 20.4781H79.4367L76.0435 30.8055L72.6502 20.4781H68.6127L74.0462 34.9945H78.0408ZM88.3065 24.1072H84.7199V34.9945H88.3065V24.1072ZM86.481 23.4436C87.6192 23.4436 88.4998 22.6556 88.4998 21.5772C88.4998 20.4781 87.6192 19.6901 86.481 19.6901C85.3427 19.6901 84.4837 20.4781 84.4837 21.5772C84.4837 22.6556 85.3427 23.4436 86.481 23.4436ZM98.3574 29.582C98.3574 27.8607 97.348 26.8861 95.9306 26.8861C94.4702 26.8861 93.5037 27.9852 93.5037 29.582C93.5037 31.1995 94.4917 32.2364 95.9306 32.2364C97.4769 32.2364 98.3574 31.0336 98.3574 29.582ZM98.4863 34.9945V34.1443C98.1641 34.4968 97.0903 35.2641 95.4366 35.2641C92.1937 35.2641 89.9172 32.9 89.9172 29.5612C89.9172 26.181 91.9789 23.8376 95.2433 23.8376C96.9614 23.8376 98.0138 24.6671 98.25 24.9367V20.0011H101.837V34.9945H98.4863ZM114.508 30.453H107.12C107.206 31.4276 108.172 32.2572 109.504 32.2572C110.857 32.2572 111.651 31.4069 111.866 31.0958L114.228 32.8586C113.906 33.5014 112.36 35.2641 109.439 35.2641C105.724 35.2641 103.447 32.7963 103.447 29.582C103.447 26.3884 105.681 23.8376 108.988 23.8376C112.575 23.8376 114.529 26.0566 114.529 29.7686C114.529 29.976 114.529 30.2041 114.508 30.453ZM109.053 26.6372C107.871 26.6372 107.313 27.4875 107.227 28.2548H110.878C110.835 27.3838 110.169 26.6372 109.053 26.6372ZM115.496 29.582C115.496 26.2847 118.137 23.8376 121.616 23.8376C125.246 23.8376 127.801 26.2432 127.801 29.5405C127.801 32.8171 125.181 35.2641 121.616 35.2641C118.03 35.2641 115.496 32.8586 115.496 29.582ZM119.082 29.582C119.082 31.1581 120.156 32.2157 121.616 32.2157C123.098 32.2157 124.215 31.0958 124.215 29.5405C124.215 27.9437 123.077 26.8861 121.616 26.8861C120.134 26.8861 119.082 27.9852 119.082 29.582ZM136.886 35.2641C138.754 35.2641 140.258 34.7457 141.332 34.0406L140.301 30.9299C139.506 31.4484 138.303 31.9461 137.015 31.9461C134.266 31.9461 132.763 29.976 132.763 27.7156C132.763 25.4552 134.266 23.5266 137.015 23.5266C138.303 23.5266 139.442 24.0243 140.236 24.5427L141.267 21.432C140.193 20.727 138.754 20.2085 136.886 20.2085C132.204 20.2085 128.94 23.4643 128.94 27.7156C128.94 31.9876 132.032 35.2641 136.886 35.2641ZM142.448 29.582C142.448 26.2847 145.09 23.8376 148.569 23.8376C152.199 23.8376 154.754 26.2432 154.754 29.5405C154.754 32.8171 152.134 35.2641 148.569 35.2641C144.983 35.2641 142.448 32.8586 142.448 29.582ZM146.035 29.582C146.035 31.1581 147.109 32.2157 148.569 32.2157C150.051 32.2157 151.168 31.0958 151.168 29.5405C151.168 27.9437 150.029 26.8861 148.569 26.8861C147.087 26.8861 146.035 27.9852 146.035 29.582ZM159.93 24.1072H156.344V34.9945H159.93V24.1072ZM158.105 23.4436C159.243 23.4436 160.123 22.6556 160.123 21.5772C160.123 20.4781 159.243 19.6901 158.105 19.6901C156.966 19.6901 156.107 20.4781 156.107 21.5772C156.107 22.6556 156.966 23.4436 158.105 23.4436ZM168.714 34.9945H172.3V28.9598C172.3 26.7409 171.957 23.8376 168.435 23.8376C167.017 23.8376 166.029 24.5842 165.6 25.2271V24.1072H162.099V34.9945H165.686V28.5036C165.686 27.6326 166.244 26.9483 167.232 26.9483C168.091 26.9483 168.714 27.4875 168.714 28.5036V34.9945Z" fill="#1C0937"/>
<path d="M176.251 22.2596H175.304V25.6901H174.232V22.2596H173.285V21.3H176.251V22.2596ZM179.726 25.3326H178.741L177.775 22.8115V25.6901H176.747V21.3H178.139L179.23 24.0783L180.328 21.3H181.72V25.6901H180.691V22.8115L179.726 25.3326Z" fill="#1C0937"/>
<path d="M74.8577 39.4225V45.6797H73.3335V39.4225H74.8577Z" fill="#56486A"/>
<path d="M80.1158 41.4013C80.0029 41.1933 79.8395 41.0358 79.6256 40.9289C79.4176 40.816 79.171 40.7595 78.8858 40.7595C78.3926 40.7595 77.9974 40.9229 77.7003 41.2497C77.4032 41.5706 77.2547 42.0014 77.2547 42.5422C77.2547 43.1186 77.4092 43.5702 77.7182 43.897C78.0331 44.2179 78.4639 44.3783 79.0106 44.3783C79.3849 44.3783 79.6999 44.2832 79.9554 44.0931C80.2169 43.9029 80.407 43.6296 80.5259 43.2731H78.5917V42.15H81.9074V43.5672C81.7945 43.9475 81.6014 44.3011 81.3281 44.6279C81.0607 44.9547 80.719 45.2191 80.303 45.4212C79.8871 45.6232 79.4176 45.7242 78.8947 45.7242C78.2767 45.7242 77.7241 45.5905 77.2368 45.3231C76.7555 45.0498 76.3782 44.6725 76.1048 44.1911C75.8374 43.7098 75.7037 43.1602 75.7037 42.5422C75.7037 41.9242 75.8374 41.3745 76.1048 40.8932C76.3782 40.4059 76.7555 40.0286 77.2368 39.7612C77.7182 39.4879 78.2678 39.3512 78.8858 39.3512C79.6345 39.3512 80.2644 39.5324 80.7754 39.8949C81.2924 40.2574 81.6341 40.7595 81.8005 41.4013H80.1158Z" fill="#56486A"/>
<path d="M88.3492 45.6797H86.8251L84.2759 41.8202V45.6797H82.7517V39.4225H84.2759L86.8251 43.2998V39.4225H88.3492V45.6797Z" fill="#56486A"/>
<path d="M90.9783 39.4225V45.6797H89.4541V39.4225H90.9783Z" fill="#56486A"/>
<path d="M96.584 39.4225V40.6436H94.9262V45.6797H93.402V40.6436H91.7441V39.4225H96.584Z" fill="#56486A"/>
<path d="M98.8732 39.4225V45.6797H97.349V39.4225H98.8732Z" fill="#56486A"/>
<path d="M105.575 45.6797H104.051L101.502 41.8202V45.6797H99.9777V39.4225H101.502L104.051 43.2998V39.4225H105.575V45.6797Z" fill="#56486A"/>
<path d="M110.834 41.4013C110.721 41.1933 110.557 41.0358 110.343 40.9289C110.136 40.816 109.889 40.7595 109.604 40.7595C109.11 40.7595 108.715 40.9229 108.418 41.2497C108.121 41.5706 107.973 42.0014 107.973 42.5422C107.973 43.1186 108.127 43.5702 108.436 43.897C108.751 44.2179 109.182 44.3783 109.728 44.3783C110.103 44.3783 110.418 44.2832 110.673 44.0931C110.935 43.9029 111.125 43.6296 111.244 43.2731H109.31V42.15H112.625V43.5672C112.512 43.9475 112.319 44.3011 112.046 44.6279C111.779 44.9547 111.437 45.2191 111.021 45.4212C110.605 45.6232 110.136 45.7242 109.613 45.7242C108.995 45.7242 108.442 45.5905 107.955 45.3231C107.473 45.0498 107.096 44.6725 106.823 44.1911C106.555 43.7098 106.422 43.1602 106.422 42.5422C106.422 41.9242 106.555 41.3745 106.823 40.8932C107.096 40.4059 107.473 40.0286 107.955 39.7612C108.436 39.4879 108.986 39.3512 109.604 39.3512C110.352 39.3512 110.982 39.5324 111.493 39.8949C112.01 40.2574 112.352 40.7595 112.518 41.4013H110.834Z" fill="#56486A"/>
<path d="M116.883 39.4225V45.6797H115.358V39.4225H116.883Z" fill="#56486A"/>
<path d="M123.585 45.6797H122.061L119.511 41.8202V45.6797H117.987V39.4225H119.511L122.061 43.2998V39.4225H123.585V45.6797Z" fill="#56486A"/>
<path d="M130.287 45.6797H128.763L126.214 41.8202V45.6797H124.69V39.4225H126.214L128.763 43.2998V39.4225H130.287V45.6797Z" fill="#56486A"/>
<path d="M134.351 45.7421C133.763 45.7421 133.222 45.6054 132.729 45.332C132.242 45.0587 131.852 44.6784 131.561 44.1911C131.276 43.6979 131.133 43.1453 131.133 42.5333C131.133 41.9212 131.276 41.3716 131.561 40.8843C131.852 40.397 132.242 40.0167 132.729 39.7434C133.222 39.47 133.763 39.3334 134.351 39.3334C134.939 39.3334 135.477 39.47 135.964 39.7434C136.458 40.0167 136.844 40.397 137.123 40.8843C137.408 41.3716 137.551 41.9212 137.551 42.5333C137.551 43.1453 137.408 43.6979 137.123 44.1911C136.838 44.6784 136.452 45.0587 135.964 45.332C135.477 45.6054 134.939 45.7421 134.351 45.7421ZM134.351 44.3516C134.85 44.3516 135.248 44.1852 135.546 43.8524C135.849 43.5197 136 43.0799 136 42.5333C136 41.9806 135.849 41.5409 135.546 41.2141C135.248 40.8813 134.85 40.7149 134.351 40.7149C133.846 40.7149 133.442 40.8783 133.139 41.2052C132.842 41.532 132.693 41.9747 132.693 42.5333C132.693 43.0859 132.842 43.5286 133.139 43.8613C133.442 44.1882 133.846 44.3516 134.351 44.3516Z" fill="#56486A"/>
<path d="M144.273 39.4225L142.053 45.6797H140.146L137.927 39.4225H139.549L141.1 44.1466L142.66 39.4225H144.273Z" fill="#56486A"/>
<path d="M148.805 44.5744H146.47L146.095 45.6797H144.5L146.764 39.4225H148.529L150.793 45.6797H149.179L148.805 44.5744ZM148.413 43.3978L147.637 41.1071L146.871 43.3978H148.413Z" fill="#56486A"/>
<path d="M155.983 39.4225V40.6436H154.325V45.6797H152.801V40.6436H151.143V39.4225H155.983Z" fill="#56486A"/>
<path d="M158.272 39.4225V45.6797H156.748V39.4225H158.272Z" fill="#56486A"/>
<path d="M162.336 45.7421C161.748 45.7421 161.207 45.6054 160.714 45.332C160.226 45.0587 159.837 44.6784 159.546 44.1911C159.261 43.6979 159.118 43.1453 159.118 42.5333C159.118 41.9212 159.261 41.3716 159.546 40.8843C159.837 40.397 160.226 40.0167 160.714 39.7434C161.207 39.47 161.748 39.3334 162.336 39.3334C162.924 39.3334 163.462 39.47 163.949 39.7434C164.442 40.0167 164.829 40.397 165.108 40.8843C165.393 41.3716 165.536 41.9212 165.536 42.5333C165.536 43.1453 165.393 43.6979 165.108 44.1911C164.823 44.6784 164.436 45.0587 163.949 45.332C163.462 45.6054 162.924 45.7421 162.336 45.7421ZM162.336 44.3516C162.835 44.3516 163.233 44.1852 163.53 43.8524C163.833 43.5197 163.985 43.0799 163.985 42.5333C163.985 41.9806 163.833 41.5409 163.53 41.2141C163.233 40.8813 162.835 40.7149 162.336 40.7149C161.831 40.7149 161.427 40.8783 161.124 41.2052C160.827 41.532 160.678 41.9747 160.678 42.5333C160.678 43.0859 160.827 43.5286 161.124 43.8613C161.427 44.1882 161.831 44.3516 162.336 44.3516Z" fill="#56486A"/>
<path d="M171.981 45.6797H170.457L167.908 41.8202V45.6797H166.384V39.4225H167.908L170.457 43.2998V39.4225H171.981V45.6797Z" fill="#56486A"/>
</svg>
