<svg width="235" height="45" xmlns="http://www.w3.org/2000/svg">
    <g fill="none" fill-rule="evenodd">
        <path d="M169.403 18.298c3.064 0 4.947 2.21 4.947 5.343v.107a4.667 4.667 0 01-.02.375h-8.352c.02 2.33 1.582 3.736 3.745 3.736 1.763 0 2.744-.924 3.245-1.627l1.042.763c-.581.985-1.943 2.27-4.307 2.27-3.164 0-5.348-2.23-5.348-5.443 0-3.335 2.284-5.524 5.048-5.524zm33.95 0c3.145 0 5.428 2.35 5.428 5.484 0 3.133-2.323 5.483-5.448 5.483-3.124 0-5.428-2.31-5.428-5.483 0-3.154 2.344-5.484 5.448-5.484zm-78.446.64c3.318 0 5.655 2.167 5.655 5.136 0 2.95-2.396 5.155-5.655 5.155-3.278 0-5.595-2.167-5.595-5.117 0-2.97 2.415-5.173 5.595-5.173zm-10.68-3.268c1.708 0 3.023.467 4.005 1.102l-.942 2.802c-.727-.467-1.767-.916-2.945-.916-2.513 0-3.887 1.737-3.887 3.773 0 2.035 1.374 3.81 3.887 3.81 1.178 0 2.277-.449 3.004-.916l.942 2.802c-.982.635-2.356 1.102-4.064 1.102-4.437 0-7.264-2.951-7.264-6.798 0-3.829 2.984-6.76 7.264-6.76zm-13.959 3.269c3.318 0 5.654 2.166 5.654 5.135 0 2.95-2.395 5.155-5.654 5.155-3.279 0-5.595-2.167-5.595-5.117 0-2.97 2.415-5.173 5.595-5.173zm-11.544 0c3.279 0 5.065 1.998 5.065 5.34 0 .187 0 .393-.02.617h-6.753c.078.878.962 1.625 2.18 1.625 1.236 0 1.962-.766 2.159-1.046l2.16 1.587c-.295.58-1.709 2.167-4.379 2.167-3.396 0-5.477-2.223-5.477-5.117 0-2.876 2.042-5.173 5.065-5.173zm-6.538-3.455v13.502h-3.062v-.766c-.295.318-1.277 1.009-2.788 1.009-2.965 0-5.046-2.13-5.046-5.136 0-3.044 1.885-5.154 4.869-5.154 1.57 0 2.533.747 2.749.99v-4.445h3.278zm95.87.885v2.19h2.283v1.346h-2.283v5.383c0 1.949.56 2.41 1.922 2.41.2 0 .441-.02.441-.02v1.407s-.42.06-.961.06c-2.083 0-2.985-1.366-2.985-3.716v-5.524h-1.222v-1.346h1.222v-2.19h1.583zm-25.298-1.426l7.732 11.49v-11.49h1.602v14.061h-1.602l-7.732-11.45v11.45h-1.622v-14.06h1.622zm62.713 3.355v1.587c-2.383 0-3.084 1.888-3.084 4.118v5.001h-1.583V18.56h1.563v1.748c.36-1.045 1.522-2.01 3.104-2.01zm3.345-3.817v8.557l4.246-4.479h2.003l-4.486 4.68 4.747 5.765h-2.043l-4.467-5.564v5.564h-1.582V14.481h1.582zm-36.053 4.078l2.724 8.597.01-.03.007-.02.004-.013.011-.034.054-.164.027-.08c.216-.66.848-2.593 2.69-8.256h1.563c2.153 6.663 2.641 8.162 2.752 8.5l.01.033a6.1 6.1 0 00.021.062l2.745-8.595h1.723l-3.525 10.445h-1.743l-2.764-8.296-2.784 8.296h-1.743L181.04 18.56h1.723zm-39.695.38c3.22 0 3.534 2.614 3.534 4.612v5.435h-3.28V23.14c0-.915-.568-1.4-1.354-1.4-.903 0-1.413.616-1.413 1.4v5.846h-3.279V19.18h3.2v1.009c.393-.58 1.296-1.251 2.592-1.251zm-7.775.242v9.805h-3.279V19.18h3.279zm-65.475 0v9.805h-3.28V19.18h3.28zm-14.313-3.268l3.102 9.3 3.102-9.3H65.4l-4.967 13.073h-3.652l-4.967-13.073h3.691zm147.828 3.831c-2.243 0-3.806 1.748-3.806 4.038 0 2.35 1.583 4.037 3.806 4.037 2.243 0 3.846-1.707 3.846-4.037 0-2.31-1.603-4.038-3.846-4.038zm-126.546 1.94c-1.335 0-2.218.99-2.218 2.428 0 1.456.903 2.39 2.218 2.39 1.414 0 2.219-1.083 2.219-2.39 0-1.55-.923-2.428-2.219-2.428zm23.481 0c-1.355 0-2.317.99-2.317 2.428 0 1.419.982 2.371 2.317 2.371 1.355 0 2.376-1.008 2.376-2.409 0-1.438-1.04-2.39-2.376-2.39zm24.64 0c-1.355 0-2.317.99-2.317 2.428 0 1.419.981 2.371 2.316 2.371 1.355 0 2.376-1.008 2.376-2.409 0-1.438-1.04-2.39-2.376-2.39zm44.495-2.02c-1.703 0-3.225 1.305-3.345 3.274h6.67c-.1-2.17-1.603-3.274-3.325-3.274zm-80.62 1.796c-1.08 0-1.59.765-1.669 1.456h3.338c-.04-.784-.648-1.456-1.67-1.456zm44.841-6.256c1.04 0 1.846.71 1.846 1.699 0 .971-.805 1.68-1.846 1.68-1.04 0-1.826-.709-1.826-1.68 0-.99.786-1.7 1.826-1.7zm-65.475 0c1.04 0 1.845.71 1.845 1.699 0 .971-.805 1.68-1.845 1.68s-1.826-.709-1.826-1.68c0-.99.785-1.7 1.826-1.7zm162.695-.952l.998 2.502 1.003-2.502h1.273v3.953h-.94v-2.592l-.883 2.27h-.9l-.883-2.27v2.592h-.94v-3.953h1.272zm-1.726 0v.864h-.865v3.09h-.98v-3.09h-.866v-.864h2.711z" fill="#1C0937" fill-rule="nonzero"/>
        <path d="M22.61 43.7c12.118 0 21.94-9.677 21.94-21.613C44.55 10.15 34.729.474 22.61.474 10.495.474.67 10.15.67 22.087c0 11.936 9.824 21.612 21.94 21.612zm0-1.88c-11.063 0-20.031-8.835-20.031-19.733 0-10.899 8.968-19.734 20.032-19.734 11.063 0 20.032 8.835 20.032 19.734 0 10.898-8.969 19.733-20.032 19.733z" fill="#FF8A3C" fill-rule="nonzero"/>
        <path d="M38.8 13.927a18.275 18.275 0 011.88 8.103c0 10.01-7.993 18.125-17.854 18.125-1.066 0-2.121-.095-3.157-.283l.33-1.878c.927.168 1.872.253 2.827.253 8.823 0 15.975-7.26 15.975-16.217 0-2.552-.58-5.018-1.68-7.249zM22.61 4.233v1.879c-6.646 0-12.544 3.975-15.016 9.934l-1.766-.712C8.59 8.675 15.183 4.233 22.61 4.233z" fill="#FF5D50" fill-rule="nonzero"/>
        <path d="M28.22 9.116c5.232 2.198 8.7 7.27 8.7 12.97 0 6.857-5.005 12.686-11.78 13.876l-.336-1.85c5.87-1.031 10.208-6.083 10.208-12.025 0-4.941-3.006-9.337-7.54-11.242zM22.61 7.99v1.88c-6.848 0-12.4 5.469-12.4 12.216 0 4.198 2.165 8.03 5.679 10.267l-1.036 1.579c-4.051-2.58-6.55-7.004-6.55-11.846 0-7.785 6.405-14.096 14.308-14.096z" fill="#F53568" fill-rule="nonzero"/>
        <path d="M22.61 11.75c-5.794 0-10.492 4.628-10.492 10.337 0 5.708 4.698 10.336 10.493 10.336s10.493-4.628 10.493-10.336h-1.908c0 4.67-3.844 8.457-8.585 8.457-4.742 0-8.585-3.787-8.585-8.457 0-4.671 3.843-8.458 8.585-8.458V11.75z" fill="#7130CC" fill-rule="nonzero"/>
        <path d="M28.493 22.796s-1.307 1.327-3.63 2.803c-2.324 1.477-3.892 2.026-3.892 2.026-.695.296-1.34-.09-1.434-.85 0 0-.265-1.515-.265-4.692 0-3.177.267-4.722.267-4.722.086-.758.724-1.115 1.41-.796 0 0 1.452.592 3.914 2.157 2.462 1.564 3.604 2.648 3.604 2.648.45.382.459 1.024.026 1.426z" fill="#0C0417"/>
    </g>
</svg>
