<svg width="234" height="44" viewBox="0 0 234 44" xmlns="http://www.w3.org/2000/svg"><g fill="none" fill-rule="evenodd"><path d="M22.709 43.913c12.069 0 21.852-9.81 21.852-21.913C44.561 9.898 34.778.087 22.71.087 10.639.087.856 9.897.856 22c0 12.102 9.784 21.913 21.853 21.913zm0-1.905C11.689 42.008 2.756 33.05 2.756 22c0-11.05 8.933-20.008 19.953-20.008S42.66 10.95 42.66 22c0 11.05-8.933 20.008-19.952 20.008z" fill="#FF8A3C" fill-rule="nonzero"/><path d="M38.989 13.962a17.94 17.94 0 011.905 8.07c0 9.97-8.104 18.053-18.102 18.053-1.081 0-2.151-.095-3.2-.282l.334-1.87c.94.167 1.897.251 2.866.251 8.945 0 16.197-7.231 16.197-16.152 0-2.542-.589-4.998-1.704-7.22zM22.709 3.898v1.905c-6.62 0-12.495 4.031-14.958 10.072l-1.759-.721C8.745 8.403 15.31 3.898 22.71 3.898z" fill="#FF5D50"/><path d="M28.296 8.849A14.294 14.294 0 0136.96 22c0 6.952-4.984 12.861-11.733 14.069l-.333-1.876C30.74 33.147 35.06 28.025 35.06 22c0-5.01-2.993-9.466-7.51-11.398zm-5.587-1.14v1.905c-6.822 0-12.352 5.546-12.352 12.386 0 4.256 2.157 8.142 5.657 10.41l-1.032 1.6A14.288 14.288 0 018.457 22c0-7.893 6.38-14.291 14.252-14.291z" fill="#F53568"/><path d="M22.709 11.52c-5.772 0-10.451 4.692-10.451 10.48s4.679 10.48 10.45 10.48c5.773 0 10.452-4.692 10.452-10.48h-1.9c0 4.736-3.829 8.575-8.551 8.575-4.723 0-8.551-3.84-8.551-8.575 0-4.736 3.828-8.575 8.55-8.575V11.52z" fill="#7130CC"/><path d="M28.567 22.72s-1.3 1.344-3.615 2.841c-2.315 1.497-3.876 2.054-3.876 2.054-.693.3-1.335-.092-1.428-.861 0 0-.265-1.537-.265-4.758 0-3.22.266-4.787.266-4.787.086-.77.721-1.13 1.405-.807 0 0 1.446.6 3.898 2.186 2.452 1.586 3.59 2.686 3.59 2.686a.957.957 0 01.025 1.446z" fill="#FFF"/><path d="M169.306 18.188c3.062 0 4.942 2.24 4.942 5.416 0 .06 0 .285-.02.488h-8.343c.02 2.362 1.58 3.787 3.741 3.787 1.761 0 2.742-.936 3.242-1.649l1.04.774c-.58.997-1.94 2.3-4.302 2.3-3.16 0-5.342-2.26-5.342-5.517 0-3.38 2.281-5.6 5.042-5.6zm33.914 0c3.141 0 5.422 2.382 5.422 5.558 0 3.176-2.32 5.558-5.442 5.558-3.121 0-5.422-2.341-5.422-5.558 0-3.196 2.34-5.558 5.442-5.558zm-78.36.65c3.314 0 5.647 2.195 5.647 5.205 0 2.99-2.392 5.224-5.648 5.224-3.275 0-5.59-2.196-5.59-5.186 0-3.01 2.413-5.244 5.59-5.244zm-10.67-3.313c1.707 0 3.02.473 4.001 1.116l-.941 2.84c-.726-.473-1.765-.928-2.942-.928-2.51 0-3.883 1.76-3.883 3.824 0 2.063 1.373 3.861 3.883 3.861 1.177 0 2.275-.454 3-.927l.942 2.84c-.98.643-2.353 1.116-4.06 1.116-4.432 0-7.256-2.99-7.256-6.89 0-3.88 2.981-6.852 7.257-6.852zm-13.943 3.312c3.314 0 5.648 2.196 5.648 5.206 0 2.99-2.393 5.224-5.648 5.224-3.275 0-5.59-2.196-5.59-5.186 0-3.01 2.413-5.244 5.59-5.244zm-11.532 0c3.275 0 5.06 2.026 5.06 5.414 0 .19 0 .397-.02.625H87.01c.078.89.961 1.646 2.177 1.646 1.235 0 1.961-.776 2.157-1.06l2.157 1.61c-.294.586-1.706 2.195-4.373 2.195-3.393 0-5.472-2.252-5.472-5.186 0-2.915 2.04-5.244 5.06-5.244zm-6.53-3.502v13.686h-3.06v-.776c-.294.322-1.275 1.022-2.785 1.022-2.961 0-5.04-2.158-5.04-5.205 0-3.086 1.883-5.225 4.864-5.225 1.569 0 2.53.757 2.745 1.003v-4.505h3.276zm95.765.898v2.22h2.28v1.364h-2.28v5.456c0 1.975.56 2.443 1.92 2.443.2 0 .44-.02.44-.02v1.425s-.42.061-.96.061c-2.08 0-2.98-1.384-2.98-3.766v-5.6h-1.221v-1.364h1.22v-2.219h1.58zm-25.27-1.445l7.723 11.646V14.788h1.6V29.04h-1.6l-7.723-11.606V29.04h-1.62V14.788h1.62zm29.972 3.664l2.72 8.715s.02-.041 2.802-8.715h1.56c2.597 8.156 2.77 8.679 2.78 8.712l.001.002 2.742-8.714h1.72l-3.521 10.588h-1.74l-2.762-8.409-2.781 8.409h-1.74l-3.502-10.588h1.72zm32.673-.264v1.608c-2.381 0-3.082 1.914-3.082 4.174v5.07h-1.58V18.452h1.56v1.772c.36-1.059 1.521-2.036 3.102-2.036zm3.341-3.869v8.674l4.242-4.54h2l-4.481 4.743 4.742 5.844h-2.041l-4.462-5.64v5.64h-1.58V14.32h1.58zM143 18.837c3.216 0 3.53 2.65 3.53 4.676v5.508h-3.275v-5.925c0-.927-.569-1.42-1.353-1.42-.903 0-1.412.625-1.412 1.42v5.925h-3.276v-9.938h3.197v1.022c.392-.586 1.294-1.268 2.589-1.268zm-7.766.246v9.938h-3.275v-9.938h3.275zm-65.405 0v9.938h-3.275v-9.938h3.275zm-14.296-3.312l3.098 9.426 3.099-9.426h3.687l-4.962 13.25h-3.648l-4.961-13.25h3.687zM203.2 19.654c-2.241 0-3.802 1.771-3.802 4.092 0 2.382 1.58 4.092 3.802 4.092 2.24 0 3.841-1.73 3.841-4.092 0-2.341-1.6-4.092-3.841-4.092zM76.79 21.62c-1.333 0-2.216 1.003-2.216 2.46 0 1.477.902 2.423 2.216 2.423 1.412 0 2.217-1.097 2.217-2.422 0-1.572-.922-2.461-2.217-2.461zm23.456 0c-1.353 0-2.314 1.003-2.314 2.46 0 1.44.98 2.405 2.314 2.405 1.353 0 2.373-1.023 2.373-2.442 0-1.458-1.04-2.423-2.373-2.423zm24.612 0c-1.353 0-2.314 1.003-2.314 2.46 0 1.44.98 2.405 2.314 2.405 1.353 0 2.373-1.023 2.373-2.442 0-1.458-1.04-2.423-2.373-2.423zm44.447-2.048c-1.7 0-3.22 1.324-3.341 3.319h6.663c-.1-2.199-1.601-3.319-3.322-3.319zm-80.532 1.82c-1.079 0-1.588.777-1.667 1.477h3.334c-.04-.795-.647-1.476-1.667-1.476zm44.793-6.34c1.04 0 1.843.719 1.843 1.722 0 .984-.804 1.704-1.843 1.704-1.04 0-1.824-.72-1.824-1.704 0-1.003.784-1.723 1.824-1.723zm-65.405 0c1.04 0 1.844.719 1.844 1.722 0 .984-.804 1.704-1.844 1.704-1.039 0-1.823-.72-1.823-1.704 0-1.003.784-1.723 1.823-1.723zm162.519-.965l.996 2.536 1.003-2.536h1.27v4.007h-.938v-2.627l-.882 2.3h-.9l-.881-2.3v2.627h-.94v-4.007h1.272zm-1.724 0v.876h-.865v3.131h-.979v-3.131h-.865v-.876h2.709z" fill="#FFF" fill-rule="nonzero"/></g></svg>