<svg width="250" height="76" viewBox="0 0 250 76" fill="none" xmlns="http://www.w3.org/2000/svg">
<path d="M38.1323 75.5C58.9041 75.5 75.7431 58.7107 75.7431 38C75.7431 17.2893 58.9041 0.5 38.1323 0.5C17.3604 0.5 0.521484 17.2893 0.521484 38C0.521484 58.7107 17.3604 75.5 38.1323 75.5ZM38.1323 72.2391C19.1667 72.2391 3.79199 56.9097 3.79199 38C3.79199 19.0902 19.1667 3.76087 38.1323 3.76087C57.0979 3.76087 72.4726 19.0902 72.4726 38C72.4726 56.9097 57.0979 72.2391 38.1323 72.2391Z" fill="#FF8A3C"/>
<path d="M66.1097 24.1821C68.2504 28.4458 69.3806 33.16 69.3806 38.0319C69.3806 55.1407 55.4701 69.0102 38.3108 69.0102C36.4547 69.0102 34.6186 68.8477 32.8173 68.5272L33.3919 65.317C35.0038 65.6038 36.6476 65.7493 38.3108 65.7493C53.6639 65.7493 66.1101 53.3398 66.1101 38.0319C66.1101 33.6696 65.0996 29.4548 63.1852 25.6418L66.1097 24.1821ZM38.1319 7.02173V10.2826C26.738 10.2826 16.6275 17.1801 12.3886 27.5183L9.36133 26.2843C14.0986 14.7305 25.3984 7.02173 38.1319 7.02173Z" fill="#FF5D50"/>
<path d="M47.7479 15.4946C56.7171 19.3087 62.6611 28.109 62.6611 38C62.6611 49.8966 54.083 60.0095 42.4668 62.0756L41.8925 58.8654C51.9551 57.0756 59.3906 48.3098 59.3906 38C59.3906 29.427 54.239 21.8 46.4648 18.494L47.7479 15.4946ZM38.1323 13.5435V16.8043C26.3917 16.8043 16.874 26.2939 16.874 38C16.874 45.2839 20.5861 51.9335 26.6095 55.8151L24.8342 58.5537C17.8881 54.0775 13.6035 46.4023 13.6035 38C13.6035 24.493 24.5854 13.5435 38.1323 13.5435Z" fill="#F53568"/>
<path d="M38.1314 20.0652C28.197 20.0652 20.1436 28.0949 20.1436 38C20.1436 47.9051 28.197 55.9348 38.1314 55.9348C48.0657 55.9348 56.1191 47.9051 56.1191 38H52.8486C52.8486 46.1042 46.2595 52.6739 38.1314 52.6739C30.0033 52.6739 23.4141 46.1042 23.4141 38C23.4141 29.8959 30.0033 23.3261 38.1314 23.3261V20.0652Z" fill="#7130CC"/>
<path fill-rule="evenodd" clip-rule="evenodd" d="M48.2147 39.2312C48.2147 39.2312 45.9755 41.5326 41.9921 44.0945C38.0087 46.6563 35.3206 47.6096 35.3206 47.6096C34.129 48.1233 33.0236 47.4516 32.8629 46.1354C32.8629 46.1354 32.4082 43.5051 32.4082 37.9932C32.4082 32.4813 32.8651 29.8004 32.8651 29.8004C33.0141 28.4845 34.107 27.8668 35.2827 28.4201C35.2827 28.4201 37.7717 29.4471 41.9921 32.1613C46.2125 34.8755 48.1708 36.7567 48.1708 36.7567C48.9427 37.4191 48.9568 38.5338 48.2147 39.2312Z" fill="white"/>
<path fill-rule="evenodd" clip-rule="evenodd" d="M103.069 42.2111L110.732 21.7974H105.038L100.252 36.3203L95.4661 21.7974H89.7715L97.4349 42.2111H103.069ZM117.548 26.9008H112.489V42.2111H117.548V26.9008ZM114.973 25.9676C116.578 25.9676 117.82 24.8594 117.82 23.343C117.82 21.7974 116.578 20.6892 114.973 20.6892C113.368 20.6892 112.156 21.7974 112.156 23.343C112.156 24.8594 113.368 25.9676 114.973 25.9676ZM131.724 34.5997C131.724 32.1792 130.3 30.8086 128.301 30.8086C126.241 30.8086 124.878 32.3542 124.878 34.5997C124.878 36.8744 126.271 38.3325 128.301 38.3325C130.482 38.3325 131.724 36.6411 131.724 34.5997ZM131.905 42.2111V41.0155C131.451 41.5112 129.936 42.5902 127.604 42.5902C123.03 42.5902 119.819 39.2657 119.819 34.5706C119.819 29.8171 122.727 26.5217 127.331 26.5217C129.755 26.5217 131.239 27.6882 131.572 28.0673V21.1266H136.631V42.2111H131.905ZM154.502 35.8245H144.082C144.203 37.1952 145.566 38.3617 147.444 38.3617C149.353 38.3617 150.473 37.166 150.776 36.7286L154.108 39.2074C153.654 40.1114 151.473 42.5902 147.353 42.5902C142.113 42.5902 138.902 39.1199 138.902 34.5997C138.902 30.1087 142.053 26.5217 146.717 26.5217C151.776 26.5217 154.532 29.6421 154.532 34.8622C154.532 35.1538 154.532 35.4746 154.502 35.8245ZM146.808 30.4586C145.142 30.4586 144.355 31.6543 144.234 32.7333H149.383C149.322 31.5085 148.383 30.4586 146.808 30.4586ZM155.895 34.5997C155.895 29.9629 159.621 26.5217 164.528 26.5217C169.647 26.5217 173.252 29.9046 173.252 34.5414C173.252 39.1491 169.556 42.5902 164.528 42.5902C159.47 42.5902 155.895 39.2074 155.895 34.5997ZM160.954 34.5997C160.954 36.8161 162.468 38.3034 164.528 38.3034C166.618 38.3034 168.193 36.7286 168.193 34.5414C168.193 32.2959 166.588 30.8086 164.528 30.8086C162.438 30.8086 160.954 32.3542 160.954 34.5997ZM186.064 42.5902C188.7 42.5902 190.82 41.8612 192.335 40.8697L190.881 36.4953C189.76 37.2243 188.064 37.9242 186.246 37.9242C182.369 37.9242 180.249 35.1538 180.249 31.9751C180.249 28.7964 182.369 26.0843 186.246 26.0843C188.064 26.0843 189.669 26.7842 190.79 27.5132L192.244 23.1389C190.729 22.1473 188.7 21.4183 186.064 21.4183C179.461 21.4183 174.857 25.9968 174.857 31.9751C174.857 37.9826 179.219 42.5902 186.064 42.5902ZM193.91 34.5997C193.91 29.9629 197.635 26.5217 202.542 26.5217C207.661 26.5217 211.266 29.9046 211.266 34.5414C211.266 39.1491 207.571 42.5902 202.542 42.5902C197.484 42.5902 193.91 39.2074 193.91 34.5997ZM198.968 34.5997C198.968 36.8161 200.483 38.3034 202.542 38.3034C204.632 38.3034 206.208 36.7286 206.208 34.5414C206.208 32.2959 204.602 30.8086 202.542 30.8086C200.452 30.8086 198.968 32.3542 198.968 34.5997ZM218.566 26.9008H213.507V42.2111H218.566V26.9008ZM215.991 25.9676C217.597 25.9676 218.839 24.8594 218.839 23.343C218.839 21.7974 217.597 20.6892 215.991 20.6892C214.386 20.6892 213.174 21.7974 213.174 23.343C213.174 24.8594 214.386 25.9676 215.991 25.9676ZM230.955 42.2111H236.013V33.7248C236.013 30.6045 235.529 26.5217 230.561 26.5217C228.562 26.5217 227.168 27.5716 226.563 28.4756V26.9008H221.625V42.2111H226.684V33.0833C226.684 31.8584 227.471 30.8961 228.865 30.8961C230.076 30.8961 230.955 31.6543 230.955 33.0833V42.2111Z" fill="white"/>
<path d="M98.5794 47.5003V56.2995H96.4297V47.5003H98.5794Z" fill="#F2EAFF"/>
<path d="M105.996 50.283C105.836 49.9905 105.606 49.7691 105.304 49.6186C105.011 49.4599 104.663 49.3805 104.261 49.3805C103.565 49.3805 103.008 49.6103 102.589 50.0699C102.17 50.5211 101.96 51.127 101.96 51.8874C101.96 52.6979 102.178 53.333 102.614 53.7926C103.058 54.2438 103.666 54.4694 104.437 54.4694C104.965 54.4694 105.409 54.3357 105.769 54.0683C106.138 53.8009 106.406 53.4166 106.574 52.9152H103.846V51.3359H108.522V53.3288C108.363 53.8636 108.091 54.3608 107.705 54.8204C107.328 55.28 106.846 55.6519 106.26 55.936C105.673 56.2201 105.011 56.3621 104.273 56.3621C103.402 56.3621 102.622 56.1741 101.935 55.7981C101.256 55.4137 100.724 54.8831 100.338 54.2062C99.9613 53.5294 99.7727 52.7564 99.7727 51.8874C99.7727 51.0183 99.9613 50.2454 100.338 49.5685C100.724 48.8833 101.256 48.3527 101.935 47.9766C102.614 47.5923 103.389 47.4001 104.261 47.4001C105.317 47.4001 106.205 47.6549 106.926 48.1647C107.655 48.6744 108.137 49.3805 108.372 50.283H105.996Z" fill="#F2EAFF"/>
<path d="M117.608 56.2995H115.458L111.863 50.8721V56.2995H109.713V47.5003H111.863L115.458 52.9528V47.5003H117.608V56.2995Z" fill="#F2EAFF"/>
<path d="M121.316 47.5003V56.2995H119.166V47.5003H121.316Z" fill="#F2EAFF"/>
<path d="M129.222 47.5003V49.2176H126.884V56.2995H124.734V49.2176H122.396V47.5003H129.222Z" fill="#F2EAFF"/>
<path d="M132.451 47.5003V56.2995H130.301V47.5003H132.451Z" fill="#F2EAFF"/>
<path d="M141.904 56.2995H139.754L136.159 50.8721V56.2995H134.009V47.5003H136.159L139.754 52.9528V47.5003H141.904V56.2995Z" fill="#F2EAFF"/>
<path d="M149.32 50.283C149.161 49.9905 148.93 49.7691 148.629 49.6186C148.335 49.4599 147.988 49.3805 147.585 49.3805C146.89 49.3805 146.332 49.6103 145.913 50.0699C145.494 50.5211 145.285 51.127 145.285 51.8874C145.285 52.6979 145.503 53.333 145.938 53.7926C146.383 54.2438 146.99 54.4694 147.761 54.4694C148.289 54.4694 148.734 54.3357 149.094 54.0683C149.463 53.8009 149.731 53.4166 149.898 52.9152H147.17V51.3359H151.847V53.3288C151.688 53.8636 151.415 54.3608 151.03 54.8204C150.653 55.28 150.171 55.6519 149.584 55.936C148.998 56.2201 148.335 56.3621 147.598 56.3621C146.726 56.3621 145.947 56.1741 145.26 55.7981C144.581 55.4137 144.049 54.8831 143.663 54.2062C143.286 53.5294 143.097 52.7564 143.097 51.8874C143.097 51.0183 143.286 50.2454 143.663 49.5685C144.049 48.8833 144.581 48.3527 145.26 47.9766C145.938 47.5923 146.714 47.4001 147.585 47.4001C148.641 47.4001 149.53 47.6549 150.25 48.1647C150.98 48.6744 151.462 49.3805 151.696 50.283H149.32Z" fill="#F2EAFF"/>
<path d="M157.852 47.5003V56.2995H155.702V47.5003H157.852Z" fill="#F2EAFF"/>
<path d="M167.304 56.2995H165.155L161.559 50.8721V56.2995H159.409V47.5003H161.559L165.155 52.9528V47.5003H167.304V56.2995Z" fill="#F2EAFF"/>
<path d="M176.757 56.2995H174.608L171.012 50.8721V56.2995H168.863V47.5003H171.012L174.608 52.9528V47.5003H176.757V56.2995Z" fill="#F2EAFF"/>
<path d="M182.489 56.3872C181.66 56.3872 180.897 56.195 180.201 55.8106C179.514 55.4262 178.965 54.8914 178.554 54.2062C178.152 53.5127 177.951 52.7355 177.951 51.8748C177.951 51.0141 178.152 50.2412 178.554 49.556C178.965 48.8708 179.514 48.336 180.201 47.9516C180.897 47.5672 181.66 47.375 182.489 47.375C183.319 47.375 184.077 47.5672 184.765 47.9516C185.46 48.336 186.005 48.8708 186.399 49.556C186.801 50.2412 187.002 51.0141 187.002 51.8748C187.002 52.7355 186.801 53.5127 186.399 54.2062C185.997 54.8914 185.452 55.4262 184.765 55.8106C184.077 56.195 183.319 56.3872 182.489 56.3872ZM182.489 54.4318C183.193 54.4318 183.755 54.1979 184.174 53.7299C184.601 53.262 184.815 52.6436 184.815 51.8748C184.815 51.0977 184.601 50.4793 184.174 50.0197C183.755 49.5518 183.193 49.3178 182.489 49.3178C181.777 49.3178 181.207 49.5476 180.78 50.0072C180.361 50.4668 180.151 51.0893 180.151 51.8748C180.151 52.652 180.361 53.2745 180.78 53.7425C181.207 54.202 181.777 54.4318 182.489 54.4318Z" fill="#F2EAFF"/>
<path d="M196.483 47.5003L193.353 56.2995H190.662L187.532 47.5003H189.82L192.008 54.1436L194.208 47.5003H196.483Z" fill="#F2EAFF"/>
<path d="M202.875 54.7452H199.581L199.053 56.2995H196.803L199.996 47.5003H202.485L205.679 56.2995H203.403L202.875 54.7452ZM202.322 53.0907L201.228 49.8693L200.147 53.0907H202.322Z" fill="#F2EAFF"/>
<path d="M212.999 47.5003V49.2176H210.661V56.2995H208.511V49.2176H206.173V47.5003H212.999Z" fill="#F2EAFF"/>
<path d="M216.227 47.5003V56.2995H214.078V47.5003H216.227Z" fill="#F2EAFF"/>
<path d="M221.959 56.3872C221.129 56.3872 220.367 56.195 219.671 55.8106C218.984 55.4262 218.435 54.8914 218.024 54.2062C217.622 53.5127 217.421 52.7355 217.421 51.8748C217.421 51.0141 217.622 50.2412 218.024 49.556C218.435 48.8708 218.984 48.336 219.671 47.9516C220.367 47.5672 221.129 47.375 221.959 47.375C222.789 47.375 223.547 47.5672 224.234 47.9516C224.93 48.336 225.475 48.8708 225.869 49.556C226.271 50.2412 226.472 51.0141 226.472 51.8748C226.472 52.7355 226.271 53.5127 225.869 54.2062C225.466 54.8914 224.922 55.4262 224.234 55.8106C223.547 56.195 222.789 56.3872 221.959 56.3872ZM221.959 54.4318C222.663 54.4318 223.225 54.1979 223.644 53.7299C224.071 53.262 224.285 52.6436 224.285 51.8748C224.285 51.0977 224.071 50.4793 223.644 50.0197C223.225 49.5518 222.663 49.3178 221.959 49.3178C221.247 49.3178 220.677 49.5476 220.249 50.0072C219.83 50.4668 219.621 51.0893 219.621 51.8748C219.621 52.652 219.83 53.2745 220.249 53.7425C220.677 54.202 221.247 54.4318 221.959 54.4318Z" fill="#F2EAFF"/>
<path d="M235.563 56.2995H233.413L229.818 50.8721V56.2995H227.668V47.5003H229.818L233.413 52.9528V47.5003H235.563V56.2995Z" fill="#F2EAFF"/>
<path d="M241.584 24.3025H240.249V29.1266H238.736V24.3025H237.4V22.9531H241.584V24.3025ZM246.484 28.6239H245.096L243.734 25.0786V29.1266H242.283V22.9531H244.247L245.786 26.86L247.334 22.9531H249.297V29.1266H247.847V25.0786L246.484 28.6239Z" fill="white"/>
</svg>
