<svg width="261" height="90" viewBox="0 0 261 90" fill="none" xmlns="http://www.w3.org/2000/svg">
<path d="M45.133 82.5C65.9049 82.5 82.7438 65.7107 82.7438 45C82.7438 24.2893 65.9049 7.5 45.133 7.5C24.3611 7.5 7.52222 24.2893 7.52222 45C7.52222 65.7107 24.3611 82.5 45.133 82.5ZM45.133 79.2391C26.1674 79.2391 10.7927 63.9097 10.7927 45C10.7927 26.0902 26.1674 10.7609 45.133 10.7609C64.0986 10.7609 79.4733 26.0902 79.4733 45C79.4733 63.9097 64.0986 79.2391 45.133 79.2391Z" fill="#FF8A3C"/>
<path d="M73.1108 31.1821C75.2515 35.4458 76.3817 40.16 76.3817 45.0319C76.3817 62.1407 62.4712 76.0102 45.3119 76.0102C43.4558 76.0102 41.6197 75.8477 39.8184 75.5272L40.393 72.317C42.0049 72.6038 43.6487 72.7493 45.3119 72.7493C60.665 72.7493 73.1111 60.3398 73.1111 45.0319C73.1111 40.6696 72.1007 36.4548 70.1863 32.6418L73.1108 31.1821ZM45.133 14.0217V17.2826C33.7391 17.2826 23.6286 24.1801 19.3897 34.5183L16.3624 33.2843C21.0997 21.7305 32.3995 14.0217 45.133 14.0217Z" fill="#FF5D50"/>
<path d="M54.7486 22.4946C63.7178 26.3087 69.6618 35.109 69.6618 45C69.6618 56.8966 61.0837 67.0095 49.4676 69.0756L48.8932 65.8654C58.9559 64.0756 66.3913 55.3098 66.3913 45C66.3913 36.427 61.2398 28.8 53.4655 25.494L54.7486 22.4946ZM45.133 20.5435V23.8043C33.3924 23.8043 23.8748 33.2939 23.8748 45C23.8748 52.2839 27.5868 58.9335 33.6103 62.8151L31.835 65.5537C24.8889 61.0775 20.6042 53.4023 20.6042 45C20.6042 31.493 31.5862 20.5435 45.133 20.5435Z" fill="#F53568"/>
<path d="M45.133 27.0652C35.1986 27.0652 27.1452 35.0949 27.1452 45C27.1452 54.9051 35.1986 62.9348 45.133 62.9348C55.0673 62.9348 63.1207 54.9051 63.1207 45H59.8502C59.8502 53.1042 53.2611 59.6739 45.133 59.6739C37.0048 59.6739 30.4157 53.1042 30.4157 45C30.4157 36.8959 37.0048 30.3261 45.133 30.3261V27.0652Z" fill="#7130CC"/>
<path fill-rule="evenodd" clip-rule="evenodd" d="M55.2162 46.2312C55.2162 46.2312 52.977 48.5326 48.9936 51.0945C45.0101 53.6563 42.3221 54.6096 42.3221 54.6096C41.1305 55.1233 40.0251 54.4516 39.8644 53.1354C39.8644 53.1354 39.4097 50.5051 39.4097 44.9932C39.4097 39.4813 39.8665 36.8004 39.8665 36.8004C40.0155 35.4845 41.1085 34.8668 42.2842 35.4201C42.2842 35.4201 44.7732 36.4471 48.9936 39.1613C53.2139 41.8755 55.1723 43.7567 55.1723 43.7567C55.9442 44.4191 55.9583 45.5338 55.2162 46.2312Z" fill="white"/>
<path fill-rule="evenodd" clip-rule="evenodd" d="M110.069 49.2111L117.732 28.7974H112.038L107.252 43.3203L102.466 28.7974H96.7714L104.435 49.2111H110.069ZM124.548 33.9008H119.489V49.2111H124.548V33.9008ZM121.973 32.9676C123.578 32.9676 124.82 31.8594 124.82 30.343C124.82 28.7974 123.578 27.6892 121.973 27.6892C120.368 27.6892 119.156 28.7974 119.156 30.343C119.156 31.8594 120.368 32.9676 121.973 32.9676ZM138.723 41.5997C138.723 39.1792 137.3 37.8086 135.301 37.8086C133.241 37.8086 131.878 39.3542 131.878 41.5997C131.878 43.8744 133.271 45.3325 135.301 45.3325C137.482 45.3325 138.723 43.6411 138.723 41.5997ZM138.905 49.2111V48.0155C138.451 48.5112 136.936 49.5902 134.604 49.5902C130.03 49.5902 126.819 46.2657 126.819 41.5706C126.819 36.8171 129.727 33.5217 134.331 33.5217C136.755 33.5217 138.239 34.6882 138.572 35.0673V28.1266H143.631V49.2111H138.905ZM161.502 42.8245H151.082C151.203 44.1952 152.566 45.3617 154.444 45.3617C156.352 45.3617 157.473 44.166 157.776 43.7286L161.108 46.2074C160.654 47.1114 158.473 49.5902 154.353 49.5902C149.113 49.5902 145.902 46.1199 145.902 41.5997C145.902 37.1087 149.052 33.5217 153.717 33.5217C158.776 33.5217 161.532 36.6421 161.532 41.8622C161.532 42.1538 161.532 42.4746 161.502 42.8245ZM153.808 37.4586C152.142 37.4586 151.355 38.6543 151.233 39.7333H156.383C156.322 38.5085 155.383 37.4586 153.808 37.4586ZM162.895 41.5997C162.895 36.9629 166.621 33.5217 171.528 33.5217C176.647 33.5217 180.252 36.9046 180.252 41.5414C180.252 46.1491 176.556 49.5902 171.528 49.5902C166.469 49.5902 162.895 46.2074 162.895 41.5997ZM167.954 41.5997C167.954 43.8161 169.468 45.3034 171.528 45.3034C173.618 45.3034 175.193 43.7286 175.193 41.5414C175.193 39.2959 173.588 37.8086 171.528 37.8086C169.438 37.8086 167.954 39.3542 167.954 41.5997ZM193.064 49.5902C195.7 49.5902 197.82 48.8612 199.334 47.8697L197.881 43.4953C196.76 44.2243 195.063 44.9242 193.246 44.9242C189.369 44.9242 187.249 42.1538 187.249 38.9751C187.249 35.7964 189.369 33.0843 193.246 33.0843C195.063 33.0843 196.669 33.7842 197.79 34.5132L199.244 30.1389C197.729 29.1473 195.7 28.4183 193.064 28.4183C186.461 28.4183 181.857 32.9968 181.857 38.9751C181.857 44.9826 186.219 49.5902 193.064 49.5902ZM200.91 41.5997C200.91 36.9629 204.635 33.5217 209.542 33.5217C214.661 33.5217 218.266 36.9046 218.266 41.5414C218.266 46.1491 214.57 49.5902 209.542 49.5902C204.484 49.5902 200.91 46.2074 200.91 41.5997ZM205.968 41.5997C205.968 43.8161 207.483 45.3034 209.542 45.3034C211.632 45.3034 213.207 43.7286 213.207 41.5414C213.207 39.2959 211.602 37.8086 209.542 37.8086C207.452 37.8086 205.968 39.3542 205.968 41.5997ZM225.566 33.9008H220.507V49.2111H225.566V33.9008ZM222.991 32.9676C224.597 32.9676 225.838 31.8594 225.838 30.343C225.838 28.7974 224.597 27.6892 222.991 27.6892C221.386 27.6892 220.174 28.7974 220.174 30.343C220.174 31.8594 221.386 32.9676 222.991 32.9676ZM237.955 49.2111H243.013V40.7248C243.013 37.6045 242.528 33.5217 237.561 33.5217C235.562 33.5217 234.168 34.5716 233.562 35.4756V33.9008H228.625V49.2111H233.684V40.0833C233.684 38.8584 234.471 37.8961 235.865 37.8961C237.076 37.8961 237.955 38.6543 237.955 40.0833V49.2111Z" fill="white"/>
<path d="M105.579 54.5003V63.2995H103.43V54.5003H105.579Z" fill="#F2EAFF"/>
<path d="M112.996 57.283C112.836 56.9905 112.606 56.7691 112.304 56.6186C112.011 56.4599 111.663 56.3805 111.261 56.3805C110.565 56.3805 110.008 56.6103 109.589 57.0699C109.17 57.5211 108.96 58.127 108.96 58.8874C108.96 59.6979 109.178 60.333 109.614 60.7926C110.058 61.2438 110.666 61.4694 111.437 61.4694C111.965 61.4694 112.409 61.3357 112.769 61.0683C113.138 60.8009 113.406 60.4166 113.574 59.9152H110.846V58.3359H115.522V60.3288C115.363 60.8636 115.091 61.3608 114.705 61.8204C114.328 62.28 113.846 62.6519 113.26 62.936C112.673 63.2201 112.011 63.3621 111.273 63.3621C110.402 63.3621 109.622 63.1741 108.935 62.7981C108.256 62.4137 107.724 61.8831 107.338 61.2062C106.961 60.5294 106.773 59.7564 106.773 58.8874C106.773 58.0183 106.961 57.2454 107.338 56.5685C107.724 55.8833 108.256 55.3527 108.935 54.9766C109.614 54.5923 110.389 54.4001 111.261 54.4001C112.317 54.4001 113.205 54.6549 113.926 55.1647C114.655 55.6744 115.137 56.3805 115.372 57.283H112.996Z" fill="#F2EAFF"/>
<path d="M124.608 63.2995H122.458L118.863 57.8721V63.2995H116.713V54.5003H118.863L122.458 59.9528V54.5003H124.608V63.2995Z" fill="#F2EAFF"/>
<path d="M128.316 54.5003V63.2995H126.166V54.5003H128.316Z" fill="#F2EAFF"/>
<path d="M136.222 54.5003V56.2176H133.884V63.2995H131.734V56.2176H129.396V54.5003H136.222Z" fill="#F2EAFF"/>
<path d="M139.451 54.5003V63.2995H137.301V54.5003H139.451Z" fill="#F2EAFF"/>
<path d="M148.904 63.2995H146.754L143.159 57.8721V63.2995H141.009V54.5003H143.159L146.754 59.9528V54.5003H148.904V63.2995Z" fill="#F2EAFF"/>
<path d="M156.32 57.283C156.161 56.9905 155.93 56.7691 155.629 56.6186C155.335 56.4599 154.988 56.3805 154.585 56.3805C153.89 56.3805 153.332 56.6103 152.913 57.0699C152.494 57.5211 152.285 58.127 152.285 58.8874C152.285 59.6979 152.503 60.333 152.938 60.7926C153.383 61.2438 153.99 61.4694 154.761 61.4694C155.289 61.4694 155.734 61.3357 156.094 61.0683C156.463 60.8009 156.731 60.4166 156.898 59.9152H154.17V58.3359H158.847V60.3288C158.688 60.8636 158.415 61.3608 158.03 61.8204C157.653 62.28 157.171 62.6519 156.584 62.936C155.998 63.2201 155.335 63.3621 154.598 63.3621C153.726 63.3621 152.947 63.1741 152.26 62.7981C151.581 62.4137 151.049 61.8831 150.663 61.2062C150.286 60.5294 150.097 59.7564 150.097 58.8874C150.097 58.0183 150.286 57.2454 150.663 56.5685C151.049 55.8833 151.581 55.3527 152.26 54.9766C152.938 54.5923 153.714 54.4001 154.585 54.4001C155.641 54.4001 156.53 54.6549 157.25 55.1647C157.98 55.6744 158.462 56.3805 158.696 57.283H156.32Z" fill="#F2EAFF"/>
<path d="M164.852 54.5003V63.2995H162.702V54.5003H164.852Z" fill="#F2EAFF"/>
<path d="M174.304 63.2995H172.155L168.559 57.8721V63.2995H166.409V54.5003H168.559L172.155 59.9528V54.5003H174.304V63.2995Z" fill="#F2EAFF"/>
<path d="M183.757 63.2995H181.608L178.012 57.8721V63.2995H175.863V54.5003H178.012L181.608 59.9528V54.5003H183.757V63.2995Z" fill="#F2EAFF"/>
<path d="M189.489 63.3872C188.66 63.3872 187.897 63.195 187.201 62.8106C186.514 62.4262 185.965 61.8914 185.554 61.2062C185.152 60.5127 184.951 59.7355 184.951 58.8748C184.951 58.0141 185.152 57.2412 185.554 56.556C185.965 55.8708 186.514 55.336 187.201 54.9516C187.897 54.5672 188.66 54.375 189.489 54.375C190.319 54.375 191.077 54.5672 191.765 54.9516C192.46 55.336 193.005 55.8708 193.399 56.556C193.801 57.2412 194.002 58.0141 194.002 58.8748C194.002 59.7355 193.801 60.5127 193.399 61.2062C192.997 61.8914 192.452 62.4262 191.765 62.8106C191.077 63.195 190.319 63.3872 189.489 63.3872ZM189.489 61.4318C190.193 61.4318 190.755 61.1979 191.174 60.7299C191.601 60.262 191.815 59.6436 191.815 58.8748C191.815 58.0977 191.601 57.4793 191.174 57.0197C190.755 56.5518 190.193 56.3178 189.489 56.3178C188.777 56.3178 188.207 56.5476 187.78 57.0072C187.361 57.4668 187.151 58.0893 187.151 58.8748C187.151 59.652 187.361 60.2745 187.78 60.7425C188.207 61.202 188.777 61.4318 189.489 61.4318Z" fill="#F2EAFF"/>
<path d="M203.483 54.5003L200.353 63.2995H197.662L194.532 54.5003H196.82L199.008 61.1436L201.208 54.5003H203.483Z" fill="#F2EAFF"/>
<path d="M209.875 61.7452H206.581L206.053 63.2995H203.803L206.996 54.5003H209.485L212.679 63.2995H210.403L209.875 61.7452ZM209.322 60.0907L208.228 56.8693L207.147 60.0907H209.322Z" fill="#F2EAFF"/>
<path d="M219.999 54.5003V56.2176H217.661V63.2995H215.511V56.2176H213.173V54.5003H219.999Z" fill="#F2EAFF"/>
<path d="M223.227 54.5003V63.2995H221.078V54.5003H223.227Z" fill="#F2EAFF"/>
<path d="M228.959 63.3872C228.129 63.3872 227.367 63.195 226.671 62.8106C225.984 62.4262 225.435 61.8914 225.024 61.2062C224.622 60.5127 224.421 59.7355 224.421 58.8748C224.421 58.0141 224.622 57.2412 225.024 56.556C225.435 55.8708 225.984 55.336 226.671 54.9516C227.367 54.5672 228.129 54.375 228.959 54.375C229.789 54.375 230.547 54.5672 231.234 54.9516C231.93 55.336 232.475 55.8708 232.869 56.556C233.271 57.2412 233.472 58.0141 233.472 58.8748C233.472 59.7355 233.271 60.5127 232.869 61.2062C232.466 61.8914 231.922 62.4262 231.234 62.8106C230.547 63.195 229.789 63.3872 228.959 63.3872ZM228.959 61.4318C229.663 61.4318 230.225 61.1979 230.644 60.7299C231.071 60.262 231.285 59.6436 231.285 58.8748C231.285 58.0977 231.071 57.4793 230.644 57.0197C230.225 56.5518 229.663 56.3178 228.959 56.3178C228.247 56.3178 227.677 56.5476 227.249 57.0072C226.83 57.4668 226.621 58.0893 226.621 58.8748C226.621 59.652 226.83 60.2745 227.249 60.7425C227.677 61.202 228.247 61.4318 228.959 61.4318Z" fill="#F2EAFF"/>
<path d="M242.563 63.2995H240.413L236.818 57.8721V63.2995H234.668V54.5003H236.818L240.413 59.9528V54.5003H242.563V63.2995Z" fill="#F2EAFF"/>
<path d="M248.586 31.3025H247.25V36.1266H245.737V31.3025H244.402V29.9531H248.586V31.3025ZM253.486 35.6239H252.097L250.735 32.0786V36.1266H249.284V29.9531H251.248L252.787 33.86L254.335 29.9531H256.299V36.1266H254.848V32.0786L253.486 35.6239Z" fill="white"/>
</svg>
