<svg width="64" height="64" xmlns="http://www.w3.org/2000/svg">
    <style>
        .favicon-arrow {
        fill: #0C0417;
        }
        @media (prefers-color-scheme: dark) {
        .favicon-arrow {
        fill: white;
        }
        }
    </style>
    <g fill="none" fill-rule="evenodd">
        <path d="M32 64c17.673 0 32-14.327 32-32C64 14.327 49.673 0 32 0 14.327 0 0 14.327 0 32c0 17.673 14.327 32 32 32zm0-2.783C15.864 61.217 2.783 48.137 2.783 32 2.783 15.864 15.863 2.783 32 2.783c16.136 0 29.217 13.08 29.217 29.217 0 16.136-13.08 29.217-29.217 29.217z" fill="#FF8A3C" fill-rule="nonzero"/>
        <path d="M55.804 20.209a26.329 26.329 0 012.783 11.818c0 14.6-11.835 26.435-26.435 26.435-1.579 0-3.141-.139-4.674-.412l.49-2.74c1.37.245 2.77.37 4.184.37 13.063 0 23.652-10.59 23.652-23.653 0-3.722-.86-7.319-2.488-10.573zM32 5.565v2.783a23.658 23.658 0 00-21.903 14.708l-2.576-1.053A26.44 26.44 0 0132 5.565z" fill="#FF5D50"/>
        <path d="M40.181 12.795A20.873 20.873 0 0152.87 32c0 10.152-7.299 18.781-17.182 20.544l-.489-2.739C43.761 48.278 50.087 40.798 50.087 32a18.09 18.09 0 00-10.998-16.645zM32 11.13v2.783c-9.99 0-18.087 8.098-18.087 18.087 0 6.216 3.158 11.89 8.283 15.202l-1.51 2.337A20.85 20.85 0 0111.13 32c0-11.526 9.344-20.87 20.87-20.87z" fill="#F53568"/>
        <path d="M32 16.696c-8.452 0-15.304 6.852-15.304 15.304S23.548 47.304 32 47.304 47.304 40.452 47.304 32h-2.782c0 6.916-5.606 12.522-12.522 12.522S19.478 38.916 19.478 32 25.084 19.478 32 19.478v-2.782z" fill="#7130CC"/>
        <path d="M40.579 33.05s-1.905 1.965-5.294 4.15c-3.39 2.187-5.677 3-5.677 3-1.013.439-1.954-.135-2.09-1.258 0 0-.388-2.244-.388-6.948 0-4.703.39-6.99.39-6.99.126-1.124 1.056-1.65 2.056-1.179 0 0 2.118.877 5.709 3.193 3.59 2.316 5.257 3.921 5.257 3.921.656.565.668 1.517.037 2.112z" class="favicon-arrow" />
    </g>
</svg>