<?xml version="1.0" encoding="UTF-8"?>
<svg width="551px" height="403px" viewBox="0 0 551 403" version="1.1" xmlns="http://www.w3.org/2000/svg" xmlns:xlink="http://www.w3.org/1999/xlink">
    <!-- Generator: Sketch 64 (93537) - https://sketch.com -->
    <title>Platform Icons/Floating Illustrations/Cheap Copy 2</title>
    <desc>Created with Sketch.</desc>
    <defs>
        <linearGradient x1="55.9099472%" y1="39.6568319%" x2="64.6771669%" y2="66.2902807%" id="linearGradient-1">
            <stop stop-color="#240A49" offset="0%"></stop>
            <stop stop-color="#352054" offset="100%"></stop>
        </linearGradient>
        <path d="M460.097079,114.740398 L196.26939,262.450322 L196.26939,262.450322 C176.398679,273.99854 144.096168,274.004943 124.082986,262.450322 L15.0760295,194.449043 C-4.9259465,182.904027 -5.04120399,164.177793 14.8279058,152.629576 L49.6996982,132.366568 C61.6392002,125.428272 135.422085,85.301218 271.048352,11.9854052 C300.210789,-3.77900163 335.404441,-3.55874349 364.367279,12.5694389 L460.040891,65.8460365 C473.55136,73.3694464 478.40483,90.420774 470.88142,103.931243 C468.357433,108.463795 464.623819,112.206 460.097079,114.740398 Z" id="path-2"></path>
        <filter x="-14.8%" y="-18.5%" width="129.5%" height="151.7%" filterUnits="objectBoundingBox" id="filter-3">
            <feOffset dx="0" dy="20" in="SourceAlpha" result="shadowOffsetOuter1"></feOffset>
            <feGaussianBlur stdDeviation="20" in="shadowOffsetOuter1" result="shadowBlurOuter1"></feGaussianBlur>
            <feColorMatrix values="0 0 0 0 0.0525999548   0 0 0 0 0.0148872707   0 0 0 0 0.10827106  0 0 0 0.498442963 0" type="matrix" in="shadowBlurOuter1"></feColorMatrix>
        </filter>
        <polygon id="path-4" points="0.000559190694 0.598191338 189.747 0.598191338 189.747 239.998943 0.000559190694 239.998943"></polygon>
        <linearGradient x1="78.2937527%" y1="85.4899681%" x2="78.2937505%" y2="6.90443219%" id="linearGradient-6">
            <stop stop-color="#4E2E62" offset="0%"></stop>
            <stop stop-color="#42348E" offset="100%"></stop>
        </linearGradient>
        <linearGradient x1="78.2937527%" y1="91.7215826%" x2="78.2937527%" y2="2.61539819%" id="linearGradient-7">
            <stop stop-color="#884FAC" offset="0%"></stop>
            <stop stop-color="#644FD9" offset="100%"></stop>
        </linearGradient>
    </defs>
    <g id="Workers" stroke="none" stroke-width="1" fill="none" fill-rule="evenodd">
        <g id="Future-Of-Video" transform="translate(-34.000000, -64.000000)">
            <g id="Platform-Icons/Floating-Illustrations/Cheap-Copy-2" transform="translate(72.000000, 63.000000)">
                <g id="Group-7" transform="translate(0.000000, 74.000000)" opacity="0.899037412">
                    <g id="Mask">
                        <use fill="black" fill-opacity="1" filter="url(#filter-3)" xlink:href="#path-2"></use>
                        <use fill="url(#linearGradient-1)" fill-rule="evenodd" xlink:href="#path-2"></use>
                    </g>
                </g>
                <g id="Image" transform="translate(132.000000, 0.000000)">
                    <g id="Page-1">
                        <g id="Group-4" transform="translate(0.000000, 0.402400)">
                            <mask id="mask-5" fill="white">
                                <use xlink:href="#path-4"></use>
                            </mask>
                            <g id="Clip-3"></g>
                            <path d="M183.348621,127.7931 L183.0186,10.8351 C183.0126,9.0291 181.7436,8.3061 180.1716,9.2151 L9.2226,107.9121 C7.6536,108.8181 6.3756,111.0111 6.37859473,112.8171 L6.7086,229.7751 C6.7146,231.5811 8.0046,232.3131 9.5736,231.4071 L180.5226,132.7101 C182.0946,131.8011 183.3546,129.5991 183.348621,127.7931 L183.348621,127.7931 Z M180.1536,1.8621 C185.2476,-1.0779 189.3996,1.2861 189.4146,7.1391 L189.747641,124.1001 C189.7626,129.9531 185.6376,137.0961 180.5436,140.0361 L9.5946,238.7331 C4.5006,241.6761 0.3486,239.3121 0.3336,233.4591 L0.000559190694,116.4981 C-0.0144,110.6451 4.1076,103.5021 9.2016,100.5621 L180.1536,1.8621 Z" id="Fill-2" fill="#321C53" mask="url(#mask-5)"></path>
                            <path d="M79.4064,109.4736 L79.5174,148.9146 L109.2114,112.0236 L79.4064,109.4736 L79.4064,109.4736 Z M77.2704,106.4556 L113.4654,109.5666 L77.4054,154.3926 L77.2704,106.4556 Z" id="Fill-1" stroke="#321C53" stroke-width="3" fill="#FDFDFD" mask="url(#mask-5)"></path>
                        </g>
                    </g>
                </g>
                <g id="noun_Rocket_680024" transform="translate(234.000000, 36.000000)" fill-rule="nonzero">
                    <path d="M101.056738,0.524955918 C101.84805,-0.0642162599 102.648771,-0.163431848 103.214579,0.25758254 C103.267681,0.297095217 103.318122,0.340750139 103.365837,0.388322492 L109.603069,4.24935209 L102.802952,12.558205 C97.7966589,50.6675743 85.8205673,80.6063901 72.4106523,103.110133 L68.5051911,120.340425 C68.509114,124.634896 67.4226805,129.397789 65.432719,133.894686 L60.5815389,155.29362 L59.561087,156.793376 L53.3421464,152.889871 C53.024437,152.754152 52.7707862,152.475492 52.6142641,152.070882 L52.6142641,152.070882 L46.8011672,137.138366 C46.5063258,137.445813 46.2108627,137.751383 45.9147931,138.055062 L40.9354233,151.248921 L34.5031821,147.249295 C34.3737352,147.200943 34.2507788,147.134796 34.1357608,147.050575 L34.1357608,147.050575 L19.1862511,135.898716 C18.4543823,135.345384 18.1591776,134.127994 18.4068414,132.68452 C19.0747835,128.729337 19.8869921,124.742896 20.8400261,120.741514 L12.9576141,122.090672 L6.81770993,118.291697 L6.82433522,118.282243 C6.45753517,118.065949 6.19995389,117.640825 6.10125233,117.058228 C5.953858,116.188217 6.17990216,115.079949 6.70487185,114.098752 L6.70487185,114.098752 L14.488143,99.727073 C17.5260841,94.1395896 21.7031875,89.7739481 25.984435,87.7118837 L25.984435,87.7118837 L33.2914003,84.1252698 C45.6970036,56.210585 66.6219871,25.2751505 101.056738,0.524955918 Z M78.2138154,46.3397905 C74.5579282,43.6094668 68.6262408,46.8574323 64.9549165,53.5998572 C63.181942,56.8559431 62.1849489,60.5062161 62.1849489,63.7414898 C62.1849489,66.9767634 63.181942,69.5297565 64.9549165,70.8345259 C68.6262408,73.5363309 74.5579282,70.2559453 78.2138154,63.5019915 C81.8697026,56.7480378 81.8697026,49.0701143 78.2138154,46.3397905 Z M13.4642157,145.5251 C13.5083241,145.533978 13.5504436,145.547074 13.590461,145.564146 L13.5937558,145.550688 L19.919001,149.50324 L15.9401196,160.365331 C17.2445485,161.527705 19.0560701,161.808351 21.1022997,161.00459 C23.3555898,160.140049 25.6395275,158.821818 27.8788334,157.093345 C28.2306772,156.819349 28.5832079,156.743565 28.8561659,156.861301 L28.8624095,156.856846 L35.3286188,160.914618 L7.33824483,193.400362 L0.665207892,189.232863 L0.671,189.212 L0.64173208,189.187506 C0.196472248,188.781466 -0.034206154,188.053775 0.00411406158,187.159187 C0.805173959,167.634125 7.96058736,153.187595 12.0633131,146.418048 C12.4674435,145.789284 13.0216617,145.43602 13.4642157,145.5251 Z" id="Shape-Copy" fill="url(#linearGradient-6)"></path>
                    <path d="M13.8294702,122.435487 L27.8371932,122.251517 C26.6172354,127.086173 25.6012662,131.903985 24.7953306,136.67629 C24.5476668,138.119763 24.8428715,139.337153 25.5747403,139.890486 L40.52425,151.042345 C41.2628813,151.583202 42.3288982,151.378688 43.3387847,150.50238 C46.6833146,147.614128 49.9734679,144.483834 53.1896564,141.130135 L59.0027533,156.062651 C59.29131,156.808572 59.909976,157.126426 60.6515465,156.909756 C61.393117,156.693087 62.1595401,155.970544 62.6941239,154.984121 L70.4665699,140.646423 C73.4985575,135.044742 75.0997161,128.750636 74.8723993,123.327242 L74.4935196,114.007628 C90.7528705,89.0725876 105.810632,53.7013305 110.313887,6.65127743 C110.432644,5.56166103 110.168877,4.67036648 109.603069,4.24935209 C109.03726,3.8283377 108.236539,3.92755329 107.445227,4.51672547 C73.0104763,29.26692 52.0854928,60.2023546 39.6798895,88.1170394 L32.3729243,91.7036532 C28.0916768,93.7657177 23.9145733,98.1313591 20.8766322,103.718843 L13.0933611,118.090521 C12.5683914,119.071718 12.3423472,120.179986 12.4897415,121.049998 C12.6371359,121.920009 13.138839,122.438849 13.8294702,122.435487 Z M84.6023046,50.3315601 C88.2581918,53.0618838 88.2581918,60.7398074 84.6023046,67.4937611 C80.9464174,74.2477148 75.01473,77.5281005 71.3434057,74.8262954 C69.5704313,73.5215261 68.5734381,70.9685329 68.5734381,67.7332593 C68.5734381,64.4979857 69.5704313,60.8477127 71.3434057,57.5916267 C75.01473,50.8492019 80.9464174,47.6012364 84.6023046,50.3315601 Z M6.39260327,191.150956 C7.19366317,171.625895 14.3490766,157.179365 18.4518023,150.409817 C18.8559327,149.781053 19.4101509,149.427789 19.8527049,149.516869 C20.2952589,149.605949 20.5376017,150.119549 20.4652771,150.815101 C20.069305,153.90518 20.003644,156.873497 20.2704247,159.623733 C20.7304523,164.264422 23.7099756,166.481467 27.4907889,164.99636 C29.744079,164.131819 32.0280167,162.813587 34.2673227,161.085115 C34.7903101,160.677841 35.3148155,160.708507 35.5772528,161.161702 C35.8396901,161.614897 35.7833065,162.392616 35.4364371,163.104023 C31.950744,170.262642 23.8318937,183.992284 9.08806157,193.15663 C8.36131428,193.609972 7.6514737,193.650193 7.13675793,193.267197 C6.62204215,192.8842 6.35133535,192.114359 6.39260327,191.150956 Z" id="Shape" fill="url(#linearGradient-7)"></path>
                </g>
            </g>
        </g>
    </g>
</svg>