<?xml version="1.0" encoding="UTF-8"?>
<svg width="502px" height="472px" viewBox="0 0 502 472" version="1.1" xmlns="http://www.w3.org/2000/svg" xmlns:xlink="http://www.w3.org/1999/xlink">
    <!-- Generator: Sketch 64 (93537) - https://sketch.com -->
    <title>Group</title>
    <desc>Created with Sketch.</desc>
    <defs>
        <linearGradient x1="4.51463282%" y1="34.225177%" x2="26.1679173%" y2="41.8305818%" id="linearGradient-1">
            <stop stop-color="#FC9D76" stop-opacity="0" offset="0%"></stop>
            <stop stop-color="#F1A781" offset="100%"></stop>
        </linearGradient>
        <filter x="-6.4%" y="-15.0%" width="113.0%" height="130.0%" filterUnits="objectBoundingBox" id="filter-2">
            <feGaussianBlur stdDeviation="13.2" in="SourceGraphic"></feGaussianBlur>
        </filter>
        <linearGradient x1="6.20052945%" y1="50%" x2="95.2806209%" y2="49.177299%" id="linearGradient-3">
            <stop stop-color="#35116A" offset="0%"></stop>
            <stop stop-color="#411C77" offset="100%"></stop>
        </linearGradient>
        <linearGradient x1="96.5219518%" y1="49.0338371%" x2="3.95960159%" y2="50%" id="linearGradient-4">
            <stop stop-color="#F5B088" offset="0%"></stop>
            <stop stop-color="#FD9C75" offset="100%"></stop>
        </linearGradient>
        <filter x="-9.7%" y="-15.4%" width="119.4%" height="130.8%" filterUnits="objectBoundingBox" id="filter-5">
            <feGaussianBlur stdDeviation="4.8" in="SourceGraphic"></feGaussianBlur>
        </filter>
        <linearGradient x1="0%" y1="50.0098356%" x2="124.24798%" y2="50.0098356%" id="linearGradient-6">
            <stop stop-color="#290F4D" offset="0%"></stop>
            <stop stop-color="#351661" offset="38%"></stop>
            <stop stop-color="#4E238E" offset="44%"></stop>
            <stop stop-color="#7234C8" offset="100%"></stop>
        </linearGradient>
        <linearGradient x1="-69.4787519%" y1="37.5126026%" x2="92.3851543%" y2="54.4312096%" id="linearGradient-7">
            <stop stop-color="#290F4D" offset="0%"></stop>
            <stop stop-color="#351661" offset="62%"></stop>
            <stop stop-color="#4E238E" offset="100%"></stop>
        </linearGradient>
        <linearGradient x1="-5.91061037%" y1="50.0441366%" x2="101.817362%" y2="50.0441366%" id="linearGradient-8">
            <stop stop-color="#FD9369" offset="0%"></stop>
            <stop stop-color="#FFB99E" offset="100%"></stop>
        </linearGradient>
        <linearGradient x1="-25.3970089%" y1="-46.271143%" x2="85.1134641%" y2="94.8487955%" id="linearGradient-9">
            <stop stop-color="#290F4D" offset="0%"></stop>
            <stop stop-color="#4E238E" offset="62%"></stop>
            <stop stop-color="#7234C8" offset="100%"></stop>
        </linearGradient>
        <linearGradient x1="38.1370421%" y1="-59.4695028%" x2="78.1828819%" y2="310.04613%" id="linearGradient-10">
            <stop stop-color="#290F4D" offset="0%"></stop>
            <stop stop-color="#4E238E" offset="62%"></stop>
            <stop stop-color="#7234C8" offset="100%"></stop>
        </linearGradient>
        <linearGradient x1="802.939893%" y1="-1845.69191%" x2="-368.681701%" y2="1103.91645%" id="linearGradient-11">
            <stop stop-color="#7234C8" offset="0%"></stop>
            <stop stop-color="#9056E4" offset="100%"></stop>
        </linearGradient>
        <linearGradient x1="771.428571%" y1="-1614.67161%" x2="-311.111111%" y2="883.109661%" id="linearGradient-12">
            <stop stop-color="#7234C8" offset="0%"></stop>
            <stop stop-color="#9056E4" offset="100%"></stop>
        </linearGradient>
        <linearGradient x1="829.478458%" y1="-1748.65899%" x2="-253.061224%" y2="749.122279%" id="linearGradient-13">
            <stop stop-color="#7234C8" offset="0%"></stop>
            <stop stop-color="#9056E4" offset="100%"></stop>
        </linearGradient>
        <linearGradient x1="852.852115%" y1="-1878.37838%" x2="-302.828873%" y2="897.051597%" id="linearGradient-14">
            <stop stop-color="#7234C8" offset="0%"></stop>
            <stop stop-color="#9056E4" offset="100%"></stop>
        </linearGradient>
        <linearGradient x1="749.606299%" y1="-1478.14283%" x2="-190.354331%" y2="574.949819%" id="linearGradient-15">
            <stop stop-color="#7234C8" offset="0%"></stop>
            <stop stop-color="#9056E4" offset="100%"></stop>
        </linearGradient>
        <linearGradient x1="887.528345%" y1="-1882.42528%" x2="-195.011338%" y2="615.355999%" id="linearGradient-16">
            <stop stop-color="#7234C8" offset="0%"></stop>
            <stop stop-color="#9056E4" offset="100%"></stop>
        </linearGradient>
        <linearGradient x1="945.578231%" y1="-2016.41266%" x2="-136.961451%" y2="481.368617%" id="linearGradient-17">
            <stop stop-color="#7234C8" offset="0%"></stop>
            <stop stop-color="#9056E4" offset="100%"></stop>
        </linearGradient>
        <linearGradient x1="981.395217%" y1="-2222.05514%" x2="-179.354401%" y2="609.273183%" id="linearGradient-18">
            <stop stop-color="#7234C8" offset="0%"></stop>
            <stop stop-color="#9056E4" offset="100%"></stop>
        </linearGradient>
        <linearGradient x1="360.5547%" y1="-571.533781%" x2="-375.192604%" y2="900.934946%" id="linearGradient-19">
            <stop stop-color="#7234C8" offset="0%"></stop>
            <stop stop-color="#9056E4" offset="100%"></stop>
        </linearGradient>
        <linearGradient x1="330.440415%" y1="-483.855523%" x2="-287.953368%" y2="693.158625%" id="linearGradient-20">
            <stop stop-color="#7234C8" offset="0%"></stop>
            <stop stop-color="#9056E4" offset="100%"></stop>
        </linearGradient>
        <linearGradient x1="624.361787%" y1="-1378.92031%" x2="-543.189313%" y2="1525.1928%" id="linearGradient-21">
            <stop stop-color="#7234C8" offset="0%"></stop>
            <stop stop-color="#9056E4" offset="100%"></stop>
        </linearGradient>
        <linearGradient x1="435.665529%" y1="-750.346539%" x2="-379.180887%" y2="940.604433%" id="linearGradient-22">
            <stop stop-color="#7234C8" offset="0%"></stop>
            <stop stop-color="#9056E4" offset="100%"></stop>
        </linearGradient>
        <linearGradient x1="340.343348%" y1="-475.541834%" x2="-171.995708%" y2="451.759392%" id="linearGradient-23">
            <stop stop-color="#7234C8" offset="0%"></stop>
            <stop stop-color="#9056E4" offset="100%"></stop>
        </linearGradient>
        <linearGradient x1="500.464396%" y1="-854.237556%" x2="-238.544892%" y2="629.232045%" id="linearGradient-24">
            <stop stop-color="#7234C8" offset="0%"></stop>
            <stop stop-color="#9056E4" offset="100%"></stop>
        </linearGradient>
        <linearGradient x1="384.56057%" y1="-572.5357%" x2="-182.422803%" y2="482.329427%" id="linearGradient-25">
            <stop stop-color="#7234C8" offset="0%"></stop>
            <stop stop-color="#9056E4" offset="100%"></stop>
        </linearGradient>
        <linearGradient x1="338.881988%" y1="-493.583967%" x2="-254.161491%" y2="622.126075%" id="linearGradient-26">
            <stop stop-color="#7234C8" offset="0%"></stop>
            <stop stop-color="#9056E4" offset="100%"></stop>
        </linearGradient>
        <linearGradient x1="576.241901%" y1="-1141.66461%" x2="-454.859611%" y2="1192.8945%" id="linearGradient-27">
            <stop stop-color="#7234C8" offset="0%"></stop>
            <stop stop-color="#9056E4" offset="100%"></stop>
        </linearGradient>
        <linearGradient x1="656.232427%" y1="-1881.75896%" x2="-498.65728%" y2="1798.0456%" id="linearGradient-28">
            <stop stop-color="#7234C8" offset="0%"></stop>
            <stop stop-color="#9056E4" offset="100%"></stop>
        </linearGradient>
        <linearGradient x1="394.324324%" y1="-613.839573%" x2="-250.810811%" y2="630.150749%" id="linearGradient-29">
            <stop stop-color="#7234C8" offset="0%"></stop>
            <stop stop-color="#9056E4" offset="100%"></stop>
        </linearGradient>
        <linearGradient x1="638.865546%" y1="-1267.17393%" x2="-364.07563%" y2="976.51031%" id="linearGradient-30">
            <stop stop-color="#7234C8" offset="0%"></stop>
            <stop stop-color="#9056E4" offset="100%"></stop>
        </linearGradient>
        <linearGradient x1="713.024283%" y1="-1463.56787%" x2="-340.838852%" y2="941.956249%" id="linearGradient-31">
            <stop stop-color="#7234C8" offset="0%"></stop>
            <stop stop-color="#9056E4" offset="100%"></stop>
        </linearGradient>
        <linearGradient x1="392.81943%" y1="-568.379387%" x2="-111.404435%" y2="341.115723%" id="linearGradient-32">
            <stop stop-color="#7234C8" offset="0%"></stop>
            <stop stop-color="#9056E4" offset="100%"></stop>
        </linearGradient>
        <linearGradient x1="667.992048%" y1="-1304.85141%" x2="-281.11332%" y2="775.865878%" id="linearGradient-33">
            <stop stop-color="#7234C8" offset="0%"></stop>
            <stop stop-color="#9056E4" offset="100%"></stop>
        </linearGradient>
        <linearGradient x1="680.909067%" y1="-1506.09137%" x2="-481.560978%" y2="1360.91371%" id="linearGradient-34">
            <stop stop-color="#7234C8" offset="0%"></stop>
            <stop stop-color="#9056E4" offset="100%"></stop>
        </linearGradient>
        <linearGradient x1="396.173469%" y1="-607.135617%" x2="-212.882653%" y2="548.825441%" id="linearGradient-35">
            <stop stop-color="#7234C8" offset="0%"></stop>
            <stop stop-color="#9056E4" offset="100%"></stop>
        </linearGradient>
        <linearGradient x1="293.073593%" y1="-369.351062%" x2="-120.25974%" y2="343.684601%" id="linearGradient-36">
            <stop stop-color="#7234C8" offset="0%"></stop>
            <stop stop-color="#9056E4" offset="100%"></stop>
        </linearGradient>
        <linearGradient x1="439.393939%" y1="-687.434956%" x2="-163.510101%" y2="454.29548%" id="linearGradient-37">
            <stop stop-color="#7234C8" offset="0%"></stop>
            <stop stop-color="#9056E4" offset="100%"></stop>
        </linearGradient>
        <linearGradient x1="480.921053%" y1="-775.022074%" x2="-147.368421%" y2="427.826783%" id="linearGradient-38">
            <stop stop-color="#7234C8" offset="0%"></stop>
            <stop stop-color="#9056E4" offset="100%"></stop>
        </linearGradient>
        <linearGradient x1="1051.05666%" y1="-2469.97389%" x2="-120.810354%" y2="479.634465%" id="linearGradient-39">
            <stop stop-color="#7234C8" offset="0%"></stop>
            <stop stop-color="#9056E4" offset="100%"></stop>
        </linearGradient>
        <linearGradient x1="1000.68027%" y1="-2143.3248%" x2="-82.0861678%" y2="354.456476%" id="linearGradient-40">
            <stop stop-color="#7234C8" offset="0%"></stop>
            <stop stop-color="#9056E4" offset="100%"></stop>
        </linearGradient>
        <linearGradient x1="1058.73016%" y1="-2277.09108%" x2="-23.8095238%" y2="220.690196%" id="linearGradient-41">
            <stop stop-color="#7234C8" offset="0%"></stop>
            <stop stop-color="#9056E4" offset="100%"></stop>
        </linearGradient>
        <linearGradient x1="1102.76002%" y1="-2471.92118%" x2="-58.8642651%" y2="310.344828%" id="linearGradient-42">
            <stop stop-color="#7234C8" offset="0%"></stop>
            <stop stop-color="#9056E4" offset="100%"></stop>
        </linearGradient>
        <linearGradient x1="946.75835%" y1="-1904.97373%" x2="8.64440079%" y2="140.059672%" id="linearGradient-43">
            <stop stop-color="#7234C8" offset="0%"></stop>
            <stop stop-color="#9056E4" offset="100%"></stop>
        </linearGradient>
        <linearGradient x1="516.178737%" y1="-884.81497%" x2="-219.414484%" y2="590.335849%" id="linearGradient-44">
            <stop stop-color="#7234C8" offset="0%"></stop>
            <stop stop-color="#9056E4" offset="100%"></stop>
        </linearGradient>
        <linearGradient x1="461.26943%" y1="-732.887376%" x2="-157.124352%" y2="444.126772%" id="linearGradient-45">
            <stop stop-color="#7234C8" offset="0%"></stop>
            <stop stop-color="#9056E4" offset="100%"></stop>
        </linearGradient>
        <linearGradient x1="871.32024%" y1="-1993.57326%" x2="-295.986347%" y2="910.539846%" id="linearGradient-46">
            <stop stop-color="#7234C8" offset="0%"></stop>
            <stop stop-color="#9056E4" offset="100%"></stop>
        </linearGradient>
        <linearGradient x1="545.670391%" y1="-913.338379%" x2="-121.089385%" y2="382.391311%" id="linearGradient-47">
            <stop stop-color="#7234C8" offset="0%"></stop>
            <stop stop-color="#9056E4" offset="100%"></stop>
        </linearGradient>
        <linearGradient x1="794.600432%" y1="-1631.86352%" x2="-236.717063%" y2="697.425701%" id="linearGradient-48">
            <stop stop-color="#7234C8" offset="0%"></stop>
            <stop stop-color="#9056E4" offset="100%"></stop>
        </linearGradient>
        <linearGradient x1="900.805844%" y1="-2660.58632%" x2="-254.325775%" y2="1019.21824%" id="linearGradient-49">
            <stop stop-color="#7234C8" offset="0%"></stop>
            <stop stop-color="#9056E4" offset="100%"></stop>
        </linearGradient>
        <linearGradient x1="530.810811%" y1="-878.611395%" x2="-114.324324%" y2="367.441928%" id="linearGradient-50">
            <stop stop-color="#7234C8" offset="0%"></stop>
            <stop stop-color="#9056E4" offset="100%"></stop>
        </linearGradient>
        <linearGradient x1="851.05042%" y1="-1745.9305%" x2="-151.890756%" y2="502.739699%" id="linearGradient-51">
            <stop stop-color="#7234C8" offset="0%"></stop>
            <stop stop-color="#9056E4" offset="100%"></stop>
        </linearGradient>
        <linearGradient x1="931.557019%" y1="-2118.32061%" x2="-237.081172%" y2="755.979644%" id="linearGradient-52">
            <stop stop-color="#7234C8" offset="0%"></stop>
            <stop stop-color="#9056E4" offset="100%"></stop>
        </linearGradient>
        <linearGradient x1="380.606061%" y1="-520.264425%" x2="-32.8138528%" y2="192.771237%" id="linearGradient-53">
            <stop stop-color="#7234C8" offset="0%"></stop>
            <stop stop-color="#9056E4" offset="100%"></stop>
        </linearGradient>
        <linearGradient x1="517.406963%" y1="-820.898948%" x2="-55.7022809%" y2="247.020561%" id="linearGradient-54">
            <stop stop-color="#7234C8" offset="0%"></stop>
            <stop stop-color="#9056E4" offset="100%"></stop>
        </linearGradient>
        <linearGradient x1="566.919192%" y1="-927.507796%" x2="-35.8585859%" y2="212.421803%" id="linearGradient-55">
            <stop stop-color="#7234C8" offset="0%"></stop>
            <stop stop-color="#9056E4" offset="100%"></stop>
        </linearGradient>
        <linearGradient x1="591.251885%" y1="-1029.60991%" x2="-128.959276%" y2="406.902671%" id="linearGradient-56">
            <stop stop-color="#7234C8" offset="0%"></stop>
            <stop stop-color="#9056E4" offset="100%"></stop>
        </linearGradient>
        <linearGradient x1="670.185185%" y1="-1273.46759%" x2="-213.888889%" y2="613.072874%" id="linearGradient-57">
            <stop stop-color="#7234C8" offset="0%"></stop>
            <stop stop-color="#9056E4" offset="100%"></stop>
        </linearGradient>
        <linearGradient x1="13.1978684%" y1="90.5348749%" x2="96.4991194%" y2="-8.46144073%" id="linearGradient-58">
            <stop stop-color="#7234C8" offset="0%"></stop>
            <stop stop-color="#9056E4" offset="100%"></stop>
        </linearGradient>
        <linearGradient x1="-3.46313755%" y1="118.257527%" x2="107.043441%" y2="-22.8443306%" id="linearGradient-59">
            <stop stop-color="#351661" offset="0%"></stop>
            <stop stop-color="#4E238E" offset="62%"></stop>
            <stop stop-color="#7234C8" offset="100%"></stop>
        </linearGradient>
        <linearGradient x1="52.2246905%" y1="29.4811019%" x2="12.1728339%" y2="398.949391%" id="linearGradient-60">
            <stop stop-color="#351661" offset="0%"></stop>
            <stop stop-color="#4E238E" offset="62%"></stop>
            <stop stop-color="#7234C8" offset="100%"></stop>
        </linearGradient>
        <linearGradient x1="-91.3602929%" y1="1042.29765%" x2="369.533162%" y2="-2193.21149%" id="linearGradient-61">
            <stop stop-color="#7234C8" offset="0%"></stop>
            <stop stop-color="#9056E4" offset="100%"></stop>
        </linearGradient>
        <linearGradient x1="-92.0634921%" y1="963.811632%" x2="333.786848%" y2="-1776.07555%" id="linearGradient-62">
            <stop stop-color="#7234C8" offset="0%"></stop>
            <stop stop-color="#9056E4" offset="100%"></stop>
        </linearGradient>
        <linearGradient x1="-116.099773%" y1="1120.51357%" x2="309.977324%" y2="-1625.74545%" id="linearGradient-63">
            <stop stop-color="#7234C8" offset="0%"></stop>
            <stop stop-color="#9056E4" offset="100%"></stop>
        </linearGradient>
        <linearGradient x1="-114.734167%" y1="1153.31695%" x2="339.88856%" y2="-1891.64619%" id="linearGradient-64">
            <stop stop-color="#7234C8" offset="0%"></stop>
            <stop stop-color="#9056E4" offset="100%"></stop>
        </linearGradient>
        <linearGradient x1="-104.133858%" y1="988.585196%" x2="265.748031%" y2="-1263.51041%" id="linearGradient-65">
            <stop stop-color="#7234C8" offset="0%"></stop>
            <stop stop-color="#9056E4" offset="100%"></stop>
        </linearGradient>
        <linearGradient x1="-139.909297%" y1="1272.24793%" x2="285.941043%" y2="-1467.63926%" id="linearGradient-66">
            <stop stop-color="#7234C8" offset="0%"></stop>
            <stop stop-color="#9056E4" offset="100%"></stop>
        </linearGradient>
        <linearGradient x1="-163.945578%" y1="1426.57663%" x2="261.904762%" y2="-1313.31055%" id="linearGradient-67">
            <stop stop-color="#7234C8" offset="0%"></stop>
            <stop stop-color="#9056E4" offset="100%"></stop>
        </linearGradient>
        <linearGradient x1="-166.956866%" y1="1525.56391%" x2="289.564136%" y2="-1580.2005%" id="linearGradient-68">
            <stop stop-color="#7234C8" offset="0%"></stop>
            <stop stop-color="#9056E4" offset="100%"></stop>
        </linearGradient>
        <linearGradient x1="-8.03108808%" y1="358.190488%" x2="235.362694%" y2="-935.207657%" id="linearGradient-69">
            <stop stop-color="#7234C8" offset="0%"></stop>
            <stop stop-color="#9056E4" offset="100%"></stop>
        </linearGradient>
        <linearGradient x1="-34.7008547%" y1="540.081671%" x2="286.495726%" y2="-1321.11725%" id="linearGradient-70">
            <stop stop-color="#7234C8" offset="0%"></stop>
            <stop stop-color="#9056E4" offset="100%"></stop>
        </linearGradient>
        <linearGradient x1="-34.4972067%" y1="508.131281%" x2="227.932961%" y2="-915.608615%" id="linearGradient-71">
            <stop stop-color="#7234C8" offset="0%"></stop>
            <stop stop-color="#9056E4" offset="100%"></stop>
        </linearGradient>
        <linearGradient x1="-21.3748657%" y1="410.423404%" x2="180.343716%" y2="-608.945949%" id="linearGradient-72">
            <stop stop-color="#7234C8" offset="0%"></stop>
            <stop stop-color="#9056E4" offset="100%"></stop>
        </linearGradient>
        <linearGradient x1="-67.8018576%" y1="709.071783%" x2="222.910217%" y2="-918.188136%" id="linearGradient-73">
            <stop stop-color="#7234C8" offset="0%"></stop>
            <stop stop-color="#9056E4" offset="100%"></stop>
        </linearGradient>
        <linearGradient x1="-5.34161491%" y1="340.260407%" x2="227.950311%" y2="-883.593611%" id="linearGradient-74">
            <stop stop-color="#7234C8" offset="0%"></stop>
            <stop stop-color="#9056E4" offset="100%"></stop>
        </linearGradient>
        <linearGradient x1="-57.0194384%" y1="725.445377%" x2="348.812095%" y2="-1835.39878%" id="linearGradient-75">
            <stop stop-color="#7234C8" offset="0%"></stop>
            <stop stop-color="#9056E4" offset="100%"></stop>
        </linearGradient>
        <linearGradient x1="-87.4062324%" y1="1271.00977%" x2="366.905219%" y2="-2765.47231%" id="linearGradient-76">
            <stop stop-color="#7234C8" offset="0%"></stop>
            <stop stop-color="#9056E4" offset="100%"></stop>
        </linearGradient>
        <linearGradient x1="-86.9473684%" y1="906.421053%" x2="308.421053%" y2="-1565.31302%" id="linearGradient-77">
            <stop stop-color="#7234C8" offset="0%"></stop>
            <stop stop-color="#9056E4" offset="100%"></stop>
        </linearGradient>
        <linearGradient x1="-108.16777%" y1="1056.73825%" x2="306.401766%" y2="-1582.18304%" id="linearGradient-78">
            <stop stop-color="#7234C8" offset="0%"></stop>
            <stop stop-color="#9056E4" offset="100%"></stop>
        </linearGradient>
        <linearGradient x1="-36.5364308%" y1="485.465969%" x2="161.774023%" y2="-512.185036%" id="linearGradient-79">
            <stop stop-color="#7234C8" offset="0%"></stop>
            <stop stop-color="#9056E4" offset="100%"></stop>
        </linearGradient>
        <linearGradient x1="-102.186879%" y1="979.940832%" x2="271.172962%" y2="-1302.45703%" id="linearGradient-80">
            <stop stop-color="#7234C8" offset="0%"></stop>
            <stop stop-color="#9056E4" offset="100%"></stop>
        </linearGradient>
        <linearGradient x1="-69.606599%" y1="874.111675%" x2="386.477041%" y2="-2271.06599%" id="linearGradient-81">
            <stop stop-color="#7234C8" offset="0%"></stop>
            <stop stop-color="#9056E4" offset="100%"></stop>
        </linearGradient>
        <linearGradient x1="-19.3877551%" y1="417.326684%" x2="220.153061%" y2="-850.792069%" id="linearGradient-82">
            <stop stop-color="#7234C8" offset="0%"></stop>
            <stop stop-color="#9056E4" offset="100%"></stop>
        </linearGradient>
        <linearGradient x1="-3.80952381%" y1="308.71764%" x2="158.787879%" y2="-473.43142%" id="linearGradient-83">
            <stop stop-color="#7234C8" offset="0%"></stop>
            <stop stop-color="#9056E4" offset="100%"></stop>
        </linearGradient>
        <linearGradient x1="-22.4489796%" y1="427.456697%" x2="203.0012%" y2="-745.958792%" id="linearGradient-84">
            <stop stop-color="#7234C8" offset="0%"></stop>
            <stop stop-color="#9056E4" offset="100%"></stop>
        </linearGradient>
        <linearGradient x1="-50.5263158%" y1="586.794062%" x2="196.578947%" y2="-732.644997%" id="linearGradient-85">
            <stop stop-color="#7234C8" offset="0%"></stop>
            <stop stop-color="#9056E4" offset="100%"></stop>
        </linearGradient>
        <linearGradient x1="-193.944672%" y1="1761.6188%" x2="267.1942%" y2="-1473.89034%" id="linearGradient-86">
            <stop stop-color="#7234C8" offset="0%"></stop>
            <stop stop-color="#9056E4" offset="100%"></stop>
        </linearGradient>
        <linearGradient x1="-186.848073%" y1="1572.94569%" x2="239.229025%" y2="-1167.1626%" id="linearGradient-87">
            <stop stop-color="#7234C8" offset="0%"></stop>
            <stop stop-color="#9056E4" offset="100%"></stop>
        </linearGradient>
        <linearGradient x1="-213.151927%" y1="1742.75148%" x2="212.92517%" y2="-997.13571%" id="linearGradient-88">
            <stop stop-color="#7234C8" offset="0%"></stop>
            <stop stop-color="#9056E4" offset="100%"></stop>
        </linearGradient>
        <linearGradient x1="-217.234403%" y1="1834.23645%" x2="239.873875%" y2="-1217.9803%" id="linearGradient-89">
            <stop stop-color="#7234C8" offset="0%"></stop>
            <stop stop-color="#9056E4" offset="100%"></stop>
        </linearGradient>
        <linearGradient x1="-188.015717%" y1="1496.65703%" x2="181.139489%" y2="-746.779193%" id="linearGradient-90">
            <stop stop-color="#7234C8" offset="0%"></stop>
            <stop stop-color="#9056E4" offset="100%"></stop>
        </linearGradient>
        <linearGradient x1="-74.845679%" y1="748.528711%" x2="215.123457%" y2="-874.735178%" id="linearGradient-91">
            <stop stop-color="#7234C8" offset="0%"></stop>
            <stop stop-color="#9056E4" offset="100%"></stop>
        </linearGradient>
        <linearGradient x1="-62.0466321%" y1="644.706821%" x2="181.217617%" y2="-646.611906%" id="linearGradient-92">
            <stop stop-color="#7234C8" offset="0%"></stop>
            <stop stop-color="#9056E4" offset="100%"></stop>
        </linearGradient>
        <linearGradient x1="-105.982906%" y1="952.031558%" x2="215.042735%" y2="-905.696252%" id="linearGradient-93">
            <stop stop-color="#7234C8" offset="0%"></stop>
            <stop stop-color="#9056E4" offset="100%"></stop>
        </linearGradient>
        <linearGradient x1="-92.7374302%" y1="824.543456%" x2="169.553073%" y2="-599.19644%" id="linearGradient-94">
            <stop stop-color="#7234C8" offset="0%"></stop>
            <stop stop-color="#9056E4" offset="100%"></stop>
        </linearGradient>
        <linearGradient x1="-57.2670807%" y1="613.177887%" x2="176.149068%" y2="-612.588403%" id="linearGradient-95">
            <stop stop-color="#7234C8" offset="0%"></stop>
            <stop stop-color="#9056E4" offset="100%"></stop>
        </linearGradient>
        <linearGradient x1="-188.525608%" y1="2168.40391%" x2="266.027756%" y2="-1868.07818%" id="linearGradient-96">
            <stop stop-color="#7234C8" offset="0%"></stop>
            <stop stop-color="#9056E4" offset="100%"></stop>
        </linearGradient>
        <linearGradient x1="-79.8920378%" y1="747.411038%" x2="173.549258%" y2="-613.4767%" id="linearGradient-97">
            <stop stop-color="#7234C8" offset="0%"></stop>
            <stop stop-color="#9056E4" offset="100%"></stop>
        </linearGradient>
        <linearGradient x1="-174.947368%" y1="1455.49584%" x2="220.421053%" y2="-1016.03878%" id="linearGradient-98">
            <stop stop-color="#7234C8" offset="0%"></stop>
            <stop stop-color="#9056E4" offset="100%"></stop>
        </linearGradient>
        <linearGradient x1="-172.003056%" y1="1577.09924%" x2="286.404574%" y2="-1576.33588%" id="linearGradient-99">
            <stop stop-color="#7234C8" offset="0%"></stop>
            <stop stop-color="#9056E4" offset="100%"></stop>
        </linearGradient>
        <linearGradient x1="-72.7040816%" y1="698.172636%" x2="166.964286%" y2="-567.930029%" id="linearGradient-100">
            <stop stop-color="#7234C8" offset="0%"></stop>
            <stop stop-color="#9056E4" offset="100%"></stop>
        </linearGradient>
        <linearGradient x1="-91.0466583%" y1="792.21721%" x2="145.901639%" y2="-455.162686%" id="linearGradient-101">
            <stop stop-color="#7234C8" offset="0%"></stop>
            <stop stop-color="#9056E4" offset="100%"></stop>
        </linearGradient>
        <linearGradient x1="-82.8054299%" y1="786.901374%" x2="200.452489%" y2="-786.170431%" id="linearGradient-102">
            <stop stop-color="#7234C8" offset="0%"></stop>
            <stop stop-color="#9056E4" offset="100%"></stop>
        </linearGradient>
        <linearGradient x1="-99.8144712%" y1="943.215809%" x2="248.608534%" y2="-1134.05365%" id="linearGradient-103">
            <stop stop-color="#7234C8" offset="0%"></stop>
            <stop stop-color="#9056E4" offset="100%"></stop>
        </linearGradient>
        <linearGradient x1="-26.0469316%" y1="-12.6540465%" x2="118.531029%" y2="106.454072%" id="linearGradient-104">
            <stop stop-color="#4E238E" offset="0%"></stop>
            <stop stop-color="#7234C8" offset="100%"></stop>
        </linearGradient>
        <linearGradient x1="100%" y1="50%" x2="0%" y2="50%" id="linearGradient-105">
            <stop stop-color="#1F0F36" offset="0%"></stop>
            <stop stop-color="#22113B" offset="42.680124%"></stop>
            <stop stop-color="#5C3690" offset="56.108071%"></stop>
            <stop stop-color="#3B1E63" offset="100%"></stop>
        </linearGradient>
        <linearGradient x1="32.2657816%" y1="43.1415015%" x2="50%" y2="66.778785%" id="linearGradient-106">
            <stop stop-color="#22103A" stop-opacity="0" offset="0%"></stop>
            <stop stop-color="#140A21" offset="100%"></stop>
        </linearGradient>
        <linearGradient x1="3.79554845%" y1="50%" x2="95.8046806%" y2="50%" id="linearGradient-107">
            <stop stop-color="#4B2188" offset="0%"></stop>
            <stop stop-color="#492084" offset="43.1526484%"></stop>
            <stop stop-color="#361664" offset="58.914017%"></stop>
            <stop stop-color="#341560" offset="100%"></stop>
        </linearGradient>
        <path d="M62.4194058,3.51962847 L104.823994,28.3493511 C107.11164,29.6888667 107.880251,32.6292619 106.540735,34.9169076 C106.123147,35.6300722 105.5285,36.2233395 104.814367,36.6392708 L62.4038642,61.3403677 C58.6946476,63.5007221 54.1139816,63.5153014 50.3910884,61.3786018 L7.24431231,36.6151471 C4.94511532,35.295557 4.15098706,32.3619504 5.47057721,30.0627534 C5.89325797,29.3262927 6.50373913,28.7151396 7.23973448,28.291649 L50.3711189,3.47391665 C54.1043823,1.32580264 58.7025498,1.34324833 62.4194058,3.51962847 Z" id="path-108"></path>
        <linearGradient x1="50%" y1="30.3180506%" x2="50%" y2="87.4220758%" id="linearGradient-110">
            <stop stop-color="#83EFC2" stop-opacity="0.138467002" offset="0%"></stop>
            <stop stop-color="#83EFC2" stop-opacity="0.368908435" offset="100%"></stop>
        </linearGradient>
        <path d="M62.4194058,3.51962847 L104.823994,28.3493511 C107.11164,29.6888667 107.880251,32.6292619 106.540735,34.9169076 C106.123147,35.6300722 105.5285,36.2233395 104.814367,36.6392708 L62.4038642,61.3403677 C58.6946476,63.5007221 54.1139816,63.5153014 50.3910884,61.3786018 L7.24431231,36.6151471 C4.94511532,35.295557 4.15098706,32.3619504 5.47057721,30.0627534 C5.89325797,29.3262927 6.50373913,28.7151396 7.23973448,28.291649 L50.3711189,3.47391665 C54.1043823,1.32580264 58.7025498,1.34324833 62.4194058,3.51962847 Z" id="path-111"></path>
        <path d="M62.4194058,3.51962847 L104.823994,28.3493511 C107.11164,29.6888667 107.880251,32.6292619 106.540735,34.9169076 C106.123147,35.6300722 105.5285,36.2233395 104.814367,36.6392708 L62.4038642,61.3403677 C58.6946476,63.5007221 54.1139816,63.5153014 50.3910884,61.3786018 L7.24431231,36.6151471 C4.94511532,35.295557 4.15098706,32.3619504 5.47057721,30.0627534 C5.89325797,29.3262927 6.50373913,28.7151396 7.23973448,28.291649 L50.3711189,3.47391665 C54.1043823,1.32580264 58.7025498,1.34324833 62.4194058,3.51962847 Z" id="path-113"></path>
        <path d="M3.7772561,11.5288307 L20.6020697,1.75633336 C22.4728354,0.669720869 24.7815367,0.665133597 26.6566056,1.7443033 L67.8942237,25.4780373 C69.1004676,26.1722741 69.5155313,27.7129181 68.8212945,28.919162 C68.6029491,29.2985396 68.2895498,29.6145007 67.9119623,29.8359273 L51.2722385,39.5938737 C49.4018486,40.6907166 47.0874083,40.7023725 45.2060658,39.624424 L3.79014614,15.8944375 C2.58256366,15.2025317 2.16452512,13.6626922 2.85643095,12.4551097 C3.07663371,12.0707901 3.3942435,11.7512992 3.7772561,11.5288307 Z" id="path-115"></path>
        <filter x="-20.6%" y="-39.5%" width="141.2%" height="179.0%" filterUnits="objectBoundingBox" id="filter-117">
            <feGaussianBlur stdDeviation="5.76" in="SourceGraphic"></feGaussianBlur>
        </filter>
        <linearGradient x1="90.0591358%" y1="35.3645415%" x2="52.2690735%" y2="48.2332333%" id="linearGradient-118">
            <stop stop-color="#FD9369" offset="0%"></stop>
            <stop stop-color="#FFC5A2" stop-opacity="0" offset="100%"></stop>
        </linearGradient>
        <linearGradient x1="90.0591358%" y1="35.6595881%" x2="52.2690735%" y2="48.2688508%" id="linearGradient-119">
            <stop stop-color="#FD9369" offset="0%"></stop>
            <stop stop-color="#FFC5A2" stop-opacity="0" offset="100%"></stop>
        </linearGradient>
        <linearGradient x1="90.0591358%" y1="35.643486%" x2="52.2690735%" y2="48.266907%" id="linearGradient-120">
            <stop stop-color="#FD9369" offset="0%"></stop>
            <stop stop-color="#FFC5A2" stop-opacity="0" offset="100%"></stop>
        </linearGradient>
        <linearGradient x1="90.0591358%" y1="35.7903514%" x2="52.2690735%" y2="48.2846363%" id="linearGradient-121">
            <stop stop-color="#FD9369" offset="0%"></stop>
            <stop stop-color="#FFC5A2" stop-opacity="0" offset="100%"></stop>
        </linearGradient>
        <linearGradient x1="90.0591358%" y1="35.6437993%" x2="52.2690735%" y2="48.2669448%" id="linearGradient-122">
            <stop stop-color="#FD9369" offset="0%"></stop>
            <stop stop-color="#FFC5A2" stop-opacity="0" offset="100%"></stop>
        </linearGradient>
        <linearGradient x1="90.0591358%" y1="35.6976508%" x2="52.2690735%" y2="48.2734457%" id="linearGradient-123">
            <stop stop-color="#FD9369" offset="0%"></stop>
            <stop stop-color="#FFC5A2" stop-opacity="0" offset="100%"></stop>
        </linearGradient>
        <linearGradient x1="90.0591358%" y1="35.6181316%" x2="52.2690735%" y2="48.2638463%" id="linearGradient-124">
            <stop stop-color="#FD9369" offset="0%"></stop>
            <stop stop-color="#FFC5A2" stop-opacity="0" offset="100%"></stop>
        </linearGradient>
        <linearGradient x1="90.0591358%" y1="35.3275348%" x2="52.2690735%" y2="48.2287659%" id="linearGradient-125">
            <stop stop-color="#FD9369" offset="0%"></stop>
            <stop stop-color="#FFC5A2" stop-opacity="0" offset="100%"></stop>
        </linearGradient>
        <linearGradient x1="90.0591358%" y1="35.5666148%" x2="52.2690735%" y2="48.2576272%" id="linearGradient-126">
            <stop stop-color="#FD9369" offset="0%"></stop>
            <stop stop-color="#FFC5A2" stop-opacity="0" offset="100%"></stop>
        </linearGradient>
        <linearGradient x1="90.0591358%" y1="35.5279166%" x2="52.2690735%" y2="48.2529557%" id="linearGradient-127">
            <stop stop-color="#FD9369" offset="0%"></stop>
            <stop stop-color="#FFC5A2" stop-opacity="0" offset="100%"></stop>
        </linearGradient>
        <linearGradient x1="90.0591358%" y1="35.0368462%" x2="52.2690735%" y2="48.1936745%" id="linearGradient-128">
            <stop stop-color="#FD9369" offset="0%"></stop>
            <stop stop-color="#FFC5A2" stop-opacity="0" offset="100%"></stop>
        </linearGradient>
        <linearGradient x1="90.0591358%" y1="35.4173828%" x2="52.8887317%" y2="48.3874823%" id="linearGradient-129">
            <stop stop-color="#FD9369" offset="0%"></stop>
            <stop stop-color="#FFC5A2" stop-opacity="0" offset="100%"></stop>
        </linearGradient>
        <linearGradient x1="90.0591358%" y1="35.6311916%" x2="52.2690735%" y2="48.2654228%" id="linearGradient-130">
            <stop stop-color="#FD9369" offset="0%"></stop>
            <stop stop-color="#FFC5A2" stop-opacity="0" offset="100%"></stop>
        </linearGradient>
        <linearGradient x1="50%" y1="0%" x2="50%" y2="100%" id="linearGradient-131">
            <stop stop-color="#83EFC2" stop-opacity="0" offset="0%"></stop>
            <stop stop-color="#83EFC2" stop-opacity="0.0448996672" offset="8.91952609%"></stop>
            <stop stop-color="#83EFC2" offset="37.2477622%"></stop>
            <stop stop-color="#83EFC2" offset="69.3727617%"></stop>
            <stop stop-color="#83EFC2" offset="89.2630912%"></stop>
            <stop stop-color="#83EFC2" stop-opacity="0" offset="100%"></stop>
        </linearGradient>
        <linearGradient x1="43.3039158%" y1="81.3827947%" x2="30.5775389%" y2="93.8924022%" id="linearGradient-132">
            <stop stop-color="#F1A781" offset="0%"></stop>
            <stop stop-color="#F0A781" stop-opacity="0" offset="100%"></stop>
        </linearGradient>
    </defs>
    <g id="Workers" stroke="none" stroke-width="1" fill="none" fill-rule="evenodd">
        <g id="Worker-Rewards" transform="translate(-9.000000, -1.000000)">
            <g id="Group" transform="translate(0.000000, -49.000000)">
                <line x1="210.662745" y1="250.11364" x2="0" y2="125" id="Path-2" stroke="url(#linearGradient-1)" stroke-width="3" stroke-linecap="round" stroke-linejoin="round"></line>
                <g id="Gen-2/Worker-Rewards" transform="translate(92.000000, 0.000000)">
                    <g id="Group-5" stroke-width="1" fill-rule="evenodd" transform="translate(34.783934, 182.315789)">
                        <path d="M25.4379486,160.218836 L155.878212,235.980817 C171.53042,245.071892 190.855665,245.071311 206.507326,235.979293 L340.64023,158.061763 C348.376658,153.567688 351.005105,143.652905 346.511029,135.916477 C345.109583,133.503924 343.108801,131.494215 340.702512,130.082042 L211.746223,54.4017704 C196.132839,45.2387809 176.804521,45.1536148 161.110996,54.1786571 L25.4982657,132.16691 C17.7423141,136.627208 15.0706585,146.530435 19.530956,154.286386 C20.9461603,156.747266 22.9831774,158.793062 25.4379486,160.218836 Z" id="Path-2-Copy" fill="#180F27" opacity="0.495140439" filter="url(#filter-2)"></path>
                        <path d="M24.2385026,120.637118 L154.678766,196.3991 C170.330974,205.490175 189.65622,205.489593 205.30788,196.397576 L339.440784,118.480046 C347.177212,113.98597 349.805659,104.071188 345.311583,96.3347591 C343.910137,93.922207 341.909355,91.912498 339.503066,90.5003248 L210.546777,14.8200529 C194.933393,5.65706348 175.605075,5.57189739 159.91155,14.5969397 L24.2988198,92.5851929 C16.5428681,97.0454904 13.8712125,106.948717 18.33151,114.704669 C19.7467143,117.165549 21.7837315,119.211345 24.2385026,120.637118 Z" id="Path-2" fill="url(#linearGradient-3)"></path>
                        <path d="M77.3883924,110.215802 L164.326812,160.567701 C174.743426,166.600664 187.591528,166.600278 198.00778,160.566688 L287.408541,108.781505 C292.569855,105.791825 294.330314,99.1841388 291.340634,94.0228243 C290.403781,92.405462 289.063215,91.0589236 287.450034,90.1148892 L201.500651,39.8172765 C191.109756,33.7365209 178.25961,33.6799794 167.815607,39.6690601 L77.4285752,91.5012205 C72.2542914,94.4683974 70.4650777,101.068355 73.4322545,106.242639 C74.3781957,107.89221 75.742899,109.262786 77.3883924,110.215802 Z" id="Path-2" stroke="url(#linearGradient-4)" stroke-width="2.4"></path>
                    </g>
                    <path d="M282.615261,279.321964 C287.345116,282.018409 290.265928,287.048707 290.265928,292.498138 C290.265928,297.947569 287.345116,302.977867 282.615261,305.674312 L231.670173,335.129908 C221.721015,340.880982 209.463147,340.880982 199.513989,335.129908 L149.124189,305.997777 C144.427044,303.276498 141.534626,298.254997 141.534626,292.821604 C141.534626,287.388211 144.427044,282.36671 149.124189,279.64543 L200.079373,250.199942 C210.024849,244.448588 222.279985,244.448588 232.225461,250.199942 L282.615261,279.321964 Z" id="Path" fill-opacity="0.542941434" fill="#1B1229" fill-rule="nonzero" filter="url(#filter-5)"></path>
                    <g id="Artboard-1" stroke-width="1" fill-rule="evenodd" transform="translate(127.141274, 123.542936)">
                        <path d="M177.338089,69.4599169 L177.338089,55.7982271 L166.950886,55.7982271 L108.681801,22.1537673 C96.8663253,15.3292415 82.3069157,15.3292415 70.4914404,22.1537673 L12.2223546,55.7982271 L0.935567867,55.7982271 L0.935567867,145.960582 C0.935567867,152.397469 4.37594766,158.343519 9.95540166,161.55338 L69.8197507,196.109418 C81.6396003,202.933612 96.2022556,202.933612 108.022105,196.109418 L168.54615,161.157562 C174.130222,157.950758 177.574691,152.004131 177.577978,145.564765 C177.577978,144.593213 177.518006,70.4074792 177.338089,69.4599169 Z" id="Path" fill="url(#linearGradient-6)" fill-rule="nonzero"></path>
                        <path d="M168.54615,39.6776731 C174.165335,42.87726 177.635334,48.8461848 177.635334,55.3124515 C177.635334,61.7787182 174.165335,67.747643 168.54615,70.9472299 L108.022105,105.899086 C96.2022556,112.723279 81.6396003,112.723279 69.8197507,105.899086 L9.95540166,71.3310526 C4.37507513,68.1019964 0.938810483,62.14351 0.938810483,55.6962742 C0.938810483,49.2490385 4.37507513,43.2905521 9.95540166,40.0614958 L70.4914404,5.12163435 C82.3069157,-1.70289145 96.8663253,-1.70289145 108.681801,5.12163435 L168.54615,39.6776731 Z" id="Path" fill="url(#linearGradient-7)" fill-rule="nonzero"></path>
                        <path d="M176.066676,55.3184488 C176.077718,61.2503172 172.922704,66.7372994 167.790499,69.7118006 L107.266454,104.59169 C95.9148664,111.14839 81.9269895,111.14839 70.5754017,104.59169 L10.7110526,70.035651 C5.57884764,67.0611498 2.42383288,61.5741676 2.43487535,55.6422992 C2.43487535,46.9343213 5.78132964,43.3359834 5.78132964,43.3359834 C1.98677491,47.3502141 0.246520603,52.8850451 1.06112016,58.3484801 C1.87571971,63.811915 5.15487749,68.5983504 9.95540166,71.3310526 L69.8197507,105.899086 C81.638273,112.728231 96.203583,112.728231 108.022105,105.899086 L168.54615,70.9472299 C173.260229,68.260036 176.509734,63.5888148 177.389712,58.2344526 C178.26969,52.8800904 176.686137,47.4145665 173.080055,43.3599723 C173.080055,43.3599723 176.066676,46.5624931 176.066676,55.3184488 Z" id="Path" fill="url(#linearGradient-8)" fill-rule="nonzero"></path>
                        <polygon id="Path" fill="url(#linearGradient-9)" fill-rule="nonzero" points="166.615042 148.227535 112.352105 179.557064 112.352105 117.281828 166.615042 85.9522992"></polygon>
                        <polygon id="Path" fill="url(#linearGradient-10)" fill-rule="nonzero" points="163.892299 87.5355679 163.892299 146.608283 112.352105 176.366537 112.352105 179.557064 166.615042 148.227535 166.615042 85.9522992"></polygon>
                        <polygon id="Path" fill="url(#linearGradient-11)" fill-rule="nonzero" points="121.91169 117.725623 117.593684 120.208476 117.593684 118.109446 121.91169 115.614598"></polygon>
                        <polygon id="Path" fill="url(#linearGradient-12)" fill-rule="nonzero" points="122.883241 121.443906 117.593684 124.490499 117.593684 122.391468 122.883241 119.332881"></polygon>
                        <polygon id="Path" fill="url(#linearGradient-13)" fill-rule="nonzero" points="122.883241 129.995956 117.593684 133.054543 117.593684 130.943518 122.883241 127.896925"></polygon>
                        <polygon id="Path" fill="url(#linearGradient-14)" fill-rule="nonzero" points="122.403463 126.001801 117.593684 128.772521 117.593684 126.661496 122.403463 123.890776"></polygon>
                        <polygon id="Path" fill="url(#linearGradient-15)" fill-rule="nonzero" points="117.593684 137.324571 117.593684 135.22554 123.68687 131.699169 123.68687 133.810194"></polygon>
                        <polygon id="Path" fill="url(#linearGradient-16)" fill-rule="nonzero" points="122.883241 138.56 117.593684 141.606593 117.593684 139.507562 122.883241 136.448975"></polygon>
                        <polygon id="Path" fill="url(#linearGradient-17)" fill-rule="nonzero" points="122.883241 147.11205 117.593684 150.170637 117.593684 148.059612 122.883241 145.013019"></polygon>
                        <polygon id="Path" fill="url(#linearGradient-18)" fill-rule="nonzero" points="122.23554 143.201856 117.593684 145.888615 117.593684 143.77759 122.23554 141.102825"></polygon>
                        <polygon id="Path" fill="url(#linearGradient-19)" fill-rule="nonzero" points="158.878615 96.3754848 151.094211 100.861413 151.094211 98.7623823 158.878615 94.2764543"></polygon>
                        <polygon id="Path" fill="url(#linearGradient-20)" fill-rule="nonzero" points="158.878615 100.657507 149.618892 106.007036 149.618892 103.896011 158.878615 98.5584765"></polygon>
                        <polygon id="Path" fill="url(#linearGradient-21)" fill-rule="nonzero" points="158.878615 109.221551 154.440665 111.776371 154.440665 109.677341 158.878615 107.110526"></polygon>
                        <polygon id="Path" fill="url(#linearGradient-22)" fill-rule="nonzero" points="158.878615 104.939529 151.849861 108.993657 151.849861 106.882632 158.878615 102.828504"></polygon>
                        <polygon id="Path" fill="#FD9369" points="158.878615 113.491579 150.290582 118.445291 150.290582 116.34626 158.878615 111.392548"></polygon>
                        <polygon id="Path" fill="url(#linearGradient-23)" fill-rule="nonzero" points="158.878615 117.773601 147.699778 124.22662 147.699778 122.115596 158.878615 115.674571"></polygon>
                        <polygon id="Path" fill="url(#linearGradient-24)" fill-rule="nonzero" points="158.878615 126.337645 151.130194 130.799584 151.130194 128.700554 158.878615 124.22662"></polygon>
                        <polygon id="Path" fill="url(#linearGradient-25)" fill-rule="nonzero" points="158.878615 122.055623 148.77928 127.884931 148.77928 125.773906 158.878615 119.944598"></polygon>
                        <polygon id="Path" fill="url(#linearGradient-26)" fill-rule="nonzero" points="149.426981 101.832964 139.77144 107.410388 139.77144 105.299363 149.426981 99.7339335"></polygon>
                        <polygon id="Path" fill="url(#linearGradient-27)" fill-rule="nonzero" points="147.939668 106.966593 142.386233 110.181108 142.386233 108.070083 147.939668 104.867562"></polygon>
                        <polygon id="Path" fill="url(#linearGradient-28)" fill-rule="nonzero" points="152.76144 112.747922 150.026704 114.319197 150.026704 112.220166 152.76144 110.636898"></polygon>
                        <polygon id="Path" fill="url(#linearGradient-29)" fill-rule="nonzero" points="150.170637 109.953213 141.294737 115.086842 141.294737 112.975817 150.170637 107.854183"></polygon>
                        <polygon id="Path" fill="url(#linearGradient-30)" fill-rule="nonzero" points="148.611357 119.416842 142.901994 122.715319 142.901994 120.604294 148.611357 117.317812"></polygon>
                        <polygon id="Path" fill="url(#linearGradient-31)" fill-rule="nonzero" points="146.032548 125.186177 140.599058 128.328726 140.599058 126.217701 146.032548 123.087147"></polygon>
                        <polygon id="Path" fill="url(#linearGradient-32)" fill-rule="nonzero" points="149.45097 131.771136 138.092216 138.332105 138.092216 136.22108 149.45097 129.672105"></polygon>
                        <polygon id="Path" fill="url(#linearGradient-33)" fill-rule="nonzero" points="147.100055 128.856482 141.066842 132.334875 141.066842 130.235845 147.100055 126.745457"></polygon>
                        <polygon id="Path" fill="url(#linearGradient-34)" fill-rule="nonzero" points="137.984266 108.441911 133.45036 111.056704 133.45036 108.945679 137.984266 106.330886"></polygon>
                        <polygon id="Path" fill="url(#linearGradient-35)" fill-rule="nonzero" points="140.599058 111.212632 131.195402 116.646122 131.195402 114.535097 140.599058 109.101607"></polygon>
                        <polygon id="Path" fill="url(#linearGradient-36)" fill-rule="nonzero" points="148.239529 115.35072 134.385928 123.351025 134.385928 121.251994 148.239529 113.25169"></polygon>
                        <polygon id="Path" fill="#FD9369" points="139.507562 116.118366 129.516177 121.887701 129.516177 119.776676 139.507562 114.007341"></polygon>
                        <polygon id="Path" fill="url(#linearGradient-37)" fill-rule="nonzero" points="141.11482 123.746842 131.615208 129.240305 131.615208 127.12928 141.11482 121.635817"></polygon>
                        <polygon id="Path" fill="url(#linearGradient-38)" fill-rule="nonzero" points="138.811884 129.360249 129.696094 134.625817 129.696094 132.514792 138.811884 127.249224"></polygon>
                        <polygon id="Path" fill="url(#linearGradient-39)" fill-rule="nonzero" points="121.91169 151.514017 117.593684 154.008864 117.593684 151.897839 121.91169 149.414986"></polygon>
                        <polygon id="Path" fill="url(#linearGradient-40)" fill-rule="nonzero" points="122.883241 155.232299 117.593684 158.290886 117.593684 156.179861 122.883241 153.133269"></polygon>
                        <polygon id="Path" fill="url(#linearGradient-41)" fill-rule="nonzero" points="123.446981 164.587978 118.157424 167.634571 118.157424 165.53554 123.446981 162.476953"></polygon>
                        <polygon id="Path" fill="url(#linearGradient-42)" fill-rule="nonzero" points="122.403463 159.790194 117.593684 162.560914 117.593684 160.461884 122.403463 157.691163"></polygon>
                        <polygon id="Path" fill="url(#linearGradient-43)" fill-rule="nonzero" points="124.262604 168.402216 118.157424 171.916593 118.157424 169.805568 124.262604 166.291191"></polygon>
                        <polygon id="Path" fill="url(#linearGradient-44)" fill-rule="nonzero" points="158.878615 130.175873 151.094211 134.661801 151.094211 132.56277 158.878615 128.064848"></polygon>
                        <polygon id="Path" fill="url(#linearGradient-45)" fill-rule="nonzero" points="158.878615 134.457895 149.618892 139.795429 149.618892 137.696399 158.878615 132.34687"></polygon>
                        <polygon id="Path" fill="url(#linearGradient-46)" fill-rule="nonzero" points="158.878615 143.009945 154.440665 145.576759 154.440665 143.465734 158.878615 140.910914"></polygon>
                        <polygon id="Path" fill="#FD9369" points="158.878615 138.727922 151.849861 142.78205 151.849861 140.683019 158.878615 136.628892"></polygon>
                        <polygon id="Path" fill="url(#linearGradient-47)" fill-rule="nonzero" points="158.878615 147.291967 150.290582 152.245679 150.290582 150.146648 158.878615 145.192936"></polygon>
                        <polygon id="Path" fill="#FD9369" points="149.426981 135.633352 139.77144 141.198781 139.77144 139.099751 149.426981 133.522327"></polygon>
                        <polygon id="Path" fill="url(#linearGradient-48)" fill-rule="nonzero" points="147.939668 140.766981 142.386233 143.969501 142.386233 141.870471 147.939668 138.66795"></polygon>
                        <polygon id="Path" fill="url(#linearGradient-49)" fill-rule="nonzero" points="152.76144 146.536316 150.026704 148.119584 150.026704 146.00856 152.76144 144.437285"></polygon>
                        <polygon id="Path" fill="url(#linearGradient-50)" fill-rule="nonzero" points="150.170637 143.753601 141.294737 148.88723 141.294737 146.776205 150.170637 141.642576"></polygon>
                        <polygon id="Path" fill="url(#linearGradient-51)" fill-rule="nonzero" points="148.611357 153.21723 142.901994 156.515706 142.901994 154.404681 148.611357 151.106205"></polygon>
                        <polygon id="Path" fill="url(#linearGradient-52)" fill-rule="nonzero" points="137.984266 142.230305 133.45036 144.845097 133.45036 142.746066 137.984266 140.131274"></polygon>
                        <polygon id="Path" fill="#FD9369" points="140.599058 145.001025 131.195402 150.434515 131.195402 148.335485 140.599058 142.901994"></polygon>
                        <polygon id="Path" fill="url(#linearGradient-53)" fill-rule="nonzero" points="148.239529 149.151108 134.385928 157.151413 134.385928 155.052382 148.239529 147.052078"></polygon>
                        <polygon id="Path" fill="url(#linearGradient-54)" fill-rule="nonzero" points="139.507562 149.906759 129.516177 155.676094 129.516177 153.577064 139.507562 147.807729"></polygon>
                        <polygon id="Path" fill="url(#linearGradient-55)" fill-rule="nonzero" points="141.11482 157.535235 131.615208 163.028698 131.615208 160.929668 141.11482 155.436205"></polygon>
                        <polygon id="Path" fill="url(#linearGradient-56)" fill-rule="nonzero" points="136.305042 139.363629 128.352715 143.957507 128.352715 141.846482 136.305042 137.252604"></polygon>
                        <polygon id="Path" fill="url(#linearGradient-57)" fill-rule="nonzero" points="139.279668 133.366399 132.802659 137.10867 132.802659 134.997645 139.279668 131.267368"></polygon>
                        <polygon id="Path" fill="url(#linearGradient-58)" fill-rule="nonzero" points="112.807895 179.293186 111.872327 179.832936 111.884321 117.01795 166.603047 85.4245429 166.627036 86.4920499 112.819889 117.557701"></polygon>
                        <polygon id="Path" fill="url(#linearGradient-59)" fill-rule="nonzero" points="68.5603324 116.13036 14.2854017 84.7888366 14.2854017 147.064072 68.5603324 178.405596"></polygon>
                        <polygon id="Path" fill="url(#linearGradient-60)" fill-rule="nonzero" points="17.008144 86.3721053 17.008144 145.44482 68.5603324 175.203075 68.5603324 178.405596 14.2854017 147.064072 14.2854017 84.7888366"></polygon>
                        <polygon id="Path" fill="url(#linearGradient-61)" fill-rule="nonzero" points="26.0039889 146.632271 21.6859834 144.149418 21.6859834 146.248449 26.0039889 148.743296"></polygon>
                        <polygon id="Path" fill="url(#linearGradient-62)" fill-rule="nonzero" points="26.9755402 142.925983 21.6859834 139.867396 21.6859834 141.966427 26.9755402 145.025014"></polygon>
                        <polygon id="Path" fill="url(#linearGradient-63)" fill-rule="nonzero" points="26.9755402 134.361939 21.6859834 131.303352 21.6859834 133.414377 26.9755402 136.472964"></polygon>
                        <polygon id="Path" fill="url(#linearGradient-64)" fill-rule="nonzero" points="26.4957618 138.368089 21.6859834 135.585374 21.6859834 137.696399 26.4957618 140.467119"></polygon>
                        <polygon id="Path" fill="url(#linearGradient-65)" fill-rule="nonzero" points="27.779169 130.547701 21.6859834 127.033324 21.6859834 129.132355 27.779169 132.658726"></polygon>
                        <polygon id="Path" fill="url(#linearGradient-66)" fill-rule="nonzero" points="26.9755402 125.797895 21.6859834 122.751302 21.6859834 124.850332 26.9755402 127.90892"></polygon>
                        <polygon id="Path" fill="url(#linearGradient-67)" fill-rule="nonzero" points="26.9755402 117.245845 21.6859834 114.187258 21.6859834 116.298283 26.9755402 119.344875"></polygon>
                        <polygon id="Path" fill="url(#linearGradient-68)" fill-rule="nonzero" points="26.3278393 121.144044 21.6859834 118.46928 21.6859834 120.580305 26.3278393 123.255069"></polygon>
                        <polygon id="Path" fill="#FD9369" points="62.9709141 167.98241 55.1985042 163.496482 55.1985042 165.595512 62.9709141 170.08144"></polygon>
                        <polygon id="Path" fill="url(#linearGradient-69)" fill-rule="nonzero" points="62.9709141 163.700388 53.7111911 158.350859 53.7111911 160.461884 62.9709141 165.811413"></polygon>
                        <polygon id="Path" fill="#FD9369" points="62.9709141 155.136343 58.532964 152.581524 58.532964 154.692548 62.9709141 157.247368"></polygon>
                        <polygon id="Path" fill="url(#linearGradient-70)" fill-rule="nonzero" points="62.9709141 159.418366 55.9541551 155.364238 55.9541551 157.475263 62.9709141 161.529391"></polygon>
                        <polygon id="Path" fill="url(#linearGradient-71)" fill-rule="nonzero" points="62.9709141 150.866316 54.3828809 145.900609 54.3828809 148.011634 62.9709141 152.965346"></polygon>
                        <polygon id="Path" fill="url(#linearGradient-72)" fill-rule="nonzero" points="62.9709141 146.584294 51.804072 140.131274 51.804072 142.242299 62.9709141 148.683324"></polygon>
                        <polygon id="Path" fill="url(#linearGradient-73)" fill-rule="nonzero" points="62.9709141 138.020249 55.2224931 133.55831 55.2224931 135.657341 62.9709141 140.131274"></polygon>
                        <polygon id="Path" fill="#FD9369" points="62.9709141 142.302271 52.8715789 136.472964 52.8715789 138.583989 62.9709141 144.413296"></polygon>
                        <polygon id="Path" fill="url(#linearGradient-74)" fill-rule="nonzero" points="53.5192798 162.524931 43.8637396 156.947507 43.8637396 159.058532 53.5192798 164.623961"></polygon>
                        <polygon id="Path" fill="url(#linearGradient-75)" fill-rule="nonzero" points="52.0319668 157.391302 46.4785319 154.176787 46.4785319 156.287812 52.0319668 159.490332"></polygon>
                        <polygon id="Path" fill="url(#linearGradient-76)" fill-rule="nonzero" points="56.8537396 151.609972 54.1190028 150.038698 54.1190028 152.137729 56.8537396 153.720997"></polygon>
                        <polygon id="Path" fill="#FD9369" points="54.2749307 154.404681 45.387036 149.271053 45.387036 151.382078 54.2749307 156.503712"></polygon>
                        <polygon id="Path" fill="url(#linearGradient-77)" fill-rule="nonzero" points="52.7036565 144.941053 47.0062881 141.642576 47.0062881 143.753601 52.7036565 147.040083"></polygon>
                        <polygon id="Path" fill="url(#linearGradient-78)" fill-rule="nonzero" points="50.1248476 139.171717 44.6913573 136.029169 44.6913573 138.140194 50.1248476 141.270748"></polygon>
                        <polygon id="Path" fill="url(#linearGradient-79)" fill-rule="nonzero" points="53.5432687 132.586759 42.1845152 126.025789 42.1845152 128.136814 53.5432687 134.685789"></polygon>
                        <polygon id="Path" fill="url(#linearGradient-80)" fill-rule="nonzero" points="51.1923546 135.501413 45.1591413 132.023019 45.1591413 134.12205 51.1923546 137.612438"></polygon>
                        <polygon id="Path" fill="url(#linearGradient-81)" fill-rule="nonzero" points="42.0765651 155.915983 37.5546537 153.301191 37.5546537 155.412216 42.0765651 158.027008"></polygon>
                        <polygon id="Path" fill="url(#linearGradient-82)" fill-rule="nonzero" points="44.6913573 153.145263 35.2877008 147.711773 35.2877008 149.822798 44.6913573 155.256288"></polygon>
                        <polygon id="Path" fill="url(#linearGradient-83)" fill-rule="nonzero" points="52.3318283 149.007175 38.4782271 141.00687 38.4782271 143.1059 52.3318283 151.106205"></polygon>
                        <polygon id="Path" fill="url(#linearGradient-84)" fill-rule="nonzero" points="43.5998615 148.239529 33.6084765 142.470194 33.6084765 144.581219 43.5998615 150.350554"></polygon>
                        <polygon id="Path" fill="#FD9369" points="45.2191136 140.611053 35.7075069 135.11759 35.7075069 137.228615 45.2191136 142.722078"></polygon>
                        <polygon id="Path" fill="url(#linearGradient-85)" fill-rule="nonzero" points="42.9041828 134.997645 33.7883934 129.732078 33.7883934 131.843102 42.9041828 137.10867"></polygon>
                        <polygon id="Path" fill="url(#linearGradient-86)" fill-rule="nonzero" points="26.0039889 112.843878 21.6859834 110.34903 21.6859834 112.460055 26.0039889 114.942909"></polygon>
                        <polygon id="Path" fill="url(#linearGradient-87)" fill-rule="nonzero" points="26.9755402 109.125596 21.6859834 106.067008 21.6859834 108.178033 26.9755402 111.224626"></polygon>
                        <polygon id="Path" fill="url(#linearGradient-88)" fill-rule="nonzero" points="27.5392798 99.7699169 22.249723 96.7233241 22.249723 98.8223546 27.5392798 101.880942"></polygon>
                        <polygon id="Path" fill="url(#linearGradient-89)" fill-rule="nonzero" points="26.4957618 104.567701 21.6859834 101.796981 21.6859834 103.896011 26.4957618 106.666731"></polygon>
                        <polygon id="Path" fill="url(#linearGradient-90)" fill-rule="nonzero" points="28.354903 95.9556787 22.249723 92.4413019 22.249723 94.5523269 28.354903 98.0667036"></polygon>
                        <polygon id="Path" fill="url(#linearGradient-91)" fill-rule="nonzero" points="62.9709141 134.182022 55.1985042 129.696094 55.1985042 131.795125 62.9709141 136.293047"></polygon>
                        <polygon id="Path" fill="url(#linearGradient-92)" fill-rule="nonzero" points="62.9709141 129.9 53.7111911 124.562465 53.7111911 126.661496 62.9709141 132.011025"></polygon>
                        <polygon id="Path" fill="#FD9369" points="62.9709141 121.34795 58.532964 118.781136 58.532964 120.892161 62.9709141 123.446981"></polygon>
                        <polygon id="Path" fill="url(#linearGradient-93)" fill-rule="nonzero" points="62.9709141 125.629972 55.9541551 121.575845 55.9541551 123.674875 62.9709141 127.729003"></polygon>
                        <polygon id="Path" fill="url(#linearGradient-94)" fill-rule="nonzero" points="62.9709141 117.065928 54.3828809 112.112216 54.3828809 114.211247 62.9709141 119.176953"></polygon>
                        <polygon id="Path" fill="url(#linearGradient-95)" fill-rule="nonzero" points="53.5192798 128.724543 43.8637396 123.147119 43.8637396 125.258144 53.5192798 130.835568"></polygon>
                        <polygon id="Path" fill="#FD9369" points="52.0319668 123.590914 46.4785319 120.388393 46.4785319 122.487424 52.0319668 125.701939"></polygon>
                        <polygon id="Path" fill="url(#linearGradient-96)" fill-rule="nonzero" points="56.8537396 117.821579 54.1190028 116.23831 54.1190028 118.349335 56.8537396 119.920609"></polygon>
                        <polygon id="Path" fill="url(#linearGradient-97)" fill-rule="nonzero" points="54.2749307 120.604294 45.387036 115.482659 45.387036 117.58169 54.2749307 122.715319"></polygon>
                        <polygon id="Path" fill="url(#linearGradient-98)" fill-rule="nonzero" points="52.7036565 111.140665 47.0062881 107.854183 47.0062881 109.953213 52.7036565 113.25169"></polygon>
                        <polygon id="Path" fill="url(#linearGradient-99)" fill-rule="nonzero" points="42.0765651 122.115596 37.5546537 119.512798 37.5546537 121.611828 42.0765651 124.22662"></polygon>
                        <polygon id="Path" fill="url(#linearGradient-100)" fill-rule="nonzero" points="44.6913573 119.35687 35.2877008 113.92338 35.2877008 116.02241 44.6913573 121.4559"></polygon>
                        <polygon id="Path" fill="#FD9369" points="52.3318283 115.206787 38.4782271 107.206482 38.4782271 109.305512 52.3318283 117.317812"></polygon>
                        <polygon id="Path" fill="#FD9369" points="43.5998615 114.451136 33.6084765 108.681801 33.6084765 110.780831 43.5998615 116.550166"></polygon>
                        <polygon id="Path" fill="url(#linearGradient-101)" fill-rule="nonzero" points="45.2191136 106.822659 35.7075069 101.329197 35.7075069 103.428227 45.2191136 108.92169"></polygon>
                        <polygon id="Path" fill="url(#linearGradient-102)" fill-rule="nonzero" points="40.4093352 124.994266 32.4570083 120.412382 32.4570083 122.511413 40.4093352 127.105291"></polygon>
                        <polygon id="Path" fill="url(#linearGradient-103)" fill-rule="nonzero" points="43.3719668 130.991496 36.9069529 127.249224 36.9069529 129.360249 43.3719668 133.090526"></polygon>
                        <polygon id="Path" fill="url(#linearGradient-104)" fill-rule="nonzero" points="67.6247645 178.393601 68.5603324 178.933352 68.548338 116.118366 13.8296122 84.5249584 13.8056233 85.5924654 67.6127701 116.658116"></polygon>
                    </g>
                    <g id="Group" stroke-width="1" fill-rule="evenodd" transform="translate(160.725762, 143.933518)">
                        <mask id="mask-109" fill="white">
                            <use xlink:href="#path-108"></use>
                        </mask>
                        <g id="Path-3">
                            <use fill="url(#linearGradient-105)" xlink:href="#path-108"></use>
                            <use stroke="url(#linearGradient-107)" stroke-width="1.2" fill="url(#linearGradient-106)" xlink:href="#path-108"></use>
                        </g>
                        <mask id="mask-112" fill="white">
                            <use xlink:href="#path-111"></use>
                        </mask>
                        <use id="Path-3" fill="url(#linearGradient-110)" xlink:href="#path-111"></use>
                        <path d="M61.2199598,38.303562 L103.624548,63.1332846 C105.912194,64.4728002 106.680805,67.4131955 105.341289,69.7008412 C104.923701,70.4140057 104.329054,71.007273 103.614921,71.4232043 L61.2044182,96.1243012 C57.4952016,98.2846556 52.9145357,98.2992349 49.1916424,96.1625353 L6.04486633,71.3990807 C3.74566934,70.0794905 2.95154108,67.1458839 4.27113122,64.8466869 C4.69381198,64.1102262 5.30429314,63.4990731 6.04028849,63.0755825 L49.171673,38.2578502 C52.9049363,36.1097362 57.5031038,36.1271818 61.2199598,38.303562 Z" id="Path-3" stroke="#73DDB1" stroke-width="1.2" fill="#83EFC2" mask="url(#mask-112)"></path>
                        <mask id="mask-114" fill="white">
                            <use xlink:href="#path-113"></use>
                        </mask>
                        <use id="Path-3" stroke="url(#linearGradient-107)" stroke-width="1.2" xlink:href="#path-113"></use>
                    </g>
                    <g id="Group-3" stroke-width="1" fill-rule="evenodd" transform="translate(181.116343, 83.961219)">
                        <g id="Group-2" opacity="0.7242141" transform="translate(0.000000, 59.972299)">
                            <mask id="mask-116" fill="white">
                                <use xlink:href="#path-115"></use>
                            </mask>
                            <use id="Path-4" fill="#37CB8D" xlink:href="#path-115"></use>
                            <ellipse id="Oval" fill="#83EFC2" mask="url(#mask-116)" cx="34.9555868" cy="20.1472471" rx="10.3272299" ry="8.81592798"></ellipse>
                            <path d="M40.1538609,17.4802525 C40.2279147,17.5230727 40.2697274,17.5729457 40.2702312,17.6288639 C40.2702312,17.6842783 40.2289222,17.734655 40.1553722,17.7774752 L39.4143305,18.2081963 C39.794171,18.5165019 40.0430321,18.8263188 40.1634325,19.1366395 C40.2803065,19.4484714 40.2949158,19.7310849 40.2002075,19.9875024 C40.1019729,20.2414012 39.9337146,20.4479458 39.6873724,20.6091513 C39.6329655,20.6408886 39.5594155,20.657513 39.4727675,20.659528 C39.3896459,20.6630544 39.3125695,20.644415 39.2511099,20.6091513 L37.8843892,19.8202517 C37.8007638,19.77189 37.7493795,19.7235284 37.7231836,19.6786931 C37.7005141,19.6323465 37.6974915,19.5789472 37.7161309,19.5189988 C37.8309898,19.4041399 37.8556744,19.263085 37.7841395,19.0923079 C37.7095819,18.9230421 37.5352784,18.7598215 37.2682817,18.6056687 C36.9564498,18.42532 36.6642647,18.3195289 36.3882002,18.2862802 C36.1126395,18.256558 35.8688161,18.3008895 35.654715,18.42532 C35.5111413,18.5089454 35.4380951,18.6036536 35.4320499,18.7149862 C35.429531,18.8248075 35.4975396,18.9638473 35.6270078,19.131098 C35.7625212,19.2983488 35.98166,19.5210139 36.2939958,19.7940558 C36.8194251,20.2343484 37.1836488,20.6146927 37.3906972,20.9340812 C37.5942192,21.2554848 37.6471148,21.5491811 37.5559329,21.8106363 C37.4612246,22.0746104 37.1997694,22.3305242 36.7745898,22.577874 C36.1705728,22.928496 35.4532081,23.0881903 34.6295485,23.0569567 C33.8023626,23.0232043 32.9640938,22.8211936 32.1222986,22.4458869 L31.4029189,22.8640138 C31.3263463,22.9083453 31.2432247,22.9305111 31.1470051,22.9305111 C31.0507856,22.9305111 30.961115,22.9083453 30.8870612,22.8655251 L30.0251153,22.367803 C29.9576105,22.3290129 29.921843,22.2786362 29.9183166,22.2212067 C29.9147903,22.1637772 29.950054,22.1134005 30.0266266,22.069069 L30.735931,21.6569873 C30.285563,21.3260122 29.9787687,20.9975559 29.8165556,20.6706109 C29.65132,20.345681 29.6241165,20.0484583 29.72487,19.7774315 C29.8261272,19.5059009 30.030153,19.2721529 30.3399699,19.0771949 C30.3943767,19.0454576 30.4679268,19.0288332 30.5575974,19.0288332 C30.6472679,19.0288332 30.7213217,19.0454576 30.785804,19.0827363 L32.0915688,19.836876 C32.1751942,19.8847339 32.2235559,19.9315843 32.2462254,19.9814572 C32.2658723,20.0298189 32.2724213,20.0857371 32.2663761,20.1527381 C32.177713,20.3084022 32.1751942,20.477668 32.2532781,20.659528 C32.3313621,20.841388 32.5439519,21.0308045 32.881476,21.2257625 C33.2739107,21.4524578 33.6401495,21.5899863 33.9675983,21.6378442 C34.3010923,21.6862058 34.5731266,21.6474157 34.7842051,21.5250003 C34.9343278,21.4373448 35.0043514,21.3335687 34.9942761,21.2166947 C34.983697,21.0998207 34.9030942,20.9527206 34.7509565,20.7764021 C34.5962999,20.6015948 34.34492,20.3567639 33.9907716,20.0409018 C33.3207611,19.4615694 32.9489808,18.9583058 32.8759345,18.5275848 C32.8064146,18.0948486 33.0799603,17.7009026 33.6965715,17.342724 C34.2461816,17.0233356 34.9151846,16.8656564 35.7040842,16.8727091 C36.4924801,16.8767393 37.2758382,17.0550729 38.0566776,17.4021686 L38.7790799,16.9825304 C38.8526299,16.9397102 38.9423005,16.9175444 39.0415427,16.9195595 C39.1407848,16.9215746 39.2244102,16.9437403 39.291915,16.9825304 L40.1538609,17.4802525 Z" id="Fill-1" fill="#2E8963" mask="url(#mask-116)"></path>
                            <path d="M3.7772561,1.45348448 L20.6020697,-8.3190129 C22.4728354,-9.40562539 24.7815367,-9.41021266 26.6566056,-8.33104296 L67.8942237,15.402691 C69.1004676,16.0969278 69.5155313,17.6375719 68.8212945,18.8438158 C68.6029491,19.2231934 68.2895498,19.5391544 67.9119623,19.7605811 L51.2722385,29.5185274 C49.4018486,30.6153704 47.0874083,30.6270263 45.2060658,29.5490777 L3.79014614,5.81909129 C2.58256366,5.12718546 2.16452512,3.58734594 2.85643095,2.37976345 C3.07663371,1.99544381 3.3942435,1.67595289 3.7772561,1.45348448 Z" id="Path-4" fill="#153B2B" opacity="0.638067336" filter="url(#filter-117)" mask="url(#mask-116)"></path>
                        </g>
                        <g id="Group-2-Copy" transform="translate(0.000000, 44.379501)">
                            <path d="M3.7772561,11.5288307 L20.6020697,1.75633336 C22.4728354,0.669720869 24.7815367,0.665133597 26.6566056,1.7443033 L67.8942237,25.4780373 C69.1004676,26.1722741 69.5155313,27.7129181 68.8212945,28.919162 C68.6029491,29.2985396 68.2895498,29.6145007 67.9119623,29.8359273 L51.2722385,39.5938737 C49.4018486,40.6907166 47.0874083,40.7023725 45.2060658,39.624424 L3.79014614,15.8944375 C2.58256366,15.2025317 2.16452512,13.6626922 2.85643095,12.4551097 C3.07663371,12.0707901 3.3942435,11.7512992 3.7772561,11.5288307 Z" id="Path-4" fill="#37CB8D"></path>
                            <ellipse id="Oval" fill="#83EFC2" cx="34.9555868" cy="20.1472471" rx="10.3272299" ry="8.81592798"></ellipse>
                            <path d="M40.1538609,17.4802525 C40.2279147,17.5230727 40.2697274,17.5729457 40.2702312,17.6288639 C40.2702312,17.6842783 40.2289222,17.734655 40.1553722,17.7774752 L39.4143305,18.2081963 C39.794171,18.5165019 40.0430321,18.8263188 40.1634325,19.1366395 C40.2803065,19.4484714 40.2949158,19.7310849 40.2002075,19.9875024 C40.1019729,20.2414012 39.9337146,20.4479458 39.6873724,20.6091513 C39.6329655,20.6408886 39.5594155,20.657513 39.4727675,20.659528 C39.3896459,20.6630544 39.3125695,20.644415 39.2511099,20.6091513 L37.8843892,19.8202517 C37.8007638,19.77189 37.7493795,19.7235284 37.7231836,19.6786931 C37.7005141,19.6323465 37.6974915,19.5789472 37.7161309,19.5189988 C37.8309898,19.4041399 37.8556744,19.263085 37.7841395,19.0923079 C37.7095819,18.9230421 37.5352784,18.7598215 37.2682817,18.6056687 C36.9564498,18.42532 36.6642647,18.3195289 36.3882002,18.2862802 C36.1126395,18.256558 35.8688161,18.3008895 35.654715,18.42532 C35.5111413,18.5089454 35.4380951,18.6036536 35.4320499,18.7149862 C35.429531,18.8248075 35.4975396,18.9638473 35.6270078,19.131098 C35.7625212,19.2983488 35.98166,19.5210139 36.2939958,19.7940558 C36.8194251,20.2343484 37.1836488,20.6146927 37.3906972,20.9340812 C37.5942192,21.2554848 37.6471148,21.5491811 37.5559329,21.8106363 C37.4612246,22.0746104 37.1997694,22.3305242 36.7745898,22.577874 C36.1705728,22.928496 35.4532081,23.0881903 34.6295485,23.0569567 C33.8023626,23.0232043 32.9640938,22.8211936 32.1222986,22.4458869 L31.4029189,22.8640138 C31.3263463,22.9083453 31.2432247,22.9305111 31.1470051,22.9305111 C31.0507856,22.9305111 30.961115,22.9083453 30.8870612,22.8655251 L30.0251153,22.367803 C29.9576105,22.3290129 29.921843,22.2786362 29.9183166,22.2212067 C29.9147903,22.1637772 29.950054,22.1134005 30.0266266,22.069069 L30.735931,21.6569873 C30.285563,21.3260122 29.9787687,20.9975559 29.8165556,20.6706109 C29.65132,20.345681 29.6241165,20.0484583 29.72487,19.7774315 C29.8261272,19.5059009 30.030153,19.2721529 30.3399699,19.0771949 C30.3943767,19.0454576 30.4679268,19.0288332 30.5575974,19.0288332 C30.6472679,19.0288332 30.7213217,19.0454576 30.785804,19.0827363 L32.0915688,19.836876 C32.1751942,19.8847339 32.2235559,19.9315843 32.2462254,19.9814572 C32.2658723,20.0298189 32.2724213,20.0857371 32.2663761,20.1527381 C32.177713,20.3084022 32.1751942,20.477668 32.2532781,20.659528 C32.3313621,20.841388 32.5439519,21.0308045 32.881476,21.2257625 C33.2739107,21.4524578 33.6401495,21.5899863 33.9675983,21.6378442 C34.3010923,21.6862058 34.5731266,21.6474157 34.7842051,21.5250003 C34.9343278,21.4373448 35.0043514,21.3335687 34.9942761,21.2166947 C34.983697,21.0998207 34.9030942,20.9527206 34.7509565,20.7764021 C34.5962999,20.6015948 34.34492,20.3567639 33.9907716,20.0409018 C33.3207611,19.4615694 32.9489808,18.9583058 32.8759345,18.5275848 C32.8064146,18.0948486 33.0799603,17.7009026 33.6965715,17.342724 C34.2461816,17.0233356 34.9151846,16.8656564 35.7040842,16.8727091 C36.4924801,16.8767393 37.2758382,17.0550729 38.0566776,17.4021686 L38.7790799,16.9825304 C38.8526299,16.9397102 38.9423005,16.9175444 39.0415427,16.9195595 C39.1407848,16.9215746 39.2244102,16.9437403 39.291915,16.9825304 L40.1538609,17.4802525 Z" id="Fill-1" fill="#2E8963"></path>
                        </g>
                        <g id="Group-2-Copy-2">
                            <path d="M3.7772561,11.5288307 L20.6020697,1.75633336 C22.4728354,0.669720869 24.7815367,0.665133597 26.6566056,1.7443033 L67.8942237,25.4780373 C69.1004676,26.1722741 69.5155313,27.7129181 68.8212945,28.919162 C68.6029491,29.2985396 68.2895498,29.6145007 67.9119623,29.8359273 L51.2722385,39.5938737 C49.4018486,40.6907166 47.0874083,40.7023725 45.2060658,39.624424 L3.79014614,15.8944375 C2.58256366,15.2025317 2.16452512,13.6626922 2.85643095,12.4551097 C3.07663371,12.0707901 3.3942435,11.7512992 3.7772561,11.5288307 Z" id="Path-4" fill="#37CB8D"></path>
                            <ellipse id="Oval" fill="#83EFC2" cx="34.9555868" cy="20.1472471" rx="10.3272299" ry="8.81592798"></ellipse>
                            <path d="M40.1538609,17.4802525 C40.2279147,17.5230727 40.2697274,17.5729457 40.2702312,17.6288639 C40.2702312,17.6842783 40.2289222,17.734655 40.1553722,17.7774752 L39.4143305,18.2081963 C39.794171,18.5165019 40.0430321,18.8263188 40.1634325,19.1366395 C40.2803065,19.4484714 40.2949158,19.7310849 40.2002075,19.9875024 C40.1019729,20.2414012 39.9337146,20.4479458 39.6873724,20.6091513 C39.6329655,20.6408886 39.5594155,20.657513 39.4727675,20.659528 C39.3896459,20.6630544 39.3125695,20.644415 39.2511099,20.6091513 L37.8843892,19.8202517 C37.8007638,19.77189 37.7493795,19.7235284 37.7231836,19.6786931 C37.7005141,19.6323465 37.6974915,19.5789472 37.7161309,19.5189988 C37.8309898,19.4041399 37.8556744,19.263085 37.7841395,19.0923079 C37.7095819,18.9230421 37.5352784,18.7598215 37.2682817,18.6056687 C36.9564498,18.42532 36.6642647,18.3195289 36.3882002,18.2862802 C36.1126395,18.256558 35.8688161,18.3008895 35.654715,18.42532 C35.5111413,18.5089454 35.4380951,18.6036536 35.4320499,18.7149862 C35.429531,18.8248075 35.4975396,18.9638473 35.6270078,19.131098 C35.7625212,19.2983488 35.98166,19.5210139 36.2939958,19.7940558 C36.8194251,20.2343484 37.1836488,20.6146927 37.3906972,20.9340812 C37.5942192,21.2554848 37.6471148,21.5491811 37.5559329,21.8106363 C37.4612246,22.0746104 37.1997694,22.3305242 36.7745898,22.577874 C36.1705728,22.928496 35.4532081,23.0881903 34.6295485,23.0569567 C33.8023626,23.0232043 32.9640938,22.8211936 32.1222986,22.4458869 L31.4029189,22.8640138 C31.3263463,22.9083453 31.2432247,22.9305111 31.1470051,22.9305111 C31.0507856,22.9305111 30.961115,22.9083453 30.8870612,22.8655251 L30.0251153,22.367803 C29.9576105,22.3290129 29.921843,22.2786362 29.9183166,22.2212067 C29.9147903,22.1637772 29.950054,22.1134005 30.0266266,22.069069 L30.735931,21.6569873 C30.285563,21.3260122 29.9787687,20.9975559 29.8165556,20.6706109 C29.65132,20.345681 29.6241165,20.0484583 29.72487,19.7774315 C29.8261272,19.5059009 30.030153,19.2721529 30.3399699,19.0771949 C30.3943767,19.0454576 30.4679268,19.0288332 30.5575974,19.0288332 C30.6472679,19.0288332 30.7213217,19.0454576 30.785804,19.0827363 L32.0915688,19.836876 C32.1751942,19.8847339 32.2235559,19.9315843 32.2462254,19.9814572 C32.2658723,20.0298189 32.2724213,20.0857371 32.2663761,20.1527381 C32.177713,20.3084022 32.1751942,20.477668 32.2532781,20.659528 C32.3313621,20.841388 32.5439519,21.0308045 32.881476,21.2257625 C33.2739107,21.4524578 33.6401495,21.5899863 33.9675983,21.6378442 C34.3010923,21.6862058 34.5731266,21.6474157 34.7842051,21.5250003 C34.9343278,21.4373448 35.0043514,21.3335687 34.9942761,21.2166947 C34.983697,21.0998207 34.9030942,20.9527206 34.7509565,20.7764021 C34.5962999,20.6015948 34.34492,20.3567639 33.9907716,20.0409018 C33.3207611,19.4615694 32.9489808,18.9583058 32.8759345,18.5275848 C32.8064146,18.0948486 33.0799603,17.7009026 33.6965715,17.342724 C34.2461816,17.0233356 34.9151846,16.8656564 35.7040842,16.8727091 C36.4924801,16.8767393 37.2758382,17.0550729 38.0566776,17.4021686 L38.7790799,16.9825304 C38.8526299,16.9397102 38.9423005,16.9175444 39.0415427,16.9195595 C39.1407848,16.9215746 39.2244102,16.9437403 39.291915,16.9825304 L40.1538609,17.4802525 Z" id="Fill-1" fill="#2E8963"></path>
                        </g>
                    </g>
                    <g id="Group-6" stroke-width="1" fill-rule="evenodd" transform="translate(105.551247, 231.493075)" opacity="0.333775112">
                        <polygon id="Path-6" fill="url(#linearGradient-118)" points="60.7698703 -1.27838645e-14 4.81577562 32.4712784 17.018385 39.4692846 17.018385 41.8606648 74.4975296 10.2792521 74.4975296 7.67645429"></polygon>
                        <polygon id="Path-6-Copy" fill="url(#linearGradient-119)" points="55.9540947 1.5832687 1.07757109e-13 34.0545471 8.2864182 38.8335782 8.2864182 40.6910551 65.7655628 9.10964235 65.7655628 7.04074792"></polygon>
                        <polygon id="Path-6-Copy-8" fill="url(#linearGradient-120)" transform="translate(184.808283, 26.306774) scale(-1, 1) translate(-184.808283, -26.306774) " points="207.967292 6.59695291 151.681879 38.8680471 160.455544 44.1591184 160.455544 46.0165953 217.934688 14.4351825 217.934688 12.3662881"></polygon>
                        <polygon id="Path-6-Copy-9" fill="url(#linearGradient-121)" transform="translate(194.907619, 45.823222) scale(-1, 1) translate(-194.907619, -45.823222) " points="218.222555 26.3067741 161.937142 58.5778683 170.398951 63.4821931 170.398951 65.3396701 227.878095 33.7582573 227.878095 31.6893629"></polygon>
                        <polygon id="Path-6-Copy-10" fill="url(#linearGradient-122)" transform="translate(186.205638, 55.033505) scale(-1, 1) translate(-186.205638, -55.033505) " points="209.646516 35.4916066 153.361103 67.7627008 161.571028 72.7179272 161.571028 74.5754041 219.050173 42.9939914 219.050173 40.925097"></polygon>
                        <polygon id="Path-6-Copy-11" fill="url(#linearGradient-123)" transform="translate(204.893006, 23.323152) scale(-1, 1) translate(-204.893006, -23.323152) " points="228.741697 4.06012465 172.456283 36.3312188 179.850585 40.7287028 179.850585 42.5861797 237.32973 11.004767 237.32973 8.93587258"></polygon>
                        <polygon id="Path-6-Copy-12" fill="url(#linearGradient-124)" transform="translate(205.672646, 48.070721) scale(-1, 1) translate(-205.672646, -48.070721) " points="230.300976 29.2185042 174.015563 61.4895983 179.850585 65.0654618 179.850585 66.9229387 237.32973 35.341526 237.32973 33.2726316"></polygon>
                        <polygon id="Path-6-Copy-6" fill="url(#linearGradient-125)" points="68.6442332 13.0019945 12.6901385 45.4732728 16.7185235 48.141279 16.7185235 49.9987559 74.1976681 18.4173432 74.1976681 16.3484488"></polygon>
                        <polygon id="Path-6-Copy-7" fill="url(#linearGradient-126)" points="80.7709477 11.6023643 24.816853 44.0736427 27.6574708 45.7303926 27.6574708 47.5878695 85.1366155 16.0064568 85.1366155 13.9375623"></polygon>
                        <polygon id="Path-6-Copy-2" fill="url(#linearGradient-127)" points="57.8732083 27.7072022 1.91911357 60.1784806 10.2055318 64.9575117 10.2055318 66.8149886 67.3848149 35.2695592 67.3848149 33.2006648"></polygon>
                        <polygon id="Path-6-Copy-3" fill="url(#linearGradient-128)" points="75.0372803 29.0625762 19.7668094 61.7977327 28.6409561 66.9126087 28.6409561 68.7700856 85.1366155 36.9607781 85.1366155 34.8918837"></polygon>
                        <polygon id="Path-6-Copy-5" fill="url(#linearGradient-129)" points="80.8425988 45.1711357 24.1799769 75.8321312 28.6409561 79.8666253 28.6409561 81.7241022 85.1366155 49.9147947 85.1366155 47.8459003"></polygon>
                        <polygon id="Path-6-Copy-4" fill="url(#linearGradient-130)" points="67.570729 42.02259 11.6166343 74.4938684 19.261349 78.7511405 19.261349 80.6086174 76.4406321 49.0631881 76.4406321 46.9942936"></polygon>
                    </g>
                    <path d="M166.66987,182.315789 L267.329263,182.315789 L286.66759,73.7376147 C261.679578,58.1636924 238.03562,50.3767313 215.735716,50.3767313 C193.435812,50.3767313 169.901561,58.1636924 145.132964,73.7376147 L166.66987,182.315789 Z" id="Path-5" fill="url(#linearGradient-131)" fill-rule="evenodd" opacity="0.0726376488"></path>
                    <text id="80%" font-family="Rubik-Bold, Rubik" font-size="33.6" font-weight="bold" letter-spacing="0.672000003"></text>
                </g>
                <polyline id="Path" stroke="url(#linearGradient-132)" stroke-width="3" stroke-linecap="round" stroke-linejoin="round" points="366.866444 320 400.500771 339.98611 400.500771 361.684073 509.531169 423.770569 351.896532 535"></polyline>
            </g>
        </g>
    </g>
</svg>