<?xml version="1.0" encoding="UTF-8"?>
<svg width="551px" height="411px" viewBox="0 0 551 411" version="1.1" xmlns="http://www.w3.org/2000/svg" xmlns:xlink="http://www.w3.org/1999/xlink">
    <!-- Generator: Sketch 64 (93537) - https://sketch.com -->
    <title>Platform Icons/Floating Illustrations/Cheap Copy</title>
    <desc>Created with Sketch.</desc>
    <defs>
        <linearGradient x1="55.9099472%" y1="39.6568319%" x2="64.6771669%" y2="66.2902807%" id="linearGradient-1">
            <stop stop-color="#240A49" offset="0%"></stop>
            <stop stop-color="#352054" offset="100%"></stop>
        </linearGradient>
        <path d="M460.097079,114.424598 L196.26939,262.134523 L196.26939,262.134523 C176.398679,273.68274 144.096168,273.689144 124.082986,262.134523 L15.0760295,194.133244 C-4.9259465,182.588228 -5.04120399,163.861994 14.8279058,152.313776 L49.6996982,132.050768 C61.6392002,125.112472 135.422085,84.9854183 271.048352,11.6696056 C300.210789,-4.09480128 335.404441,-3.87454313 364.367279,12.2536392 L460.040891,65.5302368 C473.55136,73.0536467 478.40483,90.1049744 470.88142,103.615443 C468.357433,108.147995 464.623819,111.890201 460.097079,114.424598 Z" id="path-2"></path>
        <filter x="-14.8%" y="-18.5%" width="129.5%" height="151.7%" filterUnits="objectBoundingBox" id="filter-3">
            <feOffset dx="0" dy="20" in="SourceAlpha" result="shadowOffsetOuter1"></feOffset>
            <feGaussianBlur stdDeviation="20" in="shadowOffsetOuter1" result="shadowBlurOuter1"></feGaussianBlur>
            <feColorMatrix values="0 0 0 0 0.0525999548   0 0 0 0 0.0148872707   0 0 0 0 0.10827106  0 0 0 0.498442963 0" type="matrix" in="shadowBlurOuter1"></feColorMatrix>
        </filter>
        <linearGradient x1="78.2937527%" y1="100%" x2="78.2937505%" y2="6.90443219%" id="linearGradient-4">
            <stop stop-color="#4B2B5F" offset="0%"></stop>
            <stop stop-color="#4A3B9F" offset="100%"></stop>
        </linearGradient>
        <linearGradient x1="78.2937527%" y1="95.3736988%" x2="78.2937527%" y2="0%" id="linearGradient-5">
            <stop stop-color="#884FAC" offset="0%"></stop>
            <stop stop-color="#644FD9" offset="100%"></stop>
        </linearGradient>
    </defs>
    <g id="Workers" stroke="none" stroke-width="1" fill="none" fill-rule="evenodd">
        <g id="Simple-Setup" transform="translate(-34.000000, -58.000000)">
            <g id="Platform-Icons/Floating-Illustrations/Cheap-Copy" transform="translate(72.000000, 58.000000)">
                <g id="Group-5" transform="translate(0.000000, 81.000000)" opacity="0.899037412">
                    <g id="Mask">
                        <use fill="black" fill-opacity="1" filter="url(#filter-3)" xlink:href="#path-2"></use>
                        <use fill="url(#linearGradient-1)" fill-rule="evenodd" xlink:href="#path-2"></use>
                    </g>
                </g>
                <path d="M141.309855,213.075478 C141.319832,216.44542 138.962782,220.519306 136.025227,222.211765 L83.8498479,252.266656 C80.9072886,253.959115 78.5051994,252.626116 78.4951593,249.256174 C78.485182,245.856277 80.8722581,241.762421 83.8148174,240.069962 L135.990197,210.015071 C138.927752,208.322612 141.304819,209.675581 141.309855,213.075478 Z M207.087534,2.20946918 L207.127569,16.0237352 C207.132573,18.0357154 205.72635,20.4570811 204.004853,21.45059 L188.576434,30.3372519 L188.616469,44.950319 C201.432616,39.6233143 213.237883,38.4400902 223.261601,41.0661488 L235.297069,17.5913823 C235.982665,16.228428 236.98854,15.1600315 238.009428,14.5709157 C238.815129,14.1066126 239.630838,13.9468524 240.31143,14.1864927 L250.78554,18.2404082 C252.29185,18.839509 252.48702,21.2958223 251.245941,23.7321655 L238.294676,48.9543093 C248.65869,57.9508064 254.939153,73.2278769 254.999604,93.7370943 C255.134323,142.124469 220.904551,201.245733 178.692838,225.554249 C166.552278,232.54875 154.431736,236.19328 143.647357,236.05349 C140.609715,235.97361 139.383648,232.38899 140.970028,227.985599 C142.060977,224.890245 144.222857,222.239224 146.474816,220.941172 C147.435652,220.391997 148.4115,220.077469 149.332301,220.087454 C158.455236,220.227244 168.333828,217.25171 178.652803,211.305634 C214.023566,190.931215 242.683493,141.405548 242.573398,100.896349 C242.453293,60.3522021 213.608205,43.9468251 178.232437,64.3212449 C152.389961,79.2088999 129.274856,110.167434 119.286169,143.217828 C118.285298,146.522868 115.983296,149.498402 113.556185,150.896303 C112.755489,151.360607 111.939779,151.650172 111.149091,151.720067 C107.981336,152.00464 106.500048,148.674638 107.831206,144.27624 C110.528552,135.31469 114.05662,126.527878 118.225246,118.040617 L105.228942,107.840926 C103.947828,106.852409 104.16802,104.161448 105.664321,101.829948 L116.083383,85.7390986 C116.743958,84.7256198 117.549658,83.9517812 118.355359,83.4874781 C119.371243,82.9033548 120.382122,82.8134897 121.097744,83.3626654 L133.158234,92.8534207 C143.231996,78.6147916 155.072294,66.2183975 167.778345,56.912365 L167.743314,42.339238 L152.309891,51.2258999 C150.553363,52.2393787 149.172162,51.4156151 149.167158,49.4036349 L149.127123,35.5943614 C149.122118,33.6173288 150.488307,31.2159331 152.249839,30.2024542 L203.9448,0.427144293 C205.671302,-0.566364538 207.08253,0.232436532 207.087534,2.20946918 Z M141.221779,182.198821 C141.231756,185.568763 138.874706,189.677596 135.937151,191.370056 L99.7356646,212.223756 C96.7981096,213.916216 94.3910161,212.548269 94.3809995,209.18332 C94.376003,205.813378 96.7630792,201.684575 99.7006341,199.992115 L135.90212,179.138415 C138.839675,177.445955 141.216743,178.828879 141.221779,182.198821 Z M141.133702,151.323662 C141.143679,154.693604 138.786629,158.802437 135.849074,160.494897 L73.3547197,196.495863 C70.4121604,198.188322 68.0100712,196.820375 68.0000312,193.445441 C67.9900538,190.080491 70.37713,185.986636 73.3196893,184.294176 L135.814044,148.298203 C138.751599,146.605743 141.128666,147.95372 141.133702,151.323662 Z M212.244019,82.5943187 C213.655246,83.3981122 212.434184,92.3546692 191.586051,132.978696 C186.291446,143.26326 182.20289,147.786471 179.140227,149.548826 C176.452889,151.101495 174.55624,150.522365 173.325169,149.843384 C170.732914,148.330654 166.974646,143.962211 178.794926,125.709606 C199.352807,93.9323014 207.835184,84.6662089 210.942887,82.8788915 C211.588449,82.509446 212.00381,82.459521 212.244019,82.5943187 Z" id="Combined-Shape" fill="#341D55"></path>
                <path d="M297.440845,64 L305.5,72 L297.5,84.6176775 L293.143549,91.771 L297.441429,89.3 L305.5,97.3 L294.323549,115.306 L297.442013,113.5 L300.813549,116.847 L300.8,111.740985 L320.542013,100.3 L328.6,108.3 L315.428549,129.154 L323.556164,124.464737 C323.759271,124.351825 323.960036,124.238329 324.15963,124.123078 C330.605772,120.40286 335.47857,115.476892 337.989597,112.463978 C332.082537,105.503854 333.52828,88.9474532 338.995179,76.2493369 L341.754383,69.8502586 L345.941184,70.6242557 C349.059681,71.5823772 351.579341,73.0168775 353.521269,74.9424276 L353.5292,74.938087 L360.468129,81.9798131 L357.876586,83.1688649 C358.037518,83.8780586 358.16811,84.6150173 358.268632,85.3799289 C360.556067,83.5651602 363.05012,81.8878739 365.538906,80.4522057 C371.327731,77.1110888 377.081438,75.0786882 380.0935,75.6701554 L384.071342,76.4318668 C384.049744,76.495487 384.026759,76.5633346 384.002501,76.6350555 L392.071342,84.4318668 C388.708496,86.3017761 387.027072,87.2367307 387.027072,87.2367307 L380.183323,87.2364603 C373.487387,102.868184 362.452982,110.315318 356.028023,114.022503 C355.424557,114.371182 354.862063,114.686514 354.347566,114.97201 C338.211434,169.496978 303.51594,214.405778 256.544507,241.511473 C234.847239,254.032325 218.2329,255.963515 207.121164,247.307384 C195.67521,238.358152 191.283546,218.235981 193.831449,199.324242 L210.776549,189.545 L207.357403,186.1 L207.3,165.630044 L227.012138,154.2 L231.520549,158.709 L231.5,151.339854 L233.893549,149.952 L231.558583,147.6 L231.5,127.052388 L251.241417,115.7 L254.614549,119.049 L254.6,113.852388 L274.341417,102.5 L277.699549,105.913 L277.7,100.653515 L280.754549,98.896 L277.759155,95.9 L277.7,75.2823225 L297.440845,64 Z M231.545549,167.809 L222.180549,182.964 L235.205549,175.448 L231.557413,171.8 L231.545549,167.809 Z M254.477549,155.62 L246.133549,169.142 L257.868549,162.37 L254.487279,158.964825 L254.477549,155.62 Z M277.748549,142.313 L269.430549,155.698 L281.240549,148.883 L277.757987,145.4 L277.748549,142.313 Z M254.649549,131.192 L248.123549,141.706 L251.242001,139.9 L254.442549,143.1 L254.429918,138.608057 L257.195549,137.011 L254.658583,134.4 L254.649549,131.192 Z M300.848549,129.015 L292.615549,142.318 L304.396549,135.52 L300.857987,132.2 L300.848549,129.015 Z M277.699549,117.775 L270.549549,129.305 L274.154068,127.225677 L277.716549,130.788 L277.7,124.940985 L278.678549,124.373 L277.7,123.7 L277.699549,117.775 Z" id="Combined-Shape" fill="url(#linearGradient-4)"></path>
                <path d="M349.754383,77.8502586 L353.941184,78.6242557 C361.24365,80.8678528 365.262465,85.7236172 366.268632,93.3799289 C368.556067,91.5651602 371.05012,89.8878739 373.538906,88.4522057 C379.327731,85.1110888 385.081438,83.0786882 388.0935,83.6701554 L392.071342,84.4318668 C391.507093,86.0939423 389.996379,90.6413949 389.550364,91.7547105 C383.08959,109.783637 370.91257,118.050137 364.028023,122.022503 C363.424557,122.371182 362.862063,122.686514 362.347566,122.97201 C346.211434,177.496978 311.51594,222.405778 264.544507,249.511473 C242.847239,262.032325 226.2329,263.963515 215.121164,255.307384 C203.67521,246.358152 199.283546,226.235981 201.831449,207.324242 L331.556164,132.464737 C331.759271,132.351825 331.960036,132.238329 332.15963,132.123078 C338.605772,128.40286 343.47857,123.476892 345.989597,120.463978 C340.082537,113.503854 341.52828,96.9474532 346.995179,84.2493369 L349.754383,77.8502586 Z M235.012138,162.2 L235.1,182.652896 L215.357403,194.1 L215.3,173.630044 L235.012138,162.2 Z M259.242001,147.9 L259.3,168.360146 L239.557413,179.8 L239.5,159.339854 L259.242001,147.9 Z M282.154068,135.225677 L282.212015,155.583031 L262.487279,166.964825 L262.429918,146.608057 L282.154068,135.225677 Z M259.241417,123.7 L259.3,144.247612 L239.558583,155.6 L239.5,135.052388 L259.241417,123.7 Z M305.442013,121.5 L305.5,141.959015 L285.757987,153.4 L285.7,132.940985 L305.442013,121.5 Z M282.341417,110.5 L282.4,131.047612 L262.658583,142.4 L262.6,121.852388 L282.341417,110.5 Z M328.542013,108.3 L328.6,128.759015 L308.857987,140.2 L308.8,119.740985 L328.542013,108.3 Z M305.441429,97.3 L305.5,117.846485 L285.758571,129.2 L285.7,108.653515 L305.441429,97.3 Z M305.440845,72 L305.5,92.6176775 L285.759155,103.9 L285.7,83.2823225 L305.440845,72 Z" id="Combined-Shape" fill="url(#linearGradient-5)"></path>
            </g>
        </g>
    </g>
</svg>