<?xml version="1.0" encoding="utf-8"?><svg xmlns="http://www.w3.org/2000/svg" xmlns:xlink="http://www.w3.org/1999/xlink"><symbol viewBox="0 0 10 15" id="arrow-right" xmlns="http://www.w3.org/2000/svg"><path fill="#FD9369" fill-rule="evenodd" d="M1.427 12.18l5.395-4.047a.167.167 0 000-.266L1.427 3.82a1.333 1.333 0 01-.515-.848L.628 1.266A.3.3 0 011.109.98L9.834 7.87a.167.167 0 010 .262L1.11 15.019a.3.3 0 01-.481-.285l.284-1.707c.057-.338.241-.642.515-.848z"/></symbol><symbol viewBox="0 0 118 85" id="discord" xmlns="http://www.w3.org/2000/svg">´<path d="M86.9 84.6s-3.6-4.3-6.6-8.1c13.1-3.7 18.1-11.9 18.1-11.9-4.1 2.7-8 4.6-11.5 5.9-5 2.1-9.8 3.5-14.5 4.3-9.6 1.8-18.4 1.3-25.9-.1-5.7-1.1-10.6-2.7-14.7-4.3-2.3-.9-4.8-2-7.3-3.4-.3-.2-.6-.3-.9-.5-.2-.1-.3-.2-.4-.3-1.8-1-2.8-1.7-2.8-1.7s4.8 8 17.5 11.8c-3 3.8-6.7 8.3-6.7 8.3C9.1 83.9.7 69.4.7 69.4c0-32.2 14.4-58.3 14.4-58.3C29.5.3 43.2.6 43.2.6l1 1.2C26.2 7 17.9 14.9 17.9 14.9s2.2-1.2 5.9-2.9C34.5 7.3 43 6 46.5 5.7c.6-.1 1.1-.2 1.7-.2 6.1-.8 13-1 20.2-.2 9.5 1.1 19.7 3.9 30.1 9.6 0 0-7.9-7.5-24.9-12.7L75 .6s13.7-.3 28.1 10.5c0 0 14.4 26.1 14.4 58.3 0 0-8.5 14.5-30.6 15.2zM40.4 37.9c-5.7 0-10.2 5-10.2 11.1s4.6 11.1 10.2 11.1c5.7 0 10.2-5 10.2-11.1.1-6.1-4.5-11.1-10.2-11.1zm36.5 0c-5.7 0-10.2 5-10.2 11.1s4.6 11.1 10.2 11.1c5.7 0 10.2-5 10.2-11.1s-4.5-11.1-10.2-11.1z"/></symbol><symbol viewBox="0 0 30 30" id="facebook" xmlns="http://www.w3.org/2000/svg"><path fill-rule="evenodd" d="M16.024 30H1.656A1.656 1.656 0 010 28.344V1.656C0 .74.741 0 1.656 0h26.688C29.26 0 30 .741 30 1.656v26.688C30 29.26 29.259 30 28.344 30H20.7V18.382h3.9l.583-4.527H20.7v-2.89c0-1.312.364-2.205 2.243-2.205l2.398-.001v-4.05c-.415-.055-1.838-.178-3.494-.178-3.456 0-5.823 2.11-5.823 5.985v3.339h-3.91v4.527h3.91V30z"/></symbol><symbol viewBox="0 0 438.549 438.549" id="github" xmlns="http://www.w3.org/2000/svg"><path d="M409.132 114.573c-19.608-33.596-46.205-60.194-79.798-79.8-33.598-19.607-70.277-29.408-110.063-29.408-39.781 0-76.472 9.804-110.063 29.408-33.596 19.605-60.192 46.204-79.8 79.8C9.803 148.168 0 184.854 0 224.63c0 47.78 13.94 90.745 41.827 128.906 27.884 38.164 63.906 64.572 108.063 79.227 5.14.954 8.945.283 11.419-1.996 2.475-2.282 3.711-5.14 3.711-8.562 0-.571-.049-5.708-.144-15.417a2549.81 2549.81 0 01-.144-25.406l-6.567 1.136c-4.187.767-9.469 1.092-15.846 1-6.374-.089-12.991-.757-19.842-1.999-6.854-1.231-13.229-4.086-19.13-8.559-5.898-4.473-10.085-10.328-12.56-17.556l-2.855-6.57c-1.903-4.374-4.899-9.233-8.992-14.559-4.093-5.331-8.232-8.945-12.419-10.848l-1.999-1.431c-1.332-.951-2.568-2.098-3.711-3.429-1.142-1.331-1.997-2.663-2.568-3.997-.572-1.335-.098-2.43 1.427-3.289 1.525-.859 4.281-1.276 8.28-1.276l5.708.853c3.807.763 8.516 3.042 14.133 6.851 5.614 3.806 10.229 8.754 13.846 14.842 4.38 7.806 9.657 13.754 15.846 17.847 6.184 4.093 12.419 6.136 18.699 6.136 6.28 0 11.704-.476 16.274-1.423 4.565-.952 8.848-2.383 12.847-4.285 1.713-12.758 6.377-22.559 13.988-29.41-10.848-1.14-20.601-2.857-29.264-5.14-8.658-2.286-17.605-5.996-26.835-11.14-9.235-5.137-16.896-11.516-22.985-19.126-6.09-7.614-11.088-17.61-14.987-29.979-3.901-12.374-5.852-26.648-5.852-42.826 0-23.035 7.52-42.637 22.557-58.817-7.044-17.318-6.379-36.732 1.997-58.24 5.52-1.715 13.706-.428 24.554 3.853 10.85 4.283 18.794 7.952 23.84 10.994 5.046 3.041 9.089 5.618 12.135 7.708 17.705-4.947 35.976-7.421 54.818-7.421s37.117 2.474 54.823 7.421l10.849-6.849c7.419-4.57 16.18-8.758 26.262-12.565 10.088-3.805 17.802-4.853 23.134-3.138 8.562 21.509 9.325 40.922 2.279 58.24 15.036 16.18 22.559 35.787 22.559 58.817 0 16.178-1.958 30.497-5.853 42.966-3.9 12.471-8.941 22.457-15.125 29.979-6.191 7.521-13.901 13.85-23.131 18.986-9.232 5.14-18.182 8.85-26.84 11.136-8.662 2.286-18.415 4.004-29.263 5.146 9.894 8.562 14.842 22.077 14.842 40.539v60.237c0 3.422 1.19 6.279 3.572 8.562 2.379 2.279 6.136 2.95 11.276 1.995 44.163-14.653 80.185-41.062 108.068-79.226 27.88-38.161 41.825-81.126 41.825-128.906-.01-39.771-9.818-76.454-29.414-110.049z"/></symbol><symbol viewBox="0 0 35 30" id="medium" xmlns="http://www.w3.org/2000/svg"><g fill-rule="evenodd"><path class="epath1" d="M24.198.355c-.526-.264-.957.003-.957.595v23.548l9.605 4.831c1.057.532 1.914.16 1.914-.83V5.822a.252.252 0 00-.138-.225L24.198.355"/><path class="epath2" d="M11.723 18.704L22.681.791a1.19 1.19 0 011.517-.436l10.436 5.25a.13.13 0 01.052.183l-11.445 18.71-11.518-5.794"/><path class="epath3" d="M1.8.676C.921.235.624.561 1.138 1.402l10.584 17.302 11.518 5.794-11.493-18.79a.166.166 0 00-.068-.061L1.8.677"/><path class="epath4" d="M11.723 28.498c0 .987-.718 1.433-1.595.992l-8.967-4.51c-.526-.265-.957-.966-.957-1.558V1.309C.204.52.78.163 1.48.516l10.18 5.12c.039.02.063.059.063.101v22.761"/></g></symbol><symbol viewBox="0 0 36 31" id="reddit" xmlns="http://www.w3.org/2000/svg"><path fill-rule="evenodd" d="M23.355 20.078c-1.345 0-2.476-1.082-2.476-2.415s1.13-2.45 2.476-2.45c1.345 0 2.437 1.117 2.437 2.45a2.426 2.426 0 01-2.437 2.415m.571 4.686c-1.253 1.24-3.186 1.844-5.908 1.844l-.02-.001h-.018c-2.723 0-4.654-.602-5.907-1.843a.967.967 0 010-1.378.99.99 0 011.391 0c.864.856 2.341 1.273 4.516 1.273l.019.001h.019c2.175 0 3.653-.418 4.518-1.274a.99.99 0 011.39 0 .969.969 0 010 1.378m-13.718-7.1c0-1.333 1.129-2.451 2.473-2.451 1.345 0 2.437 1.118 2.437 2.45a2.426 2.426 0 01-2.437 2.415c-1.344 0-2.473-1.082-2.473-2.415M29.997 2.282c.911 0 1.653.735 1.653 1.636 0 .903-.742 1.638-1.653 1.638a1.647 1.647 0 01-1.653-1.638c0-.901.742-1.636 1.653-1.636M36 15.012c0-2.365-1.94-4.288-4.327-4.288a4.327 4.327 0 00-2.726.962c-2.638-1.643-5.986-2.633-9.574-2.843l1.872-5.864 5.144 1.2c.135 1.856 1.701 3.325 3.608 3.325 1.995 0 3.618-1.608 3.618-3.586 0-1.976-1.623-3.585-3.618-3.585a3.627 3.627 0 00-3.212 1.937L20.807.875a.983.983 0 00-1.162.654L17.32 8.81c-3.867.093-7.502 1.087-10.334 2.826a4.33 4.33 0 00-2.66-.911C1.94 10.724 0 12.647 0 15.01a4.27 4.27 0 001.873 3.527c-.047.34-.072.682-.072 1.03 0 2.954 1.734 5.703 4.882 7.739 3.017 1.952 7.01 3.026 11.244 3.026 4.233 0 8.227-1.074 11.244-3.026 3.148-2.036 4.882-4.785 4.882-7.74 0-.315-.022-.629-.061-.94A4.277 4.277 0 0036 15.011"/></symbol><symbol viewBox="0 0 31 28" id="telegram" xmlns="http://www.w3.org/2000/svg"><path fill-rule="evenodd" d="M.922 11.902L27.499.79a2 2 0 012.73 2.247l-4.871 23.779a1.5 1.5 0 01-2.368.9l-7.225-5.4-3.426 3.232a1.5 1.5 0 01-2.442-.588l-2.893-8.132L.999 14.7a1.5 1.5 0 01-.077-2.798zM11.07 23.707l.703-4.595L23.764 6.61a.2.2 0 00-.252-.307L8.458 15.858l2.613 7.85z"/></symbol><symbol viewBox="0 0 31 26" id="twitter" xmlns="http://www.w3.org/2000/svg"><path fill-rule="evenodd" d="M27.442 3.979A6.34 6.34 0 0030.167.465a12.203 12.203 0 01-3.937 1.54A6.11 6.11 0 0021.708 0c-3.42 0-6.194 2.845-6.194 6.353 0 .498.054.982.16 1.447-5.15-.265-9.714-2.792-12.772-6.64a6.469 6.469 0 00-.838 3.197A6.395 6.395 0 004.82 9.645a6.083 6.083 0 01-2.808-.793v.079c0 3.079 2.136 5.647 4.973 6.229a6.05 6.05 0 01-2.799.111c.789 2.523 3.075 4.36 5.787 4.41a12.234 12.234 0 01-7.695 2.72c-.5 0-.994-.028-1.478-.086 2.742 1.8 6 2.852 9.498 2.852 11.398 0 17.628-9.68 17.628-18.076 0-.276-.005-.553-.016-.823A12.716 12.716 0 0031 2.979a12.09 12.09 0 01-3.558 1z"/></symbol><symbol viewBox="0 0 34 25" id="youtube" xmlns="http://www.w3.org/2000/svg"><path fill-rule="evenodd" d="M13.601 16.622L13.6 6.8l9.067 4.928-9.066 4.894zM33.66 5.215s-.333-2.368-1.351-3.411C31.015.434 29.566.428 28.902.348 24.144 0 17.007 0 17.007 0h-.014S9.856 0 5.098.348c-.665.08-2.113.086-3.408 1.456C.672 2.847.34 5.215.34 5.215S0 7.998 0 10.78v2.608c0 2.782.34 5.564.34 5.564s.332 2.368 1.35 3.411c1.295 1.37 2.993 1.327 3.75 1.47 2.72.264 11.56.346 11.56.346s7.144-.011 11.902-.359c.664-.08 2.113-.087 3.407-1.457 1.018-1.043 1.351-3.411 1.351-3.411s.34-2.782.34-5.564V10.78c0-2.781-.34-5.564-.34-5.564z"/></symbol></svg>