<?xml version="1.0" encoding="utf-8"?><svg xmlns="http://www.w3.org/2000/svg" width="31" height="26" viewBox="0 0 31 26"><path fill-rule="evenodd" d="M27.442 3.979A6.34 6.34 0 0030.167.465a12.203 12.203 0 01-3.937 1.54A6.11 6.11 0 0021.708 0c-3.42 0-6.194 2.845-6.194 6.353 0 .498.054.982.16 1.447-5.15-.265-9.714-2.792-12.772-6.64a6.469 6.469 0 00-.838 3.197A6.395 6.395 0 004.82 9.645a6.083 6.083 0 01-2.808-.793v.079c0 3.079 2.136 5.647 4.973 6.229a6.05 6.05 0 01-2.799.111c.789 2.523 3.075 4.36 5.787 4.41a12.234 12.234 0 01-7.695 2.72c-.5 0-.994-.028-1.478-.086 2.742 1.8 6 2.852 9.498 2.852 11.398 0 17.628-9.68 17.628-18.076 0-.276-.005-.553-.016-.823A12.716 12.716 0 0031 2.979a12.09 12.09 0 01-3.558 1z"/></svg>