<?xml version="1.0" encoding="utf-8"?><svg xmlns="http://www.w3.org/2000/svg" width="34" height="25" viewBox="0 0 34 25"><path fill-rule="evenodd" d="M13.601 16.622L13.6 6.8l9.067 4.928-9.066 4.894zM33.66 5.215s-.333-2.368-1.351-3.411C31.015.434 29.566.428 28.902.348 24.144 0 17.007 0 17.007 0h-.014S9.856 0 5.098.348c-.665.08-2.113.086-3.408 1.456C.672 2.847.34 5.215.34 5.215S0 7.998 0 10.78v2.608c0 2.782.34 5.564.34 5.564s.332 2.368 1.35 3.411c1.295 1.37 2.993 1.327 3.75 1.47 2.72.264 11.56.346 11.56.346s7.144-.011 11.902-.359c.664-.08 2.113-.087 3.407-1.457 1.018-1.043 1.351-3.411 1.351-3.411s.34-2.782.34-5.564V10.78c0-2.781-.34-5.564-.34-5.564z"/></svg>