<svg width="24" height="24" fill="none" xmlns="http://www.w3.org/2000/svg"><g clip-path="url(#clip0)" fill="#FF007A"><path d="M9.274 6.324c-.2-.03-.21-.04-.114-.05.18-.029.599.01.894.079.684.167 1.302.598 1.958 1.353l.171.206.247-.04c1.056-.176 2.14-.039 3.043.393.247.117.636.353.684.411.019.02.048.148.067.275.066.46.038.804-.105 1.069-.076.147-.076.186-.029.313a.286.286 0 00.257.167c.228 0 .466-.373.58-.892l.048-.206.085.098c.485.559.865 1.333.922 1.882l.02.147-.086-.127a1.635 1.635 0 00-.457-.5c-.323-.225-.665-.294-1.568-.343-.818-.05-1.284-.118-1.74-.275-.78-.264-1.179-.608-2.1-1.872-.41-.56-.666-.863-.923-1.118-.561-.559-1.122-.853-1.854-.97z"/><path d="M16.356 7.569c.02-.373.067-.618.171-.843a.682.682 0 01.086-.167c.01 0-.01.068-.038.147-.076.216-.086.52-.038.863.066.44.095.5.551.98.21.226.457.51.552.627l.161.216-.161-.157c-.2-.196-.656-.568-.76-.617-.067-.04-.077-.04-.124.01-.038.039-.048.098-.048.382-.01.441-.066.716-.21 1-.075.147-.085.117-.018-.05.047-.127.057-.185.057-.607 0-.853-.095-1.059-.675-1.402a7.022 7.022 0 00-.533-.284 2.083 2.083 0 01-.256-.128c.019-.02.58.147.798.245.333.138.39.147.428.138.029-.03.048-.108.057-.353zM9.663 9.03c-.399-.57-.655-1.452-.598-2.108l.019-.206.095.02c.17.029.465.146.608.235.38.235.551.558.713 1.362.048.236.114.51.143.598.047.147.228.49.38.706.104.157.038.236-.2.216-.36-.04-.846-.382-1.16-.824zM15.872 13.294c-1.882-.784-2.548-1.46-2.548-2.608 0-.166.01-.304.01-.304.01 0 .076.06.161.128.38.314.808.45 1.997.627.694.108 1.093.187 1.454.314 1.15.392 1.864 1.196 2.035 2.284.047.314.019.912-.057 1.226-.067.245-.257.696-.305.706-.009 0-.028-.05-.028-.128-.019-.412-.219-.804-.551-1.108-.4-.352-.913-.617-2.168-1.137zM14.541 13.618a2.383 2.383 0 00-.095-.412l-.047-.147.085.108c.124.147.219.323.305.568.066.187.066.245.066.55 0 .293-.01.362-.066.529-.096.264-.21.45-.4.657-.342.362-.789.558-1.426.647-.114.01-.437.039-.722.059-.713.039-1.189.117-1.617.274-.057.02-.114.04-.123.03-.02-.02.276-.197.513-.314.333-.167.675-.255 1.426-.393.371-.058.751-.137.846-.176.942-.304 1.407-1.059 1.255-1.98z"/><path d="M15.407 15.196c-.247-.559-.304-1.088-.171-1.588.019-.05.038-.098.057-.098.019 0 .076.03.133.068.114.079.352.216.96.56.77.43 1.208.764 1.512 1.146.266.334.428.716.504 1.187.047.264.019.901-.048 1.166-.209.834-.684 1.5-1.378 1.883a1.3 1.3 0 01-.2.098c-.01 0 .029-.098.086-.216.228-.5.256-.98.085-1.52-.104-.333-.323-.735-.76-1.411-.523-.785-.647-.99-.78-1.275zM8.325 18.196c.703-.608 1.568-1.04 2.367-1.176.342-.06.912-.04 1.226.049.504.137.96.43 1.198.794.228.353.333.657.437 1.333.038.265.086.54.095.598.077.353.229.628.419.775.294.225.808.235 1.312.039.085-.03.161-.059.161-.05.02.02-.237.197-.408.285a1.313 1.313 0 01-.685.167c-.456 0-.846-.245-1.16-.736-.066-.098-.2-.382-.314-.647-.332-.794-.503-1.029-.893-1.294-.342-.225-.78-.274-1.113-.108-.437.216-.55.795-.247 1.147a.962.962 0 00.542.295c.352.049.656-.236.656-.598 0-.236-.085-.373-.313-.48-.305-.138-.638.019-.628.323 0 .127.057.206.18.264.077.04.077.04.02.03-.276-.059-.343-.412-.124-.637.266-.275.827-.157 1.017.225.076.157.086.47.02.667-.162.431-.619.657-1.084.53-.314-.09-.447-.177-.828-.58-.665-.705-.922-.842-1.872-.99l-.181-.029.2-.196z"/><path fill-rule="evenodd" clip-rule="evenodd" d="M3.324 2.422C5.539 5.196 8.952 9.51 9.123 9.745c.142.196.085.383-.152.52a1.422 1.422 0 01-.542.157.676.676 0 01-.457-.206c-.085-.088-.456-.647-1.292-1.99A127.703 127.703 0 005.49 6.332c-.038-.02-.038-.02 1.122 2.118.732 1.343.97 1.823.97 1.882 0 .128-.038.196-.19.373-.257.294-.371.627-.457 1.323-.095.775-.351 1.324-1.084 2.255-.427.55-.494.647-.598.873-.134.274-.172.431-.19.784-.02.373.018.608.123.961.095.314.2.52.456.921.219.354.352.618.352.716 0 .079.02.079.361 0 .818-.196 1.493-.53 1.864-.941.228-.255.285-.392.285-.745 0-.226-.01-.275-.067-.412-.095-.215-.275-.392-.665-.666-.514-.363-.732-.657-.79-1.05-.047-.333.01-.558.296-1.176.294-.637.37-.902.418-1.549.028-.412.076-.578.19-.706.124-.137.228-.186.523-.225.485-.069.798-.197 1.046-.442a.933.933 0 00.323-.715l.01-.226-.124-.137C9.218 9.019 3.029 2 3 2c-.01 0 .143.186.324.422zm2.918 13.94a.412.412 0 00-.123-.538c-.162-.108-.41-.06-.41.088 0 .039.02.078.077.098.085.049.095.098.028.206-.066.107-.066.206.02.274.133.108.313.05.408-.127zM10.091 11.206c-.228.069-.446.323-.513.578-.038.157-.019.441.048.53.104.137.2.176.465.176.523 0 .97-.235 1.018-.52.047-.235-.152-.558-.428-.705a.94.94 0 00-.59-.06zm.609.49c.076-.117.047-.245-.095-.333-.257-.167-.647-.03-.647.225 0 .128.2.265.39.265.124 0 .295-.079.352-.157z"/></g><defs><clipPath id="clip0"><path fill="#fff" transform="translate(3 2)" d="M0 0h16v19H0z"/></clipPath></defs></svg>
