<svg width="16" height="14" xmlns="http://www.w3.org/2000/svg"><defs><filter x="-13%" y="-13.3%" width="126%" height="126.6%" filterUnits="objectBoundingBox" id="a"><feOffset dy="8" in="SourceAlpha" result="shadowOffsetOuter1"/><feGaussianBlur stdDeviation="10" in="shadowOffsetOuter1" result="shadowBlurOuter1"/><feColorMatrix values="0 0 0 0 0.0470588235 0 0 0 0 0.0156862745 0 0 0 0 0.0901960784 0 0 0 0.672667177 0" in="shadowBlurOuter1" result="shadowMatrixOuter1"/><feMerge><feMergeNode in="shadowMatrixOuter1"/><feMergeNode in="SourceGraphic"/></feMerge></filter></defs><g fill="none" fill-rule="evenodd"><path fill="#0C0417" d="M-253-2380h1440v4429H-253z"/><path fill="#1C0937" d="M-253-2380h1440v4429H-253z"/><path d="M-251-1117h1439V187H-251z"/><g filter="url(#a)" fill="#EEE3FF" transform="translate(-187 -338)"><rect width="416" height="406" rx="36"/></g><path d="M5.489 10.143l5.284-3.292a.167.167 0 000-.282L5.489 3.277a1.333 1.333 0 01-.602-.87L4.64 1.183A.3.3 0 015.1.873l8.687 5.698a.167.167 0 010 .278L5.1 12.546a.3.3 0 01-.459-.31l.246-1.223c.072-.36.29-.675.602-.87z" fill="#1B0D2F"/></g></svg>