<svg width="141" height="129" xmlns="http://www.w3.org/2000/svg" xmlns:xlink="http://www.w3.org/1999/xlink">
    <defs>
        <linearGradient x1="9.289%" y1="51.821%" x2="100%" y2="55.367%" id="a">
            <stop stop-color="#43206C" offset="0%"/>
            <stop stop-color="#200E3A" offset="100%"/>
        </linearGradient>
        <linearGradient x1="100%" y1="29.297%" x2="0%" y2="70.703%" id="b">
            <stop stop-color="#7234C8" offset="0%"/>
            <stop stop-color="#F53568" offset="100%"/>
        </linearGradient>
        <linearGradient x1="100%" y1="29.48%" x2="0%" y2="70.52%" id="c">
            <stop stop-color="#7234C8" offset="0%"/>
            <stop stop-color="#F53568" offset="100%"/>
        </linearGradient>
        <linearGradient x1="88.632%" y1="63.843%" x2="6.078%" y2="36.038%" id="f">
            <stop stop-color="#FFF" offset="0%"/>
            <stop stop-color="#DBCBF1" offset="100%"/>
        </linearGradient>
        <linearGradient x1="233.28%" y1="62.66%" x2="0%" y2="88.359%" id="g">
            <stop stop-color="#7234C8" offset="0%"/>
            <stop stop-color="#4E238E" offset="100%"/>
        </linearGradient>
        <linearGradient x1="233.28%" y1="53.294%" x2="0%" y2="59.982%" id="h">
            <stop stop-color="#7234C8" offset="0%"/>
            <stop stop-color="#4E238E" offset="100%"/>
        </linearGradient>
        <filter x="-8.4%" y="-9.6%" width="117.4%" height="128.6%" filterUnits="objectBoundingBox" id="d">
            <feOffset dy="2" in="SourceAlpha" result="shadowOffsetOuter1"/>
            <feGaussianBlur stdDeviation="2" in="shadowOffsetOuter1" result="shadowBlurOuter1"/>
            <feColorMatrix values="0 0 0 0 0.109803922 0 0 0 0 0.0352941176 0 0 0 0 0.215686275 0 0 0 0.424661276 0" in="shadowBlurOuter1"/>
        </filter>
        <path d="M39.237 16.073l31.38 26.71a1 1 0 001.313-.015l11.741-10.47a1 1 0 011.356.023l25.18 24.008.001-7.329a1 1 0 011-1h2a1 1 0 011 1v11a3 3 0 01-3 3h-9.374a1 1 0 01-1-1v-2a1 1 0 011-1h5.378L84.936 37.76a1 1 0 00-1.355-.022L71.992 48.073a1 1 0 01-1.313.015l-34.035-28.97a1 1 0 01-.113-1.41l1.296-1.522a1 1 0 011.41-.113z" id="e"/>
    </defs>
    <g fill="none" fill-rule="evenodd">
        <path d="M139.5 46.135c0 39.855 0 40.27-64 40.824-64 .554-64-.969-64-40.824 64 28.865 68 28.865 128 0z" fill="url(#a)" transform="translate(.389)"/>
        <path d="M75.95 0C133 0 133 1.124 133 37.091c0 35.968 0 36.342-57.5 36.842S18 73.059 18 37.09C18 1.124 18.898 0 75.95 0z" fill="url(#b)" opacity=".241" transform="translate(.389)"/>
        <path d="M139.5 44.135c0 39.855 0 40.27-64 40.824-62.72.543-63.974-.908-64-38.479v-2.345c0-39.457.98-41.073 62.614-41.101H76c63.5 0 63.5 1.245 63.5 41.1zM70.746 29.31c-1.941-.848-3.746.099-3.992 2.116 0 0-.754 4.111-.754 12.563 0 8.451.75 12.484.75 12.484.266 2.019 2.091 3.049 4.059 2.26 0 0 4.438-1.46 11.015-5.389 6.577-3.928 10.274-7.457 10.274-7.457 1.226-1.07 1.202-2.779-.072-3.794 0 0-.084-.075-.253-.217l-.197-.165c-1.107-.913-4.277-3.395-9.752-6.665a110.39 110.39 0 00-6.719-3.72l-.47-.236c-2.511-1.252-3.889-1.78-3.889-1.78z" fill="url(#c)" transform="translate(.389)"/>
        <g fill-rule="nonzero" transform="translate(.389)">
            <use fill="#000" filter="url(#d)" xlink:href="#e"/>
            <use fill="url(#f)" xlink:href="#e"/>
        </g>
        <path d="M48.889 48c8.233 0 16.467.84 24.7 2.522a1 1 0 01.8.98v59.64a1 1 0 01-.85.99A164.198 164.198 0 0148.889 114c-7.67 0-15.34-.543-23.01-1.628A17.926 17.926 0 0118.39 114c-9.941 0-18-8.059-18-18s8.059-18 18-18c1.735 0 3.413.246 5 .704V51.502a1 1 0 01.8-.98C32.422 48.841 40.656 48 48.889 48z" fill="#FFF"/>
        <path d="M18 80c8.837 0 16 7.163 16 16s-7.163 16-16 16-16-7.163-16-16 7.163-16 16-16zm53.987 24.708a1 1 0 01.013.161v3.954a1 1 0 01-.837.987 138.414 138.414 0 01-22.663 1.878c-6.065 0-12.13-.404-18.194-1.21a19.093 19.093 0 004.424-5.465c4.59.463 9.18.694 13.77.694 7.446 0 14.893-.609 22.339-1.825a1 1 0 011.148.826zm0-8a1 1 0 01.013.161v3.954a1 1 0 01-.837.987 138.414 138.414 0 01-22.663 1.878 137.3 137.3 0 01-12.864-.605 18.896 18.896 0 001.326-5.864c3.845.325 7.692.488 11.538.488 7.446 0 14.893-.609 22.339-1.825a1 1 0 011.148.826zm0-8a1 1 0 01.013.161v3.954a1 1 0 01-.837.987A138.414 138.414 0 0148.5 95.688c-3.84 0-7.678-.162-11.518-.485a18.886 18.886 0 00-1.27-6.096c4.262.4 8.525.6 12.788.6 7.446 0 14.893-.609 22.339-1.825a1 1 0 011.148.826zm0-8a1 1 0 01.013.161v3.954a1 1 0 01-.837.987 137.378 137.378 0 01-36.429 1.185 19.09 19.09 0 00-6.08-6.73A137.88 137.88 0 0048.5 81.708c7.446 0 14.893-.609 22.339-1.825a1 1 0 011.148.826zm0-8a1 1 0 01.013.161v3.954a1 1 0 01-.837.987A138.414 138.414 0 0148.5 79.688c-7.555 0-15.109-.626-22.664-1.878a1 1 0 01-.836-.987V72.87a1 1 0 011.161-.987A138.368 138.368 0 0048.5 73.707c7.446 0 14.893-.609 22.339-1.825a1 1 0 011.148.826zm0-8a1 1 0 01.013.161v3.954a1 1 0 01-.837.987A138.414 138.414 0 0148.5 71.688c-7.555 0-15.109-.626-22.664-1.878a1 1 0 01-.836-.987V64.87a1 1 0 011.161-.987A138.368 138.368 0 0048.5 65.707c7.446 0 14.893-.609 22.339-1.825a1 1 0 011.148.826zm0-8a1 1 0 01.013.161v3.954a1 1 0 01-.837.987A138.414 138.414 0 0148.5 63.688c-7.555 0-15.109-.626-22.664-1.878a1 1 0 01-.836-.987V56.87a1 1 0 011.161-.987A138.368 138.368 0 0048.5 57.707c7.446 0 14.893-.609 22.339-1.825a1 1 0 011.148.826zm-23.035-6.02c12.77.026 23.048 1.135 23.048 2.5 0 1.364-10.278 2.474-23.048 2.5H48.5c-12.979 0-23.5-1.12-23.5-2.5 0-1.365 10.278-2.474 23.048-2.5h.904z" fill="url(#g)" transform="translate(.389)"/>
        <path d="M18.786 103v-1.668c1.165-.14 2.056-.499 2.675-1.08.619-.58.928-1.278.928-2.092 0-.656-.17-1.184-.51-1.587a3.209 3.209 0 00-1.26-.908c-.5-.204-1.112-.385-1.833-.544V92.59a6.31 6.31 0 012.366.775l.773-1.832c-.825-.506-1.871-.81-3.14-.909V89H17.24v1.653c-1.175.13-2.074.49-2.698 1.08-.624.59-.936 1.298-.936 2.122 0 .666.17 1.2.51 1.601.34.403.764.708 1.269.916a11.99 11.99 0 001.855.566v2.488a6.497 6.497 0 01-1.623-.358 5.678 5.678 0 01-1.377-.7l-.85 1.817c.423.318.98.586 1.67.804.69.219 1.418.348 2.18.388V103h1.547zm-1.547-8.251c-.37-.11-.654-.243-.85-.402a.751.751 0 01-.294-.61c0-.259.093-.485.278-.678.186-.194.475-.336.866-.425v2.115zm1.547 4.617v-2.055c.36.119.636.258.827.417a.76.76 0 01.286.61.858.858 0 01-.278.64c-.186.18-.464.309-.835.388z" fill="#FFF" fill-rule="nonzero"/>
        <path d="M82 103.87a1 1 0 01.161.012 138.368 138.368 0 0022.339 1.825c7.446 0 14.893-.609 22.339-1.825a1 1 0 011.161.987v3.954a1 1 0 01-.837.987 138.414 138.414 0 01-22.663 1.878c-7.555 0-15.109-.626-22.664-1.878a1 1 0 01-.836-.987v-3.954a1 1 0 011-1zm0-8a1 1 0 01.161.012 138.368 138.368 0 0022.339 1.825c7.446 0 14.893-.609 22.339-1.825a1 1 0 011.161.987v3.954a1 1 0 01-.837.987 138.414 138.414 0 01-22.663 1.878c-7.555 0-15.109-.626-22.664-1.878a1 1 0 01-.836-.987V96.87a1 1 0 011-1zm22.952-5.182c12.77.026 23.048 1.135 23.048 2.5 0 1.38-10.521 2.5-23.5 2.5s-23.5-1.12-23.5-2.5c0-1.381 10.521-2.5 23.5-2.5z" fill="url(#h)" transform="translate(.389)"/>
        <path d="M30.719 126.12c1.088 0 1.938-.276 2.55-.828.612-.552.934-1.372.966-2.46.016-.464.024-.804.024-1.02v-.103c-.003-.222-.01-.531-.024-.929-.032-1.064-.362-1.88-.99-2.448-.628-.568-1.47-.852-2.526-.852-1.064 0-1.908.284-2.532.852-.624.568-.952 1.384-.984 2.448a32.6 32.6 0 00-.012 1.032c0 .448.004.788.012 1.02.032 1.088.352 1.908.96 2.46s1.46.828 2.556.828zm0-1.392c-.536 0-.962-.162-1.278-.486-.316-.324-.482-.814-.498-1.47-.008-.24-.012-.564-.012-.972 0-.416.004-.74.012-.972.016-.656.184-1.146.504-1.47.32-.324.744-.486 1.272-.486.52 0 .94.162 1.26.486.32.324.492.814.516 1.47.016.464.024.788.024.972v.07c-.002.181-.01.482-.024.902-.024.664-.192 1.156-.504 1.476-.312.32-.736.48-1.272.48zM39.7 126a.273.273 0 00.21-.084.289.289 0 00.078-.204v-.756a.284.284 0 00-.078-.21.284.284 0 00-.21-.078h-.84c-.272 0-.468-.088-.588-.264-.12-.176-.18-.436-.18-.78v-2.58h1.5c.08 0 .148-.028.204-.084a.278.278 0 00.084-.204v-.708a.278.278 0 00-.084-.204.278.278 0 00-.204-.084h-1.5v-1.992a.284.284 0 00-.078-.21.284.284 0 00-.21-.078h-.996a.289.289 0 00-.204.078.273.273 0 00-.084.21v1.992h-.948a.278.278 0 00-.204.084.278.278 0 00-.084.204v.708c0 .08.028.148.084.204a.278.278 0 00.204.084h.948v2.712c0 .736.184 1.294.552 1.674.368.38.916.57 1.644.57h.984zm2.958 0a.273.273 0 00.21-.084.289.289 0 00.078-.204v-3.3c0-.456.124-.816.372-1.08.248-.264.576-.396.984-.396.424 0 .75.13.978.39.228.26.342.622.342 1.086v3.3c0 .08.028.148.084.204a.292.292 0 00.216.084h1.092a.273.273 0 00.21-.084.289.289 0 00.078-.204v-3.372c0-.832-.22-1.49-.66-1.974-.44-.484-1.028-.726-1.764-.726-.808 0-1.452.288-1.932.864v-2.736a.284.284 0 00-.078-.21.284.284 0 00-.21-.078h-1.092a.289.289 0 00-.204.078.273.273 0 00-.084.21v7.944c0 .08.028.148.084.204a.278.278 0 00.204.084h1.092zm9.078.12c.56 0 1.052-.096 1.476-.288.424-.192.75-.418.978-.678.228-.26.342-.486.342-.678a.2.2 0 00-.078-.168.296.296 0 00-.186-.06h-1.056a.494.494 0 00-.204.03.65.65 0 00-.168.162c-.288.368-.66.552-1.116.552-.4 0-.714-.146-.942-.438-.228-.292-.35-.662-.366-1.11v-.096H54.4c.088 0 .16-.028.216-.084a.278.278 0 00.084-.204v-.252c0-.96-.258-1.728-.774-2.304-.516-.576-1.25-.864-2.202-.864-.928 0-1.654.288-2.178.864-.524.576-.786 1.364-.786 2.364l.012.3c.032.944.31 1.672.834 2.184.524.512 1.234.768 2.13.768zm1.308-3.792h-2.628v-.024c0-.472.116-.85.348-1.134.232-.284.552-.426.96-.426.408 0 .73.142.966.426.236.284.354.662.354 1.134v.024zM57.539 126c.08 0 .148-.028.204-.084a.278.278 0 00.084-.204v-3.288c0-.376.108-.672.324-.888.216-.216.512-.324.888-.324h.948a.273.273 0 00.21-.084.289.289 0 00.078-.204v-.876a.284.284 0 00-.078-.21.284.284 0 00-.21-.078h-.504c-.752 0-1.328.264-1.728.792v-.492a.292.292 0 00-.084-.216.292.292 0 00-.216-.084h-.984a.278.278 0 00-.204.084.292.292 0 00-.084.216v5.652c0 .08.028.148.084.204a.278.278 0 00.204.084h1.068zm6.258.12c.88 0 1.566-.176 2.058-.528.492-.352.738-.812.738-1.38 0-.976-.72-1.604-2.16-1.884a7.27 7.27 0 01-1.044-.258c-.232-.084-.386-.174-.462-.27a.562.562 0 01-.114-.36c0-.208.08-.376.24-.504.16-.128.388-.192.684-.192.216 0 .4.032.552.096.152.064.29.15.414.258.124.108.214.182.27.222a.24.24 0 00.204.096h.9a.254.254 0 00.186-.078.254.254 0 00.078-.186c0-.184-.102-.396-.306-.636-.204-.24-.502-.446-.894-.618s-.86-.258-1.404-.258c-.528 0-.982.09-1.362.27-.38.18-.666.412-.858.696a1.59 1.59 0 00-.288.906c0 .488.162.88.486 1.176.324.296.826.516 1.506.66a9.52 9.52 0 011.062.282c.236.084.4.176.492.276.092.1.138.23.138.39 0 .232-.1.41-.3.534-.2.124-.46.186-.78.186a1.599 1.599 0 01-1.074-.384l-.198-.168-.072-.06c-.048-.064-.104-.096-.168-.096h-.984a.265.265 0 00-.186.072.249.249 0 00-.078.192c0 .176.098.386.294.63.196.244.498.458.906.642.408.184.916.276 1.524.276zM104.01 126.12c1.08 0 1.919-.276 2.515-.828.596-.552.894-1.388.894-2.508V117.9a.305.305 0 00-.078-.216.273.273 0 00-.21-.084h-1.104a.292.292 0 00-.216.084.292.292 0 00-.084.216v4.884c0 .632-.15 1.108-.45 1.428-.3.32-.726.48-1.278.48s-.978-.16-1.278-.48c-.3-.32-.45-.796-.45-1.428V117.9a.292.292 0 00-.084-.216.292.292 0 00-.216-.084h-1.104a.273.273 0 00-.21.084.305.305 0 00-.078.216v4.884c0 1.12.3 1.956.9 2.508.6.552 1.444.828 2.532.828zm7.615 0c.88 0 1.566-.176 2.058-.528.492-.352.738-.812.738-1.38 0-.976-.72-1.604-2.16-1.884a7.27 7.27 0 01-1.044-.258c-.232-.084-.386-.174-.462-.27a.562.562 0 01-.114-.36c0-.208.08-.376.24-.504.16-.128.388-.192.684-.192.216 0 .4.032.552.096.152.064.29.15.414.258.124.108.214.182.27.222a.24.24 0 00.204.096h.9a.254.254 0 00.186-.078.254.254 0 00.078-.186c0-.184-.102-.396-.306-.636-.204-.24-.502-.446-.894-.618s-.86-.258-1.404-.258c-.528 0-.982.09-1.362.27-.38.18-.666.412-.858.696a1.59 1.59 0 00-.288.906c0 .488.162.88.486 1.176.324.296.826.516 1.506.66a9.52 9.52 0 011.062.282c.236.084.4.176.492.276.092.1.138.23.138.39 0 .232-.1.41-.3.534-.2.124-.46.186-.78.186a1.599 1.599 0 01-1.074-.384l-.198-.168-.072-.06c-.048-.064-.104-.096-.168-.096h-.984a.265.265 0 00-.186.072.249.249 0 00-.078.192c0 .176.098.386.294.63.196.244.498.458.906.642.408.184.916.276 1.524.276z" fill="#0C0417" fill-rule="nonzero" opacity=".786"/>
    </g>
</svg>
