<svg width="500" height="389" fill="none" xmlns="http://www.w3.org/2000/svg"><path fill-rule="evenodd" clip-rule="evenodd" d="M27.24 229.113c-11.888 6.835-11.925 23.975-.066 30.86L220.002 371.93a55.438 55.438 0 0055.676-.002l197.834-114.879c11.798-6.851 11.836-23.877.069-30.781L282.894 114.402a55.44 55.44 0 00-55.683-.246L27.241 229.113z" fill="#fff" stroke="#290F4D" stroke-width="3"/><path clip-rule="evenodd" d="M94.172 229.699c-7.933 4.555-7.957 15.99-.044 20.579l136.704 79.28a36.96 36.96 0 0037.086-.001l140.199-81.318c7.872-4.566 7.898-15.925.046-20.526l-135.194-79.221a36.96 36.96 0 00-37.09-.163l-141.707 81.37z" stroke="#F57B4B" stroke-width="3.96"/><path d="M371.106 112.79V94.024h-14.274l-80.071-46.217a52.48 52.48 0 00-52.48 0L144.21 94.024H128.7v123.852a24.715 24.715 0 0012.395 21.42l82.263 47.468a52.513 52.513 0 0052.496 0l83.17-48.012a24.71 24.71 0 0012.411-21.419c0-1.335-.082-103.241-.329-104.543z" fill="url(#paint0_linear)"/><path d="M359.024 71.88a24.712 24.712 0 010 42.953l-83.17 48.012a52.513 52.513 0 01-52.496 0l-82.263-47.485a24.81 24.81 0 010-42.954l83.186-47.995a52.48 52.48 0 0152.48 0l82.263 47.468z" fill="url(#paint1_linear)"/><path d="M369.359 93.364a22.803 22.803 0 01-11.373 19.772l-83.17 47.913a50.418 50.418 0 01-50.42 0l-82.263-47.468a22.803 22.803 0 01-11.373-19.772c0-11.962 4.599-16.904 4.599-16.904a24.708 24.708 0 005.736 38.455l82.263 47.485a52.48 52.48 0 0052.496 0l83.17-48.012a24.707 24.707 0 006.23-37.895s4.105 4.399 4.105 16.426z" fill="url(#paint2_linear)"/><path d="M356.37 220.99l-74.566 43.037v-85.546l74.566-43.036v85.545z" fill="url(#paint3_linear)"/><path d="M352.629 137.62v81.146l-70.825 40.878v4.383l74.566-43.037v-85.545l-3.741 2.175z" fill="url(#paint4_linear)"/><path d="M294.94 179.091l-5.933 3.41v-2.883l5.933-3.427v2.9z" fill="url(#paint5_linear)"/><path d="M296.276 184.199l-7.269 4.185V185.5l7.269-4.201v2.9z" fill="url(#paint6_linear)"/><path d="M296.276 195.946l-7.269 4.202v-2.9l7.269-4.185v2.883z" fill="url(#paint7_linear)"/><path d="M295.616 190.46l-6.609 3.806v-2.9l6.609-3.806v2.9z" fill="url(#paint8_linear)"/><path d="M297.38 201.186l-8.373 4.827v-2.883l8.373-4.844v2.9z" fill="url(#paint9_linear)"/><path d="M296.276 207.71l-7.269 4.185v-2.883l7.269-4.202v2.9z" fill="url(#paint10_linear)"/><path d="M296.276 219.458l-7.269 4.201v-2.899l7.269-4.185v2.883z" fill="url(#paint11_linear)"/><path d="M295.385 214.087l-6.378 3.69v-2.9l6.378-3.674v2.884z" fill="url(#paint12_linear)"/><path d="M345.74 149.763l-10.698 6.162v-2.883l10.698-6.162v2.883z" fill="url(#paint13_linear)"/><path d="M345.739 155.645l-12.724 7.349v-2.9l12.724-7.332v2.883z" fill="url(#paint14_linear)"/><path d="M345.739 167.409l-6.098 3.51v-2.884l6.098-3.526v2.9z" fill="url(#paint15_linear)"/><path d="M345.739 161.527l-9.659 5.569v-2.9l9.659-5.569v2.9z" fill="url(#paint16_linear)"/><path fill-rule="evenodd" clip-rule="evenodd" d="M345.739 173.275l-11.801 6.804v-2.883l11.801-6.805v2.884z" fill="#FD9369"/><path d="M345.739 179.157l-15.361 8.864v-2.9l15.361-8.848v2.884z" fill="url(#paint17_linear)"/><path d="M345.739 190.921l-10.647 6.129v-2.883l10.647-6.146v2.9z" fill="url(#paint18_linear)"/><path d="M345.739 185.039l-13.878 8.007v-2.9l13.878-8.007v2.9z" fill="url(#paint19_linear)"/><path d="M332.751 157.26l-13.268 7.661v-2.9l13.268-7.645v2.884z" fill="url(#paint20_linear)"/><path d="M330.707 164.312l-7.631 4.415v-2.9l7.631-4.399v2.884z" fill="url(#paint21_linear)"/><path d="M337.333 172.253l-3.758 2.159v-2.884l3.758-2.175v2.9z" fill="url(#paint22_linear)"/><path d="M333.773 168.414l-12.197 7.052v-2.9l12.197-7.035v2.883z" fill="url(#paint23_linear)"/><path d="M331.631 181.414l-7.846 4.531v-2.9l7.846-4.514v2.883z" fill="url(#paint24_linear)"/><path d="M328.086 189.339l-7.466 4.317v-2.9l7.466-4.3v2.883z" fill="url(#paint25_linear)"/><path d="M332.784 198.385l-15.609 9.012v-2.9l15.609-8.996v2.884z" fill="url(#paint26_linear)"/><path d="M329.554 194.381l-8.291 4.778v-2.883l8.291-4.795v2.9z" fill="url(#paint27_linear)"/><path d="M317.027 166.338l-6.23 3.592v-2.9l6.23-3.592v2.9z" fill="url(#paint28_linear)"/><path d="M320.62 170.144l-12.922 7.464v-2.9l12.922-7.464v2.9z" fill="url(#paint29_linear)"/><path d="M331.12 175.829l-19.037 10.989v-2.883l19.037-10.99v2.884z" fill="url(#paint30_linear)"/><path fill-rule="evenodd" clip-rule="evenodd" d="M319.12 176.883l-13.73 7.925v-2.9l13.73-7.925v2.9z" fill="#FD9369"/><path d="M321.329 187.362l-13.054 7.546v-2.9l13.054-7.546v2.9z" fill="url(#paint31_linear)"/><path d="M318.164 195.073l-12.526 7.233v-2.9l12.526-7.233v2.9z" fill="url(#paint32_linear)"/><path d="M294.94 225.505l-5.933 3.427v-2.9l5.933-3.411v2.884z" fill="url(#paint33_linear)"/><path d="M296.276 230.612l-7.269 4.202v-2.9l7.269-4.185v2.883z" fill="url(#paint34_linear)"/><path d="M297.051 243.464l-7.269 4.185v-2.883l7.269-4.202v2.9z" fill="url(#paint35_linear)"/><path d="M295.616 236.873l-6.609 3.807v-2.884l6.609-3.806v2.883z" fill="url(#paint36_linear)"/><path d="M298.172 248.703l-8.39 4.828v-2.9l8.39-4.827v2.899z" fill="url(#paint37_linear)"/><path d="M345.74 196.193l-10.698 6.162v-2.883l10.698-6.179v2.9z" fill="url(#paint38_linear)"/><path d="M345.739 202.075l-12.724 7.332v-2.883l12.724-7.348v2.899z" fill="url(#paint39_linear)"/><path d="M345.739 213.823l-6.098 3.526v-2.9l6.098-3.509v2.883z" fill="url(#paint40_linear)"/><path fill-rule="evenodd" clip-rule="evenodd" d="M345.739 207.941l-9.659 5.569v-2.883l9.659-5.57v2.884z" fill="#FD9369"/><path d="M345.739 219.705l-11.801 6.805v-2.884l11.801-6.804v2.883z" fill="url(#paint41_linear)"/><path fill-rule="evenodd" clip-rule="evenodd" d="M332.751 203.69l-13.268 7.645v-2.883l13.268-7.662v2.9z" fill="#FD9369"/><path d="M330.707 210.742l-7.631 4.399v-2.883l7.631-4.399v2.883z" fill="url(#paint42_linear)"/><path d="M337.333 218.667l-3.758 2.175v-2.9l3.758-2.158v2.883z" fill="url(#paint43_linear)"/><path d="M333.773 214.844l-12.197 7.052v-2.899l12.197-7.052v2.899z" fill="url(#paint44_linear)"/><path d="M331.631 227.844l-7.846 4.531v-2.899l7.846-4.531v2.899z" fill="url(#paint45_linear)"/><path d="M317.027 212.752l-6.23 3.592v-2.883l6.23-3.592v2.883z" fill="url(#paint46_linear)"/><path fill-rule="evenodd" clip-rule="evenodd" d="M320.62 216.558l-12.922 7.464v-2.884l12.922-7.463v2.883z" fill="#FD9369"/><path d="M331.12 222.259l-19.037 10.99v-2.884l19.037-10.989v2.883z" fill="url(#paint47_linear)"/><path d="M319.12 223.297l-13.73 7.925v-2.883l13.73-7.925v2.883z" fill="url(#paint48_linear)"/><path d="M321.329 233.776l-13.054 7.546v-2.883l13.054-7.546v2.883z" fill="url(#paint49_linear)"/><path d="M314.72 208.814l-10.928 6.311v-2.9l10.928-6.311v2.9z" fill="url(#paint50_linear)"/><path d="M318.807 200.576l-8.9 5.141v-2.9l8.9-5.124v2.883z" fill="url(#paint51_linear)"/><path d="M282.43 263.664l-1.285.741.016-86.286 75.192-43.399.033 1.466-73.939 42.674-.017 84.804z" fill="url(#paint52_linear)"/><path d="M221.627 176.9l-74.582-43.053v85.545l74.582 43.053V176.9z" fill="url(#paint53_linear)"/><path d="M150.786 136.022v81.146l70.841 40.878v4.399l-74.582-43.053v-85.545l3.741 2.175z" fill="url(#paint54_linear)"/><path d="M163.148 218.799l-5.934-3.411v2.884l5.934 3.427v-2.9z" fill="url(#paint55_linear)"/><path d="M164.483 213.708l-7.269-4.202v2.884l7.269 4.201v-2.883z" fill="url(#paint56_linear)"/><path d="M164.483 201.944l-7.269-4.202v2.9l7.269 4.201v-2.899z" fill="url(#paint57_linear)"/><path d="M163.824 207.447l-6.61-3.823v2.9l6.61 3.806v-2.883z" fill="url(#paint58_linear)"/><path d="M165.587 196.704l-8.373-4.827v2.883l8.373 4.844v-2.9z" fill="url(#paint59_linear)"/><path d="M164.483 190.179l-7.269-4.185v2.884l7.269 4.201v-2.9z" fill="url(#paint60_linear)"/><path d="M164.483 178.432l-7.269-4.202v2.9l7.269 4.185v-2.883z" fill="url(#paint61_linear)"/><path d="M163.593 183.787l-6.379-3.675v2.9l6.379 3.674v-2.899z" fill="url(#paint62_linear)"/><path fill-rule="evenodd" clip-rule="evenodd" d="M213.947 248.127l-10.681-6.162v2.883l10.681 6.162v-2.883z" fill="#FD9369"/><path d="M213.947 242.245l-12.725-7.349v2.9l12.725 7.349v-2.9z" fill="url(#paint63_linear)"/><path fill-rule="evenodd" clip-rule="evenodd" d="M213.947 230.48l-6.099-3.509v2.9l6.099 3.509v-2.9z" fill="#FD9369"/><path d="M213.947 236.363l-9.642-5.569v2.899l9.642 5.569v-2.899z" fill="url(#paint64_linear)"/><path d="M213.947 224.615l-11.801-6.821v2.9l11.801 6.804v-2.883z" fill="url(#paint65_linear)"/><path d="M213.947 218.733l-15.345-8.864v2.9l15.345 8.847v-2.883z" fill="url(#paint66_linear)"/><path d="M213.946 206.969l-10.647-6.129v2.883l10.647 6.146v-2.9z" fill="url(#paint67_linear)"/><path fill-rule="evenodd" clip-rule="evenodd" d="M213.946 212.851l-13.878-8.008v2.9l13.878 8.008v-2.9z" fill="#FD9369"/><path d="M200.958 240.63l-13.268-7.661v2.899l13.268 7.645v-2.883z" fill="url(#paint68_linear)"/><path d="M198.915 233.578l-7.632-4.416v2.9l7.632 4.399v-2.883z" fill="url(#paint69_linear)"/><path d="M205.541 225.636l-3.758-2.158v2.883l3.758 2.175v-2.9z" fill="url(#paint70_linear)"/><path fill-rule="evenodd" clip-rule="evenodd" d="M201.997 229.476l-12.213-7.052v2.9l12.213 7.035v-2.883z" fill="#FD9369"/><path d="M199.838 216.476l-7.829-4.531v2.899l7.829 4.515v-2.883z" fill="url(#paint71_linear)"/><path d="M196.294 208.551l-7.466-4.317v2.9l7.466 4.3v-2.883z" fill="url(#paint72_linear)"/><path d="M200.992 199.505l-15.609-9.012v2.899l15.609 8.997v-2.884z" fill="url(#paint73_linear)"/><path d="M197.761 203.509l-8.291-4.778v2.883l8.291 4.795v-2.9z" fill="url(#paint74_linear)"/><path d="M185.234 231.552l-6.213-3.592v2.9l6.213 3.591v-2.899z" fill="url(#paint75_linear)"/><path d="M188.827 227.746l-12.922-7.464v2.9l12.922 7.463v-2.899z" fill="url(#paint76_linear)"/><path d="M199.327 222.061l-19.037-10.989v2.883l19.037 10.99v-2.884z" fill="url(#paint77_linear)"/><path d="M187.327 221.007l-13.729-7.925v2.899l13.729 7.926v-2.9z" fill="url(#paint78_linear)"/><path fill-rule="evenodd" clip-rule="evenodd" d="M189.552 210.528l-13.07-7.546v2.899l13.07 7.547v-2.9z" fill="#FD9369"/><path d="M186.372 202.817l-12.527-7.233v2.9l12.527 7.233v-2.9z" fill="url(#paint79_linear)"/><path d="M163.148 172.385l-5.934-3.427v2.9l5.934 3.41v-2.883z" fill="url(#paint80_linear)"/><path d="M164.483 167.277l-7.269-4.201v2.9l7.269 4.185v-2.884z" fill="url(#paint81_linear)"/><path d="M165.257 154.426l-7.268-4.185v2.883l7.268 4.202v-2.9z" fill="url(#paint82_linear)"/><path d="M163.824 161.016l-6.61-3.806v2.884l6.61 3.806v-2.884z" fill="url(#paint83_linear)"/><path d="M166.378 149.186l-8.389-4.827v2.9l8.389 4.827v-2.9z" fill="url(#paint84_linear)"/><path d="M213.947 201.696l-10.681-6.162v2.884l10.681 6.178v-2.9z" fill="url(#paint85_linear)"/><path d="M213.947 195.814l-12.725-7.332v2.884l12.725 7.348v-2.9z" fill="url(#paint86_linear)"/><path fill-rule="evenodd" clip-rule="evenodd" d="M213.947 184.067l-6.099-3.526v2.9l6.099 3.509v-2.883z" fill="#FD9369"/><path d="M213.947 189.949l-9.642-5.569v2.883l9.642 5.569v-2.883z" fill="url(#paint87_linear)"/><path d="M213.947 178.185l-11.801-6.805v2.883l11.801 6.821v-2.899z" fill="url(#paint88_linear)"/><path d="M200.958 194.2l-13.268-7.662v2.9l13.268 7.662v-2.9z" fill="url(#paint89_linear)"/><path fill-rule="evenodd" clip-rule="evenodd" d="M198.915 187.148l-7.632-4.399v2.883l7.632 4.416v-2.9z" fill="#FD9369"/><path d="M205.541 179.223l-3.758-2.175v2.9l3.758 2.158v-2.883z" fill="url(#paint90_linear)"/><path d="M201.997 183.045l-12.213-7.035v2.883l12.213 7.052v-2.9z" fill="url(#paint91_linear)"/><path d="M199.838 170.045l-7.829-4.514v2.883l7.829 4.531v-2.9z" fill="url(#paint92_linear)"/><path d="M185.234 185.121l-6.213-3.575v2.883l6.213 3.592v-2.9z" fill="url(#paint93_linear)"/><path d="M188.827 181.332l-12.922-7.464v2.883l12.922 7.464v-2.883z" fill="url(#paint94_linear)"/><path fill-rule="evenodd" clip-rule="evenodd" d="M199.327 175.631l-19.037-10.99v2.884l19.037 11.006v-2.9zM187.327 174.593l-13.729-7.925v2.883l13.729 7.925v-2.883z" fill="#FD9369"/><path d="M189.552 164.114l-13.07-7.546v2.883l13.07 7.546v-2.883z" fill="url(#paint95_linear)"/><path d="M182.943 189.076l-10.927-6.294v2.883l10.927 6.31v-2.899z" fill="url(#paint96_linear)"/><path d="M187.014 197.314l-8.884-5.141v2.9l8.884 5.124v-2.883z" fill="url(#paint97_linear)"/><path d="M220.342 262.428l1.286.742-.017-86.287-75.192-43.399-.033 1.467 73.939 42.674.017 84.803z" fill="url(#paint98_linear)"/><path opacity=".334" fill-rule="evenodd" clip-rule="evenodd" d="M181.254 165.663l-76.89 44.604 16.768 9.613v3.285l78.986-43.382v-3.575l-18.864-10.545z" fill="url(#paint99_linear)"/><path opacity=".334" fill-rule="evenodd" clip-rule="evenodd" d="M174.636 167.838l-76.89 44.604 11.387 6.565v2.552l78.986-43.383v-2.841l-13.483-7.497z" fill="url(#paint100_linear)"/><path opacity=".334" fill-rule="evenodd" clip-rule="evenodd" d="M319.878 174.725l77.346 44.329-12.057 7.269v2.551l-78.985-43.382v-2.842l13.696-7.925z" fill="url(#paint101_linear)"/><path opacity=".334" fill-rule="evenodd" clip-rule="evenodd" d="M333.542 201.799l77.346 44.33-11.628 6.737v2.551l-78.986-43.382v-2.842l13.268-7.394z" fill="url(#paint102_linear)"/><path opacity=".334" fill-rule="evenodd" clip-rule="evenodd" d="M321.411 214.416l77.345 44.33-11.281 6.807v2.551l-78.986-43.382v-2.842l12.922-7.464z" fill="url(#paint103_linear)"/><path opacity=".334" fill-rule="evenodd" clip-rule="evenodd" d="M346.53 171.24l77.345 44.33-10.16 6.04v2.552l-78.986-43.382v-2.842l11.801-6.698z" fill="url(#paint104_linear)"/><path opacity=".334" fill-rule="evenodd" clip-rule="evenodd" d="M346.53 205.799l77.345 44.33-8.018 4.912v2.551l-78.985-43.382v-2.842l9.658-5.569z" fill="url(#paint105_linear)"/><path opacity=".334" fill-rule="evenodd" clip-rule="evenodd" d="M192.075 183.523l-76.89 44.605 5.536 3.665v2.551l78.985-43.382v-2.842l-7.631-4.597z" fill="url(#paint106_linear)"/><path opacity=".334" fill-rule="evenodd" clip-rule="evenodd" d="M208.739 181.601l-76.89 44.604 3.903 2.276v2.552l78.986-43.383v-2.842l-5.999-3.207z" fill="url(#paint107_linear)"/><path opacity=".334" fill-rule="evenodd" clip-rule="evenodd" d="M177.274 203.723l-76.89 44.605 11.387 6.565v2.551l78.573-43.333v-2.842l-13.07-7.546z" fill="url(#paint108_linear)"/><path opacity=".334" fill-rule="evenodd" clip-rule="evenodd" d="M200.859 205.585l-75.95 44.967 12.194 7.026v2.552l77.634-43.696v-2.842l-13.878-8.007z" fill="url(#paint109_linear)"/><path opacity=".334" fill-rule="evenodd" clip-rule="evenodd" d="M208.837 227.713l-77.863 42.118 6.13 5.542v2.551l77.634-43.695v-2.842l-5.901-3.674z" fill="url(#paint110_linear)"/><path opacity=".334" fill-rule="evenodd" clip-rule="evenodd" d="M190.599 223.388l-76.89 44.604 10.506 5.848v2.552l78.573-43.333v-2.842l-12.189-6.829z" fill="url(#paint111_linear)"/><defs><linearGradient id="paint0_linear" x1="128.7" y1="324.495" x2="430.294" y2="324.495" gradientUnits="userSpaceOnUse"><stop stop-color="#290F4D"/><stop offset=".38" stop-color="#351661"/><stop offset=".44" stop-color="#4E238E"/><stop offset="1" stop-color="#7234C8"/></linearGradient><linearGradient id="paint1_linear" x1="-92.032" y1="168.803" x2="265.067" y2="319.364" gradientUnits="userSpaceOnUse"><stop stop-color="#290F4D"/><stop offset=".62" stop-color="#351661"/><stop offset="1" stop-color="#4E238E"/></linearGradient><linearGradient id="paint2_linear" x1="114.245" y1="173.514" x2="375.918" y2="173.514" gradientUnits="userSpaceOnUse"><stop stop-color="#FD9369"/><stop offset="1" stop-color="#FFB99E"/></linearGradient><linearGradient id="paint3_linear" x1="99.178" y1="287.367" x2="372.608" y2="355.413" gradientUnits="userSpaceOnUse"><stop stop-color="#290F4D"/><stop offset=".62" stop-color="#4E238E"/><stop offset="1" stop-color="#7234C8"/></linearGradient><linearGradient id="paint4_linear" x1="154.998" y1="135.59" x2="377.796" y2="536.234" gradientUnits="userSpaceOnUse"><stop stop-color="#290F4D"/><stop offset=".62" stop-color="#4E238E"/><stop offset="1" stop-color="#7234C8"/></linearGradient><linearGradient id="paint5_linear" x1="255.032" y1="17.878" x2="167.953" y2="199.998" gradientUnits="userSpaceOnUse"><stop stop-color="#7234C8"/><stop offset="1" stop-color="#9056E4"/></linearGradient><linearGradient id="paint6_linear" x1="249.598" y1="22.443" x2="174.296" y2="209.935" gradientUnits="userSpaceOnUse"><stop stop-color="#7234C8"/><stop offset="1" stop-color="#9056E4"/></linearGradient><linearGradient id="paint7_linear" x1="253.817" y1="24.222" x2="178.515" y2="211.715" gradientUnits="userSpaceOnUse"><stop stop-color="#7234C8"/><stop offset="1" stop-color="#9056E4"/></linearGradient><linearGradient id="paint8_linear" x1="255.255" y1="21.681" x2="174.624" y2="206.951" gradientUnits="userSpaceOnUse"><stop stop-color="#7234C8"/><stop offset="1" stop-color="#9056E4"/></linearGradient><linearGradient id="paint9_linear" x1="250.929" y1="27.291" x2="182.556" y2="217.144" gradientUnits="userSpaceOnUse"><stop stop-color="#7234C8"/><stop offset="1" stop-color="#9056E4"/></linearGradient><linearGradient id="paint10_linear" x1="258.037" y1="26.002" x2="182.735" y2="213.494" gradientUnits="userSpaceOnUse"><stop stop-color="#7234C8"/><stop offset="1" stop-color="#9056E4"/></linearGradient><linearGradient id="paint11_linear" x1="262.256" y1="27.781" x2="186.954" y2="215.274" gradientUnits="userSpaceOnUse"><stop stop-color="#7234C8"/><stop offset="1" stop-color="#9056E4"/></linearGradient><linearGradient id="paint12_linear" x1="265.048" y1="24.567" x2="182.271" y2="208.87" gradientUnits="userSpaceOnUse"><stop stop-color="#7234C8"/><stop offset="1" stop-color="#9056E4"/></linearGradient><linearGradient id="paint13_linear" x1="263.553" y1="39.559" x2="205.397" y2="231.905" gradientUnits="userSpaceOnUse"><stop stop-color="#7234C8"/><stop offset="1" stop-color="#9056E4"/></linearGradient><linearGradient id="paint14_linear" x1="259.333" y1="41.825" x2="206.521" y2="235.015" gradientUnits="userSpaceOnUse"><stop stop-color="#7234C8"/><stop offset="1" stop-color="#9056E4"/></linearGradient><linearGradient id="paint15_linear" x1="292.854" y1="34.773" x2="207.396" y2="217.752" gradientUnits="userSpaceOnUse"><stop stop-color="#7234C8"/><stop offset="1" stop-color="#9056E4"/></linearGradient><linearGradient id="paint16_linear" x1="272.018" y1="40.259" x2="209.771" y2="231.742" gradientUnits="userSpaceOnUse"><stop stop-color="#7234C8"/><stop offset="1" stop-color="#9056E4"/></linearGradient><linearGradient id="paint17_linear" x1="260.963" y1="46.564" x2="213.052" y2="240.311" gradientUnits="userSpaceOnUse"><stop stop-color="#7234C8"/><stop offset="1" stop-color="#9056E4"/></linearGradient><linearGradient id="paint18_linear" x1="278.629" y1="45.717" x2="220.177" y2="238.001" gradientUnits="userSpaceOnUse"><stop stop-color="#7234C8"/><stop offset="1" stop-color="#9056E4"/></linearGradient><linearGradient id="paint19_linear" x1="266.816" y1="46.823" x2="216.291" y2="240.31" gradientUnits="userSpaceOnUse"><stop stop-color="#7234C8"/><stop offset="1" stop-color="#9056E4"/></linearGradient><linearGradient id="paint20_linear" x1="247.344" y1="37.695" x2="195.715" y2="231.053" gradientUnits="userSpaceOnUse"><stop stop-color="#7234C8"/><stop offset="1" stop-color="#9056E4"/></linearGradient><linearGradient id="paint21_linear" x1="269.747" y1="32.437" x2="196.892" y2="220.825" gradientUnits="userSpaceOnUse"><stop stop-color="#7234C8"/><stop offset="1" stop-color="#9056E4"/></linearGradient><linearGradient id="paint22_linear" x1="307.616" y1="21.213" x2="188.672" y2="176.514" gradientUnits="userSpaceOnUse"><stop stop-color="#7234C8"/><stop offset="1" stop-color="#9056E4"/></linearGradient><linearGradient id="paint23_linear" x1="255.419" y1="39.123" x2="201.277" y2="232.141" gradientUnits="userSpaceOnUse"><stop stop-color="#7234C8"/><stop offset="1" stop-color="#9056E4"/></linearGradient><linearGradient id="paint24_linear" x1="275.428" y1="35.786" x2="204.105" y2="224.699" gradientUnits="userSpaceOnUse"><stop stop-color="#7234C8"/><stop offset="1" stop-color="#9056E4"/></linearGradient><linearGradient id="paint25_linear" x1="277.357" y1="35.01" x2="203.446" y2="223.004" gradientUnits="userSpaceOnUse"><stop stop-color="#7234C8"/><stop offset="1" stop-color="#9056E4"/></linearGradient><linearGradient id="paint26_linear" x1="256.376" y1="44.904" x2="208.785" y2="238.678" gradientUnits="userSpaceOnUse"><stop stop-color="#7234C8"/><stop offset="1" stop-color="#9056E4"/></linearGradient><linearGradient id="paint27_linear" x1="276.151" y1="37.684" x2="207.363" y2="227.406" gradientUnits="userSpaceOnUse"><stop stop-color="#7234C8"/><stop offset="1" stop-color="#9056E4"/></linearGradient><linearGradient id="paint28_linear" x1="267.306" y1="24.674" x2="183.052" y2="208.235" gradientUnits="userSpaceOnUse"><stop stop-color="#7234C8"/><stop offset="1" stop-color="#9056E4"/></linearGradient><linearGradient id="paint29_linear" x1="242.86" y1="35.063" x2="190.303" y2="228.292" gradientUnits="userSpaceOnUse"><stop stop-color="#7234C8"/><stop offset="1" stop-color="#9056E4"/></linearGradient><linearGradient id="paint30_linear" x1="240.166" y1="41.742" x2="196.608" y2="235.762" gradientUnits="userSpaceOnUse"><stop stop-color="#7234C8"/><stop offset="1" stop-color="#9056E4"/></linearGradient><linearGradient id="paint31_linear" x1="249.342" y1="37.984" x2="197.011" y2="231.242" gradientUnits="userSpaceOnUse"><stop stop-color="#7234C8"/><stop offset="1" stop-color="#9056E4"/></linearGradient><linearGradient id="paint32_linear" x1="250.83" y1="37.74" x2="197.396" y2="230.865" gradientUnits="userSpaceOnUse"><stop stop-color="#7234C8"/><stop offset="1" stop-color="#9056E4"/></linearGradient><linearGradient id="paint33_linear" x1="271.696" y1="24.905" x2="184.599" y2="207.024" gradientUnits="userSpaceOnUse"><stop stop-color="#7234C8"/><stop offset="1" stop-color="#9056E4"/></linearGradient><linearGradient id="paint34_linear" x1="266.261" y1="29.47" x2="190.943" y2="216.963" gradientUnits="userSpaceOnUse"><stop stop-color="#7234C8"/><stop offset="1" stop-color="#9056E4"/></linearGradient><linearGradient id="paint35_linear" x1="271.256" y1="32.345" x2="195.954" y2="219.838" gradientUnits="userSpaceOnUse"><stop stop-color="#7234C8"/><stop offset="1" stop-color="#9056E4"/></linearGradient><linearGradient id="paint36_linear" x1="271.693" y1="28.806" x2="191.376" y2="214.224" gradientUnits="userSpaceOnUse"><stop stop-color="#7234C8"/><stop offset="1" stop-color="#9056E4"/></linearGradient><linearGradient id="paint37_linear" x1="268.17" y1="35.485" x2="200.039" y2="225.411" gradientUnits="userSpaceOnUse"><stop stop-color="#7234C8"/><stop offset="1" stop-color="#9056E4"/></linearGradient><linearGradient id="paint38_linear" x1="280.4" y1="46.541" x2="222.057" y2="238.846" gradientUnits="userSpaceOnUse"><stop stop-color="#7234C8"/><stop offset="1" stop-color="#9056E4"/></linearGradient><linearGradient id="paint39_linear" x1="275.98" y1="48.86" x2="223.168" y2="242.05" gradientUnits="userSpaceOnUse"><stop stop-color="#7234C8"/><stop offset="1" stop-color="#9056E4"/></linearGradient><linearGradient id="paint40_linear" x1="309.501" y1="41.817" x2="224.061" y2="224.797" gradientUnits="userSpaceOnUse"><stop stop-color="#7234C8"/><stop offset="1" stop-color="#9056E4"/></linearGradient><linearGradient id="paint41_linear" x1="284.967" y1="50.983" x2="230.011" y2="243.877" gradientUnits="userSpaceOnUse"><stop stop-color="#7234C8"/><stop offset="1" stop-color="#9056E4"/></linearGradient><linearGradient id="paint42_linear" x1="286.191" y1="39.549" x2="213.61" y2="228.04" gradientUnits="userSpaceOnUse"><stop stop-color="#7234C8"/><stop offset="1" stop-color="#9056E4"/></linearGradient><linearGradient id="paint43_linear" x1="324.28" y1="28.238" x2="205.317" y2="183.53" gradientUnits="userSpaceOnUse"><stop stop-color="#7234C8"/><stop offset="1" stop-color="#9056E4"/></linearGradient><linearGradient id="paint44_linear" x1="272.255" y1="46.105" x2="217.941" y2="239.098" gradientUnits="userSpaceOnUse"><stop stop-color="#7234C8"/><stop offset="1" stop-color="#9056E4"/></linearGradient><linearGradient id="paint45_linear" x1="292.294" y1="42.739" x2="220.688" y2="231.557" gradientUnits="userSpaceOnUse"><stop stop-color="#7234C8"/><stop offset="1" stop-color="#9056E4"/></linearGradient><linearGradient id="paint46_linear" x1="283.742" y1="31.805" x2="199.82" y2="215.538" gradientUnits="userSpaceOnUse"><stop stop-color="#7234C8"/><stop offset="1" stop-color="#9056E4"/></linearGradient><linearGradient id="paint47_linear" x1="256.83" y1="48.771" x2="213.262" y2="242.794" gradientUnits="userSpaceOnUse"><stop stop-color="#7234C8"/><stop offset="1" stop-color="#9056E4"/></linearGradient><linearGradient id="paint48_linear" x1="258.219" y1="43.066" x2="207.532" y2="236.519" gradientUnits="userSpaceOnUse"><stop stop-color="#7234C8"/><stop offset="1" stop-color="#9056E4"/></linearGradient><linearGradient id="paint49_linear" x1="265.806" y1="45.076" x2="213.646" y2="238.351" gradientUnits="userSpaceOnUse"><stop stop-color="#7234C8"/><stop offset="1" stop-color="#9056E4"/></linearGradient><linearGradient id="paint50_linear" x1="257.991" y1="37.477" x2="200.196" y2="229.874" gradientUnits="userSpaceOnUse"><stop stop-color="#7234C8"/><stop offset="1" stop-color="#9056E4"/></linearGradient><linearGradient id="paint51_linear" x1="266.333" y1="35.669" x2="200.825" y2="226.314" gradientUnits="userSpaceOnUse"><stop stop-color="#7234C8"/><stop offset="1" stop-color="#9056E4"/></linearGradient><linearGradient id="paint52_linear" x1="273.688" y1="412.71" x2="478.765" y2="365.146" gradientUnits="userSpaceOnUse"><stop stop-color="#7234C8"/><stop offset="1" stop-color="#9056E4"/></linearGradient><linearGradient id="paint53_linear" x1="118.323" y1="497.321" x2="391.756" y2="429.262" gradientUnits="userSpaceOnUse"><stop stop-color="#351661"/><stop offset=".62" stop-color="#4E238E"/><stop offset="1" stop-color="#7234C8"/></linearGradient><linearGradient id="paint54_linear" x1="51.493" y1="95.14" x2="-171.308" y2="495.791" gradientUnits="userSpaceOnUse"><stop stop-color="#351661"/><stop offset=".62" stop-color="#4E238E"/><stop offset="1" stop-color="#7234C8"/></linearGradient><linearGradient id="paint55_linear" x1="246.679" y1="297.622" x2="281.573" y2="94.122" gradientUnits="userSpaceOnUse"><stop stop-color="#7234C8"/><stop offset="1" stop-color="#9056E4"/></linearGradient><linearGradient id="paint56_linear" x1="255.26" y1="296.231" x2="284.698" y2="91.838" gradientUnits="userSpaceOnUse"><stop stop-color="#7234C8"/><stop offset="1" stop-color="#9056E4"/></linearGradient><linearGradient id="paint57_linear" x1="253.269" y1="296.01" x2="282.859" y2="91.635" gradientUnits="userSpaceOnUse"><stop stop-color="#7234C8"/><stop offset="1" stop-color="#9056E4"/></linearGradient><linearGradient id="paint58_linear" x1="249.93" y1="296.667" x2="281.772" y2="92.614" gradientUnits="userSpaceOnUse"><stop stop-color="#7234C8"/><stop offset="1" stop-color="#9056E4"/></linearGradient><linearGradient id="paint59_linear" x1="259.112" y1="295.124" x2="285.566" y2="90.365" gradientUnits="userSpaceOnUse"><stop stop-color="#7234C8"/><stop offset="1" stop-color="#9056E4"/></linearGradient><linearGradient id="paint60_linear" x1="251.782" y1="295.703" x2="281.221" y2="91.31" gradientUnits="userSpaceOnUse"><stop stop-color="#7234C8"/><stop offset="1" stop-color="#9056E4"/></linearGradient><linearGradient id="paint61_linear" x1="250.035" y1="295.44" x2="279.474" y2="91.047" gradientUnits="userSpaceOnUse"><stop stop-color="#7234C8"/><stop offset="1" stop-color="#9056E4"/></linearGradient><linearGradient id="paint62_linear" x1="244.746" y1="296.355" x2="277.577" y2="92.482" gradientUnits="userSpaceOnUse"><stop stop-color="#7234C8"/><stop offset="1" stop-color="#9056E4"/></linearGradient><linearGradient id="paint63_linear" x1="326.963" y1="301.147" x2="347.157" y2="95.895" gradientUnits="userSpaceOnUse"><stop stop-color="#7234C8"/><stop offset="1" stop-color="#9056E4"/></linearGradient><linearGradient id="paint64_linear" x1="317.19" y1="302.391" x2="341.177" y2="97.399" gradientUnits="userSpaceOnUse"><stop stop-color="#7234C8"/><stop offset="1" stop-color="#9056E4"/></linearGradient><linearGradient id="paint65_linear" x1="322.219" y1="301.079" x2="343.266" y2="95.887" gradientUnits="userSpaceOnUse"><stop stop-color="#7234C8"/><stop offset="1" stop-color="#9056E4"/></linearGradient><linearGradient id="paint66_linear" x1="328.671" y1="299.782" x2="346.913" y2="94.478" gradientUnits="userSpaceOnUse"><stop stop-color="#7234C8"/><stop offset="1" stop-color="#9056E4"/></linearGradient><linearGradient id="paint67_linear" x1="316.467" y1="301.173" x2="338.828" y2="96.061" gradientUnits="userSpaceOnUse"><stop stop-color="#7234C8"/><stop offset="1" stop-color="#9056E4"/></linearGradient><linearGradient id="paint68_linear" x1="315.435" y1="298.965" x2="335.089" y2="93.708" gradientUnits="userSpaceOnUse"><stop stop-color="#7234C8"/><stop offset="1" stop-color="#9056E4"/></linearGradient><linearGradient id="paint69_linear" x1="293.667" y1="301.476" x2="322.049" y2="96.942" gradientUnits="userSpaceOnUse"><stop stop-color="#7234C8"/><stop offset="1" stop-color="#9056E4"/></linearGradient><linearGradient id="paint70_linear" x1="270.145" y1="308.601" x2="324.462" y2="110.843" gradientUnits="userSpaceOnUse"><stop stop-color="#7234C8"/><stop offset="1" stop-color="#9056E4"/></linearGradient><linearGradient id="paint71_linear" x1="293.008" y1="301.058" x2="320.827" y2="96.441" gradientUnits="userSpaceOnUse"><stop stop-color="#7234C8"/><stop offset="1" stop-color="#9056E4"/></linearGradient><linearGradient id="paint72_linear" x1="286.615" y1="300.651" x2="315.442" y2="96.176" gradientUnits="userSpaceOnUse"><stop stop-color="#7234C8"/><stop offset="1" stop-color="#9056E4"/></linearGradient><linearGradient id="paint73_linear" x1="313.63" y1="297.357" x2="331.709" y2="92.048" gradientUnits="userSpaceOnUse"><stop stop-color="#7234C8"/><stop offset="1" stop-color="#9056E4"/></linearGradient><linearGradient id="paint74_linear" x1="291.231" y1="300.092" x2="317.853" y2="95.354" gradientUnits="userSpaceOnUse"><stop stop-color="#7234C8"/><stop offset="1" stop-color="#9056E4"/></linearGradient><linearGradient id="paint75_linear" x1="271.728" y1="300.873" x2="305.436" y2="97.154" gradientUnits="userSpaceOnUse"><stop stop-color="#7234C8"/><stop offset="1" stop-color="#9056E4"/></linearGradient><linearGradient id="paint76_linear" x1="300.69" y1="297.018" x2="320.704" y2="91.776" gradientUnits="userSpaceOnUse"><stop stop-color="#7234C8"/><stop offset="1" stop-color="#9056E4"/></linearGradient><linearGradient id="paint77_linear" x1="319.652" y1="296.823" x2="336.184" y2="91.487" gradientUnits="userSpaceOnUse"><stop stop-color="#7234C8"/><stop offset="1" stop-color="#9056E4"/></linearGradient><linearGradient id="paint78_linear" x1="300.008" y1="296.379" x2="319.353" y2="91.094" gradientUnits="userSpaceOnUse"><stop stop-color="#7234C8"/><stop offset="1" stop-color="#9056E4"/></linearGradient><linearGradient id="paint79_linear" x1="293.719" y1="296.235" x2="314.077" y2="91.009" gradientUnits="userSpaceOnUse"><stop stop-color="#7234C8"/><stop offset="1" stop-color="#9056E4"/></linearGradient><linearGradient id="paint80_linear" x1="239.789" y1="296.592" x2="274.702" y2="93.094" gradientUnits="userSpaceOnUse"><stop stop-color="#7234C8"/><stop offset="1" stop-color="#9056E4"/></linearGradient><linearGradient id="paint81_linear" x1="248.378" y1="295.201" x2="277.833" y2="90.791" gradientUnits="userSpaceOnUse"><stop stop-color="#7234C8"/><stop offset="1" stop-color="#9056E4"/></linearGradient><linearGradient id="paint82_linear" x1="247.232" y1="295.02" x2="276.687" y2="90.626" gradientUnits="userSpaceOnUse"><stop stop-color="#7234C8"/><stop offset="1" stop-color="#9056E4"/></linearGradient><linearGradient id="paint83_linear" x1="243.28" y1="295.582" x2="274.987" y2="91.522" gradientUnits="userSpaceOnUse"><stop stop-color="#7234C8"/><stop offset="1" stop-color="#9056E4"/></linearGradient><linearGradient id="paint84_linear" x1="253.059" y1="294.156" x2="279.41" y2="89.371" gradientUnits="userSpaceOnUse"><stop stop-color="#7234C8"/><stop offset="1" stop-color="#9056E4"/></linearGradient><linearGradient id="paint85_linear" x1="315.603" y1="301.072" x2="338" y2="95.945" gradientUnits="userSpaceOnUse"><stop stop-color="#7234C8"/><stop offset="1" stop-color="#9056E4"/></linearGradient><linearGradient id="paint86_linear" x1="320.294" y1="300.082" x2="340.413" y2="94.829" gradientUnits="userSpaceOnUse"><stop stop-color="#7234C8"/><stop offset="1" stop-color="#9056E4"/></linearGradient><linearGradient id="paint87_linear" x1="310.553" y1="301.319" x2="334.435" y2="96.304" gradientUnits="userSpaceOnUse"><stop stop-color="#7234C8"/><stop offset="1" stop-color="#9056E4"/></linearGradient><linearGradient id="paint88_linear" x1="315.346" y1="300.035" x2="336.382" y2="94.843" gradientUnits="userSpaceOnUse"><stop stop-color="#7234C8"/><stop offset="1" stop-color="#9056E4"/></linearGradient><linearGradient id="paint89_linear" x1="308.345" y1="297.953" x2="328.071" y2="92.697" gradientUnits="userSpaceOnUse"><stop stop-color="#7234C8"/><stop offset="1" stop-color="#9056E4"/></linearGradient><linearGradient id="paint90_linear" x1="263.255" y1="307.574" x2="317.599" y2="109.823" gradientUnits="userSpaceOnUse"><stop stop-color="#7234C8"/><stop offset="1" stop-color="#9056E4"/></linearGradient><linearGradient id="paint91_linear" x1="305.522" y1="298.2" x2="326.11" y2="92.986" gradientUnits="userSpaceOnUse"><stop stop-color="#7234C8"/><stop offset="1" stop-color="#9056E4"/></linearGradient><linearGradient id="paint92_linear" x1="286.11" y1="300.004" x2="313.929" y2="95.403" gradientUnits="userSpaceOnUse"><stop stop-color="#7234C8"/><stop offset="1" stop-color="#9056E4"/></linearGradient><linearGradient id="paint93_linear" x1="265.111" y1="299.794" x2="298.654" y2="96.029" gradientUnits="userSpaceOnUse"><stop stop-color="#7234C8"/><stop offset="1" stop-color="#9056E4"/></linearGradient><linearGradient id="paint94_linear" x1="294.003" y1="295.967" x2="313.965" y2="90.721" gradientUnits="userSpaceOnUse"><stop stop-color="#7234C8"/><stop offset="1" stop-color="#9056E4"/></linearGradient><linearGradient id="paint95_linear" x1="292.52" y1="295.627" x2="312.343" y2="90.376" gradientUnits="userSpaceOnUse"><stop stop-color="#7234C8"/><stop offset="1" stop-color="#9056E4"/></linearGradient><linearGradient id="paint96_linear" x1="284.308" y1="296.045" x2="306.321" y2="90.91" gradientUnits="userSpaceOnUse"><stop stop-color="#7234C8"/><stop offset="1" stop-color="#9056E4"/></linearGradient><linearGradient id="paint97_linear" x1="282.292" y1="297.958" x2="307.629" y2="93.088" gradientUnits="userSpaceOnUse"><stop stop-color="#7234C8"/><stop offset="1" stop-color="#9056E4"/></linearGradient><linearGradient id="paint98_linear" x1="-30.909" y1="395.777" x2="308.551" y2="450.355" gradientUnits="userSpaceOnUse"><stop stop-color="#4E238E"/><stop offset="1" stop-color="#7234C8"/></linearGradient><linearGradient id="paint99_linear" x1="173.527" y1="160.229" x2="153.808" y2="191.214" gradientUnits="userSpaceOnUse"><stop stop-color="#FD9369"/><stop offset="1" stop-color="#FFC5A2" stop-opacity=".01"/></linearGradient><linearGradient id="paint100_linear" x1="163.022" y1="162.762" x2="144.68" y2="191.877" gradientUnits="userSpaceOnUse"><stop stop-color="#FD9369"/><stop offset="1" stop-color="#FFC5A2" stop-opacity=".01"/></linearGradient><linearGradient id="paint101_linear" x1="331.464" y1="169.608" x2="349.957" y2="198.947" gradientUnits="userSpaceOnUse"><stop stop-color="#FD9369"/><stop offset="1" stop-color="#FFC5A2" stop-opacity=".01"/></linearGradient><linearGradient id="paint102_linear" x1="345.438" y1="196.733" x2="363.708" y2="225.869" gradientUnits="userSpaceOnUse"><stop stop-color="#FD9369"/><stop offset="1" stop-color="#FFC5A2" stop-opacity=".01"/></linearGradient><linearGradient id="paint103_linear" x1="333.556" y1="209.343" x2="351.891" y2="238.432" gradientUnits="userSpaceOnUse"><stop stop-color="#FD9369"/><stop offset="1" stop-color="#FFC5A2" stop-opacity=".01"/></linearGradient><linearGradient id="paint104_linear" x1="359.485" y1="166.24" x2="377.544" y2="194.944" gradientUnits="userSpaceOnUse"><stop stop-color="#FD9369"/><stop offset="1" stop-color="#FFC5A2" stop-opacity=".01"/></linearGradient><linearGradient id="paint105_linear" x1="361.033" y1="200.905" x2="378.728" y2="228.953" gradientUnits="userSpaceOnUse"><stop stop-color="#FD9369"/><stop offset="1" stop-color="#FFC5A2" stop-opacity=".01"/></linearGradient><linearGradient id="paint106_linear" x1="176.235" y1="178.721" x2="158.798" y2="206.085" gradientUnits="userSpaceOnUse"><stop stop-color="#FD9369"/><stop offset="1" stop-color="#FFC5A2" stop-opacity=".01"/></linearGradient><linearGradient id="paint107_linear" x1="191.719" y1="176.93" x2="174.818" y2="203.672" gradientUnits="userSpaceOnUse"><stop stop-color="#FD9369"/><stop offset="1" stop-color="#FFC5A2" stop-opacity=".01"/></linearGradient><linearGradient id="paint108_linear" x1="165.362" y1="198.647" x2="146.984" y2="227.687" gradientUnits="userSpaceOnUse"><stop stop-color="#FD9369"/><stop offset="1" stop-color="#FFC5A2" stop-opacity=".01"/></linearGradient><linearGradient id="paint109_linear" x1="189.792" y1="200.431" x2="171" y2="229.633" gradientUnits="userSpaceOnUse"><stop stop-color="#FD9369"/><stop offset="1" stop-color="#FFC5A2" stop-opacity=".01"/></linearGradient><linearGradient id="paint110_linear" x1="191.304" y1="223.124" x2="174.607" y2="250.154" gradientUnits="userSpaceOnUse"><stop stop-color="#FD9369"/><stop offset="1" stop-color="#FFC5A2" stop-opacity=".01"/></linearGradient><linearGradient id="paint111_linear" x1="178.051" y1="218.379" x2="159.946" y2="247.091" gradientUnits="userSpaceOnUse"><stop stop-color="#FD9369"/><stop offset="1" stop-color="#FFC5A2" stop-opacity=".01"/></linearGradient></defs></svg>
