<svg xmlns="http://www.w3.org/2000/svg" width="211" height="43" viewBox="0 0 211 43"><g fill="none" fill-rule="evenodd"><path fill="#FFF" fill-rule="nonzero" d="M161.098 28l-4.228-6.664V28h-1.946v-9.8h2.002l4.186 6.72V18.2h1.946V28h-1.96zm3.448-3.64c0-1.11.338-2.032 1.015-2.765.677-.733 1.533-1.099 2.569-1.099 1.12 0 1.993.348 2.618 1.043.625.695.938 1.65.938 2.863 0 .187-.005.327-.014.42h-5.152c.019.495.205.898.56 1.211.355.313.803.469 1.344.469.775 0 1.367-.299 1.778-.896l1.274.966c-.205.373-.57.735-1.092 1.085-.523.35-1.185.525-1.988.525-1.157 0-2.088-.357-2.793-1.071-.705-.714-1.057-1.631-1.057-2.751zm2.03-.798h3.15c-.019-.448-.173-.807-.462-1.078-.29-.27-.658-.406-1.106-.406-.448 0-.812.14-1.092.42a1.72 1.72 0 00-.49 1.064zm6.57-2.884v-1.54h1.904v1.54h1.372v1.568h-1.372v2.828c0 .523.082.873.245 1.05.163.177.441.266.833.266.13 0 .247-.005.35-.014v1.652c-.196.047-.471.07-.826.07-.868 0-1.505-.245-1.911-.735-.406-.49-.609-1.234-.609-2.233v-2.884h-.77v-1.568h.784zM184.63 28l-1.344-4.69-1.358 4.69h-2.156l-2.184-7.322h2.1l1.288 5.194 1.4-5.194h1.82l1.386 5.194 1.302-5.194h2.1L186.786 28h-2.156zm6.108-.896c-.737-.719-1.106-1.633-1.106-2.744 0-1.11.376-2.032 1.127-2.765.751-.733 1.687-1.099 2.807-1.099 1.12 0 2.058.369 2.814 1.106.756.737 1.134 1.657 1.134 2.758 0 1.11-.371 2.025-1.113 2.744-.742.719-1.687 1.078-2.835 1.078-1.139 0-2.081-.36-2.828-1.078zm.826-2.744c0 .616.189 1.122.567 1.519.378.397.856.595 1.435.595.588 0 1.071-.198 1.449-.595.378-.397.567-.903.567-1.519 0-.625-.191-1.141-.574-1.547-.383-.406-.863-.609-1.442-.609s-1.057.203-1.435.609c-.378.406-.567.922-.567 1.547zm11.162-3.864v1.96c-1.316 0-1.974.784-1.974 2.352V28h-1.932v-7.322h1.89v1.064c.168-.373.43-.674.784-.903a2.223 2.223 0 011.232-.343zM204.06 28V17.878h1.932v5.88l2.352-3.08h2.17l-2.576 3.318L210.71 28h-2.268l-2.45-3.78V28h-1.932z"/><path fill="#FFF" d="M58.298 28.536L63.1 15.755h-3.57l-3 9.092-2.999-9.092h-3.57l4.804 12.78h3.532zm9.075-9.586h-3.17v9.586h3.17V18.95zm-1.614-.584c1.006 0 1.785-.694 1.785-1.643 0-.968-.779-1.662-1.785-1.662-1.006 0-1.766.694-1.766 1.662 0 .949.76 1.643 1.766 1.643zm10.499 5.404c0-1.515-.892-2.373-2.145-2.373-1.291 0-2.146.967-2.146 2.373 0 1.424.874 2.337 2.146 2.337 1.367 0 2.145-1.059 2.145-2.337zm.114 4.766v-.749c-.285.31-1.234.986-2.696.986-2.867 0-4.88-2.081-4.88-5.021 0-2.976 1.823-5.04 4.71-5.04 1.518 0 2.448.731 2.657.968v-4.345h3.17v13.2h-2.961zm14.163-3.999h-6.53c.075.858.93 1.589 2.107 1.589 1.196 0 1.898-.75 2.088-1.023l2.089 1.552c-.285.566-1.652 2.118-4.234 2.118-3.285 0-5.297-2.173-5.297-5.003 0-2.812 1.974-5.057 4.898-5.057 3.17 0 4.898 1.953 4.898 5.222 0 .182 0 .383-.019.602zm-4.822-3.36c-1.044 0-1.538.75-1.614 1.425h3.228c-.038-.767-.627-1.424-1.614-1.424zm5.696 2.593c0-2.903 2.335-5.057 5.41-5.057 3.21 0 5.468 2.118 5.468 5.02 0 2.885-2.316 5.04-5.467 5.04-3.171 0-5.411-2.118-5.411-5.003zm3.17 0c0 1.388.95 2.319 2.24 2.319 1.31 0 2.298-.986 2.298-2.355 0-1.406-1.006-2.337-2.297-2.337-1.31 0-2.24.967-2.24 2.373zm15.74 5.003c1.651 0 2.98-.456 3.93-1.077l-.912-2.739c-.702.456-1.765.895-2.905.895-2.43 0-3.759-1.735-3.759-3.725s1.33-3.688 3.76-3.688c1.139 0 2.145.438 2.847.894l.912-2.738c-.95-.621-2.222-1.078-3.874-1.078-4.138 0-7.024 2.867-7.024 6.61 0 3.761 2.734 6.646 7.024 6.646zm4.917-5.003c0-2.903 2.335-5.057 5.41-5.057 3.21 0 5.469 2.118 5.469 5.02 0 2.885-2.317 5.04-5.468 5.04-3.17 0-5.411-2.118-5.411-5.003zm3.17 0c0 1.388.95 2.319 2.24 2.319 1.31 0 2.298-.986 2.298-2.355 0-1.406-1.006-2.337-2.297-2.337-1.31 0-2.24.967-2.24 2.373zm12.284-4.82h-3.17v9.586h3.17V18.95zm-1.614-.584c1.007 0 1.785-.694 1.785-1.643 0-.968-.778-1.662-1.785-1.662-1.006 0-1.765.694-1.765 1.662 0 .949.76 1.643 1.765 1.643zm9.133.347c3.113 0 3.417 2.556 3.417 4.51v5.313h-3.17V22.82c0-.895-.551-1.37-1.31-1.37-.874 0-1.368.603-1.368 1.37v5.715h-3.17V18.95h3.094v.986c.38-.566 1.253-1.223 2.507-1.223zm6.91-2.235v.845h-.837v3.02h-.948v-3.02h-.838v-.845h2.623zm1.669 0l.964 2.447.97-2.447h1.231v3.866h-.909v-2.535l-.854 2.22h-.87l-.854-2.22v2.535h-.91v-3.866h1.232z"/><path fill="#FF8A3C" fill-rule="nonzero" d="M21.505 42.66c11.598 0 21-9.402 21-21s-9.402-21-21-21-21 9.402-21 21 9.402 21 21 21zm0-1.826c-10.59 0-19.174-8.585-19.174-19.174 0-10.59 8.585-19.174 19.174-19.174 10.59 0 19.174 8.585 19.174 19.174 0 10.59-8.585 19.174-19.174 19.174z"/><path fill="#FF5D50" d="M37.126 13.922a17.278 17.278 0 011.827 7.756c0 9.58-7.767 17.348-17.348 17.348-1.036 0-2.062-.091-3.067-.27l.32-1.798c.9.16 1.818.242 2.747.242 8.572 0 15.522-6.95 15.522-15.522 0-2.443-.565-4.803-1.633-6.939zm-15.621-9.61v1.826A15.525 15.525 0 007.131 15.79l-1.69-.69A17.351 17.351 0 0121.505 4.311z"/><path fill="#F53568" d="M26.874 9.057A13.698 13.698 0 0135.2 21.66c0 6.662-4.79 12.325-11.276 13.482l-.32-1.797c5.618-1.003 9.77-5.911 9.77-11.685 0-4.8-2.877-9.072-7.218-10.923zm-5.369-1.093V9.79c-6.555 0-11.87 5.315-11.87 11.87 0 4.079 2.073 7.803 5.436 9.976l-.991 1.534a13.683 13.683 0 01-6.27-11.51c0-7.564 6.131-13.696 13.695-13.696z"/><path fill="#7130CC" d="M21.505 11.617c-5.547 0-10.043 4.496-10.043 10.043 0 5.547 4.496 10.043 10.043 10.043 5.547 0 10.043-4.496 10.043-10.043h-1.826a8.217 8.217 0 11-8.217-8.217v-1.826z"/><path fill="#FFF" d="M27.135 22.35s-1.25 1.288-3.474 2.723c-2.225 1.435-3.726 1.968-3.726 1.968-.665.288-1.282-.088-1.372-.825 0 0-.254-1.473-.254-4.56 0-3.086.255-4.588.255-4.588.084-.737.694-1.083 1.35-.773 0 0 1.39.575 3.747 2.095 2.356 1.52 3.45 2.574 3.45 2.574.43.37.438.995.024 1.386z"/></g></svg>