<svg xmlns="http://www.w3.org/2000/svg" width="151" height="42" viewBox="0 0 151 42">
  <g fill="none" fill-rule="evenodd" transform="translate(-4 -5)">
    <g transform="translate(0 .093)">
      <g fill-rule="nonzero">
        <path fill="#FF9248" d="M24.9601886,44.6343906 C35.2177612,44.6343906 43.5331668,36.2606203 43.5331668,25.9310511 C43.5331668,15.6014819 35.2177612,7.22771164 24.9601886,7.22771164 C14.7026161,7.22771164 6.38721051,15.6014819 6.38721051,25.9310511 C6.38721051,36.2606203 14.7026161,44.6343906 24.9601886,44.6343906 Z M24.9601886,46.3608527 C13.7557632,46.3608527 4.67278176,37.2141189 4.67278176,25.9310511 C4.67278176,14.6479833 13.7557632,5.50124954 24.9601886,5.50124954 C36.1646141,5.50124954 45.2475955,14.6479833 45.2475955,25.9310511 C45.2475955,37.2141189 36.1646141,46.3608527 24.9601886,46.3608527 Z"/>
        <g transform="rotate(74 19.694 26.246)">
          <path fill="#F96A5F" d="M37.041326,26.6406202 C34.5447675,32.8514695 28.4857208,37.2341057 21.4075045,37.2341057 L21.4075045,35.5127469 C27.6363702,35.5127469 33.1594249,31.6997915 35.4520804,25.9962048 L37.041326,26.6406202 Z M4.55439252,20.3074102 C4.55439252,10.9590543 12.0997878,3.3807146 21.4075045,3.3807146 C22.4008237,3.3807146 23.3740716,3.46702546 24.3202192,3.63258747 L24.0260509,5.32840116 C23.1677769,5.17821574 22.2928501,5.10207347 21.4075045,5.10207347 C13.0463352,5.10207347 6.26826832,11.9097346 6.26826832,20.3074102 C6.26826832,22.6758964 6.80667406,24.9636256 7.82788771,27.0377249 L6.29159456,27.8007614 C5.17941785,25.5419148 4.55439252,22.9979724 4.55439252,20.3074102 Z" transform="rotate(106 20.798 20.307)"/>
          <path fill="#D74169" d="M15.2567339,33.2056926 C10.4603891,31.1488278 7.09885605,26.3682732 7.09885605,20.7991625 C7.09885605,14.1378197 11.9082377,8.60467269 18.2297904,7.51132816 L18.5206443,9.20771845 C12.9482922,10.1714849 8.81602457,15.0478385 8.81273411,20.7912355 C8.81273217,25.5543019 11.6479215,29.7863869 15.9297373,31.622601 L15.2567339,33.2056926 Z M33.9495768,20.7991625 C33.9495768,28.2461578 27.9388382,34.2831403 20.5242164,34.2831403 L20.5242164,32.5617814 C26.9922908,32.5617814 32.235701,27.2954775 32.235701,20.7991625 C32.235701,16.7651939 30.1999096,13.0825062 26.8923177,10.9255085 L27.825653,9.4817848 C31.5115906,11.8855151 33.9495768,16.0563846 33.9495768,20.7991625 Z" transform="rotate(106 20.524 20.897)"/>
          <path fill="#7B58B2" d="M20.4864539,30.9774188 C14.9649271,30.9774188 10.4888452,26.4817935 10.4888452,20.9361587 C10.4888452,20.9177116 10.4888452,20.8992761 10.4889936,20.8808524 L12.2028445,20.8901358 C12.2027627,20.9053656 12.2027215,20.9206012 12.202721,20.9357787 C12.202721,25.5310646 15.9114261,29.2560599 20.4864539,29.2560599 L20.4864539,30.9774188 Z M30.4840627,20.9361587 C30.4840627,26.4817935 26.0079808,30.9774188 20.4864539,30.9774188 L20.4864539,29.2560599 C25.0614334,29.2560599 28.7701869,25.5311132 28.7701869,20.9361587 C28.7701869,16.3674155 25.1018222,12.654269 20.5566313,12.6165486 L20.5707924,10.8952485 C26.0534887,10.9407492 30.4840627,15.4187868 30.4840627,20.9361587 Z" transform="rotate(16 20.486 20.936)"/>
        </g>
      </g>
      <path fill="#FFF" d="M30.1776944,26.4851301 C30.1776944,26.4851301 28.9832927,27.7224144 26.8584832,29.0997367 C24.7336737,30.477059 23.2998266,30.9895446 23.2998266,30.9895446 C22.664236,31.2657349 22.0745942,30.9046167 21.9888747,30.1969869 C21.9888747,30.1969869 21.7463219,28.7828965 21.7463219,25.8195385 C21.7463219,22.8561804 21.990014,21.4148782 21.990014,21.4148782 C22.0695011,20.7074094 22.6524765,20.3752886 23.2796109,20.6727796 C23.2796109,20.6727796 24.6072964,21.2249043 26.8584832,22.6841453 C29.10967,24.1433863 30.1542721,25.154779 30.1542721,25.154779 C30.566012,25.5108925 30.5735452,26.1101638 30.1776944,26.4851301 Z"/>
    </g>
    <path fill="#FFF" d="M60.8472764,33.0275013 L65.762195,19.9439236 L62.1100025,19.9439236 L59.0406067,29.2519546 L55.9712109,19.9439236 L52.3190184,19.9439236 L57.233937,33.0275013 L60.8472764,33.0275013 Z M70.13317,23.214818 L66.8889352,23.214818 L66.8889352,33.0275013 L70.13317,33.0275013 L70.13317,23.214818 Z M68.4819128,22.6167116 C69.5115202,22.6167116 70.308009,21.9064603 70.308009,20.9345374 C70.308009,19.9439236 69.5115202,19.2336722 68.4819128,19.2336722 C67.4523053,19.2336722 66.6752431,19.9439236 66.6752431,20.9345374 C66.6752431,21.9064603 67.4523053,22.6167116 68.4819128,22.6167116 Z M79.2247981,28.1491959 C79.2247981,26.5978574 78.31175,25.7193886 77.0295973,25.7193886 C75.7085915,25.7193886 74.8343965,26.7100024 74.8343965,28.1491959 C74.8343965,29.6070803 75.7280181,30.5416216 77.0295973,30.5416216 C78.4283093,30.5416216 79.2247981,29.4575537 79.2247981,28.1491959 Z M79.3413574,33.0275013 L79.3413574,32.2611775 C79.0499591,32.5789215 78.0786313,33.2704821 76.5827865,33.2704821 C73.6493766,33.2704821 71.5901617,31.139728 71.5901617,28.1305051 C71.5901617,25.0839006 73.455111,22.9718373 76.4079475,22.9718373 C77.962072,22.9718373 78.9139732,23.7194703 79.1276653,23.9624511 L79.1276653,19.5140346 L82.3719001,19.5140346 L82.3719001,33.0275013 L79.3413574,33.0275013 Z M93.833568,28.9342106 L87.1508328,28.9342106 C87.228539,29.8126794 88.1027341,30.5603124 89.3071805,30.5603124 C90.5310535,30.5603124 91.2498361,29.7939886 91.4441016,29.5136262 L93.5810228,31.1023463 C93.2896244,31.6817619 91.8909124,33.2704821 89.2489008,33.2704821 C85.8881067,33.2704821 83.8288918,31.0462739 83.8288918,28.1491959 C83.8288918,25.2708088 85.8492536,22.9718373 88.8409432,22.9718373 C92.085178,22.9718373 93.8529945,24.9717556 93.8529945,28.3174134 C93.8529945,28.5043216 93.8529945,28.7099207 93.833568,28.9342106 Z M88.8992228,25.4950987 C87.8307623,25.4950987 87.3256718,26.2614226 87.2479656,26.9529831 L90.5504801,26.9529831 C90.511627,26.1679684 89.9094037,25.4950987 88.8992228,25.4950987 Z M94.7271896,28.1491959 C94.7271896,25.1773547 97.1166559,22.9718373 100.263758,22.9718373 C103.546846,22.9718373 105.858606,25.1399731 105.858606,28.1118143 C105.858606,31.0649647 103.488566,33.2704821 100.263758,33.2704821 C97.0195231,33.2704821 94.7271896,31.1023463 94.7271896,28.1491959 Z M97.9714244,28.1491959 C97.9714244,29.5696987 98.9427521,30.5229307 100.263758,30.5229307 C101.60419,30.5229307 102.614371,29.5136262 102.614371,28.1118143 C102.614371,26.6726207 101.584764,25.7193886 100.263758,25.7193886 C98.9233256,25.7193886 97.9714244,26.7100024 97.9714244,28.1491959 Z M114.076039,33.2704821 C115.766149,33.2704821 117.126008,32.8032114 118.097336,32.1677234 L117.164861,29.3640996 C116.446079,29.8313702 115.358192,30.27995 114.192598,30.27995 C111.705999,30.27995 110.34614,28.5043216 110.34614,26.4670216 C110.34614,24.4297217 111.705999,22.6914749 114.192598,22.6914749 C115.358192,22.6914749 116.387799,23.1400547 117.106582,23.6073254 L118.039056,20.8037016 C117.067729,20.1682135 115.766149,19.7009429 114.076039,19.7009429 C109.84105,19.7009429 106.888213,22.6354025 106.888213,26.4670216 C106.888213,30.3173317 109.685637,33.2704821 114.076039,33.2704821 Z M119.107517,28.1491959 C119.107517,25.1773547 121.496983,22.9718373 124.644085,22.9718373 C127.927173,22.9718373 130.238933,25.1399731 130.238933,28.1118143 C130.238933,31.0649647 127.868894,33.2704821 124.644085,33.2704821 C121.399851,33.2704821 119.107517,31.1023463 119.107517,28.1491959 Z M122.351752,28.1491959 C122.351752,29.5696987 123.32308,30.5229307 124.644085,30.5229307 C125.984518,30.5229307 126.994699,29.5136262 126.994699,28.1118143 C126.994699,26.6726207 125.965091,25.7193886 124.644085,25.7193886 C123.303653,25.7193886 122.351752,26.7100024 122.351752,28.1491959 Z M134.920733,23.214818 L131.676499,23.214818 L131.676499,33.0275013 L134.920733,33.0275013 L134.920733,23.214818 Z M133.269476,22.6167116 C134.299084,22.6167116 135.095572,21.9064603 135.095572,20.9345374 C135.095572,19.9439236 134.299084,19.2336722 133.269476,19.2336722 C132.239869,19.2336722 131.462806,19.9439236 131.462806,20.9345374 C131.462806,21.9064603 132.239869,22.6167116 133.269476,22.6167116 Z M142.866195,33.0275013 L146.110429,33.0275013 L146.110429,27.5884712 C146.110429,25.5885529 145.799605,22.9718373 142.613649,22.9718373 C141.331497,22.9718373 140.437875,23.644707 140.049344,24.2241226 L140.049344,23.214818 L136.882815,23.214818 L136.882815,33.0275013 L140.12705,33.0275013 L140.12705,27.177273 C140.12705,26.3922583 140.632141,25.7754611 141.525762,25.7754611 C142.302825,25.7754611 142.866195,26.2614226 142.866195,27.177273 L142.866195,33.0275013 Z"/>
    <path fill="#FFF" fill-rule="nonzero" d="M149.760047,21.665504 L148.900477,21.665504 L148.900477,24.6569851 L147.927055,24.6569851 L147.927055,21.665504 L147.067485,21.665504 L147.067485,20.8287643 L149.760047,20.8287643 L149.760047,21.665504 Z M152.913704,24.3452586 L152.019979,24.3452586 L151.14333,22.146766 L151.14333,24.6569851 L150.209757,24.6569851 L150.209757,20.8287643 L151.473496,20.8287643 L152.463995,23.2514812 L153.460187,20.8287643 L154.723926,20.8287643 L154.723926,24.6569851 L153.790353,24.6569851 L153.790353,22.146766 L152.913704,24.3452586 Z"/>
  </g>
</svg>
