<svg xmlns="http://www.w3.org/2000/svg" width="151" height="42" viewBox="0 0 151 42"><g fill="none" fill-rule="evenodd"><g fill-rule="nonzero"><path fill="#FF9248" d="M20.96 39.727c10.258 0 18.573-8.373 18.573-18.703S31.218 2.321 20.96 2.321c-10.257 0-18.573 8.373-18.573 18.703s8.316 18.703 18.573 18.703zm0 1.727C9.756 41.454.673 32.307.673 21.024S9.756.594 20.96.594c11.205 0 20.288 9.147 20.288 20.43s-9.083 20.43-20.288 20.43z"/><path fill="#F96A5F" d="M5.464 14.43C7.96 8.219 14.02 3.836 21.098 3.836v1.721c-6.23 0-11.752 3.813-14.045 9.517l-1.59-.644zm32.487 6.333c0 9.348-7.546 16.927-16.853 16.927a16.94 16.94 0 01-2.913-.252l.294-1.696c.858.15 1.733.226 2.619.226 8.36 0 15.139-6.808 15.139-15.205a15.19 15.19 0 00-1.56-6.73l1.537-.764a16.918 16.918 0 011.737 7.494z"/><path fill="#D74169" d="M26.332 8.354A13.489 13.489 0 0134.49 20.76c0 6.662-4.81 12.195-11.131 13.288l-.291-1.696c5.572-.964 9.705-5.84 9.708-11.584a11.77 11.77 0 00-7.117-10.831l.673-1.583zM7.639 20.76c0-7.447 6.01-13.484 13.425-13.484v1.722c-6.468 0-11.711 5.266-11.711 11.762 0 4.034 2.036 7.717 5.343 9.874l-.933 1.444A13.487 13.487 0 017.639 20.76z"/><path fill="#7B58B2" d="M10.975 20.637c0-5.521 4.496-9.997 10.041-9.997h.056l-.01 1.714h-.045c-4.595 0-8.32 3.708-8.32 8.283h-1.722zm10.041 9.998c-5.545 0-10.04-4.476-10.04-9.998h1.72c0 4.575 3.725 8.284 8.32 8.284 4.57 0 8.282-3.668 8.32-8.214l1.721.014c-.045 5.483-4.523 9.914-10.04 9.914z"/></g><path fill="#FFF" d="M26.178 21.578s-1.195 1.237-3.32 2.615c-2.124 1.377-3.558 1.89-3.558 1.89-.636.276-1.225-.085-1.311-.793 0 0-.243-1.414-.243-4.377 0-2.964.244-4.405.244-4.405.08-.708.662-1.04 1.29-.742 0 0 1.327.552 3.578 2.011 2.252 1.46 3.296 2.47 3.296 2.47.412.357.42.956.024 1.331zm30.669 6.45l4.915-13.084H58.11l-3.07 9.308-3.069-9.308H48.32l4.915 13.084h3.613zm9.286-9.813H62.89v9.813h3.244v-9.813zm-1.651-.598c1.03 0 1.826-.71 1.826-1.682 0-.991-.796-1.701-1.826-1.701s-1.807.71-1.807 1.7c0 .972.777 1.683 1.807 1.683zm10.743 5.532c0-1.551-.913-2.43-2.195-2.43-1.321 0-2.196.991-2.196 2.43 0 1.458.894 2.393 2.196 2.393 1.398 0 2.195-1.084 2.195-2.393zm.116 4.879v-.767c-.291.318-1.262 1.01-2.758 1.01-2.934 0-4.993-2.131-4.993-5.14 0-3.047 1.865-5.16 4.818-5.16 1.554 0 2.506.748 2.72.991v-4.448h3.244v13.514h-3.03zm14.493-4.094H83.15c.078.879.952 1.626 2.156 1.626 1.224 0 1.943-.766 2.137-1.046l2.137 1.588c-.291.58-1.69 2.168-4.332 2.168-3.36 0-5.42-2.224-5.42-5.12 0-2.88 2.02-5.178 5.012-5.178 3.244 0 5.012 2 5.012 5.345 0 .187 0 .393-.02.617zm-4.935-3.439c-1.068 0-1.573.766-1.651 1.458h3.302c-.038-.785-.64-1.458-1.65-1.458zm5.828 2.654c0-2.972 2.39-5.177 5.537-5.177 3.283 0 5.595 2.168 5.595 5.14 0 2.953-2.37 5.158-5.595 5.158-3.244 0-5.537-2.168-5.537-5.12zm3.244 0c0 1.42.972 2.374 2.293 2.374 1.34 0 2.35-1.01 2.35-2.411 0-1.44-1.03-2.393-2.35-2.393-1.34 0-2.293.991-2.293 2.43zm16.105 5.121c1.69 0 3.05-.467 4.021-1.102l-.932-2.804c-.719.467-1.807.916-2.972.916-2.487 0-3.847-1.776-3.847-3.813s1.36-3.776 3.847-3.776c1.165 0 2.195.45 2.914.916l.932-2.803c-.971-.636-2.273-1.103-3.963-1.103-4.235 0-7.188 2.934-7.188 6.766 0 3.85 2.798 6.803 7.188 6.803zm5.032-5.12c0-2.973 2.389-5.178 5.536-5.178 3.283 0 5.595 2.168 5.595 5.14 0 2.953-2.37 5.158-5.595 5.158-3.244 0-5.536-2.168-5.536-5.12zm3.244 0c0 1.42.971 2.373 2.292 2.373 1.34 0 2.35-1.01 2.35-2.411 0-1.44-1.029-2.393-2.35-2.393-1.34 0-2.292.991-2.292 2.43zm12.569-4.935h-3.245v9.813h3.245v-9.813zm-1.652-.598c1.03 0 1.827-.71 1.827-1.682 0-.991-.797-1.701-1.827-1.701-1.03 0-1.806.71-1.806 1.7 0 .972.777 1.683 1.806 1.683zm9.597 10.41h3.244v-5.439c0-2-.31-4.616-3.496-4.616-1.283 0-2.176.673-2.565 1.252v-1.01h-3.166v9.814h3.244v-5.85c0-.786.505-1.403 1.399-1.403.777 0 1.34.486 1.34 1.402v5.85z"/><path fill="#FFF" fill-rule="nonzero" d="M145.76 16.666h-.86v2.991h-.973v-2.991h-.86v-.837h2.693v.837zm3.154 2.68h-.894l-.877-2.2v2.511h-.933v-3.828h1.263l.991 2.422.996-2.422h1.264v3.828h-.934v-2.51l-.876 2.198z"/></g></svg>