<svg xmlns="http://www.w3.org/2000/svg" width="211" height="43" viewBox="0 0 211 43">
  <g fill="none" fill-rule="evenodd" transform="translate(-4 -5)">
    <path fill="#FFF" fill-rule="nonzero" d="M165.098,33 L160.87,26.336 L160.87,33 L158.924,33 L158.924,23.2 L160.926,23.2 L165.112,29.92 L165.112,23.2 L167.058,23.2 L167.058,33 L165.098,33 Z M168.546,29.36 C168.546,28.2493278 168.88433,27.3276703 169.561,26.595 C170.23767,25.8623297 171.093995,25.496 172.13,25.496 C173.250006,25.496 174.122664,25.8436632 174.748,26.539 C175.373336,27.2343368 175.686,28.1886606 175.686,29.402 C175.686,29.5886676 175.681333,29.7286662 175.672,29.822 L170.52,29.822 C170.538667,30.3166691 170.725332,30.7203318 171.08,31.033 C171.434668,31.3456682 171.882664,31.502 172.424,31.502 C173.198671,31.502 173.791331,31.2033363 174.202,30.606 L175.476,31.572 C175.270666,31.9453352 174.906669,32.3069982 174.384,32.657 C173.861331,33.0070018 173.198671,33.182 172.396,33.182 C171.238661,33.182 170.30767,32.8250036 169.603,32.111 C168.89833,31.3969964 168.546,30.4800056 168.546,29.36 Z M170.576,28.562 L173.726,28.562 C173.707333,28.1139978 173.553335,27.754668 173.264,27.484 C172.974665,27.213332 172.606002,27.078 172.158,27.078 C171.709998,27.078 171.346001,27.2179986 171.066,27.498 C170.785999,27.7780014 170.622667,28.1326645 170.576,28.562 Z M177.146,25.678 L177.146,24.138 L179.05,24.138 L179.05,25.678 L180.422,25.678 L180.422,27.246 L179.05,27.246 L179.05,30.074 C179.05,30.5966693 179.131666,30.9466658 179.295,31.124 C179.458334,31.3013342 179.735998,31.39 180.128,31.39 C180.258667,31.39 180.375333,31.3853334 180.478,31.376 L180.478,33.028 C180.281999,33.0746669 180.006668,33.098 179.652,33.098 C178.783996,33.098 178.147002,32.8530024 177.741,32.363 C177.334998,31.8729976 177.132,31.1286717 177.132,30.13 L177.132,27.246 L176.362,27.246 L176.362,25.678 L177.146,25.678 Z M188.63,33 L187.286,28.31 L185.928,33 L183.772,33 L181.588,25.678 L183.688,25.678 L184.976,30.872 L186.376,25.678 L188.196,25.678 L189.582,30.872 L190.884,25.678 L192.984,25.678 L190.786,33 L188.63,33 Z M194.738,32.104 C194.000663,31.3853297 193.632,30.4706722 193.632,29.36 C193.632,28.2493278 194.007663,27.3276703 194.759,26.595 C195.510337,25.8623297 196.445994,25.496 197.566,25.496 C198.686006,25.496 199.623996,25.864663 200.38,26.602 C201.136004,27.339337 201.514,28.2586612 201.514,29.36 C201.514,30.4706722 201.143004,31.3853297 200.401,32.104 C199.658996,32.8226703 198.714006,33.182 197.566,33.182 C196.427328,33.182 195.48467,32.8226703 194.738,32.104 Z M195.564,29.36 C195.564,29.9760031 195.752998,30.4823313 196.131,30.879 C196.509002,31.2756687 196.98733,31.474 197.566,31.474 C198.154003,31.474 198.636998,31.2756687 199.015,30.879 C199.393002,30.4823313 199.582,29.9760031 199.582,29.36 C199.582,28.7346635 199.390669,28.219002 199.008,27.813 C198.625331,27.406998 198.14467,27.204 197.566,27.204 C196.98733,27.204 196.509002,27.406998 196.131,27.813 C195.752998,28.219002 195.564,28.7346635 195.564,29.36 Z M206.726,25.496 L206.726,27.456 C205.409993,27.456 204.752,28.2399922 204.752,29.808 L204.752,33 L202.82,33 L202.82,25.678 L204.71,25.678 L204.71,26.742 C204.878001,26.3686648 205.139332,26.0676678 205.494,25.839 C205.848668,25.6103322 206.259331,25.496 206.726,25.496 Z M208.06,33 L208.06,22.878 L209.992,22.878 L209.992,28.758 L212.344,25.678 L214.514,25.678 L211.938,28.996 L214.71,33 L212.442,33 L209.992,29.22 L209.992,33 L208.06,33 Z"/>
    <g transform="translate(4.505 5.66)">
      <path fill="#FFF" d="M57.7925326,27.8756019 L62.5959248,15.0948185 L59.0266057,15.0948185 L56.0268587,24.187433 L53.0271118,15.0948185 L49.4577927,15.0948185 L54.2611849,27.8756019 L57.7925326,27.8756019 Z M66.8677163,18.2900143 L63.6970977,18.2900143 L63.6970977,27.8756019 L66.8677163,27.8756019 L66.8677163,18.2900143 Z M65.2539284,17.70575 C66.2601726,17.70575 67.038588,17.011936 67.038588,16.0625064 C67.038588,15.0948185 66.2601726,14.4010045 65.2539284,14.4010045 C64.2476842,14.4010045 63.4882546,15.0948185 63.4882546,16.0625064 C63.4882546,17.011936 64.2476842,17.70575 65.2539284,17.70575 Z M75.7530427,23.1101955 C75.7530427,21.5947598 74.8607129,20.7366215 73.607654,20.7366215 C72.3166237,20.7366215 71.4622654,21.7043093 71.4622654,23.1101955 C71.4622654,24.5343399 72.3356095,25.447253 73.607654,25.447253 C74.9746273,25.447253 75.7530427,24.3882738 75.7530427,23.1101955 Z M75.8669571,27.8756019 L75.8669571,27.1270131 C75.582171,27.4374036 74.632884,28.1129593 73.170982,28.1129593 C70.3041353,28.1129593 68.2916468,26.0315174 68.2916468,23.0919372 C68.2916468,20.1158405 70.1142779,18.0526569 73.0001104,18.0526569 C74.5189696,18.0526569 75.4492708,18.7829874 75.658114,19.0203448 L75.658114,14.6748785 L78.8287326,14.6748785 L78.8287326,27.8756019 L75.8669571,27.8756019 Z M90.0303192,23.8770425 L83.4992246,23.8770425 C83.5751676,24.7351808 84.4295259,25.4655113 85.6066418,25.4655113 C86.8027434,25.4655113 87.5052158,24.7169226 87.6950732,24.4430486 L89.7835046,25.9950009 C89.4987185,26.561007 88.1317452,28.1129593 85.5496845,28.1129593 C82.2651515,28.1129593 80.2526631,25.9402261 80.2526631,23.1101955 C80.2526631,20.2984232 82.22718,18.0526569 85.150984,18.0526569 C88.3216026,18.0526569 90.0493049,20.006291 90.0493049,23.2745199 C90.0493049,23.4571025 90.0493049,23.6579434 90.0303192,23.8770425 Z M85.2079412,20.5175223 C84.1637255,20.5175223 83.6700963,21.2661111 83.5941533,21.9416667 L86.8217291,21.9416667 C86.7837577,21.1748197 86.1951997,20.5175223 85.2079412,20.5175223 Z M90.9036632,23.1101955 C90.9036632,20.2071319 93.2389093,18.0526569 96.3145992,18.0526569 C99.5231892,18.0526569 101.782492,20.1706153 101.782492,23.073679 C101.782492,25.9584844 99.466232,28.1129593 96.3145992,28.1129593 C93.1439806,28.1129593 90.9036632,25.9950009 90.9036632,23.1101955 Z M94.0742818,23.1101955 C94.0742818,24.4978234 95.0235688,25.4289948 96.3145992,25.4289948 C97.6246152,25.4289948 98.6118737,24.4430486 98.6118737,23.073679 C98.6118737,21.6677928 97.6056295,20.7366215 96.3145992,20.7366215 C95.0045831,20.7366215 94.0742818,21.7043093 94.0742818,23.1101955 Z M109.81346,28.1129593 C111.46522,28.1129593 112.794222,27.6565027 113.743509,27.0357218 L112.832193,24.2969825 C112.129721,24.7534391 111.066519,25.1916374 109.927375,25.1916374 C107.4972,25.1916374 106.168198,23.4571025 106.168198,21.4669519 C106.168198,19.4768014 107.4972,17.778783 109.927375,17.778783 C111.066519,17.778783 112.072763,18.2169813 112.775236,18.6734378 L113.686551,15.9346986 C112.737264,15.3139176 111.46522,14.8574611 109.81346,14.8574611 C105.674569,14.8574611 102.788737,17.7240082 102.788737,21.4669519 C102.788737,25.2281539 105.522683,28.1129593 109.81346,28.1129593 Z M114.730767,23.1101955 C114.730767,20.2071319 117.066013,18.0526569 120.141703,18.0526569 C123.350293,18.0526569 125.609596,20.1706153 125.609596,23.073679 C125.609596,25.9584844 123.293336,28.1129593 120.141703,28.1129593 C116.971084,28.1129593 114.730767,25.9950009 114.730767,23.1101955 Z M117.901386,23.1101955 C117.901386,24.4978234 118.850673,25.4289948 120.141703,25.4289948 C121.451719,25.4289948 122.438978,24.4430486 122.438978,23.073679 C122.438978,21.6677928 121.432733,20.7366215 120.141703,20.7366215 C118.831687,20.7366215 117.901386,21.7043093 117.901386,23.1101955 Z M130.185159,18.2900143 L127.014541,18.2900143 L127.014541,27.8756019 L130.185159,27.8756019 L130.185159,18.2900143 Z M128.571372,17.70575 C129.577616,17.70575 130.356031,17.011936 130.356031,16.0625064 C130.356031,15.0948185 129.577616,14.4010045 128.571372,14.4010045 C127.565127,14.4010045 126.805698,15.0948185 126.805698,16.0625064 C126.805698,17.011936 127.565127,17.70575 128.571372,17.70575 Z M137.703513,18.0526569 C140.817174,18.0526569 141.120946,20.6088136 141.120946,22.5624477 L141.120946,22.5624477 L141.120946,27.8756019 L137.950327,27.8756019 L137.950327,22.1607659 C137.950327,21.2661111 137.399741,20.7913962 136.640311,20.7913962 C135.766967,20.7913962 135.273338,21.3939189 135.273338,22.1607659 L135.273338,22.1607659 L135.273338,27.8756019 L132.102719,27.8756019 L132.102719,18.2900143 L135.197395,18.2900143 L135.197395,19.2759605 C135.57711,18.7099544 136.450454,18.0526569 137.703513,18.0526569 Z M144.613755,15.8184985 L144.613755,16.6633021 L143.77659,16.6633021 L143.77659,19.6836132 L142.828542,19.6836132 L142.828542,16.6633021 L141.991376,16.6633021 L141.991376,15.8184985 L144.613755,15.8184985 Z M146.282542,15.8184985 L147.247223,18.264564 L148.217448,15.8184985 L149.448248,15.8184985 L149.448248,19.6836132 L148.539008,19.6836132 L148.539008,17.1492023 L147.68521,19.3688825 L146.81478,19.3688825 L145.960982,17.1492023 L145.960982,19.6836132 L145.051743,19.6836132 L145.051743,15.8184985 L146.282542,15.8184985 Z"/>
      <path fill="#FF8A3C" fill-rule="nonzero" d="M21,42 C32.5979797,42 42,32.5979797 42,21 C42,9.40202025 32.5979797,0 21,0 C9.40202025,0 0,9.40202025 0,21 C0,32.5979797 9.40202025,42 21,42 Z M21,40.173913 C10.4105402,40.173913 1.82608696,31.5894598 1.82608696,21 C1.82608696,10.4105402 10.4105402,1.82608696 21,1.82608696 C31.5894598,1.82608696 40.173913,10.4105402 40.173913,21 C40.173913,31.5894598 31.5894598,40.173913 21,40.173913 Z"/>
      <path fill="#FF5D50" d="M36.6214097,13.2619565 C37.8167009,15.64963 38.4477097,18.2896022 38.4477097,21.0178685 C38.4477097,30.5988082 30.6808234,38.3656945 21.0998836,38.3656945 C20.0635539,38.3656945 19.0383628,38.2747218 18.0326087,38.0952217 L18.0326087,38.0952217 L18.3534465,36.2975408 C19.2534194,36.4581618 20.1712495,36.5396076 21.0998836,36.5396076 C29.6723035,36.5396076 36.6216228,29.5902883 36.6216228,21.0178685 C36.6216228,18.5750063 36.0574644,16.2147185 34.9885059,14.0794031 L34.9885059,14.0794031 Z M21,3.65217391 L21,5.47826087 C14.6382469,5.47826087 8.99301519,9.34087979 6.62624138,15.1302541 L6.62624138,15.1302541 L4.93594782,14.4392395 C7.58102834,7.96909807 13.8902288,3.65217391 21,3.65217391 L21,3.65217391 Z"/>
      <path fill="#F53568" d="M26.3688527,8.39696776 C31.3768151,10.5328941 34.6956522,15.4610347 34.6956522,21 C34.6956522,27.6621135 29.9060556,33.3253291 23.4201935,34.4823268 L23.4201935,34.4823268 L23.0995047,32.6846193 C28.7179812,31.6823525 32.8695652,26.7735224 32.8695652,21 C32.8695652,16.1991306 29.9931984,11.9280139 25.6524538,10.07666 L25.6524538,10.07666 Z M21,7.30434783 L21,9.13043478 C14.4446201,9.13043478 9.13043478,14.4446201 9.13043478,21 C9.13043478,25.0789698 11.2030783,28.8027634 14.5662548,30.9764678 L14.5662548,30.9764678 L13.5750244,32.5101092 C9.69666347,30.0034283 7.30434783,25.705299 7.30434783,21 C7.30434783,13.4361002 13.4361002,7.30434783 21,7.30434783 L21,7.30434783 Z"/>
      <path fill="#7130CC" d="M21,31.0434783 C26.5468599,31.0434783 31.0434783,26.5468599 31.0434783,21 C31.0434783,15.4531401 26.5468599,10.9565217 21,10.9565217 C15.4531401,10.9565217 10.9565217,15.4531401 10.9565217,21 L12.7826087,21 C12.7826087,16.4616601 16.4616601,12.7826087 21,12.7826087 C25.5383399,12.7826087 29.2173913,16.4616601 29.2173913,21 C29.2173913,25.5383399 25.5383399,29.2173913 21,29.2173913 L21,31.0434783 Z" transform="rotate(180 21 21)"/>
      <path fill="#FFF" d="M26.6299192,21.6895523 C26.6299192,21.6895523 25.3796746,22.9783268 23.1555221,24.4129669 C20.9313697,25.8476071 19.4304848,26.3814199 19.4304848,26.3814199 C18.765178,26.669104 18.1479681,26.2929577 18.0582409,25.5558797 C18.0582409,25.5558797 17.8043478,24.0829413 17.8043478,20.9962619 C17.8043478,17.9095825 18.0594334,16.4082998 18.0594334,16.4082998 C18.1426369,15.6713894 18.7528686,15.3254473 19.4093239,15.6353186 C19.4093239,15.6353186 20.7990838,16.2104202 23.1555221,17.7303881 C25.5119605,19.250356 26.6054018,20.3038381 26.6054018,20.3038381 C27.036392,20.6747714 27.0442775,21.2989817 26.6299192,21.6895523 Z"/>
    </g>
  </g>
</svg>
