<svg xmlns="http://www.w3.org/2000/svg" width="475" height="348" viewBox="0 0 475 348"><defs><linearGradient id="preview-a" x1="55.91%" x2="64.677%" y1="39.657%" y2="66.29%"><stop offset="0%" stop-color="#240A49"/><stop offset="100%" stop-color="#352054"/></linearGradient><linearGradient id="preview-c" x1="78.294%" x2="78.294%" y1="85.49%" y2="6.904%"><stop offset="0%" stop-color="#4E2E62"/><stop offset="100%" stop-color="#42348E"/></linearGradient><linearGradient id="preview-d" x1="78.294%" x2="78.294%" y1="91.722%" y2="2.615%"><stop offset="0%" stop-color="#884FAC"/><stop offset="100%" stop-color="#644FD9"/></linearGradient><filter id="preview-b" width="220.1%" height="205.3%" x="-60.1%" y="-52.7%" filterUnits="objectBoundingBox"><feOffset dx="-29" dy="7" in="SourceAlpha" result="shadowOffsetOuter1"/><feGaussianBlur in="shadowOffsetOuter1" result="shadowBlurOuter1" stdDeviation="11"/><feColorMatrix in="shadowBlurOuter1" result="shadowMatrixOuter1" values="0 0 0 0 0 0 0 0 0 0 0 0 0 0 0 0 0 0 0.12 0"/><feMerge><feMergeNode in="shadowMatrixOuter1"/><feMergeNode in="SourceGraphic"/></feMerge></filter></defs><g fill="none" fill-rule="evenodd"><path fill="url(#preview-a)" d="M460.097 191.425L196.27 339.135c-19.87 11.548-52.173 11.554-72.186 0L15.076 271.133c-20.002-11.545-20.117-30.271-.248-41.82L49.7 209.052c11.94-6.939 85.722-47.066 221.348-120.381a97 97 0 0193.32.584l95.673 53.276c13.51 7.524 18.364 24.575 10.84 38.085a28 28 0 01-10.784 10.81z" opacity=".6"/><path d="M97.27 252.916l.008 3.252 60.064-34.68.208 73.836-60.06 34.68.008 3.288 62.9-36.316-.228-80.376zM97 158.358l.012 3.256 60.06-34.676.212 73.832-60.064 34.68.008 3.256 62.9-36.316-.224-80.348zm195.32 59.158l-.208-73.832L176.728 210.3l.208 73.832 115.384-66.616zm-118.436-8.836l121.052-69.892.228 80.38-121.052 69.892-.228-80.38zm118.167-85.72l-.208-73.831-115.38 66.616.204 73.832L292.05 122.96zm-118.436-8.835l121.052-69.892.232 80.348-121.056 69.892-.228-80.348zm135.036 16.747l.228 80.376 62.9-36.316-.008-3.288-60.04 34.664-.212-73.832 60.044-34.664-.012-3.256zM371.284.001L308.38 36.317l.232 80.344 62.9-36.316-.008-3.256-60.044 34.668-.204-73.828 60.036-34.672z" fill="#341D55"/><g filter="url(#preview-b)" transform="translate(190 52)"><path fill="url(#preview-c)" d="M138.451 58.984c-.018 1.128-.024 2.256-.05 3.39-.034 1.374-.097 2.75-.148 4.13-.045 1.078-.075 2.155-.129 3.235-.078 1.536-.183 3.066-.285 4.602-.063.918-.108 1.836-.18 2.748a258.424 258.424 0 01-.645 7.28 29.332 29.332 0 01-.609 2.812c-.078.303-.183.6-.273.897-.189.63-.378 1.26-.609 1.878-.105.288-.228.57-.342.852-.234.59-.486 1.17-.756 1.743-.153.318-.306.63-.468.942a29.626 29.626 0 01-.885 1.599c-.174.297-.342.59-.528.882-.375.59-.774 1.17-1.182 1.734-.14.192-.267.39-.41.582-.124.159-.268.309-.394.47a31.571 31.571 0 01-2.265 2.554 28.53 28.53 0 01-.74.735c-.952.906-1.936 1.77-2.992 2.538a881.61 881.61 0 01-47.763 29.649c-16.317 9.423-32.373 17.985-47.739 25.488-.648.276-1.257.45-1.866.63-.024-.1-.063-.18-.084-.282-2.142-17.325-2.202-38.5-.168-58.24 1.305-7.955 5.925-15.476 12.45-20.213 15.36-10.257 31.428-20.217 47.748-29.64 16.32-9.423 32.373-18.006 47.74-25.488a16.043 16.043 0 011.886-.651c.021.102.063.189.084.294.183 1.506.336 3.072.49 4.632.104 1.038.206 2.079.3 3.144.095 1.173.176 2.376.257 3.576.075 1.083.15 2.166.213 3.27.063 1.22.111 2.46.16 3.702.044 1.116.095 2.229.122 3.363.033 1.26.048 2.538.063 3.813.015 1.137.036 2.268.036 3.414.003 1.305-.02 2.622-.039 3.936m23.71-37.728l-.076-.51c-1.233-6.366-4.137-10.734-8.3-12.942.152.084.32.14.47.23L143.68 1.892c-4.575-2.661-10.779-2.562-18.066.615-15.804 7.689-32.337 16.53-49.098 26.205-16.755 9.678-33.285 19.926-49.389 30.702-1.476 1.056-2.889 2.223-4.275 3.435-.39.342-.768.696-1.152 1.05a60.498 60.498 0 00-3.144 3.123c-.285.3-.579.59-.858.9a63.964 63.964 0 00-3.219 3.843c-.105.138-.195.282-.3.42-.345.459-.66.936-.993 1.404a66.86 66.86 0 00-2.322 3.435 64.218 64.218 0 00-1.074 1.79 67.643 67.643 0 00-1.857 3.394c-.318.624-.633 1.242-.93 1.875A62.467 62.467 0 005.38 87.86c-.219.54-.453 1.07-.654 1.617-.066.18-.15.354-.213.534-.399 1.116-.705 2.256-1.035 3.387-.186.624-.408 1.242-.573 1.869a58.33 58.33 0 00-1.218 5.838l-.072.594a291.002 291.002 0 00-.71 7.908c-.07.897-.115 1.8-.172 2.694a311.084 311.084 0 00-.336 5.292c-.05 1.089-.084 2.178-.129 3.267-.063 1.578-.129 3.156-.168 4.73-.03 1.17-.036 2.332-.054 3.496-.02 1.488-.045 2.976-.045 4.455 0 1.206.021 2.39.036 3.59.018 1.417.033 2.839.07 4.246.032 1.209.086 2.397.134 3.594.051 1.362.105 2.724.174 4.068.066 1.19.147 2.355.228 3.528.09 1.31.18 2.613.288 3.897.093 1.152.207 2.274.321 3.402.078.792.135 1.608.225 2.388.1.909.204 1.806.315 2.697l.081.486a27.873 27.873 0 00.975 3.657c.31.915.657 1.785 1.047 2.589.051.099.108.186.156.282.37.72.777 1.392 1.215 2.019.108.15.207.306.315.45a14.95 14.95 0 001.587 1.812c.033.03.06.069.093.102.057.054.126.084.186.138.7.639 1.44 1.215 2.25 1.686l10.57 6.14c-.064-.035-.118-.095-.184-.137 4.596 2.78 10.87 2.733 18.276-.504 15.786-7.683 32.28-16.48 49.06-26.166a898.989 898.989 0 0049.43-30.72c13.191-9.49 22.93-25.452 25.416-41.682l.075-.594c2.223-21.432 2.157-44.475-.18-63.252M60.006 78.17l.12 42.921 10.572 6.141 33.189-40.656-10.569-6.144-33.312-2.262z"/><path fill="url(#preview-d)" d="M147.586 90.516c-1.284 7.926-5.925 15.453-12.45 20.214a881.698 881.698 0 01-47.766 29.649c-16.32 9.423-32.37 17.985-47.736 25.488-6.534 2.784-11.205.627-12.525-5.793-2.142-17.328-2.202-38.5-.168-58.242 1.305-7.956 5.925-15.477 12.453-20.214C54.75 71.36 70.819 61.4 87.142 51.978c16.317-9.42 32.37-18.006 47.736-25.488 6.549-2.79 11.22-.636 12.54 5.787 2.142 17.304 2.205 38.499.168 58.239m14.574-69.261l-.075-.51c-2.571-13.287-12.37-17.991-25.9-12.096-15.803 7.692-32.333 16.53-49.094 26.205C70.33 44.532 53.8 54.78 37.699 65.556c-13.212 9.48-22.95 25.464-25.437 41.69l-.075.595c-2.226 21.41-2.16 44.478.177 63.252l.08.486c2.569 13.335 12.367 18.012 25.915 12.09 15.789-7.683 32.283-16.476 49.059-26.166a895.359 895.359 0 0049.43-30.72c13.192-9.49 22.93-25.452 25.42-41.682l.072-.594c2.223-21.43 2.157-44.475-.18-63.252M70.7 127.234l33.188-40.66-33.312-2.261.123 42.92z"/></g></g></svg>