<svg xmlns="http://www.w3.org/2000/svg" xmlns:xlink="http://www.w3.org/1999/xlink" width="475" height="340" viewBox="0 0 475 340"><defs><linearGradient id="time-o" x1="50%" x2="50%" y1="988.662%" y2="-75.798%"><stop offset="0%" stop-color="#884FAC"/><stop offset="100%" stop-color="#644FD9"/></linearGradient><linearGradient id="time-m" x1="78.294%" x2="78.294%" y1="233.22%" y2="-77.922%"><stop offset="0%" stop-color="#884FAC"/><stop offset="100%" stop-color="#644FD9"/></linearGradient><linearGradient id="time-n" x1="50%" x2="79.726%" y1="468.737%" y2="-618.511%"><stop offset="0%" stop-color="#884FAC"/><stop offset="100%" stop-color="#644FD9"/></linearGradient><linearGradient id="time-e" x1="78.294%" x2="78.294%" y1="100%" y2="-4.997%"><stop offset="0%" stop-color="#543369"/><stop offset="100%" stop-color="#3C2F83"/></linearGradient><linearGradient id="time-f" x1="78.294%" x2="78.294%" y1="200.094%" y2="-8.721%"><stop offset="0%" stop-color="#583270"/><stop offset="100%" stop-color="#3A2D80"/></linearGradient><linearGradient id="time-g" x1="78.294%" x2="78.294%" y1="100%" y2="6.904%"><stop offset="0%" stop-color="#533169"/><stop offset="100%" stop-color="#3E3188"/></linearGradient><linearGradient id="time-a" x1="55.91%" x2="64.677%" y1="39.657%" y2="66.29%"><stop offset="0%" stop-color="#240A49"/><stop offset="100%" stop-color="#352054"/></linearGradient><linearGradient id="time-i" x1="78.294%" x2="78.294%" y1="100%" y2="0%"><stop offset="0%" stop-color="#884FAC"/><stop offset="100%" stop-color="#644FD9"/></linearGradient><linearGradient id="time-k" x1="50%" x2="79.718%" y1="273.924%" y2="-833.239%"><stop offset="0%" stop-color="#884FAC"/><stop offset="100%" stop-color="#644FD9"/></linearGradient><linearGradient id="time-l" x1="-5.203%" x2="20.27%" y1="765.994%" y2="-322.815%"><stop offset="0%" stop-color="#884FAC"/><stop offset="100%" stop-color="#644FD9"/></linearGradient><path id="time-b" d="M.001.539h170.771v215.56H.001z"/><path id="time-h" d="M.415.827h148.949v193.112H.415z"/><filter id="time-d" width="223.9%" height="199%" x="-61.9%" y="-49.5%" filterUnits="objectBoundingBox"><feOffset dx="-29" dy="7" in="SourceAlpha" result="shadowOffsetOuter1"/><feGaussianBlur in="shadowOffsetOuter1" result="shadowBlurOuter1" stdDeviation="11"/><feColorMatrix in="shadowBlurOuter1" result="shadowMatrixOuter1" values="0 0 0 0 0 0 0 0 0 0 0 0 0 0 0 0 0 0 0.12 0"/><feMerge><feMergeNode in="shadowMatrixOuter1"/><feMergeNode in="SourceGraphic"/></feMerge></filter></defs><g fill="none" fill-rule="evenodd"><path fill="url(#time-a)" d="M460.097 183.425L196.27 331.135c-19.87 11.548-52.173 11.554-72.186 0L15.076 263.133c-20.002-11.545-20.117-30.271-.248-41.82L49.7 201.052c11.94-6.939 85.722-47.066 221.348-120.381a97 97 0 0193.32.584l95.673 53.276c13.51 7.524 18.364 24.575 10.84 38.085a28 28 0 01-10.784 10.81z" opacity=".6"/><path fill="#FDFDFD" stroke="#341D55" stroke-width="3" d="M198.466 98.934l.1 35.513 26.724-33.217-26.824-2.296h0zm-1.923-2.717l32.576 2.8-32.454 40.363-.122-43.163z"/><g transform="translate(127 .362)"><mask id="time-c" fill="#fff"><use xlink:href="#time-b"/></mask><path fill="#341D55" d="M165.014 115.067l-.297-105.31c-.006-1.627-1.148-2.278-2.563-1.46L8.3 97.166c-1.412.815-2.562 2.79-2.56 4.416l.298 105.31c.005 1.627 1.166 2.286 2.578 1.47l153.854-88.868c1.415-.818 2.55-2.801 2.544-4.427zm-2.876-113.39c4.585-2.648 8.322-.519 8.335 4.751l.3 105.314c.013 5.27-3.7 11.701-8.284 14.349L8.635 214.959c-4.584 2.65-8.321.521-8.335-4.749L0 104.897c-.013-5.27 3.697-11.702 8.281-14.35l153.857-88.87z" mask="url(#time-c)"/></g><g filter="url(#time-d)" transform="translate(203 59)"><path fill="url(#time-e)" d="M143.24 85.539c.377-1.87.706-3.735.984-5.59.018-.139.053-.276.073-.415.028-.177.035-.354.058-.534.296-2.105.534-4.2.695-6.277.017-.21.022-.42.037-.63a89.51 89.51 0 00.237-6.466c0-.119 0-.24-.003-.362-.005-.53-.033-1.042-.045-1.566-.015-.622-.023-1.252-.056-1.862-.03-.597-.08-1.174-.125-1.761-.04-.565-.073-1.142-.128-1.696-.058-.6-.136-1.176-.21-1.763-.064-.522-.116-1.05-.192-1.56-.087-.586-.195-1.15-.296-1.725-.085-.486-.16-.982-.256-1.46-.115-.567-.253-1.116-.381-1.67-.106-.455-.2-.921-.316-1.366-.143-.56-.312-1.093-.47-1.632-.123-.42-.236-.848-.369-1.258-.173-.544-.37-1.065-.562-1.594-.138-.382-.266-.777-.409-1.149-.2-.519-.424-1.01-.642-1.508-.156-.364-.301-.736-.467-1.088-.226-.48-.47-.939-.708-1.404-.175-.345-.343-.704-.53-1.038-.248-.45-.516-.878-.78-1.313-.195-.324-.379-.658-.58-.972-.273-.425-.569-.822-.855-1.227-.21-.301-.412-.612-.627-.9-.294-.388-.605-.75-.909-1.12-.233-.283-.454-.576-.693-.847-.31-.354-.642-.68-.963-1.02-.254-.26-.495-.534-.753-.787-.344-.336-.708-.642-1.067-.959-.25-.225-.497-.465-.758-.678-.394-.329-.81-.63-1.22-.936-.238-.177-.463-.37-.707-.54a28.87 28.87 0 00-2.033-1.305l-8.84-5.182c.692.407 1.37.843 2.03 1.306.255.177.496.382.745.569.396.296.8.585 1.184.903.281.233.55.494.823.74.334.298.678.584 1.002.9.28.276.542.574.818.86.299.314.605.615.893.944.276.314.532.653.798.982.269.326.542.643.8.982.26.344.5.716.751 1.07.244.354.497.693.733 1.058.236.367.454.756.68 1.136.228.382.467.751.683 1.149.213.387.406.797.61 1.197.21.412.429.814.627 1.24.188.407.354.835.534 1.252.194.445.394.883.573 1.344.168.427.31.875.469 1.31.168.479.346.942.504 1.433.146.445.266.908.4 1.364.147.508.306 1.01.441 1.533.115.453.213.926.321 1.39.128.548.261 1.09.374 1.651.096.466.17.95.254 1.425.103.587.213 1.167.3 1.764.069.463.116.941.176 1.414.078.638.169 1.27.231 1.923.043.45.066.921.103 1.38.055.695.113 1.386.15 2.1.018.437.023.895.038 1.343.026.795.058 1.59.06 2.404.003.828-.07 1.675-.09 2.508l-6.457-3.78a1.87 1.87 0 00-.223-.12c-.11-.05-.241-.063-.359-.103-.158-.054-.311-.112-.48-.14-.042-.007-.077-.03-.12-.035-.188-.025-.389-.008-.59-.002-.09.005-.175-.01-.27 0-.023.002-.04-.003-.06 0a5.013 5.013 0 00-.964.212c-.018.005-.04.018-.058.025-.116.036-.236.104-.351.15-.239.096-.475.18-.72.31-.079.044-.159.087-.237.135a9.705 9.705 0 00-1.367.984c-.03.023-.066.04-.093.066-.211.182-.407.395-.613.595-.133.134-.273.255-.404.397-.283.309-.55.643-.813.984-.065.086-.138.165-.203.25-.002.003-.002.006-.005.008-.007.01-.012.023-.02.033-.414.57-.773 1.18-1.107 1.807-.045.086-.105.16-.15.245-.073.147-.126.3-.196.446a13.53 13.53 0 00-.301.683c-.045.111-.103.218-.146.329-.07.187-.118.377-.18.567-.058.174-.12.352-.171.526-.02.073-.053.147-.07.223-.078.286-.12.567-.176.85-.025.129-.06.26-.08.392-.003.02-.01.04-.013.058-.07.479-.105.947-.105 1.407v.036c.002.303.05.567.083.842.02.165.017.35.05.506.055.281.153.524.243.772.045.117.068.253.118.362.118.256.274.463.43.67.052.066.085.155.142.218.221.253.472.463.753.628l8.844 5.182a3.128 3.128 0 01-.756-.628c-.082-.093-.138-.227-.215-.334-.12-.18-.254-.341-.352-.551-.078-.165-.12-.372-.18-.56-.06-.19-.138-.361-.184-.574-.035-.187-.037-.412-.06-.617-.027-.256-.073-.494-.073-.77 0-.483.043-.979.118-1.48.018-.111.05-.222.07-.334a12.1 12.1 0 01.254-1.108c.053-.18.113-.354.173-.531.098-.302.206-.603.326-.901.096-.23.199-.456.304-.683.108-.23.221-.458.341-.684a15.2 15.2 0 011.11-1.809c.01-.015.017-.03.027-.043.048-.068.106-.126.156-.19.276-.37.564-.726.868-1.055.106-.114.218-.207.326-.316a10.033 10.033 0 012.141-1.716c.329-.19.645-.319.959-.445.115-.048.236-.114.349-.152.24-.078.466-.106.697-.152-.037.934-.037 1.858-.1 2.801-.018.246-.028.491-.048.737a100.047 100.047 0 01-.68 6.181c-.05.352-.095.704-.148 1.058a110.105 110.105 0 01-.979 5.552c-.075.367-.155.734-.233 1.1-.402 1.893-.84 3.794-1.34 5.694-.015.048-.025.101-.04.152a128.243 128.243 0 01-1.72 5.863c-.115.367-.228.736-.348 1.105a142.172 142.172 0 01-1.965 5.618c-.133.352-.274.706-.407 1.06a146.443 146.443 0 01-2.635 6.427c-.125.286-.258.572-.389.86a144.856 144.856 0 01-3.087 6.511c-.128.25-.26.499-.389.752a155.897 155.897 0 01-2.18 4.102c-.231.417-.462.837-.695 1.252a155.577 155.577 0 01-2.736 4.681c-.07.114-.143.226-.216.34a150.525 150.525 0 01-2.733 4.28l-.783 1.17a151.83 151.83 0 01-2.908 4.167c-.07.097-.138.198-.208.294a145.675 145.675 0 01-4.334 5.635c-.166.205-.332.415-.497.62a138.586 138.586 0 01-4.392 5.106c-.23.256-.46.514-.69.765a126.75 126.75 0 01-4.525 4.693l-.77.752a118.255 118.255 0 01-4.72 4.334c-.362.317-.734.625-1.1.934a106.299 106.299 0 01-3.368 2.736 98.117 98.117 0 01-2.13 1.609c-.422.311-.844.622-1.268.926-.775.55-1.556 1.078-2.336 1.6-.369.245-.733.5-1.102.74-.18.114-.366.218-.547.335-.02-.056-.038-.117-.058-.175-.052-.175-.125-.329-.163-.519-.04-.2-.042-.438-.065-.655-.023-.243-.068-.466-.068-.731 0-.484.043-.982.12-1.486.016-.098.046-.2.06-.3.071-.38.157-.765.267-1.147.043-.167.103-.33.156-.494.102-.316.218-.635.348-.948a14.752 14.752 0 01.638-1.352c.334-.627.695-1.24 1.106-1.806.01-.013.016-.028.026-.04.06-.08.128-.15.185-.229.269-.351.545-.695.836-1.014.113-.122.236-.225.351-.342.249-.25.497-.493.76-.716.44-.37.892-.703 1.36-.977.317-.184.623-.306.927-.43.13-.053.263-.129.391-.17a5.051 5.051 0 011.082-.237c.085-.008.163.005.248 0 .251-.008.497 0 .728.038.17.028.326.088.487.139.193.068.397.116.572.22l-8.843-5.182a3.049 3.049 0 00-.221-.117c-.108-.05-.241-.063-.357-.103-.158-.051-.31-.112-.481-.14-.043-.007-.076-.03-.12-.035-.194-.025-.402-.01-.608-.002-.086.005-.163-.008-.251 0-.018.002-.035-.003-.058 0a5.115 5.115 0 00-.969.215c-.017.005-.035.017-.055.025-.125.04-.26.114-.389.167-.226.091-.451.17-.687.296-.078.043-.158.089-.241.134-.47.276-.926.612-1.368.984-.028.026-.063.04-.093.066-.213.182-.411.397-.615.6-.133.131-.268.25-.399.39-.338.369-.662.764-.968 1.176-.013.015-.028.03-.038.048l-.015.018c-.018.025-.03.053-.048.076-.404.564-.76 1.164-1.086 1.781-.043.081-.098.15-.14.23-.071.14-.124.286-.19.426a19.49 19.49 0 00-.308.703c-.048.109-.105.218-.148.33-.073.196-.125.394-.188.589a10.16 10.16 0 00-.16.49c-.02.079-.053.157-.076.236-.08.306-.133.61-.188.916-.018.104-.048.207-.063.311-.002.025-.01.05-.015.076-.07.476-.105.946-.103 1.404v.036c.003.3.048.564.08.837.02.165.02.355.05.509.056.283.154.524.244.772.045.116.065.255.118.364.118.256.274.463.43.67.05.066.084.158.14.218.22.253.474.463.752.625l6.47 3.793c-.67.418-1.34.85-2.018 1.245a78.277 78.277 0 01-2.81 1.551c-.42.223-.836.43-1.255.643a68.05 68.05 0 01-1.782.88c-.424.2-.846.39-1.267.583a67.624 67.624 0 01-2.986 1.255c-.58.225-1.16.44-1.735.648-.394.139-.79.28-1.18.412-.373.124-.742.23-1.11.347a54.671 54.671 0 01-4.23 1.146c-.05.013-.102.028-.152.04a45.625 45.625 0 01-4.191.699c-.284.038-.573.076-.854.104-1.365.144-2.71.222-4.028.227-.245.003-.489-.007-.732-.012a35.683 35.683 0 01-3.968-.25 34.268 34.268 0 01-2.587-.426c-.229-.05-.447-.116-.67-.17a30.372 30.372 0 01-1.762-.435c-.53-.154-1.041-.341-1.556-.524-.26-.088-.532-.164-.788-.263-.557-.212-1.1-.458-1.639-.7-.205-.092-.416-.17-.62-.266a30.015 30.015 0 01-2.2-1.167l8.843 5.182a29.64 29.64 0 002.214 1.174c.404.193.828.357 1.242.532.334.142.657.296.994.425.411.154.838.283 1.26.423.366.121.72.255 1.094.364.52.152 1.059.27 1.593.397.281.066.555.15.843.21.675.14 1.366.243 2.063.342.156.023.306.058.462.078.003.003.008.003.01.003a36.9 36.9 0 004.028.256c.238.002.47.012.71.01a40.58 40.58 0 004.056-.228c.115-.013.22-.008.336-.02.155-.016.316-.059.472-.079a45.582 45.582 0 004.233-.708c.025-.005.05-.013.073-.018a52.616 52.616 0 004.319-1.172c.17-.053.339-.083.51-.136.18-.061.368-.132.549-.195.417-.137.836-.289 1.255-.438a60.222 60.222 0 002.981-1.154 64.323 64.323 0 001.641-.71c.45-.203.899-.406 1.353-.62a75.045 75.045 0 001.699-.838c.44-.223.876-.44 1.315-.673.148-.079.291-.145.44-.223.78-.423 1.568-.863 2.358-1.323a85.844 85.844 0 003.488-2.151c.35-.226.696-.468 1.044-.701.8-.534 1.601-1.078 2.397-1.64.412-.296.82-.6 1.23-.9a96.802 96.802 0 003.436-2.64 101.85 101.85 0 002.087-1.72c.266-.223.535-.433.798-.659.103-.088.201-.19.304-.28a121.26 121.26 0 004.733-4.345c.246-.24.49-.478.733-.719a126.979 126.979 0 004.567-4.734c.216-.233.427-.47.64-.709a139.396 139.396 0 004.432-5.154c.158-.192.309-.387.464-.58a144.004 144.004 0 004.347-5.65.886.886 0 01.045-.055l.208-.302a148.828 148.828 0 002.864-4.104 155.614 155.614 0 003.523-5.46c.07-.114.143-.226.216-.342.94-1.541 1.85-3.107 2.738-4.684l.69-1.245a148.144 148.144 0 002.145-4.036c.113-.22.239-.432.35-.652.032-.061.06-.13.09-.19a152.688 152.688 0 003.079-6.49c.125-.287.256-.568.381-.853.944-2.149 1.825-4.31 2.655-6.48.07-.183.153-.363.224-.545.052-.144.098-.29.15-.438.7-1.867 1.358-3.742 1.97-5.62.128-.397.249-.786.374-1.181a133.034 133.034 0 001.687-5.744l.027-.104c.018-.066.03-.129.048-.197.49-1.868.921-3.73 1.315-5.592.083-.377.168-.757.243-1.134"/><path fill="#513689" d="M115.341 75.85l-8.843-5.182-25.814 15.028 8.844 5.179z"/><path fill="url(#time-f)" d="M80.578 47.934l-2.676 1.556a3.57 3.57 0 01-.491-.766c-.018-.033-.023-.079-.038-.114a4.945 4.945 0 01-.324-1.02c-.025-.127-.022-.276-.04-.407-.043-.314-.093-.623-.093-.975 0-.478.043-.971.118-1.47.02-.119.053-.238.073-.357.07-.359.148-.718.25-1.083.049-.177.114-.354.169-.53a13.452 13.452 0 01.635-1.59c.108-.23.22-.458.341-.68a15.28 15.28 0 011.125-1.84l.015-.026c.04-.05.082-.096.123-.146.283-.38.577-.744.89-1.083.128-.142.269-.264.402-.393.23-.232.462-.463.708-.668a9.73 9.73 0 011.365-.984c.324-.187.632-.311.943-.438.12-.048.249-.116.37-.16a5.02 5.02 0 011.078-.234c.093-.01.179.005.269 0 .248-.008.487 0 .713.04.168.028.318.084.477.137.198.066.404.119.582.222l-8.844-5.182a2.088 2.088 0 00-.223-.116c-.106-.05-.231-.063-.344-.101-.163-.056-.324-.114-.497-.145-.043-.007-.075-.03-.12-.035-.181-.02-.382-.008-.578-.003-.095.003-.185-.01-.28 0-.02.003-.038-.002-.058 0a5.12 5.12 0 00-.967.213c-.017.005-.037.018-.052.023-.118.04-.244.108-.364.16-.236.093-.467.174-.71.305l-.239.132c-.467.276-.92.61-1.36.98-.033.027-.065.042-.098.067-.226.198-.436.423-.652.638-.12.119-.244.225-.36.352a14.14 14.14 0 00-.968 1.176c-.015.02-.032.038-.048.056 0 .005-.002.008-.005.01-.01.013-.015.028-.025.043-.416.572-.78 1.19-1.114 1.82-.04.078-.1.149-.14.23-.073.142-.123.29-.191.433-.11.235-.216.468-.311.708-.048.109-.103.215-.146.326-.07.188-.12.375-.18.562-.06.18-.121.354-.174.532-.017.073-.05.149-.07.222-.075.289-.125.58-.178.866-.023.121-.055.245-.075.362-.003.025-.01.05-.013.073-.07.47-.105.941-.103 1.397v.035c.003.266.045.491.07.731.023.205.025.43.06.618.046.212.124.384.186.574.058.187.1.392.178.562.098.207.231.37.352.547.075.108.133.24.216.336.22.256.474.466.752.628l7.79 4.562-9.566 5.57.148 52.201 8.84 5.182-.142-52.202L89.42 53.12l-8.843-5.185z"/><path fill="#51357F" d="M26.424 137.263c-.096-.255-.196-.508-.256-.804-.06-.296-.075-.633-.096-.967-.007-.144-.037-.27-.037-.42 0-.478.04-.97.118-1.465.017-.13.055-.26.078-.392.067-.355.145-.716.248-1.076.05-.174.108-.344.168-.516.098-.304.206-.602.329-.9a16.189 16.189 0 01.642-1.364c.324-.618.683-1.22 1.09-1.785.02-.027.035-.055.055-.083.022-.033.05-.06.072-.091.3-.405.615-.787.947-1.146.105-.117.223-.213.33-.324a9.958 9.958 0 012.136-1.708c.32-.185.628-.309.934-.433.126-.053.259-.124.384-.167a5.043 5.043 0 011.074-.235c.095-.01.18.002.271 0a3.72 3.72 0 01.718.035c.168.028.321.089.477.14.198.065.404.116.58.22l-8.847-5.183a3.049 3.049 0 00-.22-.116c-.111-.05-.242-.063-.36-.104-.155-.05-.306-.111-.471-.137-.045-.007-.083-.033-.126-.038-.2-.025-.416-.01-.63-.002-.077.005-.148-.008-.226 0-.022.002-.04-.003-.06 0a5.072 5.072 0 00-.968.215c-.018.005-.038.018-.058.025-.126.04-.254.114-.382.165-.23.09-.456.17-.695.298-.08.043-.158.086-.238.134a9.83 9.83 0 00-1.36.977c-.035.025-.068.046-.103.074-.229.197-.442.425-.66.645-.116.116-.239.22-.347.341a13.79 13.79 0 00-.833 1.005c-.06.081-.13.154-.19.238a15.663 15.663 0 00-1.135 1.847c-.042.086-.105.16-.145.243-.078.15-.13.304-.204.455-.1.218-.198.433-.288.653-.048.117-.11.23-.153.35-.076.194-.126.394-.189.592-.057.167-.112.331-.163.5-.02.074-.05.147-.07.223-.08.309-.135.615-.19.921-.018.102-.048.203-.063.301-.005.028-.013.054-.018.079a9.976 9.976 0 00-.103 1.407c.003.3.048.526.073.769.02.205.023.43.06.617.045.213.123.385.183.575.06.187.103.392.181.559.098.21.228.375.351.552.076.106.133.24.216.334.224.253.477.463.756.627l8.84 5.182a3.07 3.07 0 01-.752-.627c-.03-.036-.05-.091-.083-.127a3.75 3.75 0 01-.487-.761c-.045-.099-.065-.223-.105-.327z"/><path fill="url(#time-g)" d="M25.83 189.864c-.289-.243-.563-.511-.846-.762-.45-.397-.909-.787-1.343-1.21-.308-.298-.595-.627-.893-.938-.39-.405-.788-.8-1.165-1.228-.303-.346-.584-.72-.878-1.08-.349-.425-.708-.838-1.044-1.28-.291-.388-.56-.805-.84-1.205-.314-.448-.638-.883-.94-1.346-.275-.433-.529-.893-.797-1.339-.279-.465-.567-.92-.836-1.404-.256-.47-.494-.97-.74-1.457-.249-.491-.507-.967-.746-1.473-.233-.509-.446-1.045-.67-1.569-.22-.514-.451-1.012-.657-1.543-.21-.537-.394-1.104-.59-1.655-.196-.547-.399-1.08-.582-1.643-.183-.569-.341-1.169-.512-1.756-.163-.569-.341-1.126-.492-1.713-.16-.61-.291-1.247-.434-1.872-.138-.595-.281-1.172-.404-1.777-.13-.637-.231-1.303-.344-1.956-.108-.622-.228-1.232-.321-1.867-.098-.665-.168-1.351-.251-2.032-.08-.655-.17-1.295-.236-1.963-.065-.689-.105-1.4-.158-2.1-.05-.689-.113-1.365-.146-2.065-.037-.711-.045-1.445-.065-2.172-.02-.792-.055-1.57-.058-2.378-.005-1.427.028-2.862.08-4.31.02-.498.06-1.004.084-1.505.052-.951.1-1.9.175-2.857.045-.59.11-1.179.163-1.766.083-.883.166-1.766.269-2.65.07-.617.153-1.237.236-1.851.098-.767.203-1.534.318-2.303.334-2.217.726-4.446 1.18-6.683.09-.445.188-.893.284-1.341.486-2.28 1.013-4.565 1.616-6.85.662-2.51 1.367-4.868 2.113-7.221.135-.428.266-.858.406-1.288.74-2.275 1.536-4.545 2.382-6.807.148-.392.301-.785.454-1.18a172.995 172.995 0 013.182-7.773c.153-.344.314-.688.467-1.035a184.77 184.77 0 013.699-7.8c.163-.322.334-.641.5-.96a182.32 182.32 0 012.604-4.894c.274-.498.545-.994.823-1.487 1.067-1.89 2.156-3.77 3.283-5.62.1-.162.206-.322.304-.484a189.688 189.688 0 014.22-6.53 175.958 175.958 0 013.356-4.81c.128-.178.25-.358.376-.535a172.28 172.28 0 015.17-6.71c.206-.258.407-.52.615-.775a164.47 164.47 0 015.26-6.113c.278-.311.557-.625.84-.934a152.443 152.443 0 016.367-6.54 138.263 138.263 0 015.632-5.175c.459-.398.92-.785 1.383-1.177a124.92 124.92 0 014.025-3.267c.833-.645 1.671-1.278 2.512-1.898.52-.38 1.036-.764 1.558-1.136.921-.653 1.847-1.28 2.776-1.9.45-.301.896-.612 1.348-.903a100.78 100.78 0 014.17-2.574 97.5 97.5 0 013.358-1.855c.52-.275 1.037-.534 1.554-.797a97.482 97.482 0 012.108-1.037c.512-.243 1.021-.47 1.53-.701a95.36 95.36 0 012.076-.9 78.179 78.179 0 013.568-1.38c.49-.172.977-.347 1.458-.509a74.432 74.432 0 012.334-.726c.322-.093.645-.197.964-.286a61.17 61.17 0 013.3-.825 60.49 60.49 0 013.207-.6c.334-.052.668-.093 1.002-.138.72-.102 1.44-.193 2.15-.264.394-.038.783-.068 1.172-.098a62.63 62.63 0 012.003-.11c.371-.012.743-.024 1.11-.03.714-.007 1.422.01 2.122.036.296.013.595.013.889.03.988.056 1.97.14 2.93.26.262.036.515.092.774.132.765.112 1.528.226 2.273.378 1.155.255 2.056.473 2.934.73 1.19.37 2.013.638 2.82.947.375.142.733.316 1.1.468.537.228 1.079.44 1.601.691.898.428 1.777.893 2.632 1.394l-8.843-5.182a36.76 36.76 0 00-2.61-1.384 33.336 33.336 0 00-2.467-1.06c-1.15-.45-2.073-.76-3.014-1.035a36.75 36.75 0 00-5.27-1.129c-.261-.038-.512-.096-.775-.129a41.216 41.216 0 00-2.932-.263c-.29-.018-.59-.018-.883-.03a45.59 45.59 0 00-2.126-.033c-.368.002-.74.015-1.109.03a45.142 45.142 0 00-3.177.208c-.25.022-.492.035-.743.063-.456.05-.928.129-1.393.195-.338.045-.677.088-1.02.141-.982.16-1.973.342-2.972.555a59.711 59.711 0 00-3.519.868c-.333.09-.67.2-1.006.298-.542.16-1.079.306-1.626.483-.216.071-.44.157-.66.228-.495.167-.991.344-1.49.521a73.558 73.558 0 00-3.554 1.374c-.688.289-1.38.587-2.073.899-.507.23-1.014.46-1.529.698a89.76 89.76 0 00-2.113 1.045c-.517.26-1.031.516-1.548.795-.176.09-.346.17-.522.263a101.14 101.14 0 00-2.836 1.589c-1.403.817-2.79 1.678-4.17 2.573-.455.291-.904.605-1.356.906-.923.618-1.847 1.243-2.763 1.893-.527.377-1.049.764-1.573 1.151a117.565 117.565 0 00-6.548 5.172c-.326.276-.66.532-.983.813-.126.108-.246.227-.37.336a141.189 141.189 0 00-5.656 5.198 153.557 153.557 0 00-6.362 6.539c-.276.3-.547.606-.823.91a163.236 163.236 0 00-5.275 6.136c-.2.246-.396.499-.597.744a172.28 172.28 0 00-5.202 6.761 192.69 192.69 0 00-3.725 5.332c-.328.488-.657.977-.98 1.47a182.39 182.39 0 00-3.21 5.018c-.106.172-.219.344-.324.516a190.801 190.801 0 00-3.27 5.592c-.286.509-.567 1.022-.85 1.534a188.414 188.414 0 00-2.566 4.822c-.135.264-.283.524-.419.787a194.554 194.554 0 00-3.822 8.06c-.143.324-.293.647-.434.971a171.786 171.786 0 00-3.187 7.771c-.088.228-.193.453-.279.68-.07.186-.125.37-.193.552a171.112 171.112 0 00-2.364 6.749c-.143.45-.28.9-.424 1.349a153.02 153.02 0 00-2.07 7.062 145.252 145.252 0 00-1.657 7.022c-.09.425-.183.85-.268 1.275-.457 2.247-.85 4.486-1.187 6.718-.173 1.104-.239 1.68-.314 2.26-.083.63-.17 1.26-.243 1.888-.103.89-.186 1.778-.266 2.662-.056.579-.116 1.156-.163 1.733-.078 1.012-.131 2.02-.184 3.024-.022.443-.055.89-.072 1.33A105.452 105.452 0 000 139.9c.005 1.093.04 1.728.058 2.38.02.724.028 1.458.063 2.17.035.7.095 1.373.145 2.062.053.7.093 1.414.158 2.102.068.673.158 1.321.239 1.982.08.673.153 1.353.25 2.009.094.65.217 1.273.327 1.908.11.64.21 1.29.334 1.918.125.617.276 1.207.414 1.814.14.612.27 1.237.424 1.835.153.587.329 1.143.497 1.715.168.587.329 1.187.512 1.759.178.559.384 1.093.577 1.637.196.554.384 1.118.592 1.657.211.534.442 1.043.665 1.564.221.516.432 1.048.665 1.551.239.511.502.995.753 1.49.244.479.474.972.73 1.435.271.491.563.954.849 1.427.26.438.514.894.788 1.316.298.466.622.901.936 1.349.28.4.552.817.843 1.207.341.45.705.87 1.059 1.303.289.352.565.716.863 1.055.382.435.786.835 1.182 1.248.294.306.575.627.876.92.447.434.916.836 1.383 1.246.268.238.53.493.805.723.535.443 1.095.85 1.65 1.26.225.165.44.35.67.51a34.63 34.63 0 002.441 1.568l8.841 5.182a35.133 35.133 0 01-2.442-1.569c-.236-.164-.461-.359-.697-.531-.545-.402-1.094-.802-1.621-1.237z"/><g transform="translate(8.427 4.343)"><mask id="time-j" fill="#fff"><use xlink:href="#time-h"/></mask><path fill="url(#time-i)" d="M75.092 169.226c-34.193 19.904-62.1 3.869-62.21-35.747-.113-39.613 27.613-88.034 61.806-107.938 34.192-19.904 62.098-3.87 62.21 35.744.11 39.615-27.614 88.037-61.806 107.941m-.447-158.129C33.58 35.004.282 93.157.415 140.737c.135 47.58 33.65 66.837 74.717 42.932 41.066-23.907 74.363-82.06 74.233-129.639-.136-47.591-33.659-66.835-74.72-42.933" mask="url(#time-j)"/></g><path fill="url(#time-k)" d="M83.462 153.65c-3.443 2.003-6.221 6.86-6.214 10.85.013 3.99 2.811 5.597 6.257 3.593 3.443-2.007 6.221-6.858 6.208-10.85-.01-3.991-2.808-5.598-6.25-3.594"/><path fill="url(#time-l)" d="M134.344 64.787c-3.443 2.007-6.223 6.86-6.213 10.85.01 3.99 2.81 5.597 6.253 3.593 3.428-1.996 6.224-6.86 6.212-10.85-.01-3.99-2.824-5.59-6.252-3.593"/><path fill="url(#time-m)" d="M89.528 90.877l-.106-37.759-12.465 7.255.146 52.202 38.281-22.28-.043-14.444z"/><path fill="url(#time-n)" d="M32.25 124.221c-3.446 2.007-6.224 6.86-6.217 10.85.013 3.99 2.81 5.6 6.256 3.594 3.446-2.007 6.224-6.86 6.212-10.85-.013-3.991-2.809-5.598-6.252-3.594"/><path fill="url(#time-o)" d="M83.17 49.802c3.444-2.004 6.224-6.86 6.214-10.85-.012-3.97-2.813-5.597-6.256-3.593-3.443 2.006-6.221 6.877-6.211 10.85.012 3.99 2.808 5.597 6.254 3.593"/></g></g></svg>