<svg xmlns="http://www.w3.org/2000/svg" xmlns:xlink="http://www.w3.org/1999/xlink" width="475" height="340" viewBox="0 0 475 340">
  <defs>
    <linearGradient id="time-a" x1="55.91%" x2="64.677%" y1="39.657%" y2="66.29%">
      <stop offset="0%" stop-color="#240A49"/>
      <stop offset="100%" stop-color="#352054"/>
    </linearGradient>
    <polygon id="time-b" points=".001 .539 170.772 .539 170.772 216.099 .001 216.099"/>
    <filter id="time-d" width="223.9%" height="199%" x="-61.9%" y="-49.5%" filterUnits="objectBoundingBox">
      <feOffset dx="-29" dy="7" in="SourceAlpha" result="shadowOffsetOuter1"/>
      <feGaussianBlur in="shadowOffsetOuter1" result="shadowBlurOuter1" stdDeviation="11"/>
      <feColorMatrix in="shadowBlurOuter1" result="shadowMatrixOuter1" values="0 0 0 0 0   0 0 0 0 0   0 0 0 0 0  0 0 0 0.12 0"/>
      <feMerge>
        <feMergeNode in="shadowMatrixOuter1"/>
        <feMergeNode in="SourceGraphic"/>
      </feMerge>
    </filter>
    <linearGradient id="time-e" x1="78.294%" x2="78.294%" y1="100%" y2="-4.997%">
      <stop offset="0%" stop-color="#543369"/>
      <stop offset="100%" stop-color="#3C2F83"/>
    </linearGradient>
    <linearGradient id="time-f" x1="78.294%" x2="78.294%" y1="200.094%" y2="-8.721%">
      <stop offset="0%" stop-color="#583270"/>
      <stop offset="100%" stop-color="#3A2D80"/>
    </linearGradient>
    <linearGradient id="time-g" x1="78.294%" x2="78.294%" y1="100%" y2="6.904%">
      <stop offset="0%" stop-color="#533169"/>
      <stop offset="100%" stop-color="#3E3188"/>
    </linearGradient>
    <polygon id="time-h" points=".415 .827 149.364 .827 149.364 193.939 .415 193.939"/>
    <linearGradient id="time-i" x1="78.294%" x2="78.294%" y1="100%" y2="0%">
      <stop offset="0%" stop-color="#884FAC"/>
      <stop offset="100%" stop-color="#644FD9"/>
    </linearGradient>
    <linearGradient id="time-k" x1="50%" x2="79.718%" y1="273.924%" y2="-833.239%">
      <stop offset="0%" stop-color="#884FAC"/>
      <stop offset="100%" stop-color="#644FD9"/>
    </linearGradient>
    <linearGradient id="time-l" x1="-5.203%" x2="20.27%" y1="765.994%" y2="-322.815%">
      <stop offset="0%" stop-color="#884FAC"/>
      <stop offset="100%" stop-color="#644FD9"/>
    </linearGradient>
    <linearGradient id="time-m" x1="78.294%" x2="78.294%" y1="233.22%" y2="-77.922%">
      <stop offset="0%" stop-color="#884FAC"/>
      <stop offset="100%" stop-color="#644FD9"/>
    </linearGradient>
    <linearGradient id="time-n" x1="50%" x2="79.726%" y1="468.737%" y2="-618.511%">
      <stop offset="0%" stop-color="#884FAC"/>
      <stop offset="100%" stop-color="#644FD9"/>
    </linearGradient>
    <linearGradient id="time-o" x1="50%" x2="50%" y1="988.662%" y2="-75.798%">
      <stop offset="0%" stop-color="#884FAC"/>
      <stop offset="100%" stop-color="#644FD9"/>
    </linearGradient>
  </defs>
  <g fill="none" fill-rule="evenodd">
    <path fill="url(#time-a)" d="M460.097079,183.424598 L196.26939,331.134523 L196.26939,331.134523 C176.398679,342.68274 144.096168,342.689144 124.082986,331.134523 L15.0760295,263.133244 C-4.9259465,251.588228 -5.04120399,232.861994 14.8279058,221.313776 L49.6996982,201.050768 C61.6392002,194.112472 135.422085,153.985418 271.048352,80.6696056 C300.210789,64.9051987 335.404441,65.1254569 364.367279,81.2536392 L460.040891,134.530237 C473.55136,142.053647 478.40483,159.104974 470.88142,172.615443 C468.357433,177.147995 464.623819,180.890201 460.097079,183.424598 Z" opacity=".6"/>
    <g transform="translate(127)">
      <path fill="#FDFDFD" stroke="#341D55" stroke-width="3" d="M71.46576,98.9339917 L71.56566,134.447257 L98.29026,101.23005 L71.46576,98.9339917 L71.46576,98.9339917 Z M69.54336,96.2165394 L102.11886,99.0177303 L69.66486,139.37973 L69.54336,96.2165394 Z"/>
      <g transform="translate(0 .362)">
        <mask id="time-c" fill="#fff">
          <use xlink:href="#time-b"/>
        </mask>
        <path fill="#341D55" d="M165.013759,115.066816 L164.71674,9.75608589 C164.71134,8.12993651 163.56924,7.47893651 162.15444,8.29741369 L8.30034,97.1656668 C6.88824,97.9814427 5.73804,99.9560527 5.74073526,101.582202 L6.03774,206.892932 C6.04314,208.519082 7.20414,209.178185 8.61624,208.36241 L162.47034,119.494156 C163.88514,118.675679 165.01914,116.692966 165.013759,115.066816 L165.013759,115.066816 Z M162.13824,1.67666266 C166.72284,-0.970557261 170.45964,1.15802365 170.47314,6.42815228 L170.772877,111.741584 C170.78634,117.011712 167.07384,123.443376 162.48924,126.090596 L8.63514,214.958849 C4.05054,217.608771 0.31374,215.48019 0.30024,210.210061 L0.000503271625,104.896629 C-0.01296,99.6265008 3.69684,93.1948369 8.28144,90.547617 L162.13824,1.67666266 Z" mask="url(#time-c)"/>
      </g>
      <g filter="url(#time-d)" transform="translate(76 59)">
        <path fill="url(#time-e)" d="M143.240387,85.5389219 C143.616819,83.668967 143.94557,81.8040729 144.22413,79.9493003 C144.241697,79.8101291 144.276831,79.6734883 144.296907,79.5343171 C144.324512,79.3571901 144.332041,79.1800632 144.354627,79.0004058 C144.650754,76.8951251 144.889161,74.7999659 145.049773,72.7225194 C145.067339,72.5124974 145.072359,72.3024754 145.087416,72.0924534 C145.237989,69.9163219 145.330842,67.7579031 145.323739,65.6273186 C145.323739,65.5083904 145.323739,65.3869319 145.320804,65.2654734 C145.315785,64.7340925 145.28818,64.2229546 145.275632,63.6991648 C145.260575,63.07669 145.253046,62.446624 145.220422,61.8368011 C145.190307,61.2396301 145.140116,60.6627023 145.094945,60.0756528 C145.054792,59.5113769 145.022168,58.934449 144.966957,58.3802946 C144.909238,57.7805932 144.831442,57.2036653 144.756155,56.6166159 C144.693416,56.0953565 144.640716,55.5665059 144.565429,55.0578984 C144.477595,54.470849 144.369684,53.906573 144.269302,53.3321755 C144.183978,52.8463415 144.108691,52.350386 144.013328,51.8721431 C143.897889,51.3053368 143.759864,50.7562431 143.631876,50.2020887 C143.526475,49.7466193 143.431112,49.2810284 143.315673,48.8356805 C143.172629,48.2764654 143.004489,47.742554 142.846387,47.2035819 C142.723419,46.7835379 142.610489,46.3559028 142.477483,45.9459803 C142.304324,45.4019475 142.10607,44.880688 141.915344,44.3518375 C141.777318,43.9697493 141.649331,43.5750091 141.506287,43.2030425 C141.305523,42.6843135 141.082173,42.1934187 140.863842,41.6949327 C140.70825,41.3305572 140.562696,40.9585906 140.397066,40.606867 C140.171206,40.1260937 139.92778,39.668094 139.689372,39.202503 C139.513704,38.8583706 139.345564,38.4990559 139.159857,38.165045 C138.911412,37.7146364 138.64289,37.2870012 138.379387,36.8517749 C138.183642,36.5278856 138.000445,36.1938747 137.799681,35.8801069 C137.52614,35.4550022 137.230013,35.0577316 136.943924,34.65287 C136.733122,34.3517541 136.532357,34.0405167 136.316536,33.7520527 C136.022919,33.3649038 135.711734,33.0030586 135.408079,32.6336223 C135.174691,32.3502192 134.95385,32.0566945 134.715443,31.7859432 C134.404258,31.4316892 134.072998,31.1052695 133.751775,30.7661979 C133.498311,30.5055682 133.257394,30.2322865 132.99891,29.979248 C132.655102,29.6427067 132.291217,29.3365301 131.932351,29.0202319 C131.681396,28.7950276 131.43546,28.554641 131.174467,28.3420886 C130.780467,28.0131385 130.363882,27.7120226 129.954825,27.405846 C129.716418,27.228719 129.490558,27.0364097 129.247132,26.8668739 C128.58712,26.4038133 127.909541,25.9660566 127.214396,25.5611949 C124.268183,23.8329417 121.321971,22.1072188 118.373249,20.3789655 C119.065885,20.7863576 119.743463,21.2215839 120.403475,21.6846444 C120.659449,21.8617714 120.900366,22.0667326 121.148812,22.2539811 C121.545321,22.5500362 121.949358,22.8385002 122.33332,23.1573287 C122.614389,23.3901242 122.882911,23.6507539 123.156452,23.8962013 C123.490222,24.1947868 123.834031,24.4807204 124.157763,24.7970185 C124.438833,25.0728306 124.699826,25.371416 124.975876,25.6573496 C125.274513,25.9711174 125.580678,26.2722333 125.869277,26.6011834 C126.145327,26.9149512 126.401301,27.2540228 126.667314,27.5829729 C126.935836,27.9093927 127.209377,28.2256909 127.46786,28.5647625 C127.726344,28.9088949 127.967261,29.2808616 128.218216,29.6351156 C128.461642,29.9893695 128.715107,30.3284412 128.951005,30.6928167 C129.186903,31.0597226 129.405233,31.4494019 129.631093,31.8289598 C129.859462,32.211048 130.097869,32.5804843 130.313691,32.9777548 C130.527003,33.3649038 130.720238,33.7748262 130.923512,34.1746271 C131.134314,34.5870799 131.352645,34.9894112 131.550899,35.414516 C131.739116,35.821908 131.904746,36.2495432 132.085434,36.6670568 C132.278669,37.1124046 132.479433,37.5501613 132.657611,38.0106915 C132.825751,38.4383266 132.968795,38.8862049 133.126897,39.3214312 C133.295037,39.799674 133.473215,40.2627346 133.631317,40.7536293 C133.776871,41.1989772 133.897329,41.6620377 134.030335,42.1175071 C134.178399,42.6261146 134.336501,43.1271309 134.472016,43.6509207 C134.587456,44.1038597 134.685328,44.5770418 134.793239,45.0401023 C134.921226,45.589196 135.054232,46.1306985 135.167162,46.692444 C135.262525,47.158035 135.337811,47.6413386 135.420627,48.1170511 C135.523518,48.7041005 135.633938,49.2835588 135.721773,49.8807297 C135.78953,50.3437903 135.837212,50.8220331 135.897441,51.2952152 C135.975237,51.9328724 136.065581,52.5654687 136.12832,53.2183082 C136.170982,53.6687168 136.193568,54.1393685 136.231211,54.5973683 C136.286422,55.2932243 136.344141,55.9840195 136.381784,56.6975882 C136.399351,57.1353449 136.40437,57.5933447 136.419428,58.0412229 C136.444523,58.8357639 136.477147,59.630305 136.479657,60.4450891 C136.482166,61.2725252 136.40939,62.1202043 136.389313,62.9527011 L129.932239,59.1723052 C129.861972,59.1267583 129.789195,59.0913329 129.708889,59.0533771 C129.598469,59.0027694 129.467972,58.9901175 129.350023,58.9496313 C129.191922,58.8964932 129.038839,58.8382943 128.870699,58.8104601 C128.828037,58.8028689 128.792903,58.7800955 128.750241,58.7750347 C128.562024,58.7497308 128.36126,58.7674435 128.160496,58.7725043 C128.070152,58.7775651 127.984828,58.7623828 127.889465,58.7725043 C127.866879,58.7750347 127.849312,58.7699739 127.829236,58.7725043 C127.518051,58.8079297 127.196829,58.8787805 126.865568,58.9850567 C126.848001,58.9901175 126.825415,59.0027694 126.807848,59.0103605 C126.692409,59.0457859 126.571951,59.1141063 126.456511,59.1596533 C126.218104,59.2558079 125.982206,59.3393106 125.73627,59.4708907 C125.658474,59.5139072 125.578169,59.5569238 125.500373,59.6050011 C125.028577,59.8782828 124.574348,60.2173544 124.132667,60.5893211 C124.102553,60.6120945 124.067419,60.6298072 124.039814,60.6551111 C123.829012,60.8372988 123.633267,61.0498512 123.427484,61.2497517 C123.294477,61.3838621 123.153943,61.5053206 123.023446,61.6470222 C122.739867,61.9557292 122.473854,62.2897401 122.210352,62.6313422 C122.145103,62.7173753 122.072326,62.7958172 122.007078,62.8818503 C122.004568,62.8843807 122.004568,62.8869111 122.002059,62.8894415 C121.99453,62.899563 121.989511,62.9122149 121.981982,62.9223365 C121.567907,63.4916732 121.209041,64.1014961 120.875271,64.7290317 C120.830099,64.8150648 120.769869,64.888446 120.724698,64.9744791 C120.651921,65.1212415 120.59922,65.2730646 120.528953,65.4198269 C120.421042,65.6475616 120.32066,65.8752963 120.227807,66.103031 C120.182635,66.214368 120.124915,66.3206442 120.082253,66.4319811 C120.011985,66.6192297 119.964304,66.8090086 119.901565,66.9987875 C119.843845,67.1733841 119.781106,67.3505111 119.730915,67.5251077 C119.710839,67.5984888 119.678215,67.67187 119.660648,67.7477816 C119.582852,68.0337151 119.54019,68.3145879 119.484979,68.5979911 C119.459884,68.7270408 119.42475,68.8586208 119.404674,68.9902008 C119.402164,69.0104439 119.394636,69.030687 119.392126,69.0483997 C119.321859,69.5266426 119.286725,69.9947639 119.286725,70.455294 L119.286725,70.4907194 C119.289235,70.7943657 119.336916,71.0575258 119.36954,71.3333378 C119.389617,71.4978129 119.387107,71.682531 119.419731,71.8394149 C119.474941,72.1202877 119.572814,72.3632047 119.663158,72.6111825 C119.70833,72.7275802 119.730915,72.864221 119.781106,72.9730276 C119.899055,73.2285965 120.054648,73.4360881 120.21024,73.6435797 C120.26294,73.7093698 120.295564,73.7979332 120.353284,73.8611929 C120.574125,74.1142314 120.82508,74.3242534 121.106149,74.4887285 L129.949806,79.6709579 C129.671246,79.5064829 129.417781,79.2964609 129.194431,79.0434223 C129.111616,78.9497981 129.056406,78.8156876 128.97861,78.7094115 C128.858151,78.5297541 128.725145,78.3678094 128.627273,78.1577874 C128.549477,77.9933124 128.506814,77.7858208 128.446585,77.5985722 C128.386356,77.4087933 128.30856,77.2367271 128.263388,77.0241747 C128.228254,76.8369262 128.225745,76.6117219 128.203159,76.4067607 C128.175554,76.1511917 128.130382,75.9133355 128.130382,75.6375235 C128.130382,75.1542199 128.173044,74.6582643 128.248331,74.157248 C128.265897,74.045911 128.298522,73.9345741 128.318598,73.8232371 C128.386356,73.4563312 128.466662,73.0843645 128.572063,72.7149283 C128.624763,72.5352709 128.684992,72.3606743 128.745222,72.1835473 C128.843094,71.8824314 128.951005,71.5813156 129.071463,71.2827301 C129.166826,71.052465 129.269718,70.8272607 129.375119,70.599526 C129.48303,70.3692609 129.595959,70.1415262 129.716418,69.9163219 C130.050188,69.2887863 130.411563,68.676433 130.825639,68.1070963 C130.835677,68.091914 130.843206,68.0767317 130.853244,68.0640798 C130.900926,67.9957594 130.958645,67.9375605 131.008836,67.8743009 C131.284887,67.5048646 131.573485,67.1480802 131.877141,66.8191301 C131.982542,66.7052628 132.095472,66.6116385 132.203383,66.5028319 C132.456847,66.2422022 132.715331,65.9866333 132.986362,65.761429 C133.425534,65.3945231 133.877253,65.0579818 134.344029,64.7872306 C134.67278,64.5974517 134.988984,64.468402 135.302678,64.3418827 C135.418117,64.2938054 135.538575,64.2280154 135.651505,64.1900596 C135.892422,64.1116177 136.118282,64.0837834 136.34916,64.0382365 C136.311517,64.9719487 136.311517,65.8955394 136.248778,66.8393732 C136.231211,67.0848206 136.221173,67.330268 136.201097,67.5757154 C136.045505,69.6202668 135.809607,71.682531 135.521009,73.7574471 C135.470818,74.1091707 135.425646,74.4608942 135.372945,74.8151482 C135.096894,76.6572688 134.770653,78.509511 134.39422,80.3668139 C134.318934,80.7337198 134.238628,81.1006257 134.160832,81.4675316 C133.759304,83.36026 133.320133,85.2605794 132.820732,87.1608989 C132.805675,87.2089763 132.795636,87.2621144 132.780579,87.3127221 C132.263612,89.26871 131.678886,91.2221676 131.061537,93.1756252 C130.946098,93.5425311 130.833168,93.9119674 130.712709,94.2814037 C130.100379,96.1564193 129.445386,98.0314349 128.747731,99.8988594 C128.614725,100.250583 128.47419,100.604837 128.341184,100.959091 C127.515542,103.109919 126.642218,105.255685 125.706156,107.38627 C125.580678,107.672204 125.447672,107.958137 125.317175,108.246601 C124.34347,110.432854 123.319573,112.606455 122.230428,114.757283 C122.102441,115.007791 121.969435,115.255769 121.841448,115.508807 C121.136264,116.887867 120.405985,118.254276 119.660648,119.610562 C119.429769,120.028076 119.198891,120.44812 118.965503,120.863103 C118.079631,122.437003 117.171174,124.000781 116.230092,125.544316 C116.159825,125.658184 116.087048,125.769521 116.014271,125.883388 C115.128399,127.330768 114.212413,128.752845 113.28137,130.1648 C113.020377,130.554479 112.759384,130.944159 112.49839,131.333838 C111.54978,132.740732 110.581094,134.132445 109.589821,135.501383 C109.519554,135.597538 109.451796,135.698753 109.381528,135.794908 C107.978689,137.720531 106.528169,139.593016 105.047534,141.430076 C104.881904,141.635037 104.716274,141.845059 104.550643,142.050021 C103.122709,143.798517 101.654622,145.496406 100.158929,147.156339 C99.9280508,147.411907 99.6996817,147.670007 99.468803,147.920515 C97.9906776,149.537431 96.4799281,151.098679 94.9440831,152.61438 C94.6881089,152.864888 94.4321347,153.115396 94.173651,153.365904 C92.6252582,154.863893 91.0542795,156.311273 89.4531861,157.700455 C89.0918108,158.016753 88.7203973,158.32546 88.3540029,158.634167 C87.6638765,159.216156 86.97375,159.790553 86.2786045,160.347238 C85.8494713,160.693901 85.4178286,161.032972 84.9861858,161.369514 C84.2810021,161.918607 83.5707992,162.452519 82.8555773,162.978839 C82.4339728,163.290076 82.0123683,163.601314 81.5882542,163.90496 C80.812803,164.454054 80.0323327,164.982904 79.2518625,165.504164 C78.8829585,165.749611 78.5190737,166.00518 78.1501697,166.245567 C77.9694821,166.359434 77.7837753,166.46318 77.6030877,166.579577 C77.5830112,166.523909 77.5654444,166.46318 77.545368,166.404981 C77.4926674,166.230384 77.4198904,166.076031 77.3822472,165.886252 C77.3420944,165.686351 77.3395848,165.448495 77.3169989,165.230882 C77.2944129,164.987965 77.249241,164.765291 77.249241,164.499601 C77.249241,164.016297 77.2919034,163.517811 77.3696994,163.014264 C77.3847567,162.915579 77.4148713,162.814364 77.4299287,162.713148 C77.5001961,162.333591 77.5855208,161.948972 77.695941,161.566884 C77.7386034,161.399878 77.7988326,161.237934 77.8515332,161.073459 C77.9544248,160.75716 78.0698641,160.438332 78.2003607,160.124564 C78.288195,159.906951 78.3860675,159.691868 78.48394,159.479316 C78.5968697,159.238929 78.7148186,159.006134 78.8377866,158.773338 C79.1715568,158.145803 79.5329321,157.533449 79.9444985,156.966643 C79.9545367,156.953991 79.9595558,156.938809 79.969594,156.926157 C80.0298232,156.847715 80.0975811,156.776864 80.1553007,156.698422 C80.4238227,156.346699 80.6998732,156.002566 80.9909811,155.683738 C81.1039109,155.562279 81.2268789,155.458533 81.3423182,155.342136 C81.5907637,155.091627 81.8392093,154.84871 82.1027121,154.626036 C82.5418835,154.2566 82.9936026,153.922589 83.4628886,153.649308 C83.779092,153.46459 84.0852571,153.343131 84.3889128,153.219142 C84.5194094,153.166004 84.6524156,153.090092 84.7804027,153.049606 C85.1543257,152.925617 85.5131915,152.847175 85.862019,152.81175 C85.9473438,152.804159 86.0251398,152.816811 86.1104646,152.81175 C86.3614196,152.804159 86.6073556,152.81175 86.8382343,152.849706 C87.0088837,152.87754 87.1644759,152.938269 87.3250871,152.988877 C87.5183225,153.057197 87.7215961,153.105275 87.8972647,153.209021 L79.053608,148.026791 C78.9833405,147.986305 78.908054,147.945819 78.8327675,147.910393 C78.7248568,147.859786 78.5918506,147.847134 78.4764113,147.806648 C78.3183096,147.75604 78.165227,147.695311 77.9945776,147.667476 C77.9519152,147.659885 77.919291,147.637112 77.8741191,147.632051 C77.6808837,147.606747 77.472591,147.621929 77.2668079,147.629521 C77.1814831,147.634581 77.1036871,147.621929 77.0158528,147.629521 C76.9982859,147.632051 76.9807191,147.62699 76.9581331,147.629521 C76.6469488,147.667476 76.3232168,147.735797 75.9894465,147.844603 C75.9718797,147.849664 75.9543128,147.862316 75.9342364,147.869907 C75.8087589,147.910393 75.6732432,147.983775 75.5452561,148.036913 C75.3193965,148.128007 75.0935369,148.206449 74.8576392,148.332968 C74.7798431,148.375984 74.6995375,148.421531 74.6167223,148.467078 C74.1474363,148.74289 73.6906981,149.079432 73.2490172,149.451398 C73.2214121,149.476702 73.1862784,149.491884 73.1561638,149.517188 C72.942852,149.699376 72.7445975,149.914459 72.5413239,150.11689 C72.4083177,150.24847 72.2728019,150.367398 72.1423053,150.506569 C71.803516,150.876005 71.4797839,151.270745 71.1736187,151.683198 C71.161071,151.69838 71.1460137,151.713563 71.1359755,151.731275 C71.1309564,151.736336 71.1259373,151.743927 71.1209182,151.748988 C71.1033513,151.774292 71.0908036,151.802126 71.0732367,151.8249 C70.669199,152.389176 70.3128428,152.988877 69.9866012,153.606291 C69.9439389,153.687263 69.8887288,153.755584 69.8460664,153.836556 C69.775799,153.975727 69.7230984,154.12249 69.6578501,154.261661 C69.5499394,154.496987 69.4445383,154.729782 69.3491754,154.965108 C69.3014939,155.073915 69.2437742,155.182721 69.2011119,155.294058 C69.1283349,155.491428 69.0756343,155.688798 69.0128956,155.883638 C68.9551759,156.048113 68.8999658,156.212588 68.8522843,156.374533 C68.8322079,156.452975 68.7995838,156.531417 68.7769978,156.609859 C68.6966922,156.916035 68.6439916,157.219682 68.5887815,157.525858 C68.5712146,157.629604 68.5411,157.73335 68.5260427,157.837096 C68.5235332,157.862399 68.5160045,157.887703 68.5109854,157.913007 C68.440718,158.38872 68.4055843,158.859371 68.4080938,159.317371 L68.4080938,159.352797 C68.4106034,159.653912 68.4557753,159.917072 68.4883995,160.190354 C68.5084759,160.354829 68.5084759,160.544608 68.5385905,160.698962 C68.5938006,160.982365 68.6916731,161.222751 68.7820169,161.470729 C68.8271888,161.587127 68.8472652,161.726298 68.8999658,161.835105 C69.0179147,162.090674 69.1735068,162.298165 69.329099,162.505657 C69.37929,162.571447 69.4144237,162.662541 69.4696338,162.72327 C69.6904743,162.976309 69.9439389,163.186331 70.222499,163.348275 L76.6921207,167.141323 C76.0220707,167.558837 75.3520207,167.991533 74.674442,168.386273 C73.7308509,168.935366 72.797298,169.443974 71.8637452,169.937399 C71.4446502,170.160073 71.0280648,170.367564 70.6089698,170.580117 C70.0116967,170.883763 69.4169332,171.182349 68.8271888,171.460691 C68.4030747,171.660591 67.9814702,171.85037 67.5598657,172.04268 C66.9801595,172.300779 66.4029628,172.553818 65.8257662,172.791674 C65.4066712,172.96627 64.9900858,173.133276 64.5735003,173.297751 C63.9937941,173.522955 63.4140879,173.738038 62.8394008,173.94553 C62.4454013,174.084701 62.0488923,174.226402 61.659912,174.357982 C61.2859889,174.481971 60.917085,174.588247 60.548181,174.704645 C59.1177371,175.147463 57.7073696,175.542203 56.3195881,175.85091 C56.269397,175.863562 56.2166965,175.878744 56.1665055,175.891396 C54.7435902,176.202633 53.3507896,176.420247 51.9755558,176.589782 C51.6919765,176.627738 51.4033782,176.665694 51.1223085,176.693528 C49.7571129,176.83776 48.4119938,176.916202 47.0944796,176.921263 C46.8485437,176.923793 46.6051172,176.913672 46.3616908,176.908611 C45.0115525,176.890898 43.6840002,176.820047 42.3940911,176.658103 C41.5182579,176.549296 40.6549725,176.405064 39.8067444,176.232998 C39.5783752,176.18239 39.3600443,176.1166 39.1366943,176.063462 C38.5419308,175.929352 37.9521864,175.795241 37.3749897,175.628236 C36.8454745,175.473882 36.3335262,175.286634 35.8190683,175.104446 C35.558075,175.015883 35.2870435,174.939971 35.0310694,174.841286 C34.4739491,174.628734 33.9318861,174.383286 33.3923327,174.140369 C33.1865496,174.049275 32.9757473,173.970833 32.7724737,173.874679 C32.0221181,173.517894 31.2893292,173.125685 30.5715977,172.708171 L39.4152545,177.890401 C40.1254573,178.307914 40.8557366,178.692533 41.6035827,179.051847 C41.6111113,179.054378 41.6211495,179.059439 41.6286782,179.064499 C42.0327158,179.256809 42.4568299,179.421284 42.8709058,179.59588 C43.204676,179.737582 43.5284081,179.891935 43.8646879,180.020985 C44.2762542,180.175339 44.7028778,180.304388 45.1244823,180.443559 C45.4908767,180.565018 45.8447234,180.699128 46.2186464,180.807935 C46.7381234,180.959758 47.2776768,181.078686 47.8122111,181.205205 C48.0932808,181.270996 48.3668218,181.354498 48.6554202,181.415227 C49.3304893,181.554399 50.0206158,181.658144 50.7182709,181.75683 C50.873863,181.779603 51.0244361,181.815028 51.1800282,181.835271 C51.1825377,181.837802 51.1875568,181.837802 51.1900664,181.837802 C51.2001046,181.837802 51.2076333,181.837802 51.2176715,181.840332 C52.5176187,182.002277 53.8577188,182.073128 55.2178953,182.093371 C55.4563026,182.095901 55.6871813,182.106023 55.9280981,182.103895 C57.2531409,182.098432 58.6057888,182.01999 59.9835321,181.875758 C60.0989714,181.863106 60.2043726,181.868166 60.3198119,181.855515 C60.475404,181.840332 60.6360153,181.797316 60.7916074,181.777073 C62.1818985,181.605006 63.5897565,181.384863 65.0252195,181.068565 C65.050315,181.063504 65.0754105,181.055913 65.0979964,181.050852 C66.5158926,180.737084 67.9613938,180.334753 69.4169332,179.879283 C69.5875827,179.826145 69.7557226,179.795781 69.926372,179.742643 C70.1070597,179.681913 70.295276,179.611063 70.4759636,179.547803 C70.892549,179.411162 71.311644,179.259339 71.730739,179.110046 C72.2803306,178.912676 72.8274126,178.710245 73.3820234,178.492632 C73.8237043,178.320566 74.2678948,178.143439 74.7120852,177.956191 C75.2566577,177.730986 75.8037398,177.4906 76.3533314,177.245152 C76.802541,177.042721 77.2517506,176.840291 77.7059792,176.625208 C78.2681186,176.359517 78.8377866,176.073584 79.4049451,175.78765 C79.8441164,175.564976 80.2807783,175.347363 80.7199496,175.114568 C80.8680131,175.036126 81.0110575,174.970336 81.159121,174.891894 C81.9395913,174.469319 82.7275902,174.029032 83.5180987,173.568502 C84.6900589,172.887828 85.8519808,172.164138 87.0063742,171.417674 C87.3552017,171.19247 87.7015197,170.949553 88.0503473,170.716758 C88.8508939,170.182846 89.6514406,169.638813 90.4469682,169.077068 C90.8585345,168.781013 91.2675913,168.477367 91.676648,168.176251 C92.4019082,167.642339 93.1246588,167.100837 93.8398808,166.544152 C94.2665044,166.212672 94.6906185,165.87613 95.112223,165.537059 C95.8148972,164.975313 96.5075332,164.400916 97.2001692,163.816397 C97.4661815,163.593723 97.7347035,163.383701 97.9982063,163.158496 C98.1010979,163.069933 98.1989704,162.968717 98.3018619,162.877623 C99.9029553,161.488442 101.481463,160.03347 103.034875,158.532952 C103.280811,158.292565 103.524237,158.054709 103.767663,157.814322 C105.321075,156.285969 106.841863,154.709539 108.335046,153.079971 C108.550867,152.847175 108.761669,152.609319 108.974981,152.371463 C110.483221,150.698878 111.963856,148.983277 113.406848,147.217068 C113.564949,147.024758 113.715522,146.829919 113.871115,146.63761 C115.356769,144.795489 116.812308,142.917943 118.217656,140.987259 C118.232714,140.967016 118.247771,140.949303 118.262828,140.93159 C118.333096,140.832905 118.400854,140.73169 118.471121,140.630474 C119.447336,139.284309 120.398456,137.91284 121.334518,136.526189 C121.600531,136.131449 121.864034,135.736709 122.130046,135.336908 C123.05858,133.930014 123.972056,132.507937 124.857928,131.065617 C124.928195,130.95175 125.000972,130.840413 125.073749,130.724015 C126.01483,129.183011 126.923288,127.616702 127.811669,126.040272 C128.042547,125.625289 128.273426,125.210305 128.501795,124.795322 C129.239603,123.456748 129.954825,122.113114 130.647461,120.759357 C130.760391,120.539214 130.885868,120.326661 130.996289,120.106518 C131.028913,120.045789 131.056518,119.977468 131.086632,119.916739 C132.170758,117.770972 133.189636,115.607492 134.165851,113.4263 C134.291329,113.140367 134.421825,112.859494 134.547303,112.57356 C135.490894,110.425263 136.371746,108.264314 137.202408,106.093243 C137.272675,105.911055 137.35549,105.731398 137.425758,105.54921 C137.478458,105.404978 137.52363,105.258216 137.576331,105.111453 C138.276495,103.244029 138.933998,101.369013 139.546328,99.4914674 C139.674315,99.0941968 139.794773,98.7045175 139.920251,98.3097773 C140.522543,96.3968059 141.09723,94.4813041 141.606669,92.5658023 L141.634274,92.4620565 C141.651841,92.3962665 141.664389,92.3330069 141.681956,92.2646864 C142.171318,90.397262 142.602961,88.5348983 142.99696,86.6725345 C143.079775,86.2955071 143.1651,85.9159493 143.240387,85.5389219"/>
        <polygon fill="#513689" points="115.341 75.85 106.498 70.668 80.684 85.696 89.528 90.875"/>
        <path fill="url(#time-f)" d="M80.5776581,47.9341042 L77.9024771,49.4902913 C77.7167703,49.2625566 77.5461209,49.0171092 77.4106051,48.7235845 C77.3930383,48.6906895 77.3880192,48.6451425 77.3729619,48.6097171 C77.2399557,48.3010101 77.1220068,47.9644688 77.0492298,47.5899718 C77.0241343,47.4634525 77.0266439,47.3141598 77.009077,47.1825797 C76.9664146,46.8688119 76.9162236,46.5601049 76.9162236,46.2083813 C76.9162236,45.7301385 76.958886,45.2367133 77.0341725,44.7382273 C77.0542489,44.6192992 77.0868731,44.5003711 77.1069495,44.381443 C77.1772169,44.0221283 77.255013,43.6628135 77.3579045,43.298438 C77.405586,43.121311 77.4708343,42.944184 77.5260444,42.7670571 C77.6264265,42.4608804 77.7393563,42.1572342 77.8623242,41.8535879 C77.9551776,41.6258532 78.0555596,41.4006489 78.1609608,41.177975 C78.2688715,40.9477099 78.3818012,40.7199752 78.5022597,40.4973013 C78.841049,39.8621745 79.2049339,39.2346389 79.6265384,38.657711 C79.6315575,38.6501199 79.6365766,38.6399984 79.6415957,38.6324072 C79.6817485,38.5817995 79.7244109,38.5362525 79.7645637,38.4856448 C80.0481429,38.106087 80.3417603,37.7417115 80.6554542,37.4026399 C80.7834413,37.2609383 80.9239761,37.1394798 81.0569823,37.0104301 C81.287861,36.7776346 81.5187396,36.5473696 81.7646756,36.3424083 C82.203847,35.9679113 82.6580757,35.6364308 83.1298712,35.3580884 C83.4536032,35.1708399 83.762278,35.046851 84.0734623,34.9203317 C84.1939207,34.8722544 84.3219078,34.803934 84.4423662,34.7609174 C84.8137797,34.6369285 85.175155,34.561017 85.521473,34.5255916 C85.6143264,34.51547 85.6996511,34.5306523 85.7899949,34.5255916 C86.0384405,34.5180004 86.2768478,34.5255916 86.5027073,34.5660777 C86.6708472,34.593912 86.8214203,34.6495805 86.979522,34.7027186 C87.1777765,34.7685086 87.3835596,34.8216467 87.5617377,34.9253925 L78.718081,29.743163 C78.6453041,29.7001465 78.5700175,29.6596603 78.494731,29.6267653 C78.3893299,29.5761576 78.2638524,29.5635057 78.1509226,29.5255499 C77.9878018,29.4698814 77.8271905,29.4116825 77.6540315,29.3813179 C77.6113692,29.3737267 77.578745,29.3509533 77.5335731,29.3458925 C77.3528854,29.3256494 77.1521214,29.3383013 76.9563764,29.3433621 C76.8610135,29.3458925 76.7706697,29.3332406 76.6753068,29.3433621 C76.6552303,29.3458925 76.6376635,29.3408317 76.6175871,29.3433621 C76.3089123,29.3787875 75.9851803,29.4496383 75.6514101,29.5559145 C75.6338432,29.5609753 75.6137668,29.5736272 75.5987095,29.578688 C75.4807606,29.6191741 75.3552831,29.6874945 75.2348246,29.7381023 C74.9989269,29.8317265 74.7680482,29.9126988 74.5246218,30.0442789 C74.4468257,30.0872954 74.3640105,30.1328424 74.2862145,30.1758589 C73.819438,30.451671 73.3652094,30.7856818 72.926038,31.1551181 C72.8934138,31.1829524 72.8607897,31.1981347 72.8281655,31.2234385 C72.6023059,31.4208086 72.3915037,31.6460129 72.1756823,31.8610957 C72.0552239,31.9800238 71.9322559,32.0863 71.8168166,32.2128192 C71.4755177,32.5847859 71.1517856,32.9769957 70.84813,33.3894485 C70.8330727,33.4096916 70.8155058,33.4274043 70.8004485,33.445117 C70.8004485,33.4501777 70.797939,33.4527081 70.7954294,33.4552385 C70.7853912,33.4678904 70.7803721,33.4830728 70.7703339,33.4982551 C70.3537485,34.0701222 69.9898637,34.6875362 69.6560934,35.3176022 C69.6159406,35.3960442 69.5557114,35.466895 69.5155586,35.5478673 C69.4427816,35.6895689 69.3925906,35.8388616 69.3248327,35.9805632 C69.2144125,36.2158891 69.1090114,36.4486845 69.0136484,36.6890711 C68.965967,36.7978777 68.9107568,36.9041539 68.8680945,37.0154909 C68.7978271,37.2027394 68.7476361,37.3899879 68.6874068,37.5772365 C68.6271776,37.7568938 68.5669484,37.9314904 68.5142478,38.1086174 C68.496681,38.1819986 68.4640568,38.2579101 68.4439804,38.3312913 C68.3686939,38.6197553 68.3185029,38.9107496 68.2658023,39.1966832 C68.2432164,39.3181417 68.2105922,39.4421305 68.1905158,39.5585283 C68.1880062,39.5838321 68.1804776,39.609136 68.177968,39.6319095 C68.1077006,40.1025612 68.0725669,40.5732129 68.0749509,41.0286822 L68.0749509,41.0641076 C68.077586,41.3297981 68.1202484,41.5550024 68.1453439,41.795389 C68.1679298,42.0003503 68.1704394,42.2255546 68.2055731,42.4128031 C68.250745,42.6253555 68.3285411,42.7974217 68.3912798,42.9872006 C68.4489995,43.1744491 68.4916619,43.3794103 68.5694579,43.5489462 C68.6673304,43.7564378 68.8003366,43.9183825 68.920795,44.0955094 C68.9960816,44.204316 69.0538012,44.3358961 69.1366164,44.4320507 C69.3574569,44.6876196 69.6109215,44.8976416 69.8894816,45.0595863 L77.679127,49.6218713 L68.1127197,55.1912497 L68.2607832,107.393102 L77.1019304,112.575332 L76.958886,60.3734792 L89.4213148,53.118864 L80.5776581,47.9341042 Z"/>
        <path fill="#51357F" d="M26.4238123,137.26329 C26.3284494,137.007722 26.2280674,136.754683 26.1678381,136.458628 C26.1076089,136.162573 26.0925516,135.826032 26.0724752,135.492021 C26.0649466,135.347789 26.034832,135.221269 26.034832,135.071977 C26.034832,134.593734 26.0749848,134.102839 26.1527808,133.606883 C26.1703477,133.477834 26.207991,133.346254 26.2305769,133.214674 C26.2983348,132.86042 26.3761309,132.498575 26.4790224,132.13926 C26.5292135,131.964663 26.5869331,131.795127 26.6471623,131.623061 C26.7450348,131.319415 26.8529455,131.020829 26.9759135,130.722244 C27.0712764,130.484388 27.1766775,130.251592 27.2870978,130.018797 C27.3924989,129.796123 27.5029191,129.575979 27.6183585,129.358366 C27.9420905,128.740952 28.3009563,128.13872 28.7075035,127.574444 C28.7275799,127.54661 28.7426372,127.518776 28.7627136,127.490942 C28.7852995,127.458047 28.8129046,127.430212 28.8354906,127.399848 C29.1341271,126.994986 29.4503305,126.612898 29.7815912,126.253583 C29.8869923,126.137186 30.0049412,126.041031 30.1128519,125.929694 C30.3638069,125.674125 30.6197811,125.421086 30.8857935,125.198413 C31.3274744,124.828976 31.7791935,124.494965 32.2484795,124.221684 C32.5671925,124.036966 32.8758672,123.912977 33.1820324,123.788988 C33.3075099,123.73585 33.4405161,123.664999 33.5659937,123.621982 C33.9374072,123.500524 34.2987825,123.419552 34.6400814,123.386657 C34.7354443,123.376535 34.820769,123.389187 34.9111128,123.386657 C35.1570488,123.379065 35.4004752,123.384126 35.6288443,123.422082 C35.7969842,123.449916 35.9500668,123.510645 36.105659,123.561253 C36.3039135,123.627043 36.5096966,123.677651 36.6853652,123.781397 L27.8391989,118.599167 C27.7689315,118.558681 27.693645,118.518195 27.6183585,118.482769 C27.5079382,118.432162 27.3774416,118.41951 27.2594927,118.379024 C27.1039006,118.328416 26.9533275,118.267687 26.7876972,118.242383 C26.7425253,118.234792 26.704882,118.209488 26.6622196,118.204427 C26.4614556,118.179123 26.2456342,118.194306 26.0323224,118.201897 C25.9545263,118.206957 25.8842589,118.194306 25.8064628,118.201897 C25.7838769,118.204427 25.76631,118.199366 25.7462336,118.201897 C25.4325398,118.239852 25.1113173,118.308173 24.7775471,118.416979 C24.7599802,118.42204 24.7399038,118.434692 24.7198274,118.442283 C24.5943499,118.482769 24.4663628,118.556151 24.3383757,118.606758 C24.107497,118.697852 23.8816374,118.776294 23.6432301,118.905344 C23.5629245,118.94836 23.4851284,118.991377 23.4048228,119.039454 C22.9355368,119.312736 22.4838177,119.646747 22.0446463,120.016183 C22.0095126,120.041487 21.9768885,120.06173 21.9417547,120.089564 C21.7133856,120.286934 21.5000738,120.514669 21.2817429,120.734813 C21.1663036,120.85121 21.0433356,120.954956 20.9354249,121.076415 C20.6418075,121.392713 20.3682665,121.731784 20.1022541,122.080978 C20.0420249,122.16195 19.9717574,122.235331 19.9115282,122.318834 C19.4748664,122.921066 19.1134911,123.535949 18.7772113,124.166015 C18.7345489,124.252048 18.6718102,124.32543 18.6316574,124.408932 C18.5538613,124.558225 18.5011607,124.712578 18.4283838,124.864402 C18.3280017,125.082015 18.2301292,125.297098 18.1397854,125.517241 C18.092104,125.633639 18.0293652,125.747506 17.9867028,125.866434 C17.9114163,126.061274 17.8612253,126.261174 17.7984865,126.458544 C17.7407669,126.62555 17.6855567,126.790025 17.6353657,126.959561 C17.6152893,127.032942 17.5851747,127.106323 17.5650983,127.182235 C17.4847927,127.490942 17.4295826,127.797118 17.3743725,128.103295 C17.3568056,128.20451 17.326691,128.305726 17.3116337,128.404411 C17.3066146,128.432245 17.2990859,128.457549 17.2940668,128.482853 C17.226309,128.961096 17.1911752,129.429217 17.1911752,129.889747 C17.1936848,130.190863 17.2388567,130.416067 17.2639522,130.658984 C17.2840286,130.863946 17.2865382,131.08915 17.3241814,131.276398 C17.3693533,131.488951 17.4471494,131.661017 17.5073786,131.850796 C17.5676079,132.038044 17.6102702,132.243006 17.6880663,132.410011 C17.7859388,132.620033 17.9164354,132.784508 18.0394034,132.961635 C18.1146899,133.067911 18.1724096,133.202022 18.2552248,133.295646 C18.4785748,133.548685 18.7320394,133.758707 19.0105995,133.923182 L27.8517467,139.105411 C27.5731865,138.940936 27.3197219,138.730914 27.0988815,138.477875 C27.0687669,138.44245 27.0486904,138.386782 27.0160663,138.351356 C26.8328691,138.123622 26.6647292,137.878174 26.5292135,137.58971 C26.4840415,137.491025 26.4639651,137.367036 26.4238123,137.26329 Z"/>
        <path fill="url(#time-g)" d="M25.8295507,189.863679 C25.5409524,189.620761 25.2674114,189.352541 24.9838321,189.102032 C24.5346225,188.704762 24.0753748,188.315083 23.6412225,187.892508 C23.3325478,187.593923 23.046459,187.264973 22.7478224,186.953735 C22.3588421,186.548874 21.9598235,186.154133 21.5833909,185.726498 C21.2797353,185.379835 20.9986656,185.005338 20.7050482,184.646024 C20.3562206,184.220919 19.9973549,183.808466 19.6610751,183.365649 C19.3699672,182.9785 19.1014453,182.560986 18.8203756,182.161185 C18.5066817,181.713307 18.1829497,181.278081 17.8818036,180.81502 C17.605753,180.382324 17.3522884,179.921794 17.0837665,179.476446 C16.8052063,179.010855 16.516608,178.555386 16.2480861,178.072082 C15.9921119,177.60143 15.7537046,177.102945 15.5077686,176.61458 C15.2593231,176.123685 15.0008394,175.647973 14.7624321,175.141896 C14.5290439,174.633288 14.315732,174.096847 14.092382,173.573057 C13.8715416,173.059389 13.6406629,172.560903 13.4348797,172.029522 C13.2240775,171.49308 13.0408803,170.926274 12.8451353,170.37465 C12.6493904,169.828086 12.4461168,169.294175 12.2629196,168.732429 C12.0797224,168.163093 11.9216207,167.563391 11.7509712,166.976342 C11.5878504,166.407005 11.4096723,165.85032 11.2590993,165.263271 C11.098488,164.653448 10.9679914,164.015791 10.824947,163.390786 C10.6869217,162.796145 10.5438773,162.219217 10.4209093,161.614455 C10.2904127,160.976798 10.1900307,160.311307 10.0771009,159.658467 C9.96919021,159.035992 9.84873177,158.426169 9.7558784,157.791043 C9.65800592,157.125551 9.5877385,156.439817 9.50492333,155.759143 C9.4246177,155.103773 9.33427388,154.463586 9.26902556,153.795564 C9.20377724,153.107299 9.16362443,152.396261 9.11092386,151.695344 C9.06073285,151.007079 8.99799408,150.331466 8.96536992,149.630549 C8.92772666,148.919511 8.92019801,148.185699 8.9001216,147.459479 C8.8800452,146.667468 8.84491149,145.888109 8.84240194,145.080916 C8.83738284,143.653779 8.87000699,142.21905 8.92270756,140.77167 C8.94278397,140.273184 8.98293678,139.767107 9.00552273,139.266091 C9.0582233,138.314666 9.10590476,137.365771 9.18119128,136.409285 C9.2263632,135.819706 9.29161151,135.230126 9.34431208,134.643076 C9.42712725,133.759972 9.50994243,132.876867 9.61283401,131.993763 C9.68310143,131.376349 9.7659166,130.756404 9.84873177,130.141521 C9.94660425,129.374814 10.0520054,128.608107 10.1674447,127.83887 C10.501215,125.622252 10.8927049,123.392982 11.3469335,121.156122 C11.4372774,120.710774 11.5351499,120.262896 11.6305128,119.815017 C12.1173656,117.53514 12.6443713,115.250202 13.2466634,112.965264 C13.9091848,110.455122 14.6143686,108.096802 15.3597051,105.743544 C15.4952209,105.315909 15.6257175,104.885743 15.7662524,104.455578 C16.5065698,102.180761 17.3020974,99.9110053 18.147816,97.6488407 C18.2958795,97.2566309 18.4489621,96.8644212 18.6020447,96.469681 C19.5958267,93.8659144 20.6548571,91.2722693 21.784155,88.6963368 C21.9372376,88.3522044 22.0978488,88.008072 22.2509314,87.6614092 C23.4228916,85.0399298 24.6500619,82.4361632 25.9500091,79.8602308 C26.1131299,79.5388718 26.2837794,79.2200432 26.4494097,78.9012147 C27.2926188,77.2589945 28.1609233,75.6243655 29.0543234,74.0074492 C29.3278644,73.5089632 29.5988959,73.0130077 29.877456,72.5195825 C30.9440151,70.6293846 32.0331601,68.7493082 33.1599483,66.8995964 C33.2603304,66.7376517 33.3657315,66.5782374 33.463604,66.4162927 C34.5100866,64.7184041 35.5866839,63.0432889 36.6833575,61.383356 C37.0146182,60.8823397 37.3483885,60.3813234 37.6846683,59.8853678 C38.7813419,58.2608604 39.8955825,56.6540656 41.0399376,55.075105 C41.1679247,54.8979781 41.2908927,54.7183207 41.4163702,54.5411937 C43.087731,52.2511949 44.819321,50.0168645 46.5860447,47.8306114 C46.7918278,47.5725121 46.9925919,47.3118824 47.2008846,47.0563135 C48.9123982,44.9636847 50.6690837,42.9267244 52.4609029,40.9429022 C52.739463,40.6316648 53.0180231,40.317897 53.3016024,40.0091899 C55.0708356,38.0759754 56.8802217,36.2060206 58.7172128,34.3942646 C59.0334162,34.0830271 59.3496196,33.7743201 59.6683325,33.4681435 C61.5128523,31.6791609 63.3899962,29.9509077 65.2997643,28.2935052 C65.7590121,27.8962347 66.2207694,27.5090857 66.6825268,27.1168759 C67.4880925,26.4387326 68.2961679,25.7681805 69.1117719,25.1128106 C69.6412871,24.6877059 70.1733118,24.2651315 70.7078461,23.8501483 C71.5410169,23.2049 72.3792069,22.5723036 73.2199064,21.9523592 C73.7393834,21.5728014 74.2563508,21.1881828 74.7783374,20.8162161 C75.6993425,20.1633767 76.6253667,19.5358411 77.5539005,18.9158966 C78.00311,18.6147807 78.4498101,18.3035433 78.9015292,18.012549 C80.2842916,17.1167925 81.6695636,16.2539311 83.0724025,15.439147 C84.1991907,14.7837771 85.3184504,14.1739542 86.4301813,13.5843744 C86.9496583,13.3085624 87.4666258,13.0504631 87.9835932,12.787303 C88.688777,12.433049 89.3914512,12.0813254 90.0916158,11.749845 C90.6035642,11.5069279 91.113003,11.2791933 91.6224418,11.0489282 C92.3175873,10.7376908 93.0102233,10.4365749 93.6978402,10.1481109 C94.2047694,9.93808895 94.7066796,9.73565811 95.2060802,9.54081843 C95.8962066,9.27006719 96.5838235,9.01449825 97.2664213,8.76905086 C97.7557837,8.59698465 98.2426365,8.42238805 98.7244703,8.26044338 C99.5074501,8.00234406 100.282901,7.76195744 101.058352,7.53422275 C101.379575,7.44059849 101.703307,7.33685268 102.02202,7.24828919 C103.131241,6.93958216 104.232934,6.66123976 105.322079,6.42338353 C106.519135,6.16781459 107.527974,5.98309645 108.529285,5.82368217 C108.863055,5.77054407 109.196825,5.73005791 109.530596,5.68451097 C110.250837,5.58329555 110.971078,5.49220167 111.681281,5.42135088 C112.07528,5.3833951 112.46426,5.35303047 112.853241,5.32266585 C113.5258,5.27458852 114.193341,5.23916313 114.855862,5.21385927 C115.227276,5.20120734 115.598689,5.18855542 115.965084,5.18349464 C116.680306,5.17590349 117.387999,5.19361619 118.088164,5.21892004 C118.384291,5.23157197 118.682927,5.23157197 118.976545,5.24928467 C119.965308,5.30495315 120.946542,5.38845587 121.9077,5.50991437 C122.168693,5.54533977 122.422158,5.60100825 122.680641,5.64149442 C123.446054,5.75283138 124.208958,5.86669872 124.954294,6.01852185 C126.108688,6.27409078 127.009616,6.49170393 127.887959,6.74980325 C129.077486,7.11923953 129.900619,7.38746039 130.708694,7.69616742 C131.082617,7.83786901 131.441483,8.01246561 131.807877,8.16428873 C132.344921,8.39202343 132.886984,8.60457581 133.408971,8.85508397 C134.30739,9.28271911 135.185733,9.74831004 136.041489,10.2493264 L127.197833,5.06709691 C126.347095,4.57114136 125.47879,4.1106112 124.5879,3.68297606 C123.74971,3.27811438 122.941635,2.94157311 122.121012,2.62274454 C120.971637,2.17233593 120.048123,1.8636289 119.107041,1.58781689 C118.160941,1.30947448 117.249974,1.08680056 116.331478,0.89196088 C115.362791,0.684469271 114.602398,0.570601925 113.836985,0.459264964 C113.575991,0.421309182 113.325036,0.363110316 113.061533,0.330215304 C112.095356,0.206226416 111.119141,0.122723696 110.130378,0.0670552151 C109.83927,0.0493425168 109.540634,0.0493425168 109.247016,0.0366905894 C108.541833,0.0113867346 107.836649,-0.00379557821 107.121427,0.00379557821 C106.752523,0.00632596369 106.381109,0.0189778911 106.012206,0.0341602039 C105.349684,0.0544032877 104.684653,0.0898286843 104.014603,0.140436394 C103.623113,0.17080102 103.229114,0.203696031 102.835114,0.241651813 C102.584159,0.264425282 102.343242,0.277077209 102.092287,0.30491145 C101.635549,0.355519159 101.163754,0.433961109 100.699487,0.499751131 C100.360697,0.54529807 100.021908,0.588314623 99.6780995,0.641452718 C98.6968652,0.800867003 97.7055927,0.983054757 96.7067915,1.19560714 C95.3892774,1.47901031 94.2926037,1.75735271 93.1884014,2.06352935 C92.8546312,2.15462323 92.5183514,2.26342981 92.1820716,2.36211484 C91.6400086,2.52152913 91.1029648,2.66829148 90.5558827,2.84541847 C90.3400613,2.91626926 90.1167113,3.00230237 89.8958709,3.07315316 C89.4014894,3.2401586 88.9045983,3.41728558 88.4051977,3.59441257 C87.7326381,3.83732957 87.0550595,4.08783773 86.3724617,4.35352821 C85.868042,4.55089828 85.3611127,4.7558595 84.8516739,4.96841188 C84.164057,5.25687582 83.471421,5.55546131 82.778785,5.86669872 C82.2718558,6.0969638 81.7649266,6.32722888 81.2504687,6.56508511 C80.5477945,6.899096 79.8426107,7.25081958 79.137427,7.61013431 C78.6204595,7.87076402 78.1060016,8.12633295 77.5890342,8.40467535 C77.4133656,8.49576923 77.2427162,8.57421118 77.0670476,8.66783544 C76.1259661,9.17644292 75.182375,9.7027631 74.2312553,10.2569175 C72.8284165,11.074232 71.4406349,11.9345631 70.060382,12.8303195 C69.6061533,13.1213139 69.1569438,13.4350817 68.7052246,13.7361975 C67.78171,14.3536116 66.8581953,14.9786168 65.9422093,15.6289259 C65.4152037,16.0059533 64.8932171,16.3931023 64.368721,16.7802513 C63.5305311,17.3976653 62.6973602,18.0226705 61.8717181,18.6653885 C61.3346742,19.0829021 60.8001399,19.5054764 60.2681151,19.9305812 C59.4474921,20.5910118 58.6318881,21.2666247 57.8213032,21.9523592 C57.4950616,22.2281712 57.1612914,22.4837401 56.8375593,22.7646129 C56.7120818,22.8734195 56.5916234,22.9923476 56.4686554,23.1011542 C54.5513586,24.7661478 52.666686,26.5019923 50.8121281,28.298566 C50.5034533,28.5971514 50.1947786,28.8957369 49.8861038,29.2019136 C48.0415841,31.0187303 46.2271789,32.8988067 44.450417,34.837082 C44.1743664,35.1381979 43.9033349,35.4443745 43.6272844,35.7480208 C41.8304461,37.7419645 40.0662319,39.7814552 38.3522088,41.8842056 C38.1514447,42.129653 37.9556998,42.3826915 37.7549357,42.6281389 C35.9756642,44.8321046 34.2340361,47.0816173 32.5526371,49.3893289 C31.1171741,51.3756815 29.9627807,53.0381447 28.8284638,54.7208511 C28.4997127,55.2092155 28.1709615,55.6975799 27.8472295,56.191005 C26.7530654,57.8458771 25.6789777,59.5159316 24.6375141,61.2087594 C24.532113,61.3808256 24.4191832,61.5528919 24.3137821,61.7249581 C23.1895034,63.5670787 22.1053775,65.4370336 21.0438375,67.31711 C20.7577487,67.8257175 20.476679,68.3393857 20.1930998,68.8505236 C19.3147571,70.4471968 18.4590003,72.0539916 17.628339,73.6734383 C17.4928232,73.9365984 17.3447598,74.1972281 17.209244,74.4603882 C15.7938574,77.2767072 14.5641776,79.888065 13.3871983,82.5196659 C13.2441539,82.8435552 13.0935808,83.1674446 12.953046,83.4913339 C11.8187291,86.064736 10.7647178,88.6583811 9.7659166,91.2621477 C9.67808232,91.4898824 9.57268119,91.7150867 9.48735647,91.9428214 C9.41708905,92.1275395 9.36187893,92.3122577 9.29412107,92.4944454 C8.45593113,94.7388974 7.66542265,96.9909404 6.93012429,99.2429835 C6.7870799,99.6933921 6.64905461,100.143801 6.50601022,100.591679 C5.76067366,102.944937 5.05799946,105.300726 4.43563089,107.653985 C3.81075276,110.014834 3.27370891,112.34785 2.77932741,114.675805 C2.68898359,115.100909 2.59613021,115.526014 2.51080549,115.951119 C2.05406726,118.198101 1.6600678,120.437492 1.323788,122.669292 C1.150629,123.77254 1.08538068,124.349468 1.01009416,124.928926 C0.927278988,125.558992 0.839444713,126.189058 0.766667743,126.816594 C0.663776164,127.70729 0.58096099,128.595455 0.500655367,129.47856 C0.445445252,130.058018 0.385216034,130.634946 0.337534571,131.211874 C0.259738499,132.224028 0.207037934,133.231121 0.154337369,134.235684 C0.131751412,134.678502 0.0991272532,135.12638 0.0815603982,135.566667 C0.0263502825,137.019108 -0.00376432607,138.463958 0.000713299088,139.898687 C0.00627387678,140.991813 0.0414075868,141.62694 0.0589744418,142.27978 C0.0790508475,143.00347 0.0865794996,143.737282 0.12171321,144.44832 C0.15684692,145.149237 0.217076137,145.822319 0.267267151,146.510584 C0.319967716,147.211501 0.360120527,147.92507 0.425368846,148.613334 C0.493126715,149.286417 0.583470541,149.934196 0.663776164,150.594626 C0.744081786,151.267709 0.816858757,151.948383 0.914731235,152.603752 C1.00758461,153.254061 1.1305526,153.876536 1.24097283,154.511663 C1.35139306,155.151851 1.45177509,155.80216 1.57474307,156.429695 C1.70022061,157.047109 1.85079365,157.636689 1.98881894,158.243982 C2.12935378,158.856335 2.25985042,159.48134 2.41293301,160.078511 C2.5660156,160.665561 2.74168415,161.222245 2.90982405,161.794112 C3.07796395,162.381162 3.2385752,162.980863 3.4217724,163.55273 C3.5999505,164.111946 3.80573366,164.645857 3.99896906,165.18989 C4.19471402,165.744044 4.38293032,166.30832 4.59122303,166.847292 C4.80202529,167.381204 5.03290395,167.889811 5.25625397,168.41107 C5.47709443,168.927269 5.68789669,169.45865 5.92128491,169.962197 C6.15969222,170.473335 6.42319505,170.956638 6.67415012,171.452594 C6.91757654,171.930837 7.14845521,172.424262 7.40442938,172.887322 C7.67546086,173.378217 7.96656874,173.841278 8.25265752,174.31446 C8.51365079,174.752216 8.76711542,175.207686 9.04065644,175.63026 C9.33929298,176.095851 9.66302502,176.531077 9.97671886,176.978956 C10.2577885,177.378757 10.52882,177.79627 10.8199279,178.18595 C11.1612268,178.636358 11.5251116,179.056402 11.8789583,179.489098 C12.1675566,179.840822 12.4436072,180.205197 12.7422437,180.544269 C13.1236955,180.979495 13.5277331,181.379296 13.9242421,181.791749 C14.2178596,182.097925 14.4989292,182.419284 14.8000753,182.712809 C15.2467754,183.145505 15.7160613,183.547836 16.1828378,183.957759 C16.4513597,184.195615 16.712353,184.451184 16.9884036,184.681449 C17.5229379,185.124267 18.0825677,185.531659 18.6371784,185.941581 C18.8630379,186.106056 19.0788593,186.290774 19.3072284,186.450188 C20.1002464,187.009404 20.9158504,187.530663 21.7490213,188.019027 L30.5901684,193.201257 C29.7569976,192.712893 28.9439031,192.191633 28.1483756,191.632418 C27.9124778,191.467943 27.6866182,191.273103 27.4507205,191.101037 C26.906148,190.698706 26.3565564,190.298905 25.8295507,189.863679 Z"/>
        <g transform="translate(8.427 4.343)">
          <mask id="time-j" fill="#fff">
            <use xlink:href="#time-h"/>
          </mask>
          <path fill="url(#time-i)" d="M75.0916434,169.225966 C40.8990149,189.129978 12.992811,173.094926 12.882047,133.479211 C12.769461,93.8660261 40.4949772,45.4445696 74.6876057,25.5405575 C108.880234,5.63654535 136.786438,21.6715981 136.897187,61.2847827 C137.007279,100.900498 109.284272,149.321954 75.0916434,169.225966 M74.6449433,11.0971172 C33.581165,35.0041992 0.281936616,93.1575181 0.414545739,140.736356 C0.550458542,188.317725 34.0655083,207.573958 75.1317962,183.669407 C116.198084,159.762325 149.494803,101.609006 149.364689,54.0301675 C149.228791,6.43867754 115.706212,-12.804904 74.6449433,11.0971172" mask="url(#time-j)"/>
        </g>
        <path fill="url(#time-k)" d="M83.4621357,153.649308 C80.0190321,155.653373 77.2409595,160.509183 77.2484729,164.499601 C77.2610359,168.490018 80.0591849,170.096813 83.5047981,168.092748 C86.9479016,166.086152 89.7259743,161.235403 89.7134689,157.242455 C89.7033883,153.252037 86.9052393,151.645242 83.4621357,153.649308"/>
        <path fill="url(#time-l)" d="M134.34428,64.7869775 C130.901177,66.7935732 128.120594,71.6468526 128.130606,75.6372705 C128.140671,79.6276883 130.941329,81.2344831 134.384433,79.2304178 C137.812479,77.2339437 140.608119,72.3705428 140.595613,68.3801249 C140.585533,64.389707 137.772326,62.7905034 134.34428,64.7869775"/>
        <polygon fill="url(#time-m)" points="89.528 90.877 89.422 53.118 76.957 60.373 77.103 112.575 115.384 90.295 115.341 75.851"/>
        <path fill="url(#time-n)" d="M32.2492324,124.221178 C28.8036193,126.227773 26.0255466,131.081053 26.03306,135.071471 C26.045623,139.061888 28.8437721,140.671214 32.2893852,138.664618 C35.7349983,136.658022 38.513071,131.804743 38.5005656,127.814325 C38.4879755,123.823907 35.692336,122.217112 32.2492324,124.221178"/>
        <path fill="url(#time-o)" d="M83.1705259,49.8022878 C86.6136295,47.7982225 89.3942117,42.9424128 89.3842006,38.9519949 C89.3716257,34.9818201 86.5709671,33.3547822 83.1278635,35.3588475 C79.68476,37.3654432 76.9066873,42.2364352 76.9166984,46.2091404 C76.9292733,50.1995583 79.7249128,51.8063531 83.1705259,49.8022878"/>
      </g>
    </g>
  </g>
</svg>
