<?xml version="1.0" encoding="UTF-8"?>
<svg width="20px" height="21px" viewBox="0 0 20 21" version="1.1" xmlns="http://www.w3.org/2000/svg" xmlns:xlink="http://www.w3.org/1999/xlink">
    <title>Facebook</title>
    <g id="Page-1" stroke="none" stroke-width="1" fill="none" fill-rule="evenodd">
        <g id="Screens/Desktop-Design" transform="translate(-400.000000, -2441.000000)" fill="#7F67A0">
            <g id="Footer" transform="translate(0.000000, 2317.329852)">
                <g id="Content" transform="translate(64.000000, 59.956788)">
                    <path d="M346.682648,84 L337.103846,84 C336.49403,84 336,83.5056631 336,82.8960845 L336,65.1038379 C336,64.494104 336.494108,64 337.103846,64 L354.896231,64 C355.505815,64 356,64.494104 356,65.1038379 L356,82.8960845 C356,83.5057407 355.505737,84 354.896231,84 L349.799711,84 L349.799711,76.2548978 L352.399384,76.2548978 L352.788648,73.236494 L349.799711,73.236494 L349.799711,71.3094339 C349.799711,70.4355364 350.04238,69.840004 351.295537,69.840004 L352.89388,69.8393056 L352.89388,67.1396211 C352.617452,67.1028368 351.66866,67.0206543 350.564813,67.0206543 C348.260348,67.0206543 346.682648,68.4273026 346.682648,71.0105037 L346.682648,73.236494 L344.076301,73.236494 L344.076301,76.2548978 L346.682648,76.2548978 L346.682648,84 L346.682648,84 Z" id="Facebook"></path>
                </g>
            </g>
        </g>
    </g>
</svg>