<?xml version="1.0" encoding="UTF-8"?>
<svg width="20px" height="18px" viewBox="0 0 20 18" version="1.1" xmlns="http://www.w3.org/2000/svg" xmlns:xlink="http://www.w3.org/1999/xlink">
    <title>Medium</title>
    <g id="Page-1" stroke="none" stroke-width="1" fill="none" fill-rule="evenodd">
        <g id="Screens/Desktop-Design" transform="translate(-400.000000, -2514.000000)">
            <g id="Footer" transform="translate(0.000000, 2317.329852)">
                <g id="Content" transform="translate(64.000000, 59.956788)">
                    <g id="Medium" transform="translate(336.000000, 137.000000)">
                        <path d="M13.8275472,0.203101852 C13.5267925,0.0518194444 13.2807547,0.204810185 13.2807547,0.543060185 L13.2807547,13.9988426 L18.7692453,16.7596991 C19.3732075,17.0634028 19.8628302,16.8508102 19.8628302,16.2847824 L19.8628302,3.32726389 C19.8628302,3.27316667 19.8322642,3.22343519 19.7841509,3.19913889 L13.8275472,0.203101852" id="Fill-1" fill="#7F67A0"></path>
                        <path d="M6.69886792,10.6880926 L12.9603774,0.451759259 C13.1366038,0.16362037 13.5267925,0.0518194444 13.8275472,0.203101852 L19.7909434,3.20255556 C19.8296226,3.22210648 19.8433962,3.27069907 19.8207547,3.30771296 L13.2807547,13.9988426 L6.69886792,10.6880926" id="Fill-2" fill="#5F4681"></path>
                        <path d="M1.02811321,0.386462963 C0.526792453,0.134199074 0.356981132,0.320787037 0.650754717,0.801018519 L6.69886792,10.6880926 L13.2807547,13.9988426 L6.71301887,3.26196759 C6.70377358,3.24678241 6.69037736,3.23463426 6.6745283,3.22666204 L1.02811321,0.386462963" id="Fill-3" fill="#7F67A0"></path>
                        <path d="M6.69886792,16.2847824 C6.69886792,16.8485324 6.28867925,17.1034537 5.78754717,16.8513796 L0.663584906,14.2738843 C0.362830189,14.1226019 0.116792453,13.7220926 0.116792453,13.3838426 L0.116792453,0.748060185 C0.116792453,0.297060185 0.44490566,0.0930092593 0.845849057,0.294782407 L6.66339623,3.22096759 C6.68509434,3.23197685 6.69886792,3.25418519 6.69886792,3.27848148 L6.69886792,16.2847824" id="Fill-4" fill="#5F4681"></path>
                    </g>
                </g>
            </g>
        </g>
    </g>
</svg>