<svg width="20" height="18" xmlns="http://www.w3.org/2000/svg"><g fill="none" fill-rule="evenodd"><path d="M13.828.49c-.301-.152-.547.001-.547.34v13.455l5.488 2.761c.604.304 1.094.091 1.094-.475V3.614a.144.144 0 00-.079-.128L13.828.49" fill="#7F67A0"/><path d="M6.699 10.975L12.96.738a.68.68 0 01.868-.248l5.963 3c.039.019.052.067.03.104l-6.54 10.691-6.582-3.31" fill="#5F4681"/><path d="M1.028.673C.527.421.357.607.651 1.088l6.048 9.887 6.582 3.31L6.713 3.55a.095.095 0 00-.038-.036L1.028.673" fill="#7F67A0"/><path d="M6.699 16.571c0 .564-.41.82-.911.567L.664 14.561c-.301-.152-.547-.552-.547-.89V1.034C.117.584.445.38.846.58l5.817 2.927a.065.065 0 01.036.057v13.006" fill="#5F4681"/></g></svg>
