<svg width="20" height="18" xmlns="http://www.w3.org/2000/svg"><path d="M12.975 11.475a1.38 1.38 0 01-1.376-1.368c0-.756.629-1.389 1.376-1.389.748 0 1.354.633 1.354 1.389 0 .755-.606 1.368-1.354 1.368m.318 2.656c-.697.703-1.77 1.045-3.283 1.045l-.01-.001h-.011c-1.513 0-2.586-.341-3.282-1.044a.555.555 0 010-.781.543.543 0 01.773 0c.48.485 1.3.721 2.509.721l.01.001h.011c1.208 0 2.03-.237 2.51-.722a.542.542 0 01.773 0 .557.557 0 010 .78M5.67 10.108c0-.755.627-1.389 1.374-1.389.748 0 1.354.634 1.354 1.389s-.606 1.368-1.354 1.368a1.379 1.379 0 01-1.374-1.368M16.665 1.39c.506 0 .918.416.918.927a.924.924 0 01-.918.928.924.924 0 01-.918-.928c0-.51.412-.927.918-.927M20 8.604c0-1.34-1.078-2.43-2.404-2.43-.574 0-1.1.205-1.514.546-1.466-.931-3.326-1.492-5.32-1.611l1.04-3.323 2.859.68a2.021 2.021 0 002.004 1.884c1.108 0 2.01-.911 2.01-2.032 0-1.12-.902-2.031-2.01-2.031a2.01 2.01 0 00-1.784 1.097l-3.322-.79a.545.545 0 00-.645.37L9.623 5.09c-2.149.053-4.168.616-5.741 1.602a2.375 2.375 0 00-1.478-.516C1.078 6.175 0 7.265 0 8.605c0 .827.413 1.56 1.04 1.998a4.31 4.31 0 00-.04.583c0 1.674.964 3.232 2.712 4.386 1.677 1.106 3.896 1.715 6.247 1.715 2.352 0 4.571-.61 6.247-1.715 1.749-1.154 2.712-2.712 2.712-4.386a4.32 4.32 0 00-.034-.533A2.435 2.435 0 0020 8.604" fill="#7F67A0" fill-rule="evenodd"/></svg>
