<?xml version="1.0" encoding="UTF-8"?>
<svg width="20px" height="18px" viewBox="0 0 20 18" version="1.1" xmlns="http://www.w3.org/2000/svg" xmlns:xlink="http://www.w3.org/1999/xlink">
    <title>Reddit</title>
    <g id="Page-1" stroke="none" stroke-width="1" fill="none" fill-rule="evenodd">
        <g id="Screens/Desktop-Design" transform="translate(-400.000000, -2549.000000)" fill="#7F67A0">
            <g id="Footer" transform="translate(0.000000, 2317.329852)">
                <g id="Content" transform="translate(64.000000, 59.956788)">
                    <path d="M348.975,183.188466 C348.2275,183.188466 347.599375,182.575728 347.599375,181.820229 C347.599375,181.064729 348.2275,180.431778 348.975,180.431778 C349.7225,180.431778 350.32875,181.064729 350.32875,181.820229 C350.32875,182.575728 349.7225,183.188466 348.975,183.188466 M349.2925,185.844084 C348.59625,186.547154 347.5225,186.888897 346.01,186.888897 C346.006875,186.888897 346.003125,186.888265 345.999375,186.888265 C345.99625,186.888265 345.9925,186.888897 345.98875,186.888897 C344.47625,186.888897 343.403125,186.547154 342.7075,185.844084 C342.49375,185.628047 342.49375,185.278723 342.7075,185.063317 C342.920625,184.847912 343.26625,184.847912 343.48,185.063317 C343.96,185.548454 344.780625,185.784706 345.98875,185.784706 C345.9925,185.784706 345.99625,185.785337 345.999375,185.785337 C346.003125,185.785337 346.006875,185.784706 346.01,185.784706 C347.218125,185.784706 348.039375,185.548454 348.52,185.063317 C348.73375,184.84728 349.079375,184.847912 349.2925,185.063317 C349.505625,185.279355 349.505625,185.628679 349.2925,185.844084 M341.67125,181.820229 C341.67125,181.065361 342.298125,180.431778 343.045,180.431778 C343.7925,180.431778 344.39875,181.065361 344.39875,181.820229 C344.39875,182.575728 343.7925,183.188466 343.045,183.188466 C342.298125,183.188466 341.67125,182.575728 341.67125,181.820229 M352.665,173.104191 C353.17125,173.104191 353.583125,173.520474 353.583125,174.03151 C353.583125,174.543178 353.17125,174.95946 352.665,174.95946 C352.15875,174.95946 351.746875,174.543178 351.746875,174.03151 C351.746875,173.520474 352.15875,173.104191 352.665,173.104191 M356,180.317442 C356,178.977631 354.921875,177.887968 353.59625,177.887968 C353.0225,177.887968 352.495625,178.092635 352.081875,178.433115 C350.61625,177.502007 348.75625,176.941067 346.7625,176.82231 L347.8025,173.498997 L350.660625,174.179325 C350.735625,175.231087 351.605625,176.063652 352.665,176.063652 C353.773125,176.063652 354.675,175.152125 354.675,174.03151 C354.675,172.911526 353.773125,172 352.665,172 C351.89,172 351.21625,172.445972 350.880625,173.097243 L347.559375,172.307001 C347.28125,172.240673 347,172.402386 346.91375,172.677802 L345.6225,176.802727 C343.474375,176.855789 341.455,177.418624 339.881875,178.404058 C339.47375,178.081265 338.960625,177.887968 338.40375,177.887968 C337.078125,177.887968 336,178.977631 336,180.317442 C336,181.145586 336.4125,181.877713 337.040625,182.316104 C337.014375,182.508769 337.000625,182.702698 337.000625,182.899153 C337.000625,184.573759 337.96375,186.131503 339.7125,187.284966 C341.38875,188.391052 343.6075,189 345.959375,189 C348.31125,189 350.53,188.391052 352.20625,187.284966 C353.955,186.131503 354.918125,184.573759 354.918125,182.899153 C354.918125,182.720385 354.90625,182.54288 354.884375,182.366639 C355.554375,181.935196 356,181.177802 356,180.317442" id="Reddit"></path>
                </g>
            </g>
        </g>
    </g>
</svg>