<?xml version="1.0" encoding="UTF-8"?>
<svg width="20px" height="20px" viewBox="0 0 20 20" version="1.1" xmlns="http://www.w3.org/2000/svg" xmlns:xlink="http://www.w3.org/1999/xlink">
    <title>Telegram</title>
    <g id="Page-1" stroke="none" stroke-width="1" fill="none" fill-rule="evenodd">
        <g id="Screens/Desktop-Design" transform="translate(-400.000000, -2621.000000)" fill="#7F67A0">
            <g id="Footer" transform="translate(0.000000, 2317.329852)">
                <g id="Content" transform="translate(64.000000, 59.956788)">
                    <g id="Telegram" transform="translate(336.000000, 244.000000)">
                        <path d="M19.4291789,1.20239737 C19.5291619,1.44152174 19.5548142,1.70521424 19.5027943,1.95912564 L16.3597327,17.3005245 C16.2524617,17.824118 15.741045,18.1616141 15.2174515,18.0543432 C15.0779157,18.0257558 14.9464106,17.9667197 14.8323218,17.8814483 L10.1711821,14.3976517 L7.96079163,16.4825298 C7.57198743,16.8492566 6.95950856,16.8313593 6.59278179,16.4425551 C6.50073625,16.3449683 6.42998478,16.2293106 6.38501863,16.1029238 L4.51860916,10.8569904 L0.644585872,9.4839746 C0.140820272,9.30543202 -0.122825078,8.75231195 0.0557175017,8.24854635 C0.146933011,7.99117785 0.342630785,7.78432109 0.594550871,7.67898789 L17.7409744,0.509699417 C18.3984425,0.234797887 19.1542774,0.544929323 19.4291789,1.20239737 Z M15.1692981,4.06625187 L5.45693674,10.2306735 L7.14229461,15.2950164 L7.59590867,12.3300596 L15.3315673,4.26450876 C15.3808948,4.21307771 15.3791895,4.1313968 15.3277584,4.08206935 C15.2848792,4.04094393 15.2194605,4.03441385 15.1692981,4.06625187 Z" id="Combined-Shape"></path>
                    </g>
                </g>
            </g>
        </g>
    </g>
</svg>