<?xml version="1.0" encoding="UTF-8"?>
<svg width="20px" height="18px" viewBox="0 0 20 18" version="1.1" xmlns="http://www.w3.org/2000/svg" xmlns:xlink="http://www.w3.org/1999/xlink">
    <title>Twitter</title>
    <g id="Page-1" stroke="none" stroke-width="1" fill="none" fill-rule="evenodd">
        <g id="Screens/Desktop-Design" transform="translate(-400.000000, -2479.000000)" fill="#7F67A0">
            <g id="Footer" transform="translate(0.000000, 2317.329852)">
                <g id="Content" transform="translate(64.000000, 59.956788)">
                    <path d="M353.643951,104.68783 C354.491518,104.157385 355.141868,103.316287 355.44826,102.314337 C354.654693,102.805489 353.777778,103.162802 352.840993,103.354352 C352.094383,102.520621 351.027294,102 349.846334,102 C347.581851,102 345.744673,103.921632 345.744673,106.291441 C345.744673,106.62788 345.779891,106.954496 345.850326,107.268834 C342.440101,107.089563 339.417268,105.38281 337.392264,102.783388 C337.038915,103.419429 336.837002,104.157385 336.837002,104.943229 C336.837002,106.431419 337.561308,107.745251 338.662441,108.515132 C337.990961,108.494258 337.357046,108.299025 336.802958,107.979776 L336.802958,108.032575 C336.802958,110.112604 338.217527,111.847598 340.095792,112.24052 C339.751834,112.341206 339.389094,112.391549 339.014615,112.391549 C338.750484,112.391549 338.492223,112.365764 338.242179,112.315421 C338.764571,114.019718 340.278922,115.261105 342.075013,115.294258 C340.67101,116.446009 338.900745,117.132394 336.979046,117.132394 C336.648001,117.132394 336.320479,117.112748 336,117.073456 C337.816047,118.289057 339.973704,119 342.28984,119 C349.838117,119 353.96443,112.461538 353.96443,106.78996 C353.96443,106.603322 353.960909,106.416685 353.953865,106.233731 C354.755649,105.628386 355.451781,104.873239 356,104.012495 C355.265129,104.353846 354.47391,104.584688 353.643951,104.68783 Z" id="Twitter"></path>
                </g>
            </g>
        </g>
    </g>
</svg>