<svg width="20" height="18" xmlns="http://www.w3.org/2000/svg"><path d="M17.644 2.974A4.271 4.271 0 0019.448.601a7.989 7.989 0 01-2.607 1.04A4.012 4.012 0 0013.846.287c-2.264 0-4.101 1.921-4.101 4.291 0 .337.035.663.105.977C6.44 5.376 3.417 3.67 1.392 1.07a4.438 4.438 0 00-.555 2.16c0 1.488.724 2.802 1.825 3.572a3.97 3.97 0 01-1.859-.536v.053c0 2.08 1.415 3.815 3.293 4.208a3.84 3.84 0 01-1.081.151 3.91 3.91 0 01-.773-.076c.523 1.704 2.037 2.946 3.833 2.979A8.004 8.004 0 010 15.36a11.265 11.265 0 006.29 1.926c7.548 0 11.674-6.539 11.674-12.21 0-.187-.003-.374-.01-.557A8.523 8.523 0 0020 2.3a7.894 7.894 0 01-2.356.674z" fill="#7F67A0" fill-rule="evenodd"/></svg>
