<?xml version="1.0" encoding="UTF-8"?>
<svg width="20px" height="15px" viewBox="0 0 20 15" version="1.1" xmlns="http://www.w3.org/2000/svg" xmlns:xlink="http://www.w3.org/1999/xlink">
    <title>Youtube</title>
    <g id="Page-1" stroke="none" stroke-width="1" fill="none" fill-rule="evenodd">
        <g id="Screens/Desktop-Design" transform="translate(-400.000000, -2589.000000)" fill="#7F67A0">
            <g id="Footer" transform="translate(0.000000, 2317.329852)">
                <g id="Content" transform="translate(64.000000, 59.956788)">
                    <path d="M344.000617,221.625 L344,215.9375 L349.333333,218.791055 L344.000617,221.625 Z M355.8,215.019949 C355.8,215.019949 355.604375,213.648376 355.005,213.044386 C354.244375,212.2513 353.391875,212.247567 353.00125,212.201537 C350.2025,212 346.004375,212 346.004375,212 L345.995625,212 C345.995625,212 341.7975,212 338.99875,212.201537 C338.6075,212.247567 337.755625,212.2513 336.994375,213.044386 C336.395,213.648376 336.2,215.019949 336.2,215.019949 C336.2,215.019949 336,216.631004 336,218.241436 L336,219.751722 C336,221.362776 336.2,222.973208 336.2,222.973208 C336.2,222.973208 336.395,224.344782 336.994375,224.948771 C337.755625,225.741858 338.755,225.716977 339.2,225.799707 C340.8,225.952726 346,226 346,226 C346,226 350.2025,225.99378 353.00125,225.792242 C353.391875,225.74559 354.244375,225.741858 355.005,224.948771 C355.604375,224.344782 355.8,222.973208 355.8,222.973208 C355.8,222.973208 356,221.362776 356,219.751722 L356,218.241436 C356,216.631004 355.8,215.019949 355.8,215.019949 L355.8,215.019949 Z" id="Youtube"></path>
                </g>
            </g>
        </g>
    </g>
</svg>