<svg width="20" height="15" xmlns="http://www.w3.org/2000/svg"><path d="M8 9.912V4.224l5.333 2.854-5.332 2.834zm11.8-6.605s-.196-1.372-.795-1.976c-.76-.793-1.613-.797-2.004-.843-2.799-.201-6.997-.201-6.997-.201h-.008s-4.198 0-6.997.201c-.391.046-1.243.05-2.005.843C.395 1.935.2 3.307.2 3.307S0 4.917 0 6.528v1.51C0 9.65.2 11.26.2 11.26s.195 1.371.794 1.975c.762.793 1.761.769 2.206.851 1.6.153 6.8.2 6.8.2s4.202-.006 7.001-.207c.39-.047 1.243-.05 2.004-.844.6-.604.795-1.975.795-1.975s.2-1.61.2-3.222v-1.51c0-1.61-.2-3.221-.2-3.221z" fill="#7F67A0" fill-rule="evenodd"/></svg>
